%TF.GenerationSoftware,KiCad,Pcbnew,7.0.1-0*%
%TF.CreationDate,2023-04-17T18:48:32+01:00*%
%TF.ProjectId,cyborg65r2_thermo_pcb,6379626f-7267-4363-9572-325f74686572,rev?*%
%TF.SameCoordinates,Original*%
%TF.FileFunction,Copper,L1,Top*%
%TF.FilePolarity,Positive*%
%FSLAX46Y46*%
G04 Gerber Fmt 4.6, Leading zero omitted, Abs format (unit mm)*
G04 Created by KiCad (PCBNEW 7.0.1-0) date 2023-04-17 18:48:32*
%MOMM*%
%LPD*%
G01*
G04 APERTURE LIST*
G04 Aperture macros list*
%AMRoundRect*
0 Rectangle with rounded corners*
0 $1 Rounding radius*
0 $2 $3 $4 $5 $6 $7 $8 $9 X,Y pos of 4 corners*
0 Add a 4 corners polygon primitive as box body*
4,1,4,$2,$3,$4,$5,$6,$7,$8,$9,$2,$3,0*
0 Add four circle primitives for the rounded corners*
1,1,$1+$1,$2,$3*
1,1,$1+$1,$4,$5*
1,1,$1+$1,$6,$7*
1,1,$1+$1,$8,$9*
0 Add four rect primitives between the rounded corners*
20,1,$1+$1,$2,$3,$4,$5,0*
20,1,$1+$1,$4,$5,$6,$7,0*
20,1,$1+$1,$6,$7,$8,$9,0*
20,1,$1+$1,$8,$9,$2,$3,0*%
G04 Aperture macros list end*
%TA.AperFunction,ComponentPad*%
%ADD10R,1.785000X1.785000*%
%TD*%
%TA.AperFunction,ComponentPad*%
%ADD11C,2.400000*%
%TD*%
%TA.AperFunction,SMDPad,CuDef*%
%ADD12R,0.890000X1.020000*%
%TD*%
%TA.AperFunction,SMDPad,CuDef*%
%ADD13RoundRect,0.250000X0.250000X0.475000X-0.250000X0.475000X-0.250000X-0.475000X0.250000X-0.475000X0*%
%TD*%
%TA.AperFunction,SMDPad,CuDef*%
%ADD14RoundRect,0.250000X-0.250000X-0.475000X0.250000X-0.475000X0.250000X0.475000X-0.250000X0.475000X0*%
%TD*%
%TA.AperFunction,SMDPad,CuDef*%
%ADD15R,1.650000X2.850000*%
%TD*%
%TA.AperFunction,SMDPad,CuDef*%
%ADD16RoundRect,0.100000X-0.625000X-0.100000X0.625000X-0.100000X0.625000X0.100000X-0.625000X0.100000X0*%
%TD*%
%TA.AperFunction,SMDPad,CuDef*%
%ADD17RoundRect,0.250000X-0.262500X-0.450000X0.262500X-0.450000X0.262500X0.450000X-0.262500X0.450000X0*%
%TD*%
%TA.AperFunction,ComponentPad*%
%ADD18C,1.240000*%
%TD*%
%TA.AperFunction,SMDPad,CuDef*%
%ADD19RoundRect,0.250000X-0.475000X0.250000X-0.475000X-0.250000X0.475000X-0.250000X0.475000X0.250000X0*%
%TD*%
%TA.AperFunction,ComponentPad*%
%ADD20R,1.700000X1.700000*%
%TD*%
%TA.AperFunction,ComponentPad*%
%ADD21O,1.700000X1.700000*%
%TD*%
%TA.AperFunction,SMDPad,CuDef*%
%ADD22RoundRect,0.250000X0.262500X0.450000X-0.262500X0.450000X-0.262500X-0.450000X0.262500X-0.450000X0*%
%TD*%
%TA.AperFunction,SMDPad,CuDef*%
%ADD23R,1.475000X0.300000*%
%TD*%
%TA.AperFunction,SMDPad,CuDef*%
%ADD24RoundRect,0.250000X0.475000X-0.250000X0.475000X0.250000X-0.475000X0.250000X-0.475000X-0.250000X0*%
%TD*%
%TA.AperFunction,ComponentPad*%
%ADD25C,2.250000*%
%TD*%
%TA.AperFunction,SMDPad,CuDef*%
%ADD26RoundRect,0.150000X-0.150000X-0.200000X0.150000X-0.200000X0.150000X0.200000X-0.150000X0.200000X0*%
%TD*%
%TA.AperFunction,SMDPad,CuDef*%
%ADD27C,0.500000*%
%TD*%
%TA.AperFunction,SMDPad,CuDef*%
%ADD28R,5.900000X5.900000*%
%TD*%
%TA.AperFunction,SMDPad,CuDef*%
%ADD29RoundRect,0.062500X-0.062500X-0.375000X0.062500X-0.375000X0.062500X0.375000X-0.062500X0.375000X0*%
%TD*%
%TA.AperFunction,SMDPad,CuDef*%
%ADD30RoundRect,0.062500X-0.375000X-0.062500X0.375000X-0.062500X0.375000X0.062500X-0.375000X0.062500X0*%
%TD*%
%TA.AperFunction,SMDPad,CuDef*%
%ADD31R,1.400000X2.100000*%
%TD*%
%TA.AperFunction,SMDPad,CuDef*%
%ADD32R,0.880000X2.810000*%
%TD*%
%TA.AperFunction,SMDPad,CuDef*%
%ADD33RoundRect,0.200000X0.200000X0.275000X-0.200000X0.275000X-0.200000X-0.275000X0.200000X-0.275000X0*%
%TD*%
%TA.AperFunction,ViaPad*%
%ADD34C,0.500000*%
%TD*%
%TA.AperFunction,Conductor*%
%ADD35C,0.127000*%
%TD*%
%TA.AperFunction,Conductor*%
%ADD36C,0.256000*%
%TD*%
%TA.AperFunction,Conductor*%
%ADD37C,0.750000*%
%TD*%
%TA.AperFunction,Conductor*%
%ADD38C,0.400000*%
%TD*%
%TA.AperFunction,Conductor*%
%ADD39C,0.300000*%
%TD*%
%TA.AperFunction,Conductor*%
%ADD40C,0.500000*%
%TD*%
%TA.AperFunction,Conductor*%
%ADD41C,1.000000*%
%TD*%
%TA.AperFunction,Conductor*%
%ADD42C,0.254000*%
%TD*%
%TA.AperFunction,Conductor*%
%ADD43C,0.210000*%
%TD*%
%TA.AperFunction,Conductor*%
%ADD44C,0.166000*%
%TD*%
%TA.AperFunction,Conductor*%
%ADD45C,2.000000*%
%TD*%
G04 APERTURE END LIST*
D10*
%TO.P,J19,1,CNTR*%
%TO.N,Net-(J19-CNTR)*%
X145395000Y-79750000D03*
D11*
%TO.P,J19,2,GND*%
%TO.N,GND*%
X142855000Y-82290000D03*
%TO.P,J19,3,GND*%
X147935000Y-82290000D03*
%TO.P,J19,4,GND*%
X147935000Y-77210000D03*
%TO.P,J19,5,GND*%
X142855000Y-77210000D03*
%TD*%
D12*
%TO.P,L5,2*%
%TO.N,Net-(J32-Pin_2)*%
X202631000Y-66355000D03*
%TO.P,L5,1*%
%TO.N,VDDCCO*%
X204259000Y-66355000D03*
%TD*%
D11*
%TO.P,J26,5,GND*%
%TO.N,GND*%
X129405000Y-153695000D03*
%TO.P,J26,4,GND*%
X134485000Y-153695000D03*
%TO.P,J26,3,GND*%
X134485000Y-158775000D03*
%TO.P,J26,2,GND*%
X129405000Y-158775000D03*
D10*
%TO.P,J26,1,CNTR*%
%TO.N,Net-(J26-CNTR)*%
X131945000Y-156235000D03*
%TD*%
D13*
%TO.P,C51,2*%
%TO.N,GND*%
X290885000Y-160470000D03*
%TO.P,C51,1*%
%TO.N,VDDD2P5*%
X292785000Y-160470000D03*
%TD*%
D14*
%TO.P,C35,2*%
%TO.N,GND*%
X124765000Y-115890000D03*
%TO.P,C35,1*%
%TO.N,/VDDACORE/VDDOSC_INT*%
X122865000Y-115890000D03*
%TD*%
D15*
%TO.P,U5,13,GND*%
%TO.N,GND*%
X112810000Y-190415000D03*
D16*
%TO.P,U5,12,OUT*%
%TO.N,/VDDA2P5/VDDA2P5_INT*%
X114960000Y-188790000D03*
%TO.P,U5,11,OUT*%
X114960000Y-189440000D03*
%TO.P,U5,10,OUTS*%
X114960000Y-190090000D03*
%TO.P,U5,9,GND*%
%TO.N,GND*%
X114960000Y-190740000D03*
%TO.P,U5,8,SET*%
%TO.N,Net-(U5-SET)*%
X114960000Y-191390000D03*
%TO.P,U5,7,PGFB*%
%TO.N,Net-(D4-K)*%
X114960000Y-192040000D03*
%TO.P,U5,6,ILIM*%
%TO.N,Net-(U5-ILIM)*%
X110660000Y-192040000D03*
%TO.P,U5,5,PG*%
%TO.N,unconnected-(U5-PG-Pad5)*%
X110660000Y-191390000D03*
%TO.P,U5,4,EN/UV*%
%TO.N,VDDEXT*%
X110660000Y-190740000D03*
%TO.P,U5,3,IN*%
X110660000Y-190090000D03*
%TO.P,U5,2,IN*%
X110660000Y-189440000D03*
%TO.P,U5,1,IN*%
X110660000Y-188790000D03*
%TD*%
D17*
%TO.P,R10,2*%
%TO.N,GND*%
X116227500Y-120090000D03*
%TO.P,R10,1*%
%TO.N,Net-(U7-ILIM)*%
X114402500Y-120090000D03*
%TD*%
D11*
%TO.P,J9,1,PRB*%
%TO.N,VDDD1P2*%
X232435000Y-67340000D03*
%TD*%
%TO.P,J21,1,PRB*%
%TO.N,VDDOSC*%
X132015000Y-124290000D03*
%TD*%
D14*
%TO.P,C20,1*%
%TO.N,/VDDD1P2/VDD1P2_INT*%
X223285000Y-58940000D03*
%TO.P,C20,2*%
%TO.N,GND*%
X225185000Y-58940000D03*
%TD*%
D18*
%TO.P,VR2,3,CW*%
%TO.N,unconnected-(VR2-CW-Pad3)*%
X121065000Y-123890000D03*
%TO.P,VR2,2,WIPER*%
%TO.N,GND*%
X118525000Y-123890000D03*
%TO.P,VR2,1,CCW*%
%TO.N,Net-(U7-SET)*%
X115985000Y-123890000D03*
%TD*%
D17*
%TO.P,R4,1*%
%TO.N,Net-(U3-SET)*%
X264622500Y-77665000D03*
%TO.P,R4,2*%
%TO.N,GND*%
X266447500Y-77665000D03*
%TD*%
D19*
%TO.P,C48,1*%
%TO.N,VDDEXT*%
X146805000Y-59765000D03*
%TO.P,C48,2*%
%TO.N,GND*%
X146805000Y-61665000D03*
%TD*%
D20*
%TO.P,J38,1,Pin_1*%
%TO.N,Net-(J36-Pin_1)*%
X161785000Y-65820000D03*
D21*
%TO.P,J38,2,Pin_2*%
%TO.N,/IREF*%
X159245000Y-65820000D03*
%TO.P,J38,3,Pin_3*%
%TO.N,/IREF/IREF_INT*%
X156705000Y-65820000D03*
%TD*%
D15*
%TO.P,U9,13,GND*%
%TO.N,GND*%
X188600000Y-61960000D03*
D16*
%TO.P,U9,12,OUT*%
%TO.N,/VDDACORE/VDDCCO_INT*%
X190750000Y-60335000D03*
%TO.P,U9,11,OUT*%
X190750000Y-60985000D03*
%TO.P,U9,10,OUTS*%
X190750000Y-61635000D03*
%TO.P,U9,9,GND*%
%TO.N,GND*%
X190750000Y-62285000D03*
%TO.P,U9,8,SET*%
%TO.N,Net-(U9-SET)*%
X190750000Y-62935000D03*
%TO.P,U9,7,PGFB*%
%TO.N,Net-(D8-K)*%
X190750000Y-63585000D03*
%TO.P,U9,6,ILIM*%
%TO.N,Net-(U9-ILIM)*%
X186450000Y-63585000D03*
%TO.P,U9,5,PG*%
%TO.N,unconnected-(U9-PG-Pad5)*%
X186450000Y-62935000D03*
%TO.P,U9,4,EN/UV*%
%TO.N,VDDEXT*%
X186450000Y-62285000D03*
%TO.P,U9,3,IN*%
X186450000Y-61635000D03*
%TO.P,U9,2,IN*%
X186450000Y-60985000D03*
%TO.P,U9,1,IN*%
X186450000Y-60335000D03*
%TD*%
D22*
%TO.P,R17,2*%
%TO.N,/RSTB*%
X167607500Y-213465000D03*
%TO.P,R17,1*%
%TO.N,VDDD2P5*%
X169432500Y-213465000D03*
%TD*%
D14*
%TO.P,C24,2*%
%TO.N,GND*%
X119635000Y-189540000D03*
%TO.P,C24,1*%
%TO.N,/VDDA2P5/VDDA2P5_INT*%
X117735000Y-189540000D03*
%TD*%
D20*
%TO.P,J41,1,Pin_1*%
%TO.N,/SDA*%
X287790000Y-121526199D03*
D21*
%TO.P,J41,2,Pin_2*%
%TO.N,GND*%
X287790000Y-118986199D03*
%TO.P,J41,3,Pin_3*%
%TO.N,/SCL*%
X287790000Y-116446199D03*
%TD*%
D23*
%TO.P,U12,48,1~{OE}*%
%TO.N,GND*%
X303210000Y-157450000D03*
%TO.P,U12,47,1A1*%
%TO.N,/DIGBUF_LEVSHIFT/DOUT_BUF15*%
X303210000Y-157950000D03*
%TO.P,U12,46,1A2*%
%TO.N,/DIGBUF_LEVSHIFT/DOUT_BUF16*%
X303210000Y-158450000D03*
%TO.P,U12,45,GND_8*%
%TO.N,GND*%
X303210000Y-158950000D03*
%TO.P,U12,44,1A3*%
%TO.N,/DIGBUF_LEVSHIFT/DOUT_BUF17*%
X303210000Y-159450000D03*
%TO.P,U12,43,1A4*%
%TO.N,/DIGBUF_LEVSHIFT/DOUT_BUF18*%
X303210000Y-159950000D03*
%TO.P,U12,42,VCCA_2*%
%TO.N,VDD3P3*%
X303210000Y-160450000D03*
%TO.P,U12,41,1A5*%
%TO.N,unconnected-(U12-1A5-Pad41)*%
X303210000Y-160950000D03*
%TO.P,U12,40,1A6*%
%TO.N,unconnected-(U12-1A6-Pad40)*%
X303210000Y-161450000D03*
%TO.P,U12,39,GND_7*%
%TO.N,GND*%
X303210000Y-161950000D03*
%TO.P,U12,38,1A7*%
%TO.N,unconnected-(U12-1A7-Pad38)*%
X303210000Y-162450000D03*
%TO.P,U12,37,1A8*%
%TO.N,unconnected-(U12-1A8-Pad37)*%
X303210000Y-162950000D03*
%TO.P,U12,36,2A1*%
%TO.N,unconnected-(U12-2A1-Pad36)*%
X303210000Y-163450000D03*
%TO.P,U12,35,2A2*%
%TO.N,unconnected-(U12-2A2-Pad35)*%
X303210000Y-163950000D03*
%TO.P,U12,34,GND_6*%
%TO.N,GND*%
X303210000Y-164450000D03*
%TO.P,U12,33,2A3*%
%TO.N,unconnected-(U12-2A3-Pad33)*%
X303210000Y-164950000D03*
%TO.P,U12,32,2A4*%
%TO.N,unconnected-(U12-2A4-Pad32)*%
X303210000Y-165450000D03*
%TO.P,U12,31,VCCA_1*%
%TO.N,VDD3P3*%
X303210000Y-165950000D03*
%TO.P,U12,30,2A5*%
%TO.N,unconnected-(U12-2A5-Pad30)*%
X303210000Y-166450000D03*
%TO.P,U12,29,2A6*%
%TO.N,unconnected-(U12-2A6-Pad29)*%
X303210000Y-166950000D03*
%TO.P,U12,28,GND_5*%
%TO.N,GND*%
X303210000Y-167450000D03*
%TO.P,U12,27,2A7*%
%TO.N,unconnected-(U12-2A7-Pad27)*%
X303210000Y-167950000D03*
%TO.P,U12,26,2A8*%
%TO.N,unconnected-(U12-2A8-Pad26)*%
X303210000Y-168450000D03*
%TO.P,U12,25,2~{OE}*%
%TO.N,GND*%
X303210000Y-168950000D03*
%TO.P,U12,24,2DIR*%
X295634000Y-168950000D03*
%TO.P,U12,23,2B8*%
X295634000Y-168450000D03*
%TO.P,U12,22,2B7*%
X295634000Y-167950000D03*
%TO.P,U12,21,GND_4*%
X295634000Y-167450000D03*
%TO.P,U12,20,2B6*%
X295634000Y-166950000D03*
%TO.P,U12,19,2B5*%
X295634000Y-166450000D03*
%TO.P,U12,18,VCCB_2*%
%TO.N,VDDD2P5*%
X295634000Y-165950000D03*
%TO.P,U12,17,2B4*%
%TO.N,GND*%
X295634000Y-165450000D03*
%TO.P,U12,16,2B3*%
X295634000Y-164950000D03*
%TO.P,U12,15,GND_3*%
X295634000Y-164450000D03*
%TO.P,U12,14,2B2*%
X295634000Y-163950000D03*
%TO.P,U12,13,2B1*%
X295634000Y-163450000D03*
%TO.P,U12,12,1B8*%
X295634000Y-162950000D03*
%TO.P,U12,11,1B7*%
X295634000Y-162450000D03*
%TO.P,U12,10,GND_2*%
X295634000Y-161950000D03*
%TO.P,U12,9,1B6*%
%TO.N,/CCOUT*%
X295634000Y-161450000D03*
%TO.P,U12,8,1B5*%
%TO.N,/CLKRS*%
X295634000Y-160950000D03*
%TO.P,U12,7,VCCB_1*%
%TO.N,VDDD2P5*%
X295634000Y-160450000D03*
%TO.P,U12,6,1B4*%
%TO.N,/DOUT18*%
X295634000Y-159950000D03*
%TO.P,U12,5,1B3*%
%TO.N,/DOUT17*%
X295634000Y-159450000D03*
%TO.P,U12,4,GND_1*%
%TO.N,GND*%
X295634000Y-158950000D03*
%TO.P,U12,3,1B2*%
%TO.N,/DOUT16*%
X295634000Y-158450000D03*
%TO.P,U12,2,1B1*%
%TO.N,/DOUT15*%
X295634000Y-157950000D03*
%TO.P,U12,1,1DIR*%
%TO.N,GND*%
X295634000Y-157450000D03*
%TD*%
D13*
%TO.P,C53,2*%
%TO.N,GND*%
X290615000Y-151040000D03*
%TO.P,C53,1*%
%TO.N,VDDD2P5*%
X292515000Y-151040000D03*
%TD*%
D11*
%TO.P,J1,1,PRB*%
%TO.N,VDD3P3*%
X313740000Y-90050000D03*
%TD*%
D23*
%TO.P,U11,48,1~{OE}*%
%TO.N,GND*%
X303216000Y-142520000D03*
%TO.P,U11,47,1A1*%
%TO.N,/DIGBUF_LEVSHIFT/CLKOUT_BUF*%
X303216000Y-143020000D03*
%TO.P,U11,46,1A2*%
%TO.N,/DIGBUF_LEVSHIFT/DOUT_BUF0*%
X303216000Y-143520000D03*
%TO.P,U11,45,GND_8*%
%TO.N,GND*%
X303216000Y-144020000D03*
%TO.P,U11,44,1A3*%
%TO.N,/DIGBUF_LEVSHIFT/DOUT_BUF1*%
X303216000Y-144520000D03*
%TO.P,U11,43,1A4*%
%TO.N,/DIGBUF_LEVSHIFT/DOUT_BUF2*%
X303216000Y-145020000D03*
%TO.P,U11,42,VCCA_2*%
%TO.N,VDD3P3*%
X303216000Y-145520000D03*
%TO.P,U11,41,1A5*%
%TO.N,/DIGBUF_LEVSHIFT/DOUT_BUF3*%
X303216000Y-146020000D03*
%TO.P,U11,40,1A6*%
%TO.N,/DIGBUF_LEVSHIFT/DOUT_BUF4*%
X303216000Y-146520000D03*
%TO.P,U11,39,GND_7*%
%TO.N,GND*%
X303216000Y-147020000D03*
%TO.P,U11,38,1A7*%
%TO.N,/DIGBUF_LEVSHIFT/DOUT_BUF5*%
X303216000Y-147520000D03*
%TO.P,U11,37,1A8*%
%TO.N,/DIGBUF_LEVSHIFT/DOUT_BUF6*%
X303216000Y-148020000D03*
%TO.P,U11,36,2A1*%
%TO.N,/DIGBUF_LEVSHIFT/DOUT_BUF7*%
X303216000Y-148520000D03*
%TO.P,U11,35,2A2*%
%TO.N,/DIGBUF_LEVSHIFT/DOUT_BUF8*%
X303216000Y-149020000D03*
%TO.P,U11,34,GND_6*%
%TO.N,GND*%
X303216000Y-149520000D03*
%TO.P,U11,33,2A3*%
%TO.N,/DIGBUF_LEVSHIFT/DOUT_BUF9*%
X303216000Y-150020000D03*
%TO.P,U11,32,2A4*%
%TO.N,/DIGBUF_LEVSHIFT/DOUT_BUF10*%
X303216000Y-150520000D03*
%TO.P,U11,31,VCCA_1*%
%TO.N,VDD3P3*%
X303216000Y-151020000D03*
%TO.P,U11,30,2A5*%
%TO.N,/DIGBUF_LEVSHIFT/DOUT_BUF11*%
X303216000Y-151520000D03*
%TO.P,U11,29,2A6*%
%TO.N,/DIGBUF_LEVSHIFT/DOUT_BUF12*%
X303216000Y-152020000D03*
%TO.P,U11,28,GND_5*%
%TO.N,GND*%
X303216000Y-152520000D03*
%TO.P,U11,27,2A7*%
%TO.N,/DIGBUF_LEVSHIFT/DOUT_BUF13*%
X303216000Y-153020000D03*
%TO.P,U11,26,2A8*%
%TO.N,/DIGBUF_LEVSHIFT/DOUT_BUF14*%
X303216000Y-153520000D03*
%TO.P,U11,25,2~{OE}*%
%TO.N,GND*%
X303216000Y-154020000D03*
%TO.P,U11,24,2DIR*%
X295640000Y-154020000D03*
%TO.P,U11,23,2B8*%
%TO.N,/DOUT14*%
X295640000Y-153520000D03*
%TO.P,U11,22,2B7*%
%TO.N,/DOUT13*%
X295640000Y-153020000D03*
%TO.P,U11,21,GND_4*%
%TO.N,GND*%
X295640000Y-152520000D03*
%TO.P,U11,20,2B6*%
%TO.N,/DOUT12*%
X295640000Y-152020000D03*
%TO.P,U11,19,2B5*%
%TO.N,/DOUT11*%
X295640000Y-151520000D03*
%TO.P,U11,18,VCCB_2*%
%TO.N,VDDD2P5*%
X295640000Y-151020000D03*
%TO.P,U11,17,2B4*%
%TO.N,/DOUT10*%
X295640000Y-150520000D03*
%TO.P,U11,16,2B3*%
%TO.N,/DOUT9*%
X295640000Y-150020000D03*
%TO.P,U11,15,GND_3*%
%TO.N,GND*%
X295640000Y-149520000D03*
%TO.P,U11,14,2B2*%
%TO.N,/DOUT8*%
X295640000Y-149020000D03*
%TO.P,U11,13,2B1*%
%TO.N,/DOUT7*%
X295640000Y-148520000D03*
%TO.P,U11,12,1B8*%
%TO.N,/DOUT6*%
X295640000Y-148020000D03*
%TO.P,U11,11,1B7*%
%TO.N,/DOUT5*%
X295640000Y-147520000D03*
%TO.P,U11,10,GND_2*%
%TO.N,GND*%
X295640000Y-147020000D03*
%TO.P,U11,9,1B6*%
%TO.N,/DOUT4*%
X295640000Y-146520000D03*
%TO.P,U11,8,1B5*%
%TO.N,/DOUT3*%
X295640000Y-146020000D03*
%TO.P,U11,7,VCCB_1*%
%TO.N,VDDD2P5*%
X295640000Y-145520000D03*
%TO.P,U11,6,1B4*%
%TO.N,/DOUT2*%
X295640000Y-145020000D03*
%TO.P,U11,5,1B3*%
%TO.N,/DOUT1*%
X295640000Y-144520000D03*
%TO.P,U11,4,GND_1*%
%TO.N,GND*%
X295640000Y-144020000D03*
%TO.P,U11,3,1B2*%
%TO.N,/DOUT0*%
X295640000Y-143520000D03*
%TO.P,U11,2,1B1*%
%TO.N,/CLKOUT*%
X295640000Y-143020000D03*
%TO.P,U11,1,1DIR*%
%TO.N,GND*%
X295640000Y-142520000D03*
%TD*%
D13*
%TO.P,C21,2*%
%TO.N,GND*%
X106035000Y-188940000D03*
%TO.P,C21,1*%
%TO.N,VDDEXT*%
X107935000Y-188940000D03*
%TD*%
D12*
%TO.P,L4,2*%
%TO.N,Net-(J28-Pin_2)*%
X131601000Y-169405000D03*
%TO.P,L4,1*%
%TO.N,VDDTQ*%
X133229000Y-169405000D03*
%TD*%
D13*
%TO.P,C29,2*%
%TO.N,GND*%
X111165000Y-115290000D03*
%TO.P,C29,1*%
%TO.N,VDDEXT*%
X113065000Y-115290000D03*
%TD*%
D11*
%TO.P,J29,1,PRB*%
%TO.N,VDDCCO*%
X202675000Y-69485000D03*
%TD*%
D20*
%TO.P,J36,1,Pin_1*%
%TO.N,Net-(J36-Pin_1)*%
X167735000Y-65820000D03*
D21*
%TO.P,J36,2,Pin_2*%
%TO.N,Net-(J36-Pin_2)*%
X170275000Y-65820000D03*
%TO.P,J36,3,Pin_3*%
%TO.N,VDDCCO*%
X172815000Y-65820000D03*
%TD*%
D24*
%TO.P,C45,1*%
%TO.N,VDDEXT*%
X144305000Y-55765000D03*
%TO.P,C45,2*%
%TO.N,GND*%
X144305000Y-53865000D03*
%TD*%
D19*
%TO.P,C42,1*%
%TO.N,VDDEXT*%
X139305000Y-59765000D03*
%TO.P,C42,2*%
%TO.N,GND*%
X139305000Y-61665000D03*
%TD*%
D25*
%TO.P,J47,5,GND*%
%TO.N,GND*%
X125275000Y-145280000D03*
%TO.P,J47,4,GND*%
X125275000Y-140200000D03*
%TO.P,J47,3,GND*%
X130355000Y-140200000D03*
%TO.P,J47,2,GND*%
X130355000Y-145280000D03*
%TO.P,J47,1,CNTR*%
%TO.N,Net-(J47-CNTR)*%
X127815000Y-142740000D03*
%TD*%
D11*
%TO.P,J15,5,GND*%
%TO.N,GND*%
X124645000Y-179100000D03*
%TO.P,J15,4,GND*%
X129725000Y-179100000D03*
%TO.P,J15,3,GND*%
X129725000Y-184180000D03*
%TO.P,J15,2,GND*%
X124645000Y-184180000D03*
D10*
%TO.P,J15,1,CNTR*%
%TO.N,Net-(J15-CNTR)*%
X127185000Y-181640000D03*
%TD*%
D13*
%TO.P,C30,2*%
%TO.N,GND*%
X110795000Y-163535000D03*
%TO.P,C30,1*%
%TO.N,VDDEXT*%
X112695000Y-163535000D03*
%TD*%
D26*
%TO.P,D1,2,A*%
%TO.N,VDDEXT*%
X300840000Y-85850000D03*
%TO.P,D1,1,K*%
%TO.N,Net-(D1-K)*%
X302240000Y-85850000D03*
%TD*%
D13*
%TO.P,C25,1*%
%TO.N,VDDEXT*%
X126145000Y-87050000D03*
%TO.P,C25,2*%
%TO.N,GND*%
X124245000Y-87050000D03*
%TD*%
D11*
%TO.P,J17,1,PRB*%
%TO.N,VREF*%
X145095000Y-96050000D03*
%TD*%
D13*
%TO.P,C13,1*%
%TO.N,VDDEXT*%
X255685000Y-73105000D03*
%TO.P,C13,2*%
%TO.N,GND*%
X253785000Y-73105000D03*
%TD*%
D16*
%TO.P,U3,1,IN*%
%TO.N,VDDEXT*%
X258405000Y-72815000D03*
%TO.P,U3,2,IN*%
X258405000Y-73465000D03*
%TO.P,U3,3,IN*%
X258405000Y-74115000D03*
%TO.P,U3,4,EN/UV*%
X258405000Y-74765000D03*
%TO.P,U3,5,PG*%
%TO.N,unconnected-(U3-PG-Pad5)*%
X258405000Y-75415000D03*
%TO.P,U3,6,ILIM*%
%TO.N,Net-(U3-ILIM)*%
X258405000Y-76065000D03*
%TO.P,U3,7,PGFB*%
%TO.N,Net-(D2-K)*%
X262705000Y-76065000D03*
%TO.P,U3,8,SET*%
%TO.N,Net-(U3-SET)*%
X262705000Y-75415000D03*
%TO.P,U3,9,GND*%
%TO.N,GND*%
X262705000Y-74765000D03*
%TO.P,U3,10,OUTS*%
%TO.N,/VDDD2P5/VDDD2P5_INT*%
X262705000Y-74115000D03*
%TO.P,U3,11,OUT*%
X262705000Y-73465000D03*
%TO.P,U3,12,OUT*%
X262705000Y-72815000D03*
D15*
%TO.P,U3,13,GND*%
%TO.N,GND*%
X260555000Y-74440000D03*
%TD*%
D17*
%TO.P,R5,1*%
%TO.N,Net-(U4-ILIM)*%
X214822500Y-63140000D03*
%TO.P,R5,2*%
%TO.N,GND*%
X216647500Y-63140000D03*
%TD*%
D11*
%TO.P,J2,1,PRB*%
%TO.N,GND*%
X307440000Y-90050000D03*
%TD*%
%TO.P,J23,1,PRB*%
%TO.N,VDDTQ*%
X131645000Y-172535000D03*
%TD*%
D27*
%TO.P,FID1,*%
%TO.N,*%
X269585000Y-137920000D03*
%TD*%
D28*
%TO.P,U1,57,VSSD*%
%TO.N,GND*%
X207543312Y-142837000D03*
D29*
%TO.P,U1,56,VSSD*%
X204293312Y-138899500D03*
%TO.P,U1,55,VDDD*%
%TO.N,VDDD1P2*%
X204793312Y-138899500D03*
%TO.P,U1,54,AUX11*%
%TO.N,/AUX11*%
X205293312Y-138899500D03*
%TO.P,U1,53,AUX10*%
%TO.N,/AUX10*%
X205793312Y-138899500D03*
%TO.P,U1,52,AUX9*%
%TO.N,/AUX9*%
X206293312Y-138899500D03*
%TO.P,U1,51,AUX8*%
%TO.N,/AUX8*%
X206793312Y-138899500D03*
%TO.P,U1,50,AUX7*%
%TO.N,/AUX7*%
X207293312Y-138899500D03*
%TO.P,U1,49,AUX6*%
%TO.N,/AUX6*%
X207793312Y-138899500D03*
%TO.P,U1,48,AUX5*%
%TO.N,/AUX5*%
X208293312Y-138899500D03*
%TO.P,U1,47,AUX4*%
%TO.N,/AUX4*%
X208793312Y-138899500D03*
%TO.P,U1,46,AUX3*%
%TO.N,/AUX3*%
X209293312Y-138899500D03*
%TO.P,U1,45,AUX2*%
%TO.N,/AUX2*%
X209793312Y-138899500D03*
%TO.P,U1,44,AUX1*%
%TO.N,/AUX1*%
X210293312Y-138899500D03*
%TO.P,U1,43,AUX0*%
%TO.N,/AUX0*%
X210793312Y-138899500D03*
D30*
%TO.P,U1,42,VDDIOD*%
%TO.N,VDDD2P5*%
X211480812Y-139587000D03*
%TO.P,U1,41,CLKOUT*%
%TO.N,/CLKOUT*%
X211480812Y-140087000D03*
%TO.P,U1,40,DOUT0*%
%TO.N,/DOUT0*%
X211480812Y-140587000D03*
%TO.P,U1,39,DOUT1*%
%TO.N,/DOUT1*%
X211480812Y-141087000D03*
%TO.P,U1,38,DOUT2*%
%TO.N,/DOUT2*%
X211480812Y-141587000D03*
%TO.P,U1,37,DOUT3*%
%TO.N,/DOUT3*%
X211480812Y-142087000D03*
%TO.P,U1,36,DOUT4*%
%TO.N,/DOUT4*%
X211480812Y-142587000D03*
%TO.P,U1,35,DOUT5*%
%TO.N,/DOUT5*%
X211480812Y-143087000D03*
%TO.P,U1,34,DOUT6*%
%TO.N,/DOUT6*%
X211480812Y-143587000D03*
%TO.P,U1,33,DOUT7*%
%TO.N,/DOUT7*%
X211480812Y-144087000D03*
%TO.P,U1,32,DOUT8*%
%TO.N,/DOUT8*%
X211480812Y-144587000D03*
%TO.P,U1,31,DOUT9*%
%TO.N,/DOUT9*%
X211480812Y-145087000D03*
%TO.P,U1,30,NC*%
%TO.N,unconnected-(U1-NC-Pad30)*%
X211480812Y-145587000D03*
%TO.P,U1,29,DOUT10*%
%TO.N,/DOUT10*%
X211480812Y-146087000D03*
D29*
%TO.P,U1,28,DOUT11*%
%TO.N,/DOUT11*%
X210793312Y-146774500D03*
%TO.P,U1,27,DOUT12*%
%TO.N,/DOUT12*%
X210293312Y-146774500D03*
%TO.P,U1,26,DOUT13*%
%TO.N,/DOUT13*%
X209793312Y-146774500D03*
%TO.P,U1,25,DOUT14*%
%TO.N,/DOUT14*%
X209293312Y-146774500D03*
%TO.P,U1,24,DOUT15*%
%TO.N,/DOUT15*%
X208793312Y-146774500D03*
%TO.P,U1,23,DOUT16*%
%TO.N,/DOUT16*%
X208293312Y-146774500D03*
%TO.P,U1,22,DOUT17*%
%TO.N,/DOUT17*%
X207793312Y-146774500D03*
%TO.P,U1,21,DOUT18*%
%TO.N,/DOUT18*%
X207293312Y-146774500D03*
%TO.P,U1,20,VDDIOD*%
%TO.N,VDDD2P5*%
X206793312Y-146774500D03*
%TO.P,U1,19,CLKRS*%
%TO.N,/CLKRS*%
X206293312Y-146774500D03*
%TO.P,U1,18,CCOOUT*%
%TO.N,/CCOUT*%
X205793312Y-146774500D03*
%TO.P,U1,17,RSTBCLK*%
%TO.N,/RSTBCLK*%
X205293312Y-146774500D03*
%TO.P,U1,16,VSSCNTRTP*%
%TO.N,GND*%
X204793312Y-146774500D03*
%TO.P,U1,15,CLKINN*%
%TO.N,/CLKIN_N*%
X204293312Y-146774500D03*
D30*
%TO.P,U1,14,CLKINP*%
%TO.N,/CLKIN_P*%
X203605812Y-146087000D03*
%TO.P,U1,13,VSSIOA*%
%TO.N,GND*%
X203605812Y-145587000D03*
%TO.P,U1,12,VDDIOA*%
%TO.N,VDDA2P5*%
X203605812Y-145087000D03*
%TO.P,U1,11,VDDTQ*%
%TO.N,VDDTQ*%
X203605812Y-144587000D03*
%TO.P,U1,10,VDDOSC*%
%TO.N,VDDOSC*%
X203605812Y-144087000D03*
%TO.P,U1,9,VREF*%
%TO.N,VREF*%
X203605812Y-143587000D03*
%TO.P,U1,8,IN*%
%TO.N,/IN*%
X203605812Y-143087000D03*
%TO.P,U1,7,IBIAS*%
%TO.N,/IREF*%
X203605812Y-142587000D03*
%TO.P,U1,6,VSSA*%
%TO.N,GND*%
X203605812Y-142087000D03*
%TO.P,U1,5,VDDCCO*%
%TO.N,VDDCCO*%
X203605812Y-141587000D03*
%TO.P,U1,4,RSTB*%
%TO.N,/RSTB*%
X203605812Y-141087000D03*
%TO.P,U1,3,SCL*%
%TO.N,/SCL*%
X203605812Y-140587000D03*
%TO.P,U1,2,NC*%
%TO.N,unconnected-(U1-NC-Pad2)*%
X203605812Y-140087000D03*
%TO.P,U1,1,SDA*%
%TO.N,/SDA*%
X203605812Y-139587000D03*
%TD*%
D26*
%TO.P,D3,1,K*%
%TO.N,Net-(D3-K)*%
X220935000Y-63140000D03*
%TO.P,D3,2,A*%
%TO.N,VDDEXT*%
X219535000Y-63140000D03*
%TD*%
D15*
%TO.P,U8,13,GND*%
%TO.N,GND*%
X117570000Y-165010000D03*
D16*
%TO.P,U8,12,OUT*%
%TO.N,/VDDACORE/VDDTQ_INT*%
X119720000Y-163385000D03*
%TO.P,U8,11,OUT*%
X119720000Y-164035000D03*
%TO.P,U8,10,OUTS*%
X119720000Y-164685000D03*
%TO.P,U8,9,GND*%
%TO.N,GND*%
X119720000Y-165335000D03*
%TO.P,U8,8,SET*%
%TO.N,Net-(U8-SET)*%
X119720000Y-165985000D03*
%TO.P,U8,7,PGFB*%
%TO.N,Net-(D7-K)*%
X119720000Y-166635000D03*
%TO.P,U8,6,ILIM*%
%TO.N,Net-(U8-ILIM)*%
X115420000Y-166635000D03*
%TO.P,U8,5,PG*%
%TO.N,unconnected-(U8-PG-Pad5)*%
X115420000Y-165985000D03*
%TO.P,U8,4,EN/UV*%
%TO.N,VDDEXT*%
X115420000Y-165335000D03*
%TO.P,U8,3,IN*%
X115420000Y-164685000D03*
%TO.P,U8,2,IN*%
X115420000Y-164035000D03*
%TO.P,U8,1,IN*%
X115420000Y-163385000D03*
%TD*%
D11*
%TO.P,J18,1,PRB*%
%TO.N,GND*%
X138785000Y-96050000D03*
%TD*%
D20*
%TO.P,J20,1,Pin_1*%
%TO.N,Net-(J19-CNTR)*%
X147625000Y-89950000D03*
D21*
%TO.P,J20,2,Pin_2*%
%TO.N,Net-(J20-Pin_2)*%
X145085000Y-89950000D03*
%TO.P,J20,3,Pin_3*%
%TO.N,/VREF/VREF_INT*%
X142545000Y-89950000D03*
%TD*%
D14*
%TO.P,C27,1*%
%TO.N,Net-(U6-SET)*%
X135045000Y-89750000D03*
%TO.P,C27,2*%
%TO.N,GND*%
X136945000Y-89750000D03*
%TD*%
D17*
%TO.P,R18,2*%
%TO.N,/RSTBCLK*%
X177532500Y-213465000D03*
%TO.P,R18,1*%
%TO.N,VDDD2P5*%
X175707500Y-213465000D03*
%TD*%
D11*
%TO.P,J13,1,PRB*%
%TO.N,VDDA2P5*%
X126885000Y-197940000D03*
%TD*%
D17*
%TO.P,R7,2*%
%TO.N,GND*%
X111097500Y-193740000D03*
%TO.P,R7,1*%
%TO.N,Net-(U5-ILIM)*%
X109272500Y-193740000D03*
%TD*%
%TO.P,R15,1*%
%TO.N,VDDD2P5*%
X282790000Y-121656199D03*
%TO.P,R15,2*%
%TO.N,/SCL*%
X284615000Y-121656199D03*
%TD*%
D13*
%TO.P,C52,2*%
%TO.N,GND*%
X290940000Y-130610000D03*
%TO.P,C52,1*%
%TO.N,VDDD2P5*%
X292840000Y-130610000D03*
%TD*%
D27*
%TO.P,FID2,*%
%TO.N,*%
X207425000Y-82305000D03*
%TD*%
D10*
%TO.P,J37,1,CNTR*%
%TO.N,Net-(J36-Pin_1)*%
X164680000Y-58090000D03*
D11*
%TO.P,J37,2,GND*%
%TO.N,GND*%
X162140000Y-60630000D03*
%TO.P,J37,3,GND*%
X167220000Y-60630000D03*
%TO.P,J37,4,GND*%
X167220000Y-55550000D03*
%TO.P,J37,5,GND*%
X162140000Y-55550000D03*
%TD*%
D31*
%TO.P,S2,4,A*%
%TO.N,GND*%
X174220000Y-225765000D03*
%TO.P,S2,3,A*%
X174220000Y-216665000D03*
%TO.P,S2,2,B*%
%TO.N,/RSTBCLK*%
X179020000Y-225765000D03*
%TO.P,S2,1,B*%
X179020000Y-216665000D03*
%TD*%
D21*
%TO.P,J48,3,Pin_3*%
%TO.N,/RSTBCLK*%
X175110000Y-208665000D03*
%TO.P,J48,2,Pin_2*%
%TO.N,GND*%
X172570000Y-208665000D03*
D20*
%TO.P,J48,1,Pin_1*%
%TO.N,/RSTB*%
X170030000Y-208665000D03*
%TD*%
D19*
%TO.P,C41,1*%
%TO.N,VDDEXT*%
X141805000Y-59765000D03*
%TO.P,C41,2*%
%TO.N,GND*%
X141805000Y-61665000D03*
%TD*%
D17*
%TO.P,R12,2*%
%TO.N,GND*%
X186887500Y-65285000D03*
%TO.P,R12,1*%
%TO.N,Net-(U9-ILIM)*%
X185062500Y-65285000D03*
%TD*%
D16*
%TO.P,U4,1,IN*%
%TO.N,VDDEXT*%
X216210000Y-58190000D03*
%TO.P,U4,2,IN*%
X216210000Y-58840000D03*
%TO.P,U4,3,IN*%
X216210000Y-59490000D03*
%TO.P,U4,4,EN/UV*%
X216210000Y-60140000D03*
%TO.P,U4,5,PG*%
%TO.N,unconnected-(U4-PG-Pad5)*%
X216210000Y-60790000D03*
%TO.P,U4,6,ILIM*%
%TO.N,Net-(U4-ILIM)*%
X216210000Y-61440000D03*
%TO.P,U4,7,PGFB*%
%TO.N,Net-(D3-K)*%
X220510000Y-61440000D03*
%TO.P,U4,8,SET*%
%TO.N,Net-(U4-SET)*%
X220510000Y-60790000D03*
%TO.P,U4,9,GND*%
%TO.N,GND*%
X220510000Y-60140000D03*
%TO.P,U4,10,OUTS*%
%TO.N,/VDDD1P2/VDD1P2_INT*%
X220510000Y-59490000D03*
%TO.P,U4,11,OUT*%
X220510000Y-58840000D03*
%TO.P,U4,12,OUT*%
X220510000Y-58190000D03*
D15*
%TO.P,U4,13,GND*%
%TO.N,GND*%
X218360000Y-59815000D03*
%TD*%
D11*
%TO.P,J14,1,PRB*%
%TO.N,GND*%
X120575000Y-197940000D03*
%TD*%
D13*
%TO.P,C31,2*%
%TO.N,GND*%
X111165000Y-117690000D03*
%TO.P,C31,1*%
%TO.N,VDDEXT*%
X113065000Y-117690000D03*
%TD*%
D11*
%TO.P,J24,1,PRB*%
%TO.N,GND*%
X125325000Y-172535000D03*
%TD*%
D13*
%TO.P,C38,2*%
%TO.N,GND*%
X181825000Y-60485000D03*
%TO.P,C38,1*%
%TO.N,VDDEXT*%
X183725000Y-60485000D03*
%TD*%
D27*
%TO.P,FID3,*%
%TO.N,*%
X146880000Y-141425000D03*
%TD*%
D32*
%TO.P,F1,1,1*%
%TO.N,Net-(J33-CNTR)*%
X133750000Y-57905000D03*
%TO.P,F1,2,2*%
%TO.N,VDDEXT*%
X137020000Y-57905000D03*
%TD*%
D12*
%TO.P,L2,1*%
%TO.N,VREF*%
X146679000Y-92920000D03*
%TO.P,L2,2*%
%TO.N,Net-(J20-Pin_2)*%
X145051000Y-92920000D03*
%TD*%
D14*
%TO.P,C59,2*%
%TO.N,GND*%
X308235000Y-151040000D03*
%TO.P,C59,1*%
%TO.N,VDD3P3*%
X306335000Y-151040000D03*
%TD*%
D13*
%TO.P,C26,1*%
%TO.N,VDDEXT*%
X126145000Y-89450000D03*
%TO.P,C26,2*%
%TO.N,GND*%
X124245000Y-89450000D03*
%TD*%
D10*
%TO.P,J11,1,CNTR*%
%TO.N,Net-(J11-CNTR)*%
X232735000Y-51040000D03*
D11*
%TO.P,J11,2,GND*%
%TO.N,GND*%
X230195000Y-53580000D03*
%TO.P,J11,3,GND*%
X235275000Y-53580000D03*
%TO.P,J11,4,GND*%
X235275000Y-48500000D03*
%TO.P,J11,5,GND*%
X230195000Y-48500000D03*
%TD*%
D14*
%TO.P,C58,2*%
%TO.N,GND*%
X308010000Y-130610000D03*
%TO.P,C58,1*%
%TO.N,VDD3P3*%
X306110000Y-130610000D03*
%TD*%
D21*
%TO.P,J16,3,Pin_3*%
%TO.N,/VDDA2P5/VDDA2P5_INT*%
X124335000Y-191840000D03*
%TO.P,J16,2,Pin_2*%
%TO.N,Net-(J16-Pin_2)*%
X126875000Y-191840000D03*
D20*
%TO.P,J16,1,Pin_1*%
%TO.N,Net-(J15-CNTR)*%
X129415000Y-191840000D03*
%TD*%
D25*
%TO.P,J40,5,GND*%
%TO.N,GND*%
X155847887Y-204839136D03*
%TO.P,J40,4,GND*%
X152255785Y-201247034D03*
%TO.P,J40,3,GND*%
X155847887Y-197654932D03*
%TO.P,J40,2,GND*%
X159439989Y-201247034D03*
%TO.P,J40,1,CNTR*%
%TO.N,/CLKIN_N*%
X155847887Y-201247034D03*
%TD*%
D21*
%TO.P,J27,3,Pin_3*%
%TO.N,/VDDACORE/VDDOSC_INT*%
X129465000Y-118190000D03*
%TO.P,J27,2,Pin_2*%
%TO.N,Net-(J27-Pin_2)*%
X132005000Y-118190000D03*
D20*
%TO.P,J27,1,Pin_1*%
%TO.N,Net-(J25-CNTR)*%
X134545000Y-118190000D03*
%TD*%
D16*
%TO.P,U6,1,IN*%
%TO.N,VDDEXT*%
X128870000Y-86900000D03*
%TO.P,U6,2,IN*%
X128870000Y-87550000D03*
%TO.P,U6,3,IN*%
X128870000Y-88200000D03*
%TO.P,U6,4,EN/UV*%
X128870000Y-88850000D03*
%TO.P,U6,5,PG*%
%TO.N,unconnected-(U6-PG-Pad5)*%
X128870000Y-89500000D03*
%TO.P,U6,6,ILIM*%
%TO.N,Net-(U6-ILIM)*%
X128870000Y-90150000D03*
%TO.P,U6,7,PGFB*%
%TO.N,Net-(D5-K)*%
X133170000Y-90150000D03*
%TO.P,U6,8,SET*%
%TO.N,Net-(U6-SET)*%
X133170000Y-89500000D03*
%TO.P,U6,9,GND*%
%TO.N,GND*%
X133170000Y-88850000D03*
%TO.P,U6,10,OUTS*%
%TO.N,/VREF/VREF_INT*%
X133170000Y-88200000D03*
%TO.P,U6,11,OUT*%
X133170000Y-87550000D03*
%TO.P,U6,12,OUT*%
X133170000Y-86900000D03*
D15*
%TO.P,U6,13,GND*%
%TO.N,GND*%
X131020000Y-88525000D03*
%TD*%
D26*
%TO.P,D2,1,K*%
%TO.N,Net-(D2-K)*%
X263135000Y-77665000D03*
%TO.P,D2,2,A*%
%TO.N,VDDEXT*%
X261735000Y-77665000D03*
%TD*%
D10*
%TO.P,J7,1,CNTR*%
%TO.N,Net-(J7-CNTR)*%
X274935000Y-65665000D03*
D11*
%TO.P,J7,2,GND*%
%TO.N,GND*%
X272395000Y-68205000D03*
%TO.P,J7,3,GND*%
X277475000Y-68205000D03*
%TO.P,J7,4,GND*%
X277475000Y-63125000D03*
%TO.P,J7,5,GND*%
X272395000Y-63125000D03*
%TD*%
D15*
%TO.P,U7,13,GND*%
%TO.N,GND*%
X117940000Y-116765000D03*
D16*
%TO.P,U7,12,OUT*%
%TO.N,/VDDACORE/VDDOSC_INT*%
X120090000Y-115140000D03*
%TO.P,U7,11,OUT*%
X120090000Y-115790000D03*
%TO.P,U7,10,OUTS*%
X120090000Y-116440000D03*
%TO.P,U7,9,GND*%
%TO.N,GND*%
X120090000Y-117090000D03*
%TO.P,U7,8,SET*%
%TO.N,Net-(U7-SET)*%
X120090000Y-117740000D03*
%TO.P,U7,7,PGFB*%
%TO.N,Net-(D6-K)*%
X120090000Y-118390000D03*
%TO.P,U7,6,ILIM*%
%TO.N,Net-(U7-ILIM)*%
X115790000Y-118390000D03*
%TO.P,U7,5,PG*%
%TO.N,unconnected-(U7-PG-Pad5)*%
X115790000Y-117740000D03*
%TO.P,U7,4,EN/UV*%
%TO.N,VDDEXT*%
X115790000Y-117090000D03*
%TO.P,U7,3,IN*%
X115790000Y-116440000D03*
%TO.P,U7,2,IN*%
X115790000Y-115790000D03*
%TO.P,U7,1,IN*%
X115790000Y-115140000D03*
%TD*%
D17*
%TO.P,R9,1*%
%TO.N,Net-(U6-ILIM)*%
X127482500Y-91850000D03*
%TO.P,R9,2*%
%TO.N,GND*%
X129307500Y-91850000D03*
%TD*%
D18*
%TO.P,VR1,1,CCW*%
%TO.N,Net-(U6-SET)*%
X129065000Y-95650000D03*
%TO.P,VR1,2,WIPER*%
%TO.N,GND*%
X131605000Y-95650000D03*
%TO.P,VR1,3,CW*%
%TO.N,unconnected-(VR1-CW-Pad3)*%
X134145000Y-95650000D03*
%TD*%
D14*
%TO.P,C39,2*%
%TO.N,GND*%
X194525000Y-63185000D03*
%TO.P,C39,1*%
%TO.N,Net-(U9-SET)*%
X192625000Y-63185000D03*
%TD*%
D15*
%TO.P,U2,13,GND*%
%TO.N,GND*%
X299665000Y-82525000D03*
D16*
%TO.P,U2,12,OUT*%
%TO.N,/VDD3P3/VDD3P3_INT*%
X301815000Y-80900000D03*
%TO.P,U2,11,OUT*%
X301815000Y-81550000D03*
%TO.P,U2,10,OUTS*%
X301815000Y-82200000D03*
%TO.P,U2,9,GND*%
%TO.N,GND*%
X301815000Y-82850000D03*
%TO.P,U2,8,SET*%
%TO.N,Net-(U2-SET)*%
X301815000Y-83500000D03*
%TO.P,U2,7,PGFB*%
%TO.N,Net-(D1-K)*%
X301815000Y-84150000D03*
%TO.P,U2,6,ILIM*%
%TO.N,Net-(U2-ILIM)*%
X297515000Y-84150000D03*
%TO.P,U2,5,PG*%
%TO.N,unconnected-(U2-PG-Pad5)*%
X297515000Y-83500000D03*
%TO.P,U2,4,EN/UV*%
%TO.N,VDDEXT*%
X297515000Y-82850000D03*
%TO.P,U2,3,IN*%
X297515000Y-82200000D03*
%TO.P,U2,2,IN*%
X297515000Y-81550000D03*
%TO.P,U2,1,IN*%
X297515000Y-80900000D03*
%TD*%
D19*
%TO.P,C49,1*%
%TO.N,/IREF*%
X159260000Y-68870000D03*
%TO.P,C49,2*%
%TO.N,GND*%
X159260000Y-70770000D03*
%TD*%
D13*
%TO.P,C10,2*%
%TO.N,GND*%
X292890000Y-83450000D03*
%TO.P,C10,1*%
%TO.N,VDDEXT*%
X294790000Y-83450000D03*
%TD*%
D23*
%TO.P,U10,48,1~{OE}*%
%TO.N,GND*%
X303271000Y-127590000D03*
%TO.P,U10,47,1A1*%
%TO.N,/DIGBUF_LEVSHIFT/AUX_BUF11*%
X303271000Y-128090000D03*
%TO.P,U10,46,1A2*%
%TO.N,/DIGBUF_LEVSHIFT/AUX_BUF10*%
X303271000Y-128590000D03*
%TO.P,U10,45,GND_8*%
%TO.N,GND*%
X303271000Y-129090000D03*
%TO.P,U10,44,1A3*%
%TO.N,/DIGBUF_LEVSHIFT/AUX_BUF9*%
X303271000Y-129590000D03*
%TO.P,U10,43,1A4*%
%TO.N,/DIGBUF_LEVSHIFT/AUX_BUF8*%
X303271000Y-130090000D03*
%TO.P,U10,42,VCCA_2*%
%TO.N,VDD3P3*%
X303271000Y-130590000D03*
%TO.P,U10,41,1A5*%
%TO.N,/DIGBUF_LEVSHIFT/AUX_BUF7*%
X303271000Y-131090000D03*
%TO.P,U10,40,1A6*%
%TO.N,/DIGBUF_LEVSHIFT/AUX_BUF6*%
X303271000Y-131590000D03*
%TO.P,U10,39,GND_7*%
%TO.N,GND*%
X303271000Y-132090000D03*
%TO.P,U10,38,1A7*%
%TO.N,/DIGBUF_LEVSHIFT/AUX_BUF5*%
X303271000Y-132590000D03*
%TO.P,U10,37,1A8*%
%TO.N,/DIGBUF_LEVSHIFT/AUX_BUF4*%
X303271000Y-133090000D03*
%TO.P,U10,36,2A1*%
%TO.N,/DIGBUF_LEVSHIFT/AUX_BUF3*%
X303271000Y-133590000D03*
%TO.P,U10,35,2A2*%
%TO.N,/DIGBUF_LEVSHIFT/AUX_BUF2*%
X303271000Y-134090000D03*
%TO.P,U10,34,GND_6*%
%TO.N,GND*%
X303271000Y-134590000D03*
%TO.P,U10,33,2A3*%
%TO.N,/DIGBUF_LEVSHIFT/AUX_BUF1*%
X303271000Y-135090000D03*
%TO.P,U10,32,2A4*%
%TO.N,/DIGBUF_LEVSHIFT/AUX_BUF0*%
X303271000Y-135590000D03*
%TO.P,U10,31,VCCA_1*%
%TO.N,VDD3P3*%
X303271000Y-136090000D03*
%TO.P,U10,30,2A5*%
%TO.N,/DIGBUF_LEVSHIFT/CLKRS_BUF*%
X303271000Y-136590000D03*
%TO.P,U10,29,2A6*%
%TO.N,/DIGBUF_LEVSHIFT/CCOUT_BUF*%
X303271000Y-137090000D03*
%TO.P,U10,28,GND_5*%
%TO.N,GND*%
X303271000Y-137590000D03*
%TO.P,U10,27,2A7*%
%TO.N,unconnected-(U10-2A7-Pad27)*%
X303271000Y-138090000D03*
%TO.P,U10,26,2A8*%
%TO.N,unconnected-(U10-2A8-Pad26)*%
X303271000Y-138590000D03*
%TO.P,U10,25,2~{OE}*%
%TO.N,GND*%
X303271000Y-139090000D03*
%TO.P,U10,24,2DIR*%
X295695000Y-139090000D03*
%TO.P,U10,23,2B8*%
X295695000Y-138590000D03*
%TO.P,U10,22,2B7*%
X295695000Y-138090000D03*
%TO.P,U10,21,GND_4*%
X295695000Y-137590000D03*
%TO.P,U10,20,2B6*%
X295695000Y-137090000D03*
%TO.P,U10,19,2B5*%
X295695000Y-136590000D03*
%TO.P,U10,18,VCCB_2*%
%TO.N,VDDD2P5*%
X295695000Y-136090000D03*
%TO.P,U10,17,2B4*%
%TO.N,/AUX0*%
X295695000Y-135590000D03*
%TO.P,U10,16,2B3*%
%TO.N,/AUX1*%
X295695000Y-135090000D03*
%TO.P,U10,15,GND_3*%
%TO.N,GND*%
X295695000Y-134590000D03*
%TO.P,U10,14,2B2*%
%TO.N,/AUX2*%
X295695000Y-134090000D03*
%TO.P,U10,13,2B1*%
%TO.N,/AUX3*%
X295695000Y-133590000D03*
%TO.P,U10,12,1B8*%
%TO.N,/AUX4*%
X295695000Y-133090000D03*
%TO.P,U10,11,1B7*%
%TO.N,/AUX5*%
X295695000Y-132590000D03*
%TO.P,U10,10,GND_2*%
%TO.N,GND*%
X295695000Y-132090000D03*
%TO.P,U10,9,1B6*%
%TO.N,/AUX6*%
X295695000Y-131590000D03*
%TO.P,U10,8,1B5*%
%TO.N,/AUX7*%
X295695000Y-131090000D03*
%TO.P,U10,7,VCCB_1*%
%TO.N,VDDD2P5*%
X295695000Y-130590000D03*
%TO.P,U10,6,1B4*%
%TO.N,/AUX8*%
X295695000Y-130090000D03*
%TO.P,U10,5,1B3*%
%TO.N,/AUX9*%
X295695000Y-129590000D03*
%TO.P,U10,4,GND_1*%
%TO.N,GND*%
X295695000Y-129090000D03*
%TO.P,U10,3,1B2*%
%TO.N,/AUX10*%
X295695000Y-128590000D03*
%TO.P,U10,2,1B1*%
%TO.N,/AUX11*%
X295695000Y-128090000D03*
%TO.P,U10,1,1DIR*%
%TO.N,GND*%
X295695000Y-127590000D03*
%TD*%
D12*
%TO.P,L3,2*%
%TO.N,Net-(J27-Pin_2)*%
X131971000Y-121160000D03*
%TO.P,L3,1*%
%TO.N,VDDOSC*%
X133599000Y-121160000D03*
%TD*%
D11*
%TO.P,J34,1,PRB*%
%TO.N,VDDEXT*%
X136305000Y-51265000D03*
%TD*%
D14*
%TO.P,C12,1*%
%TO.N,/VDD3P3/VDD3P3_INT*%
X304590000Y-81450000D03*
%TO.P,C12,2*%
%TO.N,GND*%
X306490000Y-81450000D03*
%TD*%
D20*
%TO.P,J4,1,Pin_1*%
%TO.N,Net-(J3-CNTR)*%
X316280000Y-83950000D03*
D21*
%TO.P,J4,2,Pin_2*%
%TO.N,VDD3P3*%
X313740000Y-83950000D03*
%TO.P,J4,3,Pin_3*%
%TO.N,/VDD3P3/VDD3P3_INT*%
X311200000Y-83950000D03*
%TD*%
D11*
%TO.P,J5,1,PRB*%
%TO.N,VDDD2P5*%
X274645000Y-81965000D03*
%TD*%
D24*
%TO.P,C43,1*%
%TO.N,VDDEXT*%
X139305000Y-55765000D03*
%TO.P,C43,2*%
%TO.N,GND*%
X139305000Y-53865000D03*
%TD*%
D14*
%TO.P,C28,1*%
%TO.N,/VREF/VREF_INT*%
X135945000Y-87650000D03*
%TO.P,C28,2*%
%TO.N,GND*%
X137845000Y-87650000D03*
%TD*%
D17*
%TO.P,R3,1*%
%TO.N,Net-(U3-ILIM)*%
X257022500Y-77765000D03*
%TO.P,R3,2*%
%TO.N,GND*%
X258847500Y-77765000D03*
%TD*%
%TO.P,R2,1*%
%TO.N,Net-(U2-SET)*%
X303727500Y-85950000D03*
%TO.P,R2,2*%
%TO.N,GND*%
X305552500Y-85950000D03*
%TD*%
D14*
%TO.P,C56,2*%
%TO.N,GND*%
X307955000Y-145540000D03*
%TO.P,C56,1*%
%TO.N,VDD3P3*%
X306055000Y-145540000D03*
%TD*%
D13*
%TO.P,C54,2*%
%TO.N,GND*%
X290615000Y-165970000D03*
%TO.P,C54,1*%
%TO.N,VDDD2P5*%
X292515000Y-165970000D03*
%TD*%
D26*
%TO.P,D5,1,K*%
%TO.N,Net-(D5-K)*%
X133595000Y-91850000D03*
%TO.P,D5,2,A*%
%TO.N,VDDEXT*%
X132195000Y-91850000D03*
%TD*%
D21*
%TO.P,J28,3,Pin_3*%
%TO.N,/VDDACORE/VDDTQ_INT*%
X129095000Y-166435000D03*
%TO.P,J28,2,Pin_2*%
%TO.N,Net-(J28-Pin_2)*%
X131635000Y-166435000D03*
D20*
%TO.P,J28,1,Pin_1*%
%TO.N,Net-(J26-CNTR)*%
X134175000Y-166435000D03*
%TD*%
%TO.P,J8,1,Pin_1*%
%TO.N,Net-(J7-CNTR)*%
X277175000Y-75865000D03*
D21*
%TO.P,J8,2,Pin_2*%
%TO.N,VDDD2P5*%
X274635000Y-75865000D03*
%TO.P,J8,3,Pin_3*%
%TO.N,/VDDD2P5/VDDD2P5_INT*%
X272095000Y-75865000D03*
%TD*%
D17*
%TO.P,R6,1*%
%TO.N,Net-(U4-SET)*%
X222422500Y-63040000D03*
%TO.P,R6,2*%
%TO.N,GND*%
X224247500Y-63040000D03*
%TD*%
D11*
%TO.P,J6,1,PRB*%
%TO.N,GND*%
X268335000Y-81965000D03*
%TD*%
D18*
%TO.P,VR4,3,CW*%
%TO.N,unconnected-(VR4-CW-Pad3)*%
X191725000Y-69085000D03*
%TO.P,VR4,2,WIPER*%
%TO.N,GND*%
X189185000Y-69085000D03*
%TO.P,VR4,1,CCW*%
%TO.N,Net-(U9-SET)*%
X186645000Y-69085000D03*
%TD*%
D13*
%TO.P,C14,1*%
%TO.N,VDDEXT*%
X255685000Y-75275000D03*
%TO.P,C14,2*%
%TO.N,GND*%
X253785000Y-75275000D03*
%TD*%
D21*
%TO.P,J46,68,Pin_68*%
%TO.N,GND*%
X331200000Y-190625000D03*
%TO.P,J46,67,Pin_67*%
%TO.N,/DIGBUF_LEVSHIFT/DOUT_BUF18*%
X328660000Y-190625000D03*
%TO.P,J46,66,Pin_66*%
%TO.N,GND*%
X331200000Y-188085000D03*
%TO.P,J46,65,Pin_65*%
%TO.N,/DIGBUF_LEVSHIFT/DOUT_BUF17*%
X328660000Y-188085000D03*
%TO.P,J46,64,Pin_64*%
%TO.N,GND*%
X331200000Y-185545000D03*
%TO.P,J46,63,Pin_63*%
%TO.N,/DIGBUF_LEVSHIFT/DOUT_BUF16*%
X328660000Y-185545000D03*
%TO.P,J46,62,Pin_62*%
%TO.N,GND*%
X331200000Y-183005000D03*
%TO.P,J46,61,Pin_61*%
%TO.N,/DIGBUF_LEVSHIFT/DOUT_BUF15*%
X328660000Y-183005000D03*
%TO.P,J46,60,Pin_60*%
%TO.N,GND*%
X331200000Y-180465000D03*
%TO.P,J46,59,Pin_59*%
%TO.N,/DIGBUF_LEVSHIFT/DOUT_BUF14*%
X328660000Y-180465000D03*
%TO.P,J46,58,Pin_58*%
%TO.N,GND*%
X331200000Y-177925000D03*
%TO.P,J46,57,Pin_57*%
%TO.N,/DIGBUF_LEVSHIFT/DOUT_BUF13*%
X328660000Y-177925000D03*
%TO.P,J46,56,Pin_56*%
%TO.N,GND*%
X331200000Y-175385000D03*
%TO.P,J46,55,Pin_55*%
%TO.N,/DIGBUF_LEVSHIFT/DOUT_BUF12*%
X328660000Y-175385000D03*
%TO.P,J46,54,Pin_54*%
%TO.N,GND*%
X331200000Y-172845000D03*
%TO.P,J46,53,Pin_53*%
%TO.N,/DIGBUF_LEVSHIFT/DOUT_BUF11*%
X328660000Y-172845000D03*
%TO.P,J46,52,Pin_52*%
%TO.N,GND*%
X331200000Y-170305000D03*
%TO.P,J46,51,Pin_51*%
%TO.N,/DIGBUF_LEVSHIFT/DOUT_BUF10*%
X328660000Y-170305000D03*
%TO.P,J46,50,Pin_50*%
%TO.N,GND*%
X331200000Y-167765000D03*
%TO.P,J46,49,Pin_49*%
%TO.N,/DIGBUF_LEVSHIFT/DOUT_BUF9*%
X328660000Y-167765000D03*
%TO.P,J46,48,Pin_48*%
%TO.N,GND*%
X331200000Y-165225000D03*
%TO.P,J46,47,Pin_47*%
%TO.N,/DIGBUF_LEVSHIFT/DOUT_BUF8*%
X328660000Y-165225000D03*
%TO.P,J46,46,Pin_46*%
%TO.N,GND*%
X331200000Y-162685000D03*
%TO.P,J46,45,Pin_45*%
%TO.N,/DIGBUF_LEVSHIFT/DOUT_BUF7*%
X328660000Y-162685000D03*
%TO.P,J46,44,Pin_44*%
%TO.N,GND*%
X331200000Y-160145000D03*
%TO.P,J46,43,Pin_43*%
%TO.N,/DIGBUF_LEVSHIFT/DOUT_BUF6*%
X328660000Y-160145000D03*
%TO.P,J46,42,Pin_42*%
%TO.N,GND*%
X331200000Y-157605000D03*
%TO.P,J46,41,Pin_41*%
%TO.N,/DIGBUF_LEVSHIFT/DOUT_BUF5*%
X328660000Y-157605000D03*
%TO.P,J46,40,Pin_40*%
%TO.N,GND*%
X331200000Y-155065000D03*
%TO.P,J46,39,Pin_39*%
%TO.N,/DIGBUF_LEVSHIFT/DOUT_BUF4*%
X328660000Y-155065000D03*
%TO.P,J46,38,Pin_38*%
%TO.N,GND*%
X331200000Y-152525000D03*
%TO.P,J46,37,Pin_37*%
%TO.N,/DIGBUF_LEVSHIFT/DOUT_BUF3*%
X328660000Y-152525000D03*
%TO.P,J46,36,Pin_36*%
%TO.N,GND*%
X331200000Y-149985000D03*
%TO.P,J46,35,Pin_35*%
%TO.N,/DIGBUF_LEVSHIFT/DOUT_BUF2*%
X328660000Y-149985000D03*
%TO.P,J46,34,Pin_34*%
%TO.N,GND*%
X331200000Y-147445000D03*
%TO.P,J46,33,Pin_33*%
%TO.N,/DIGBUF_LEVSHIFT/DOUT_BUF1*%
X328660000Y-147445000D03*
%TO.P,J46,32,Pin_32*%
%TO.N,GND*%
X331200000Y-144905000D03*
%TO.P,J46,31,Pin_31*%
%TO.N,/DIGBUF_LEVSHIFT/DOUT_BUF0*%
X328660000Y-144905000D03*
%TO.P,J46,30,Pin_30*%
%TO.N,GND*%
X331200000Y-142365000D03*
%TO.P,J46,29,Pin_29*%
%TO.N,/DIGBUF_LEVSHIFT/CLKOUT_BUF*%
X328660000Y-142365000D03*
%TO.P,J46,28,Pin_28*%
%TO.N,GND*%
X331200000Y-139825000D03*
%TO.P,J46,27,Pin_27*%
%TO.N,/DIGBUF_LEVSHIFT/CCOUT_BUF*%
X328660000Y-139825000D03*
%TO.P,J46,26,Pin_26*%
%TO.N,GND*%
X331200000Y-137285000D03*
%TO.P,J46,25,Pin_25*%
%TO.N,/DIGBUF_LEVSHIFT/CLKRS_BUF*%
X328660000Y-137285000D03*
%TO.P,J46,24,Pin_24*%
%TO.N,GND*%
X331200000Y-134745000D03*
%TO.P,J46,23,Pin_23*%
%TO.N,/DIGBUF_LEVSHIFT/AUX_BUF0*%
X328660000Y-134745000D03*
%TO.P,J46,22,Pin_22*%
%TO.N,GND*%
X331200000Y-132205000D03*
%TO.P,J46,21,Pin_21*%
%TO.N,/DIGBUF_LEVSHIFT/AUX_BUF1*%
X328660000Y-132205000D03*
%TO.P,J46,20,Pin_20*%
%TO.N,GND*%
X331200000Y-129665000D03*
%TO.P,J46,19,Pin_19*%
%TO.N,/DIGBUF_LEVSHIFT/AUX_BUF2*%
X328660000Y-129665000D03*
%TO.P,J46,18,Pin_18*%
%TO.N,GND*%
X331200000Y-127125000D03*
%TO.P,J46,17,Pin_17*%
%TO.N,/DIGBUF_LEVSHIFT/AUX_BUF3*%
X328660000Y-127125000D03*
%TO.P,J46,16,Pin_16*%
%TO.N,GND*%
X331200000Y-124585000D03*
%TO.P,J46,15,Pin_15*%
%TO.N,/DIGBUF_LEVSHIFT/AUX_BUF4*%
X328660000Y-124585000D03*
%TO.P,J46,14,Pin_14*%
%TO.N,GND*%
X331200000Y-122045000D03*
%TO.P,J46,13,Pin_13*%
%TO.N,/DIGBUF_LEVSHIFT/AUX_BUF5*%
X328660000Y-122045000D03*
%TO.P,J46,12,Pin_12*%
%TO.N,GND*%
X331200000Y-119505000D03*
%TO.P,J46,11,Pin_11*%
%TO.N,/DIGBUF_LEVSHIFT/AUX_BUF6*%
X328660000Y-119505000D03*
%TO.P,J46,10,Pin_10*%
%TO.N,GND*%
X331200000Y-116965000D03*
%TO.P,J46,9,Pin_9*%
%TO.N,/DIGBUF_LEVSHIFT/AUX_BUF7*%
X328660000Y-116965000D03*
%TO.P,J46,8,Pin_8*%
%TO.N,GND*%
X331200000Y-114425000D03*
%TO.P,J46,7,Pin_7*%
%TO.N,/DIGBUF_LEVSHIFT/AUX_BUF8*%
X328660000Y-114425000D03*
%TO.P,J46,6,Pin_6*%
%TO.N,GND*%
X331200000Y-111885000D03*
%TO.P,J46,5,Pin_5*%
%TO.N,/DIGBUF_LEVSHIFT/AUX_BUF9*%
X328660000Y-111885000D03*
%TO.P,J46,4,Pin_4*%
%TO.N,GND*%
X331200000Y-109345000D03*
%TO.P,J46,3,Pin_3*%
%TO.N,/DIGBUF_LEVSHIFT/AUX_BUF10*%
X328660000Y-109345000D03*
%TO.P,J46,2,Pin_2*%
%TO.N,GND*%
X331200000Y-106805000D03*
D20*
%TO.P,J46,1,Pin_1*%
%TO.N,/DIGBUF_LEVSHIFT/AUX_BUF11*%
X328660000Y-106805000D03*
%TD*%
D12*
%TO.P,L1,2*%
%TO.N,Net-(J16-Pin_2)*%
X126841000Y-194810000D03*
%TO.P,L1,1*%
%TO.N,VDDA2P5*%
X128469000Y-194810000D03*
%TD*%
D17*
%TO.P,R8,2*%
%TO.N,GND*%
X118697500Y-193640000D03*
%TO.P,R8,1*%
%TO.N,Net-(U5-SET)*%
X116872500Y-193640000D03*
%TD*%
%TO.P,R1,2*%
%TO.N,GND*%
X297952500Y-85850000D03*
%TO.P,R1,1*%
%TO.N,Net-(U2-ILIM)*%
X296127500Y-85850000D03*
%TD*%
D13*
%TO.P,C32,2*%
%TO.N,GND*%
X110795000Y-165935000D03*
%TO.P,C32,1*%
%TO.N,VDDEXT*%
X112695000Y-165935000D03*
%TD*%
D27*
%TO.P,FID4,*%
%TO.N,*%
X207465000Y-199935000D03*
%TD*%
D13*
%TO.P,C50,2*%
%TO.N,GND*%
X290885000Y-145540000D03*
%TO.P,C50,1*%
%TO.N,VDDD2P5*%
X292785000Y-145540000D03*
%TD*%
%TO.P,C18,1*%
%TO.N,VDDEXT*%
X213485000Y-60740000D03*
%TO.P,C18,2*%
%TO.N,GND*%
X211585000Y-60740000D03*
%TD*%
D14*
%TO.P,C60,2*%
%TO.N,GND*%
X308225000Y-165970000D03*
%TO.P,C60,1*%
%TO.N,VDD3P3*%
X306325000Y-165970000D03*
%TD*%
D11*
%TO.P,J35,1,PRB*%
%TO.N,GND*%
X136305000Y-64265000D03*
%TD*%
D22*
%TO.P,R13,1*%
%TO.N,VDDCCO*%
X166385000Y-75820000D03*
%TO.P,R13,2*%
%TO.N,/IREF*%
X164560000Y-75820000D03*
%TD*%
D14*
%TO.P,C33,2*%
%TO.N,GND*%
X123865000Y-117990000D03*
%TO.P,C33,1*%
%TO.N,Net-(U7-SET)*%
X121965000Y-117990000D03*
%TD*%
D17*
%TO.P,R11,2*%
%TO.N,GND*%
X115857500Y-168335000D03*
%TO.P,R11,1*%
%TO.N,Net-(U8-ILIM)*%
X114032500Y-168335000D03*
%TD*%
%TO.P,R14,1*%
%TO.N,VDDD2P5*%
X282787500Y-119716199D03*
%TO.P,R14,2*%
%TO.N,/SDA*%
X284612500Y-119716199D03*
%TD*%
D13*
%TO.P,C22,2*%
%TO.N,GND*%
X106035000Y-191340000D03*
%TO.P,C22,1*%
%TO.N,VDDEXT*%
X107935000Y-191340000D03*
%TD*%
D14*
%TO.P,C15,1*%
%TO.N,Net-(U3-SET)*%
X264585000Y-75665000D03*
%TO.P,C15,2*%
%TO.N,GND*%
X266485000Y-75665000D03*
%TD*%
%TO.P,C36,2*%
%TO.N,GND*%
X124395000Y-164135000D03*
%TO.P,C36,1*%
%TO.N,/VDDACORE/VDDTQ_INT*%
X122495000Y-164135000D03*
%TD*%
D11*
%TO.P,J22,1,PRB*%
%TO.N,GND*%
X125695000Y-124290000D03*
%TD*%
D14*
%TO.P,C23,2*%
%TO.N,GND*%
X118735000Y-191640000D03*
%TO.P,C23,1*%
%TO.N,Net-(U5-SET)*%
X116835000Y-191640000D03*
%TD*%
%TO.P,C11,1*%
%TO.N,Net-(U2-SET)*%
X303690000Y-83750000D03*
%TO.P,C11,2*%
%TO.N,GND*%
X305590000Y-83750000D03*
%TD*%
D10*
%TO.P,J3,1,CNTR*%
%TO.N,Net-(J3-CNTR)*%
X314040000Y-73750000D03*
D11*
%TO.P,J3,2,GND*%
%TO.N,GND*%
X311500000Y-76290000D03*
%TO.P,J3,3,GND*%
X316580000Y-76290000D03*
%TO.P,J3,4,GND*%
X316580000Y-71210000D03*
%TO.P,J3,5,GND*%
X311500000Y-71210000D03*
%TD*%
D25*
%TO.P,J39,5,GND*%
%TO.N,GND*%
X149139989Y-198139136D03*
%TO.P,J39,4,GND*%
X145547887Y-194547034D03*
%TO.P,J39,3,GND*%
X149139989Y-190954932D03*
%TO.P,J39,2,GND*%
X152732091Y-194547034D03*
%TO.P,J39,1,CNTR*%
%TO.N,/CLKIN_P*%
X149139989Y-194547034D03*
%TD*%
D26*
%TO.P,D4,2,A*%
%TO.N,VDDEXT*%
X113985000Y-193740000D03*
%TO.P,D4,1,K*%
%TO.N,Net-(D4-K)*%
X115385000Y-193740000D03*
%TD*%
D11*
%TO.P,J25,5,GND*%
%TO.N,GND*%
X129775000Y-105450000D03*
%TO.P,J25,4,GND*%
X134855000Y-105450000D03*
%TO.P,J25,3,GND*%
X134855000Y-110530000D03*
%TO.P,J25,2,GND*%
X129775000Y-110530000D03*
D10*
%TO.P,J25,1,CNTR*%
%TO.N,Net-(J25-CNTR)*%
X132315000Y-107990000D03*
%TD*%
D11*
%TO.P,J10,1,PRB*%
%TO.N,GND*%
X226135000Y-67340000D03*
%TD*%
D14*
%TO.P,C34,2*%
%TO.N,GND*%
X123495000Y-166235000D03*
%TO.P,C34,1*%
%TO.N,Net-(U8-SET)*%
X121595000Y-166235000D03*
%TD*%
D13*
%TO.P,C17,1*%
%TO.N,VDDEXT*%
X213485000Y-58340000D03*
%TO.P,C17,2*%
%TO.N,GND*%
X211585000Y-58340000D03*
%TD*%
%TO.P,C55,2*%
%TO.N,GND*%
X290670000Y-136110000D03*
%TO.P,C55,1*%
%TO.N,VDDD2P5*%
X292570000Y-136110000D03*
%TD*%
D24*
%TO.P,C46,1*%
%TO.N,VDDEXT*%
X146805000Y-55765000D03*
%TO.P,C46,2*%
%TO.N,GND*%
X146805000Y-53865000D03*
%TD*%
D13*
%TO.P,C37,2*%
%TO.N,GND*%
X181825000Y-62885000D03*
%TO.P,C37,1*%
%TO.N,VDDEXT*%
X183725000Y-62885000D03*
%TD*%
D24*
%TO.P,C44,1*%
%TO.N,VDDEXT*%
X141805000Y-55765000D03*
%TO.P,C44,2*%
%TO.N,GND*%
X141805000Y-53865000D03*
%TD*%
D19*
%TO.P,C47,1*%
%TO.N,VDDEXT*%
X144305000Y-59765000D03*
%TO.P,C47,2*%
%TO.N,GND*%
X144305000Y-61665000D03*
%TD*%
D18*
%TO.P,VR3,3,CW*%
%TO.N,unconnected-(VR3-CW-Pad3)*%
X120695000Y-172135000D03*
%TO.P,VR3,2,WIPER*%
%TO.N,GND*%
X118155000Y-172135000D03*
%TO.P,VR3,1,CCW*%
%TO.N,Net-(U8-SET)*%
X115615000Y-172135000D03*
%TD*%
D14*
%TO.P,C40,2*%
%TO.N,GND*%
X195425000Y-61085000D03*
%TO.P,C40,1*%
%TO.N,/VDDACORE/VDDCCO_INT*%
X193525000Y-61085000D03*
%TD*%
D20*
%TO.P,J12,1,Pin_1*%
%TO.N,Net-(J11-CNTR)*%
X234970000Y-61240000D03*
D21*
%TO.P,J12,2,Pin_2*%
%TO.N,VDDD1P2*%
X232430000Y-61240000D03*
%TO.P,J12,3,Pin_3*%
%TO.N,/VDDD1P2/VDD1P2_INT*%
X229890000Y-61240000D03*
%TD*%
D11*
%TO.P,J31,5,GND*%
%TO.N,GND*%
X200435000Y-50645000D03*
%TO.P,J31,4,GND*%
X205515000Y-50645000D03*
%TO.P,J31,3,GND*%
X205515000Y-55725000D03*
%TO.P,J31,2,GND*%
X200435000Y-55725000D03*
D10*
%TO.P,J31,1,CNTR*%
%TO.N,Net-(J31-CNTR)*%
X202975000Y-53185000D03*
%TD*%
D26*
%TO.P,D8,2,A*%
%TO.N,VDDEXT*%
X189775000Y-65285000D03*
%TO.P,D8,1,K*%
%TO.N,Net-(D8-K)*%
X191175000Y-65285000D03*
%TD*%
D14*
%TO.P,C57,2*%
%TO.N,GND*%
X307955000Y-160470000D03*
%TO.P,C57,1*%
%TO.N,VDD3P3*%
X306055000Y-160470000D03*
%TD*%
D33*
%TO.P,R16,2*%
%TO.N,Net-(J47-CNTR)*%
X199568312Y-142737000D03*
%TO.P,R16,1*%
%TO.N,/IN*%
X201218312Y-142737000D03*
%TD*%
D14*
%TO.P,C19,1*%
%TO.N,Net-(U4-SET)*%
X222385000Y-61040000D03*
%TO.P,C19,2*%
%TO.N,GND*%
X224285000Y-61040000D03*
%TD*%
D31*
%TO.P,S1,4,A*%
%TO.N,GND*%
X171020000Y-216665000D03*
%TO.P,S1,3,A*%
X171020000Y-225765000D03*
%TO.P,S1,2,B*%
%TO.N,/RSTB*%
X166220000Y-216665000D03*
%TO.P,S1,1,B*%
X166220000Y-225765000D03*
%TD*%
D18*
%TO.P,VR5,1,CCW*%
%TO.N,unconnected-(VR5-CCW-Pad1)*%
X166720000Y-71820000D03*
%TO.P,VR5,2,WIPER*%
%TO.N,/IREF/IREF_INT*%
X169260000Y-71820000D03*
%TO.P,VR5,3,CW*%
%TO.N,Net-(J36-Pin_2)*%
X171800000Y-71820000D03*
%TD*%
D14*
%TO.P,C16,1*%
%TO.N,/VDDD2P5/VDDD2P5_INT*%
X265485000Y-73565000D03*
%TO.P,C16,2*%
%TO.N,GND*%
X267385000Y-73565000D03*
%TD*%
D26*
%TO.P,D6,2,A*%
%TO.N,VDDEXT*%
X119115000Y-120090000D03*
%TO.P,D6,1,K*%
%TO.N,Net-(D6-K)*%
X120515000Y-120090000D03*
%TD*%
D10*
%TO.P,J33,1,CNTR*%
%TO.N,Net-(J33-CNTR)*%
X127625000Y-58015000D03*
D11*
%TO.P,J33,2,GND*%
%TO.N,GND*%
X130165000Y-60555000D03*
%TO.P,J33,3,GND*%
X130165000Y-55475000D03*
%TO.P,J33,4,GND*%
X125085000Y-55475000D03*
%TO.P,J33,5,GND*%
X125085000Y-60555000D03*
%TD*%
D26*
%TO.P,D7,2,A*%
%TO.N,VDDEXT*%
X118745000Y-168335000D03*
%TO.P,D7,1,K*%
%TO.N,Net-(D7-K)*%
X120145000Y-168335000D03*
%TD*%
D13*
%TO.P,C9,2*%
%TO.N,GND*%
X292890000Y-81050000D03*
%TO.P,C9,1*%
%TO.N,VDDEXT*%
X294790000Y-81050000D03*
%TD*%
D14*
%TO.P,C61,2*%
%TO.N,GND*%
X308285000Y-136110000D03*
%TO.P,C61,1*%
%TO.N,VDD3P3*%
X306385000Y-136110000D03*
%TD*%
D21*
%TO.P,J32,3,Pin_3*%
%TO.N,/VDDACORE/VDDCCO_INT*%
X200125000Y-63385000D03*
%TO.P,J32,2,Pin_2*%
%TO.N,Net-(J32-Pin_2)*%
X202665000Y-63385000D03*
D20*
%TO.P,J32,1,Pin_1*%
%TO.N,Net-(J31-CNTR)*%
X205205000Y-63385000D03*
%TD*%
D11*
%TO.P,J30,1,PRB*%
%TO.N,GND*%
X196355000Y-69485000D03*
%TD*%
D34*
%TO.N,/RSTB*%
X204540000Y-149955000D03*
%TO.N,/IREF*%
X162760000Y-73320000D03*
X162760000Y-72320000D03*
X162760000Y-71320000D03*
%TO.N,VDDEXT*%
X109185000Y-189440000D03*
X138805000Y-57265000D03*
X130395000Y-92450000D03*
X140805000Y-57265000D03*
X127395000Y-88250000D03*
X296040000Y-82250000D03*
X145805000Y-57265000D03*
X117315000Y-120690000D03*
X127395000Y-87550000D03*
X259935000Y-78365000D03*
X143805000Y-58265000D03*
X140805000Y-58265000D03*
X109185000Y-188740000D03*
X214735000Y-58140000D03*
X116945000Y-168935000D03*
X217735000Y-63740000D03*
X256935000Y-73465000D03*
X141805000Y-58265000D03*
X184975000Y-60285000D03*
X299040000Y-86450000D03*
X139805000Y-58265000D03*
X113945000Y-163335000D03*
X142805000Y-57265000D03*
X214735000Y-58840000D03*
X147805000Y-58265000D03*
X184975000Y-60985000D03*
X113945000Y-164035000D03*
X184975000Y-61685000D03*
X114315000Y-116490000D03*
X144805000Y-57265000D03*
X187975000Y-65885000D03*
X256935000Y-72765000D03*
X141805000Y-57265000D03*
X144805000Y-58265000D03*
X138805000Y-58265000D03*
X146805000Y-57265000D03*
X296040000Y-81550000D03*
X112185000Y-194340000D03*
X145805000Y-58265000D03*
X127395000Y-86850000D03*
X139805000Y-57265000D03*
X256935000Y-74165000D03*
X109185000Y-190140000D03*
X143805000Y-57265000D03*
X142805000Y-58265000D03*
X114315000Y-115090000D03*
X146805000Y-58265000D03*
X147805000Y-57265000D03*
X296040000Y-80850000D03*
X113945000Y-164735000D03*
X114315000Y-115790000D03*
X214735000Y-59540000D03*
%TO.N,/VDD3P3/VDD3P3_INT*%
X303240000Y-82250000D03*
X303240000Y-81550000D03*
X303240000Y-80850000D03*
%TO.N,VDD3P3*%
X307000000Y-129120000D03*
X306345000Y-167430000D03*
X307005000Y-144110000D03*
X307050000Y-134680000D03*
X306725000Y-159180000D03*
X307085000Y-149660000D03*
%TO.N,VDDD2P5*%
X291610000Y-134620000D03*
X281732500Y-121656199D03*
X208503312Y-149597000D03*
X281732500Y-119716199D03*
X172575000Y-213467500D03*
X291715000Y-149680000D03*
X291970000Y-129230000D03*
X291945000Y-164540000D03*
X292035000Y-144120000D03*
X292125000Y-159030000D03*
X212713312Y-138537000D03*
%TO.N,/VDDD2P5/VDDD2P5_INT*%
X264135000Y-72765000D03*
X264135000Y-74165000D03*
X264135000Y-73465000D03*
%TO.N,/VDDD1P2/VDD1P2_INT*%
X221935000Y-59540000D03*
X221935000Y-58140000D03*
X221935000Y-58840000D03*
%TO.N,VDDD1P2*%
X202793312Y-136177000D03*
X205673312Y-136177000D03*
%TO.N,/VDDA2P5/VDDA2P5_INT*%
X116385000Y-190140000D03*
X116385000Y-188740000D03*
X116385000Y-189440000D03*
%TO.N,VDDA2P5*%
X129785000Y-194540000D03*
X129785000Y-195540000D03*
X130885000Y-194540000D03*
X130885000Y-195540000D03*
X201753312Y-146247000D03*
%TO.N,/VREF/VREF_INT*%
X134595000Y-86850000D03*
X134595000Y-87550000D03*
X134595000Y-88250000D03*
%TO.N,VREF*%
X147995000Y-92650000D03*
X147995000Y-93650000D03*
X149095000Y-92650000D03*
X198303312Y-143312500D03*
X149095000Y-93650000D03*
X127765000Y-97070000D03*
%TO.N,/VDDACORE/VDDTQ_INT*%
X121145000Y-163335000D03*
X121145000Y-164035000D03*
X121145000Y-164735000D03*
%TO.N,/VDDACORE/VDDCCO_INT*%
X192175000Y-60285000D03*
X192175000Y-61685000D03*
X192175000Y-60985000D03*
%TO.N,VDDOSC*%
X196653312Y-146827000D03*
X136015000Y-121890000D03*
X134915000Y-121890000D03*
X196653312Y-146157000D03*
X134915000Y-120890000D03*
X136015000Y-120890000D03*
X114685000Y-125310000D03*
%TO.N,VDDTQ*%
X135645000Y-169135000D03*
X134545000Y-170135000D03*
X134545000Y-169135000D03*
X135645000Y-170135000D03*
X114315000Y-173555000D03*
X201123312Y-145237000D03*
X200293312Y-145277000D03*
%TO.N,/VDDACORE/VDDOSC_INT*%
X121515000Y-116490000D03*
X121515000Y-115790000D03*
X121515000Y-115090000D03*
%TO.N,/IREF*%
X202133312Y-142417000D03*
%TO.N,/SDA*%
X285660000Y-119716199D03*
%TO.N,/RSTB*%
X201053312Y-138327000D03*
%TO.N,GND*%
X305205000Y-143440000D03*
X309310000Y-130610000D03*
X309255000Y-151040000D03*
X195853312Y-144237000D03*
X172670000Y-219915000D03*
X124445000Y-165435000D03*
X141805000Y-52265000D03*
X294145000Y-154090000D03*
X123195000Y-89050000D03*
X299040000Y-85750000D03*
X294391000Y-126760000D03*
X305205000Y-158370000D03*
X260535000Y-77065000D03*
X252735000Y-73065000D03*
X117915000Y-119390000D03*
X291840000Y-83650000D03*
X144305000Y-63265000D03*
X201783312Y-147197000D03*
X116945000Y-168235000D03*
X104985000Y-190940000D03*
X289586000Y-165970000D03*
X210535000Y-58440000D03*
X203443312Y-138377000D03*
X124345000Y-162835000D03*
X123195000Y-86550000D03*
X293886000Y-149390000D03*
X196843312Y-147907000D03*
X112185000Y-193640000D03*
X305010000Y-134460000D03*
X293941000Y-134460000D03*
X204233312Y-134237000D03*
X112785000Y-193040000D03*
X304955000Y-154310000D03*
X119685000Y-190840000D03*
X305260000Y-132410000D03*
X195375000Y-59785000D03*
X109745000Y-163035000D03*
X137795000Y-86350000D03*
X110115000Y-117290000D03*
X299640000Y-85150000D03*
X172620000Y-222365000D03*
X304760000Y-138660000D03*
X210535000Y-60340000D03*
X305260000Y-128510000D03*
X207063312Y-152277000D03*
X144305000Y-52265000D03*
X204413312Y-147737000D03*
X180775000Y-63085000D03*
X119585000Y-188240000D03*
X289586000Y-145540000D03*
X124715000Y-114590000D03*
X195475000Y-62385000D03*
X110115000Y-114790000D03*
X304760000Y-137960000D03*
X117545000Y-168235000D03*
X217735000Y-62440000D03*
X291840000Y-80550000D03*
X293636000Y-143440000D03*
X210535000Y-57840000D03*
X188575000Y-64585000D03*
X117915000Y-119990000D03*
X187975000Y-65185000D03*
X217735000Y-63040000D03*
X252735000Y-72465000D03*
X291840000Y-81150000D03*
X137895000Y-88950000D03*
X130995000Y-91750000D03*
X117545000Y-167635000D03*
X293636000Y-147340000D03*
X104985000Y-188440000D03*
X123195000Y-87150000D03*
X252735000Y-75565000D03*
X218335000Y-62440000D03*
X304955000Y-149390000D03*
X104985000Y-191540000D03*
X293636000Y-158370000D03*
X293691000Y-128510000D03*
X159760000Y-72320000D03*
X304949000Y-168820000D03*
X130395000Y-91150000D03*
X293691000Y-132410000D03*
X259935000Y-77665000D03*
X252735000Y-74965000D03*
X146805000Y-63265000D03*
X305205000Y-147340000D03*
X304955000Y-164320000D03*
X309310000Y-136110000D03*
X187975000Y-64585000D03*
X309255000Y-165970000D03*
X304560000Y-152525000D03*
X294336000Y-156620000D03*
X304949000Y-167320000D03*
X117315000Y-119390000D03*
X225235000Y-60240000D03*
X109745000Y-165535000D03*
X180775000Y-60585000D03*
X306440000Y-80350000D03*
X267335000Y-72265000D03*
X180775000Y-62485000D03*
X109745000Y-166135000D03*
X305205000Y-162270000D03*
X294191000Y-138660000D03*
X180775000Y-59985000D03*
X110115000Y-115390000D03*
X289641000Y-136110000D03*
X112785000Y-193640000D03*
X293938970Y-152533970D03*
X123195000Y-89650000D03*
X124815000Y-117190000D03*
X294336000Y-141690000D03*
X141805000Y-63265000D03*
X210535000Y-60940000D03*
X259935000Y-77065000D03*
X260535000Y-77665000D03*
X309255000Y-160470000D03*
X289586000Y-160470000D03*
X110115000Y-117890000D03*
X217063312Y-139107000D03*
X299040000Y-85150000D03*
X117315000Y-119990000D03*
X299640000Y-85750000D03*
X309255000Y-145540000D03*
X130995000Y-91150000D03*
X130395000Y-91750000D03*
X291840000Y-83050000D03*
X304505000Y-141690000D03*
X198593312Y-139627000D03*
X146805000Y-52265000D03*
X225135000Y-57640000D03*
X289586000Y-151040000D03*
X304560000Y-126760000D03*
X218335000Y-63040000D03*
X289641000Y-130610000D03*
X267435000Y-74865000D03*
X294015000Y-167590000D03*
X202106249Y-141584063D03*
X188575000Y-65185000D03*
X139305000Y-63265000D03*
X202653312Y-145997000D03*
X116945000Y-167635000D03*
X158760000Y-72320000D03*
X112185000Y-193040000D03*
X104985000Y-189040000D03*
X139305000Y-52265000D03*
X304505000Y-156620000D03*
X294191000Y-137960000D03*
X306540000Y-82950000D03*
X109745000Y-163635000D03*
X294005000Y-163470000D03*
%TO.N,VDDCCO*%
X201043312Y-140557000D03*
X168060000Y-75820000D03*
X206675000Y-67085000D03*
X185345000Y-70505000D03*
X205575000Y-67085000D03*
X205575000Y-66085000D03*
X206675000Y-66085000D03*
%TD*%
D35*
%TO.N,/DIGBUF_LEVSHIFT/AUX_BUF0*%
X303271000Y-135590000D02*
X305517039Y-135590000D01*
X305517039Y-135590000D02*
X306867539Y-134239500D01*
X306867539Y-134239500D02*
X328154500Y-134239500D01*
X328154500Y-134239500D02*
X328660000Y-134745000D01*
%TO.N,/DOUT2*%
X290594354Y-141587000D02*
X292626177Y-143618823D01*
D36*
%TO.N,VDDCCO*%
X203605812Y-141587000D02*
X202823364Y-141587000D01*
X202823364Y-141587000D02*
X201793364Y-140557000D01*
X201793364Y-140557000D02*
X201043312Y-140557000D01*
D35*
%TO.N,/RSTB*%
X205039312Y-150555000D02*
X205039312Y-150454312D01*
X205039312Y-150454312D02*
X204540000Y-149955000D01*
X178310395Y-205105395D02*
X190245395Y-193170395D01*
X170030000Y-208665000D02*
X173589605Y-205105395D01*
X173589605Y-205105395D02*
X178310395Y-205105395D01*
X203390395Y-180025395D02*
X205039312Y-178376478D01*
X205039312Y-178376478D02*
X205039312Y-178005000D01*
X205039312Y-178005000D02*
X205039312Y-150555000D01*
X190245395Y-193170395D02*
X203390395Y-180025395D01*
%TO.N,/RSTBCLK*%
X205293312Y-146774500D02*
X205293312Y-178481688D01*
X205293312Y-178481688D02*
X175110000Y-208665000D01*
%TO.N,/SCL*%
X202726312Y-134555353D02*
X202724647Y-134555353D01*
X202724647Y-134555353D02*
X202025812Y-135254188D01*
%TO.N,/SDA*%
X203605812Y-139587000D02*
X202753312Y-138734500D01*
X202753312Y-138734500D02*
X202753312Y-136863199D01*
X202753312Y-136863199D02*
X202279812Y-136389699D01*
X202279812Y-136389699D02*
X202279812Y-135464301D01*
X202279812Y-135464301D02*
X213345737Y-124398376D01*
X213345737Y-124398376D02*
X284756624Y-124398376D01*
X284756624Y-124398376D02*
X287628801Y-121526199D01*
X287628801Y-121526199D02*
X287790000Y-121526199D01*
%TO.N,/SCL*%
X287790000Y-116446199D02*
X286260000Y-117976199D01*
X286260000Y-117976199D02*
X286260000Y-122432552D01*
X286260000Y-122432552D02*
X284548177Y-124144376D01*
X213137289Y-124144376D02*
X202726312Y-134555353D01*
X284548177Y-124144376D02*
X213137289Y-124144376D01*
X202426312Y-136998647D02*
X202426312Y-139407500D01*
X202025812Y-135254188D02*
X202025812Y-136598147D01*
X202025812Y-136598147D02*
X202426312Y-136998647D01*
X202426312Y-139407500D02*
X203605812Y-140587000D01*
%TO.N,/CCOUT*%
X205793312Y-146774500D02*
X205793312Y-148636638D01*
X205793312Y-148636638D02*
X207585674Y-150429000D01*
X207585674Y-150429000D02*
X277309790Y-150429000D01*
X277309790Y-150429000D02*
X289180790Y-162300000D01*
X294195000Y-161450000D02*
X295634000Y-161450000D01*
X289180790Y-162300000D02*
X293345000Y-162300000D01*
X293345000Y-162300000D02*
X294195000Y-161450000D01*
%TO.N,/CLKRS*%
X206293312Y-146774500D02*
X206293312Y-148777428D01*
X206293312Y-148777428D02*
X207690884Y-150175000D01*
X207690884Y-150175000D02*
X277415000Y-150175000D01*
X277415000Y-150175000D02*
X288930000Y-161690000D01*
X288930000Y-161690000D02*
X293345000Y-161690000D01*
X293345000Y-161690000D02*
X294085000Y-160950000D01*
X294085000Y-160950000D02*
X295634000Y-160950000D01*
%TO.N,Net-(J47-CNTR)*%
X199568312Y-142737000D02*
X199565312Y-142740000D01*
X199565312Y-142740000D02*
X127815000Y-142740000D01*
D37*
%TO.N,Net-(U9-SET)*%
X188595000Y-67135000D02*
X186645000Y-69085000D01*
D38*
X190750000Y-62935000D02*
X192375000Y-62935000D01*
D37*
X192662500Y-66067500D02*
X191595000Y-67135000D01*
D36*
X192662500Y-63222500D02*
X192625000Y-63185000D01*
D37*
X191595000Y-67135000D02*
X188595000Y-67135000D01*
D38*
X192375000Y-62935000D02*
X192625000Y-63185000D01*
D37*
X192662500Y-63222500D02*
X192662500Y-66067500D01*
D36*
%TO.N,Net-(D1-K)*%
X302240000Y-84150000D02*
X301815000Y-84150000D01*
X302240000Y-85850000D02*
X302240000Y-84150000D01*
%TO.N,VDDEXT*%
X118515000Y-120690000D02*
X119115000Y-120090000D01*
X296090000Y-82200000D02*
X296040000Y-82250000D01*
D38*
X186450000Y-60335000D02*
X185025000Y-60335000D01*
D36*
X112185000Y-194340000D02*
X113385000Y-194340000D01*
X127445000Y-86900000D02*
X127395000Y-86850000D01*
D38*
X128870000Y-86900000D02*
X127445000Y-86900000D01*
D35*
X127395000Y-86850000D02*
X127295000Y-86750000D01*
D36*
X130395000Y-92450000D02*
X131595000Y-92450000D01*
X261135000Y-78365000D02*
X261735000Y-77765000D01*
X189175000Y-65885000D02*
X189775000Y-65285000D01*
X114365000Y-115140000D02*
X114315000Y-115090000D01*
D38*
X186450000Y-60985000D02*
X184975000Y-60985000D01*
D35*
X184975000Y-60285000D02*
X184875000Y-60185000D01*
D38*
X258410000Y-74115000D02*
X256985000Y-74115000D01*
X110660000Y-188790000D02*
X109235000Y-188790000D01*
D36*
X131595000Y-92450000D02*
X132195000Y-91850000D01*
D38*
X186450000Y-61635000D02*
X185025000Y-61635000D01*
D36*
X113995000Y-163385000D02*
X113945000Y-163335000D01*
X300240000Y-86450000D02*
X300840000Y-85850000D01*
X296090000Y-80900000D02*
X296040000Y-80850000D01*
D35*
X113945000Y-163335000D02*
X113845000Y-163235000D01*
D36*
X185025000Y-60335000D02*
X184975000Y-60285000D01*
D38*
X128870000Y-87550000D02*
X127395000Y-87550000D01*
D35*
X109185000Y-188740000D02*
X109085000Y-188640000D01*
X256935000Y-72765000D02*
X256835000Y-72665000D01*
X296040000Y-80850000D02*
X295940000Y-80750000D01*
D38*
X110660000Y-190090000D02*
X109235000Y-190090000D01*
X216210000Y-58840000D02*
X214735000Y-58840000D01*
D35*
X114315000Y-115090000D02*
X114215000Y-114990000D01*
D36*
X109235000Y-190090000D02*
X109185000Y-190140000D01*
X118145000Y-168935000D02*
X118745000Y-168335000D01*
D38*
X297515000Y-81550000D02*
X296040000Y-81550000D01*
D36*
X217735000Y-63740000D02*
X218935000Y-63740000D01*
X256985000Y-74115000D02*
X256935000Y-74165000D01*
D38*
X115420000Y-164685000D02*
X113995000Y-164685000D01*
D36*
X127445000Y-88200000D02*
X127395000Y-88250000D01*
X185025000Y-61635000D02*
X184975000Y-61685000D01*
D38*
X216210000Y-59490000D02*
X214785000Y-59490000D01*
X115790000Y-115140000D02*
X114365000Y-115140000D01*
X115790000Y-116440000D02*
X114365000Y-116440000D01*
D36*
X256985000Y-72815000D02*
X256935000Y-72765000D01*
D38*
X258410000Y-73465000D02*
X256935000Y-73465000D01*
D35*
X214735000Y-58140000D02*
X214635000Y-58040000D01*
D36*
X218935000Y-63740000D02*
X219535000Y-63140000D01*
D38*
X297515000Y-82200000D02*
X296090000Y-82200000D01*
D36*
X117315000Y-120690000D02*
X118515000Y-120690000D01*
D38*
X128870000Y-88200000D02*
X127445000Y-88200000D01*
D36*
X299040000Y-86450000D02*
X300240000Y-86450000D01*
D38*
X115420000Y-163385000D02*
X113995000Y-163385000D01*
X115790000Y-115790000D02*
X114315000Y-115790000D01*
X216210000Y-58190000D02*
X214785000Y-58190000D01*
D36*
X113995000Y-164685000D02*
X113945000Y-164735000D01*
X113385000Y-194340000D02*
X113985000Y-193740000D01*
X214785000Y-59490000D02*
X214735000Y-59540000D01*
X109235000Y-188790000D02*
X109185000Y-188740000D01*
D38*
X297515000Y-80900000D02*
X296090000Y-80900000D01*
D36*
X259935000Y-78365000D02*
X261135000Y-78365000D01*
D38*
X115420000Y-164035000D02*
X113945000Y-164035000D01*
X110660000Y-189440000D02*
X109185000Y-189440000D01*
X258410000Y-72815000D02*
X256985000Y-72815000D01*
D36*
X214785000Y-58190000D02*
X214735000Y-58140000D01*
X114365000Y-116440000D02*
X114315000Y-116490000D01*
X116945000Y-168935000D02*
X118145000Y-168935000D01*
X187975000Y-65885000D02*
X189175000Y-65885000D01*
%TO.N,/VDD3P3/VDD3P3_INT*%
X303190000Y-82200000D02*
X303240000Y-82250000D01*
D38*
X301815000Y-82200000D02*
X303190000Y-82200000D01*
X301815000Y-81550000D02*
X303240000Y-81550000D01*
D36*
X303190000Y-80900000D02*
X303240000Y-80850000D01*
D38*
X301815000Y-80900000D02*
X303190000Y-80900000D01*
D37*
%TO.N,Net-(U2-SET)*%
X303727500Y-85750000D02*
X303727500Y-83787500D01*
D36*
X303727500Y-83787500D02*
X303690000Y-83750000D01*
D38*
X303440000Y-83500000D02*
X303690000Y-83750000D01*
X301815000Y-83500000D02*
X303440000Y-83500000D01*
D36*
%TO.N,Net-(D2-K)*%
X263135000Y-76065000D02*
X262710000Y-76065000D01*
X263135000Y-77765000D02*
X263135000Y-76065000D01*
D39*
%TO.N,VDD3P3*%
X303216000Y-151020000D02*
X306310000Y-151020000D01*
X306090000Y-130590000D02*
X306110000Y-130610000D01*
X303216000Y-145520000D02*
X306035000Y-145520000D01*
X303271000Y-130590000D02*
X306090000Y-130590000D01*
D40*
X307050000Y-135445000D02*
X306385000Y-136110000D01*
D39*
X303216000Y-160450000D02*
X306035000Y-160450000D01*
X306035000Y-145520000D02*
X306055000Y-145540000D01*
D40*
X306345000Y-165990000D02*
X306325000Y-165970000D01*
D39*
X306365000Y-136090000D02*
X306385000Y-136110000D01*
D40*
X306725000Y-159180000D02*
X306725000Y-159800000D01*
X307000000Y-129720000D02*
X306110000Y-130610000D01*
D39*
X306310000Y-165950000D02*
X306330000Y-165970000D01*
D40*
X307005000Y-144590000D02*
X306055000Y-145540000D01*
X307005000Y-144110000D02*
X307005000Y-144590000D01*
X306725000Y-159800000D02*
X306055000Y-160470000D01*
X307000000Y-129120000D02*
X307000000Y-129720000D01*
X307085000Y-149660000D02*
X307085000Y-150290000D01*
D39*
X306035000Y-160450000D02*
X306055000Y-160470000D01*
X303216000Y-165950000D02*
X306310000Y-165950000D01*
X303271000Y-136090000D02*
X306365000Y-136090000D01*
D40*
X307085000Y-150290000D02*
X306335000Y-151040000D01*
D39*
X306310000Y-151020000D02*
X306330000Y-151040000D01*
D40*
X306345000Y-167430000D02*
X306345000Y-165990000D01*
X307050000Y-134680000D02*
X307050000Y-135445000D01*
D41*
%TO.N,VDDD2P5*%
X281732500Y-119716199D02*
X282787500Y-119716199D01*
X281732500Y-121656199D02*
X281732500Y-119716199D01*
D39*
X295625000Y-165950000D02*
X292531000Y-165950000D01*
D40*
X292035000Y-144120000D02*
X292035000Y-144790000D01*
D42*
X207563312Y-149597000D02*
X207063312Y-149097000D01*
D41*
X172570000Y-213465000D02*
X175707500Y-213465000D01*
D40*
X291970000Y-129740000D02*
X292840000Y-130610000D01*
D39*
X292586000Y-136090000D02*
X292566000Y-136110000D01*
X295680000Y-136090000D02*
X292586000Y-136090000D01*
D40*
X291945000Y-164540000D02*
X291945000Y-165400000D01*
D39*
X295625000Y-145520000D02*
X292806000Y-145520000D01*
X292531000Y-165950000D02*
X292511000Y-165970000D01*
X295625000Y-160450000D02*
X292806000Y-160450000D01*
D42*
X211480812Y-139587000D02*
X211663312Y-139587000D01*
D40*
X292125000Y-159810000D02*
X292785000Y-160470000D01*
X291610000Y-134620000D02*
X291610000Y-135150000D01*
D41*
X172570000Y-213465000D02*
X169432500Y-213465000D01*
D40*
X292035000Y-144790000D02*
X292785000Y-145540000D01*
D39*
X292531000Y-151020000D02*
X292511000Y-151040000D01*
D40*
X291970000Y-129230000D02*
X291970000Y-129740000D01*
D39*
X295625000Y-151020000D02*
X292531000Y-151020000D01*
D36*
X206793312Y-146774500D02*
X206793312Y-148827000D01*
D39*
X292806000Y-145520000D02*
X292786000Y-145540000D01*
X292806000Y-160450000D02*
X292786000Y-160470000D01*
D40*
X291945000Y-165400000D02*
X292515000Y-165970000D01*
X291610000Y-135150000D02*
X292570000Y-136110000D01*
X291715000Y-150240000D02*
X292515000Y-151040000D01*
D39*
X295680000Y-130590000D02*
X292861000Y-130590000D01*
D40*
X291715000Y-149680000D02*
X291715000Y-150240000D01*
D42*
X208503312Y-149597000D02*
X207563312Y-149597000D01*
D36*
X206793312Y-148827000D02*
X207063312Y-149097000D01*
D41*
X281732500Y-121656199D02*
X282790000Y-121656199D01*
D39*
X292861000Y-130590000D02*
X292841000Y-130610000D01*
D40*
X292125000Y-159030000D02*
X292125000Y-159810000D01*
D42*
X211663312Y-139587000D02*
X212713312Y-138537000D01*
D38*
%TO.N,Net-(U2-ILIM)*%
X296127500Y-85537500D02*
X297515000Y-84150000D01*
D36*
X296127500Y-85850000D02*
X296127500Y-85537500D01*
D38*
%TO.N,/VDDD2P5/VDDD2P5_INT*%
X262710000Y-73465000D02*
X264135000Y-73465000D01*
X262710000Y-72815000D02*
X264085000Y-72815000D01*
D36*
X264085000Y-74115000D02*
X264135000Y-74165000D01*
X264085000Y-72815000D02*
X264135000Y-72765000D01*
D38*
X262710000Y-74115000D02*
X264085000Y-74115000D01*
D36*
%TO.N,Net-(U3-SET)*%
X264622500Y-75702500D02*
X264585000Y-75665000D01*
D37*
X264622500Y-77665000D02*
X264622500Y-75702500D01*
D38*
X262710000Y-75415000D02*
X264335000Y-75415000D01*
X264335000Y-75415000D02*
X264585000Y-75665000D01*
D36*
%TO.N,/VDDD1P2/VDD1P2_INT*%
X221885000Y-59490000D02*
X221935000Y-59540000D01*
D38*
X220510000Y-59490000D02*
X221885000Y-59490000D01*
X220510000Y-58840000D02*
X221935000Y-58840000D01*
D36*
X221885000Y-58190000D02*
X221935000Y-58140000D01*
D38*
X220510000Y-58190000D02*
X221885000Y-58190000D01*
D36*
%TO.N,Net-(D3-K)*%
X220935000Y-63140000D02*
X220935000Y-61440000D01*
X220935000Y-61440000D02*
X220510000Y-61440000D01*
%TO.N,VDDD1P2*%
X204543312Y-137307000D02*
X205673312Y-136177000D01*
X204233312Y-137307000D02*
X203923312Y-137307000D01*
X204793312Y-137867000D02*
X204233312Y-137307000D01*
X204793312Y-138899500D02*
X204793312Y-137867000D01*
X204233312Y-137307000D02*
X204543312Y-137307000D01*
X203923312Y-137307000D02*
X202793312Y-136177000D01*
%TO.N,Net-(U3-ILIM)*%
X257022500Y-77765000D02*
X257022500Y-77452500D01*
D38*
X257022500Y-77452500D02*
X258410000Y-76065000D01*
D37*
%TO.N,Net-(U4-SET)*%
X222422500Y-63040000D02*
X222422500Y-61077500D01*
D38*
X222135000Y-60790000D02*
X222385000Y-61040000D01*
X220510000Y-60790000D02*
X222135000Y-60790000D01*
D36*
X222422500Y-61077500D02*
X222385000Y-61040000D01*
%TO.N,/VDDA2P5/VDDA2P5_INT*%
X116335000Y-190090000D02*
X116385000Y-190140000D01*
X116335000Y-188790000D02*
X116385000Y-188740000D01*
D38*
X114960000Y-189440000D02*
X116385000Y-189440000D01*
X114960000Y-190090000D02*
X116335000Y-190090000D01*
X114960000Y-188790000D02*
X116335000Y-188790000D01*
D36*
%TO.N,Net-(D4-K)*%
X115385000Y-193740000D02*
X115385000Y-192040000D01*
X115385000Y-192040000D02*
X114960000Y-192040000D01*
%TO.N,VDDA2P5*%
X128469000Y-194810000D02*
X128469000Y-196356000D01*
X202745896Y-145087000D02*
X201665896Y-146167000D01*
X128469000Y-196356000D02*
X126885000Y-197940000D01*
X203605812Y-145087000D02*
X202745896Y-145087000D01*
%TO.N,Net-(J16-Pin_2)*%
X126841000Y-194810000D02*
X126841000Y-191874000D01*
X126841000Y-191874000D02*
X126875000Y-191840000D01*
D38*
%TO.N,Net-(U4-ILIM)*%
X214822500Y-62827500D02*
X216210000Y-61440000D01*
D36*
X214822500Y-63140000D02*
X214822500Y-62827500D01*
D38*
%TO.N,Net-(U5-SET)*%
X114960000Y-191390000D02*
X116585000Y-191390000D01*
X116585000Y-191390000D02*
X116835000Y-191640000D01*
D37*
X116872500Y-193640000D02*
X116872500Y-191677500D01*
D36*
X116872500Y-191677500D02*
X116835000Y-191640000D01*
%TO.N,/VREF/VREF_INT*%
X134545000Y-88200000D02*
X134595000Y-88250000D01*
D38*
X133170000Y-86900000D02*
X134545000Y-86900000D01*
D36*
X134545000Y-86900000D02*
X134595000Y-86850000D01*
D38*
X133170000Y-87550000D02*
X134595000Y-87550000D01*
X133170000Y-88200000D02*
X134545000Y-88200000D01*
D36*
%TO.N,Net-(D5-K)*%
X133595000Y-91850000D02*
X133595000Y-90150000D01*
X133595000Y-90150000D02*
X133170000Y-90150000D01*
%TO.N,VREF*%
X146679000Y-92920000D02*
X146679000Y-94466000D01*
X146679000Y-94466000D02*
X145095000Y-96050000D01*
X198577812Y-143587000D02*
X198303312Y-143312500D01*
X203605812Y-143587000D02*
X198577812Y-143587000D01*
%TO.N,Net-(J20-Pin_2)*%
X145051000Y-92920000D02*
X145051000Y-89984000D01*
X145051000Y-89984000D02*
X145085000Y-89950000D01*
D38*
%TO.N,Net-(U5-ILIM)*%
X109272500Y-193427500D02*
X110660000Y-192040000D01*
D36*
X109272500Y-193740000D02*
X109272500Y-193427500D01*
D37*
%TO.N,Net-(U6-SET)*%
X135082500Y-89787500D02*
X135082500Y-92632500D01*
D38*
X134795000Y-89500000D02*
X135045000Y-89750000D01*
D36*
X135082500Y-89787500D02*
X135045000Y-89750000D01*
D37*
X131015000Y-93700000D02*
X129065000Y-95650000D01*
X134015000Y-93700000D02*
X131015000Y-93700000D01*
X135082500Y-92632500D02*
X134015000Y-93700000D01*
D38*
X133170000Y-89500000D02*
X134795000Y-89500000D01*
%TO.N,/VDDACORE/VDDTQ_INT*%
X119720000Y-164685000D02*
X121095000Y-164685000D01*
D36*
X121095000Y-164685000D02*
X121145000Y-164735000D01*
X121095000Y-163385000D02*
X121145000Y-163335000D01*
D38*
X119720000Y-164035000D02*
X121145000Y-164035000D01*
X119720000Y-163385000D02*
X121095000Y-163385000D01*
D37*
%TO.N,Net-(U8-SET)*%
X117565000Y-170185000D02*
X115615000Y-172135000D01*
X120565000Y-170185000D02*
X117565000Y-170185000D01*
D38*
X121345000Y-165985000D02*
X121595000Y-166235000D01*
D37*
X121632500Y-166272500D02*
X121632500Y-169117500D01*
X121632500Y-169117500D02*
X120565000Y-170185000D01*
D38*
X119720000Y-165985000D02*
X121345000Y-165985000D01*
D36*
X121632500Y-166272500D02*
X121595000Y-166235000D01*
D38*
%TO.N,/VDDACORE/VDDCCO_INT*%
X190750000Y-60335000D02*
X192125000Y-60335000D01*
X190750000Y-60985000D02*
X192175000Y-60985000D01*
D36*
X192125000Y-61635000D02*
X192175000Y-61685000D01*
D38*
X190750000Y-61635000D02*
X192125000Y-61635000D01*
D36*
X192125000Y-60335000D02*
X192175000Y-60285000D01*
%TO.N,Net-(D7-K)*%
X120145000Y-166635000D02*
X119720000Y-166635000D01*
X120145000Y-168335000D02*
X120145000Y-166635000D01*
%TO.N,Net-(D8-K)*%
X191175000Y-63585000D02*
X190750000Y-63585000D01*
X191175000Y-65285000D02*
X191175000Y-63585000D01*
%TO.N,VDDOSC*%
X202061312Y-144087000D02*
X201983312Y-144165000D01*
X203605812Y-144087000D02*
X202061312Y-144087000D01*
D40*
X196653312Y-146157000D02*
X197788312Y-146157000D01*
X197788312Y-146157000D02*
X197793312Y-146162000D01*
D36*
X133599000Y-121160000D02*
X133599000Y-122706000D01*
D40*
X197793312Y-146162000D02*
X197812906Y-146162000D01*
X197812906Y-146162000D02*
X199809906Y-144165000D01*
D36*
X133599000Y-122706000D02*
X132015000Y-124290000D01*
D40*
X199809906Y-144165000D02*
X201983312Y-144165000D01*
D37*
%TO.N,Net-(U7-SET)*%
X122002500Y-120872500D02*
X120935000Y-121940000D01*
X122002500Y-118027500D02*
X122002500Y-120872500D01*
D38*
X120090000Y-117740000D02*
X121715000Y-117740000D01*
X121715000Y-117740000D02*
X121965000Y-117990000D01*
D37*
X117935000Y-121940000D02*
X115985000Y-123890000D01*
D36*
X122002500Y-118027500D02*
X121965000Y-117990000D01*
D37*
X120935000Y-121940000D02*
X117935000Y-121940000D01*
D36*
%TO.N,VDDTQ*%
X133229000Y-169405000D02*
X133229000Y-170135000D01*
X200333312Y-145237000D02*
X200293312Y-145277000D01*
D40*
X135645000Y-170135000D02*
X134545000Y-170135000D01*
D36*
X202291015Y-144897000D02*
X201463312Y-144897000D01*
X203605812Y-144587000D02*
X202601015Y-144587000D01*
X201463312Y-144897000D02*
X201123312Y-145237000D01*
D40*
X134545000Y-169135000D02*
X134545000Y-170135000D01*
D36*
X133229000Y-170135000D02*
X133229000Y-170951000D01*
X202601015Y-144587000D02*
X202291015Y-144897000D01*
D35*
X134545000Y-170135000D02*
X133229000Y-170135000D01*
D36*
X201123312Y-145237000D02*
X200333312Y-145237000D01*
X133229000Y-170951000D02*
X131645000Y-172535000D01*
D40*
X135645000Y-169135000D02*
X134545000Y-169135000D01*
D36*
%TO.N,Net-(J28-Pin_2)*%
X131601000Y-169405000D02*
X131601000Y-166469000D01*
X131601000Y-166469000D02*
X131635000Y-166435000D01*
%TO.N,Net-(J32-Pin_2)*%
X202631000Y-63419000D02*
X202665000Y-63385000D01*
X202631000Y-66355000D02*
X202631000Y-63419000D01*
%TO.N,Net-(U6-ILIM)*%
X127482500Y-91850000D02*
X127482500Y-91537500D01*
D38*
X127482500Y-91537500D02*
X128870000Y-90150000D01*
%TO.N,/VDDACORE/VDDOSC_INT*%
X120090000Y-115140000D02*
X121465000Y-115140000D01*
X120090000Y-115790000D02*
X121515000Y-115790000D01*
D36*
X121465000Y-116440000D02*
X121515000Y-116490000D01*
X121465000Y-115140000D02*
X121515000Y-115090000D01*
D38*
X120090000Y-116440000D02*
X121465000Y-116440000D01*
%TO.N,Net-(U8-ILIM)*%
X114032500Y-168022500D02*
X115420000Y-166635000D01*
D36*
X114032500Y-168335000D02*
X114032500Y-168022500D01*
%TO.N,Net-(D6-K)*%
X120515000Y-118390000D02*
X120090000Y-118390000D01*
X120515000Y-120090000D02*
X120515000Y-118390000D01*
%TO.N,Net-(J27-Pin_2)*%
X131971000Y-121160000D02*
X131971000Y-118224000D01*
X131971000Y-118224000D02*
X132005000Y-118190000D01*
D38*
%TO.N,Net-(U7-ILIM)*%
X114402500Y-119777500D02*
X115790000Y-118390000D01*
D36*
X114402500Y-120090000D02*
X114402500Y-119777500D01*
D35*
%TO.N,/IREF*%
X202303312Y-142587000D02*
X202133312Y-142417000D01*
X203605812Y-142587000D02*
X202303312Y-142587000D01*
D43*
%TO.N,/CLKIN_P*%
X151369296Y-196576341D02*
X153027887Y-196576341D01*
D44*
X153396788Y-196576341D02*
X153027887Y-196576341D01*
X203464390Y-146708738D02*
X153738209Y-196434919D01*
X203605812Y-146367317D02*
X203605812Y-146087000D01*
D43*
X151027874Y-196434919D02*
X149139989Y-194547034D01*
X151027876Y-196434916D02*
G75*
G03*
X151369296Y-196576341I341424J341416D01*
G01*
D44*
X203464375Y-146708723D02*
G75*
G03*
X203605811Y-146367317I-341375J341423D01*
G01*
X153396788Y-196576330D02*
G75*
G03*
X153738207Y-196434917I12J482830D01*
G01*
%TO.N,/CLKIN_N*%
X203671573Y-146915921D02*
X153960001Y-196627493D01*
X204012995Y-146774500D02*
X204293312Y-146774500D01*
X153818580Y-196968915D02*
X153818580Y-197374932D01*
D43*
X153818580Y-199017727D02*
X153818580Y-197374932D01*
X153960001Y-199359148D02*
X155847887Y-201247034D01*
D44*
X153959999Y-196627491D02*
G75*
G03*
X153818580Y-196968915I341401J-341409D01*
G01*
D43*
X153818555Y-199017727D02*
G75*
G03*
X153960001Y-199359147I482845J27D01*
G01*
D44*
X204012995Y-146774484D02*
G75*
G03*
X203671574Y-146915922I5J-482816D01*
G01*
D35*
%TO.N,/SDA*%
X285660000Y-119716199D02*
X284612500Y-119716199D01*
%TO.N,/SCL*%
X284615000Y-121656199D02*
X284615000Y-124077553D01*
%TO.N,/DOUT18*%
X210029160Y-149921000D02*
X283998353Y-149921000D01*
X207293312Y-147185152D02*
X210029160Y-149921000D01*
X294027353Y-159950000D02*
X295625000Y-159950000D01*
X283998353Y-149921000D02*
X294027353Y-159950000D01*
X207293312Y-146774500D02*
X207293312Y-147185152D01*
%TO.N,/DOUT17*%
X293989801Y-159450000D02*
X295625000Y-159450000D01*
X210134370Y-149667000D02*
X284206801Y-149667000D01*
X284206801Y-149667000D02*
X293989801Y-159450000D01*
X207793312Y-147325942D02*
X210134370Y-149667000D01*
X207793312Y-146774500D02*
X207793312Y-147325942D01*
%TO.N,/DOUT16*%
X210239580Y-149413000D02*
X285186436Y-149413000D01*
X290355052Y-154057000D02*
X294748052Y-158450000D01*
X285186436Y-149413000D02*
X289830436Y-154057000D01*
X294748052Y-158450000D02*
X295625000Y-158450000D01*
X289830436Y-154057000D02*
X290355052Y-154057000D01*
X208293312Y-147466732D02*
X210239580Y-149413000D01*
X208293312Y-146774500D02*
X208293312Y-147466732D01*
%TO.N,/DOUT15*%
X285291646Y-149159000D02*
X289862646Y-153730000D01*
X208793312Y-146774500D02*
X208793312Y-147607522D01*
X210344790Y-149159000D02*
X285291646Y-149159000D01*
X294710500Y-157950000D02*
X295625000Y-157950000D01*
X289862646Y-153730000D02*
X290490500Y-153730000D01*
X208793312Y-147607522D02*
X210344790Y-149159000D01*
X290490500Y-153730000D02*
X294710500Y-157950000D01*
%TO.N,/DOUT14*%
X293315552Y-153427000D02*
X294252000Y-153427000D01*
X285396856Y-148905000D02*
X289612856Y-153121000D01*
X210450000Y-148905000D02*
X285396856Y-148905000D01*
X289612856Y-153121000D02*
X293009552Y-153121000D01*
X293009552Y-153121000D02*
X293315552Y-153427000D01*
X294345000Y-153520000D02*
X295640000Y-153520000D01*
X209293312Y-146774500D02*
X209293312Y-147748312D01*
X209293312Y-147748312D02*
X210450000Y-148905000D01*
X294252000Y-153427000D02*
X294345000Y-153520000D01*
%TO.N,/DOUT13*%
X293145000Y-152794000D02*
X293451000Y-153100000D01*
X285502066Y-148651000D02*
X289645066Y-152794000D01*
X209793312Y-147889102D02*
X210555210Y-148651000D01*
X293451000Y-153100000D02*
X294245000Y-153100000D01*
X289645066Y-152794000D02*
X293145000Y-152794000D01*
X210555210Y-148651000D02*
X285502066Y-148651000D01*
X294325000Y-153020000D02*
X295640000Y-153020000D01*
X209793312Y-146774500D02*
X209793312Y-147889102D01*
X294245000Y-153100000D02*
X294325000Y-153020000D01*
%TO.N,/DOUT12*%
X293280448Y-152467000D02*
X293727448Y-152020000D01*
X285607276Y-148397000D02*
X289677276Y-152467000D01*
X210293312Y-148029892D02*
X210660420Y-148397000D01*
X293727448Y-152020000D02*
X295625000Y-152020000D01*
X210293312Y-146774500D02*
X210293312Y-148029892D01*
X210660420Y-148397000D02*
X285607276Y-148397000D01*
X289677276Y-152467000D02*
X293280448Y-152467000D01*
%TO.N,/DOUT11*%
X293765000Y-151520000D02*
X295625000Y-151520000D01*
X289714486Y-152145000D02*
X293140000Y-152145000D01*
X210793312Y-146774500D02*
X284343986Y-146774500D01*
X293140000Y-152145000D02*
X293765000Y-151520000D01*
X284343986Y-146774500D02*
X289714486Y-152145000D01*
%TO.N,/DOUT10*%
X286444030Y-146087000D02*
X289174530Y-148817500D01*
X293753552Y-150520000D02*
X295625000Y-150520000D01*
X289174530Y-148817500D02*
X292051052Y-148817500D01*
X211480812Y-146087000D02*
X286444030Y-146087000D01*
X292051052Y-148817500D02*
X293753552Y-150520000D01*
%TO.N,/DOUT9*%
X294572500Y-150020000D02*
X295625000Y-150020000D01*
X289206740Y-148490500D02*
X292186500Y-148490500D01*
X211480812Y-145087000D02*
X285803240Y-145087000D01*
X294486000Y-149933500D02*
X294572500Y-150020000D01*
X293629500Y-149933500D02*
X294486000Y-149933500D01*
X292186500Y-148490500D02*
X293629500Y-149933500D01*
X285803240Y-145087000D02*
X289206740Y-148490500D01*
%TO.N,/DOUT8*%
X285662450Y-144587000D02*
X289238950Y-148163500D01*
X289540000Y-148163500D02*
X292322156Y-148163500D01*
X294486000Y-148847000D02*
X294659000Y-149020000D01*
X294659000Y-149020000D02*
X295625000Y-149020000D01*
X289238950Y-148163500D02*
X289540000Y-148163500D01*
X293005656Y-148847000D02*
X294486000Y-148847000D01*
X292322156Y-148163500D02*
X293005656Y-148847000D01*
X211480812Y-144587000D02*
X285662450Y-144587000D01*
%TO.N,/DOUT7*%
X285521660Y-144087000D02*
X289271160Y-147836500D01*
X292457604Y-147836500D02*
X293141104Y-148520000D01*
X293141104Y-148520000D02*
X295625000Y-148520000D01*
X289355000Y-147836500D02*
X292457604Y-147836500D01*
X289271160Y-147836500D02*
X289355000Y-147836500D01*
X211480812Y-144087000D02*
X285521660Y-144087000D01*
%TO.N,/DOUT6*%
X285380870Y-143587000D02*
X289303370Y-147509500D01*
X293984147Y-148180500D02*
X294144647Y-148020000D01*
X211480812Y-143587000D02*
X285380870Y-143587000D01*
X292593052Y-147509500D02*
X293264052Y-148180500D01*
X293264052Y-148180500D02*
X293984147Y-148180500D01*
X289303370Y-147509500D02*
X289460000Y-147509500D01*
X289460000Y-147509500D02*
X292593052Y-147509500D01*
X294144647Y-148020000D02*
X295625000Y-148020000D01*
%TO.N,/DOUT5*%
X211480812Y-143087000D02*
X285240080Y-143087000D01*
X295625000Y-147520000D02*
X294182199Y-147520000D01*
X285240080Y-143087000D02*
X289335580Y-147182500D01*
X293399500Y-147853500D02*
X292728500Y-147182500D01*
X289420000Y-147182500D02*
X290375000Y-147182500D01*
X293848699Y-147853500D02*
X293399500Y-147853500D01*
X294182199Y-147520000D02*
X293848699Y-147853500D01*
X292728500Y-147182500D02*
X290286000Y-147182500D01*
X289335580Y-147182500D02*
X289420000Y-147182500D01*
%TO.N,/DOUT4*%
X289367790Y-146855500D02*
X293421448Y-146855500D01*
X293756948Y-146520000D02*
X295625000Y-146520000D01*
X293421448Y-146855500D02*
X293756948Y-146520000D01*
X211480812Y-142587000D02*
X285099290Y-142587000D01*
X285099290Y-142587000D02*
X289367790Y-146855500D01*
%TO.N,/DOUT3*%
X295625000Y-146020000D02*
X293794500Y-146020000D01*
X284958500Y-142087000D02*
X289400000Y-146528500D01*
X293286000Y-146528500D02*
X289400000Y-146528500D01*
X211480812Y-142087000D02*
X284958500Y-142087000D01*
X293794500Y-146020000D02*
X293286000Y-146528500D01*
%TO.N,/DOUT2*%
X211480812Y-141587000D02*
X290594354Y-141587000D01*
X295625000Y-145020000D02*
X294027353Y-145020000D01*
X294027353Y-145020000D02*
X292626177Y-143618823D01*
%TO.N,/DOUT1*%
X295625000Y-144520000D02*
X293989801Y-144520000D01*
X290556801Y-141087000D02*
X292957401Y-143487600D01*
X293989801Y-144520000D02*
X292786000Y-143316199D01*
X211480812Y-141087000D02*
X290556801Y-141087000D01*
%TO.N,/DOUT0*%
X291815052Y-140587000D02*
X294748052Y-143520000D01*
X294748052Y-143520000D02*
X295625000Y-143520000D01*
X211480812Y-140587000D02*
X291815052Y-140587000D01*
%TO.N,/CLKOUT*%
X291777500Y-140087000D02*
X294710500Y-143020000D01*
X294710500Y-143020000D02*
X295625000Y-143020000D01*
X211480812Y-140087000D02*
X291777500Y-140087000D01*
%TO.N,/AUX0*%
X292106052Y-133887500D02*
X293808552Y-135590000D01*
X210793312Y-138899500D02*
X210793312Y-136662998D01*
X210793312Y-136662998D02*
X211986310Y-135470000D01*
X293808552Y-135590000D02*
X295680000Y-135590000D01*
X211986310Y-135470000D02*
X289045000Y-135470000D01*
X289045000Y-135470000D02*
X290627500Y-133887500D01*
X290627500Y-133887500D02*
X292106052Y-133887500D01*
%TO.N,/AUX1*%
X294541000Y-135003500D02*
X294627500Y-135090000D01*
X292314500Y-133633500D02*
X293684500Y-135003500D01*
X293684500Y-135003500D02*
X294541000Y-135003500D01*
X288939790Y-135216000D02*
X290522290Y-133633500D01*
X210293312Y-138899500D02*
X210293312Y-136803788D01*
X294627500Y-135090000D02*
X295680000Y-135090000D01*
X210293312Y-136803788D02*
X211881100Y-135216000D01*
X211881100Y-135216000D02*
X288939790Y-135216000D01*
X290522290Y-133633500D02*
X292314500Y-133633500D01*
%TO.N,/AUX2*%
X209793312Y-136944578D02*
X209793312Y-138899500D01*
X288834580Y-134962000D02*
X211775890Y-134962000D01*
X294714000Y-134090000D02*
X294541000Y-133917000D01*
X292419710Y-133379500D02*
X290417080Y-133379500D01*
X295680000Y-134090000D02*
X294714000Y-134090000D01*
X211775890Y-134962000D02*
X209793312Y-136944578D01*
X290417080Y-133379500D02*
X288834580Y-134962000D01*
X292957210Y-133917000D02*
X292419710Y-133379500D01*
X294541000Y-133917000D02*
X292957210Y-133917000D01*
%TO.N,/AUX3*%
X211670680Y-134708000D02*
X209293312Y-137085368D01*
X295680000Y-133590000D02*
X292989420Y-133590000D01*
X292524920Y-133125500D02*
X290311870Y-133125500D01*
X292989420Y-133590000D02*
X292524920Y-133125500D01*
X290311870Y-133125500D02*
X288729370Y-134708000D01*
X288729370Y-134708000D02*
X211670680Y-134708000D01*
X209293312Y-137085368D02*
X209293312Y-138899500D01*
%TO.N,/AUX4*%
X208793312Y-137226158D02*
X208793312Y-138899500D01*
X294039147Y-133250500D02*
X293009130Y-133250500D01*
X211565470Y-134454000D02*
X208793312Y-137226158D01*
X295680000Y-133090000D02*
X294199647Y-133090000D01*
X292630130Y-132871500D02*
X290206660Y-132871500D01*
X290206660Y-132871500D02*
X288624160Y-134454000D01*
X294199647Y-133090000D02*
X294039147Y-133250500D01*
X288624160Y-134454000D02*
X211565470Y-134454000D01*
X293009130Y-133250500D02*
X292630130Y-132871500D01*
%TO.N,/AUX5*%
X208293312Y-137366948D02*
X208293312Y-138899500D01*
X292735340Y-132617500D02*
X290101450Y-132617500D01*
X293041340Y-132923500D02*
X292735340Y-132617500D01*
X294237199Y-132590000D02*
X293903699Y-132923500D01*
X211460260Y-134200000D02*
X208293312Y-137366948D01*
X293903699Y-132923500D02*
X293041340Y-132923500D01*
X288518950Y-134200000D02*
X211460260Y-134200000D01*
X295680000Y-132590000D02*
X294237199Y-132590000D01*
X290101450Y-132617500D02*
X288518950Y-134200000D01*
%TO.N,/AUX6*%
X289996240Y-132363500D02*
X288413740Y-133946000D01*
X293038448Y-132363500D02*
X289996240Y-132363500D01*
X288413740Y-133946000D02*
X211355050Y-133946000D01*
X295680000Y-131590000D02*
X293811948Y-131590000D01*
X207793312Y-137507738D02*
X207793312Y-138899500D01*
X211355050Y-133946000D02*
X207793312Y-137507738D01*
X293811948Y-131590000D02*
X293038448Y-132363500D01*
%TO.N,/AUX7*%
X292830500Y-132109500D02*
X289891030Y-132109500D01*
X211249840Y-133692000D02*
X207293312Y-137648528D01*
X293341000Y-131598500D02*
X293341000Y-131599000D01*
X207293312Y-137648528D02*
X207293312Y-138899500D01*
X289891030Y-132109500D02*
X288308530Y-133692000D01*
X293849500Y-131090000D02*
X293341000Y-131598500D01*
X295680000Y-131090000D02*
X293849500Y-131090000D01*
X293341000Y-131599000D02*
X292830500Y-132109500D01*
X288308530Y-133692000D02*
X211249840Y-133692000D01*
%TO.N,/AUX8*%
X287527000Y-133438000D02*
X211144630Y-133438000D01*
X206793312Y-137789318D02*
X206793312Y-138899500D01*
X288800000Y-132165000D02*
X287527000Y-133438000D01*
X288800000Y-130245000D02*
X288800000Y-132165000D01*
X295680000Y-130090000D02*
X294082353Y-130090000D01*
X292514000Y-128521647D02*
X290523353Y-128521647D01*
X294082353Y-130090000D02*
X292514000Y-128521647D01*
X290523353Y-128521647D02*
X288800000Y-130245000D01*
X211144630Y-133438000D02*
X206793312Y-137789318D01*
%TO.N,/AUX9*%
X290491143Y-128194647D02*
X288546000Y-130139790D01*
X295680000Y-129590000D02*
X294044801Y-129590000D01*
X211039420Y-133184000D02*
X206293312Y-137930108D01*
X206293312Y-137930108D02*
X206293312Y-138899500D01*
X288546000Y-132059790D02*
X287421790Y-133184000D01*
X288546000Y-130139790D02*
X288546000Y-132059790D01*
X287421790Y-133184000D02*
X211039420Y-133184000D01*
X294044801Y-129590000D02*
X292649448Y-128194647D01*
X292649448Y-128194647D02*
X290491143Y-128194647D01*
%TO.N,/AUX10*%
X288292000Y-131954580D02*
X288292000Y-130034580D01*
X210934210Y-132930000D02*
X287316580Y-132930000D01*
X287316580Y-132930000D02*
X288292000Y-131954580D01*
X290458933Y-127867647D02*
X294080699Y-127867647D01*
X205793312Y-138070898D02*
X210934210Y-132930000D01*
X288292000Y-130034580D02*
X290458933Y-127867647D01*
X294080699Y-127867647D02*
X294803052Y-128590000D01*
X205793312Y-138899500D02*
X205793312Y-138070898D01*
X294803052Y-128590000D02*
X295680000Y-128590000D01*
%TO.N,/AUX11*%
X287211370Y-132676000D02*
X210829000Y-132676000D01*
X205293312Y-138211688D02*
X205293312Y-138899500D01*
X294765500Y-128090000D02*
X294216147Y-127540647D01*
X290426723Y-127540647D02*
X288038000Y-129929370D01*
X294216147Y-127540647D02*
X290426723Y-127540647D01*
X295680000Y-128090000D02*
X294765500Y-128090000D01*
X288038000Y-129929370D02*
X288038000Y-131849370D01*
X288038000Y-131849370D02*
X287211370Y-132676000D01*
X210829000Y-132676000D02*
X205293312Y-138211688D01*
D36*
%TO.N,Net-(U9-ILIM)*%
X185062500Y-65285000D02*
X185062500Y-64972500D01*
D38*
X185062500Y-64972500D02*
X186450000Y-63585000D01*
D35*
%TO.N,/DIGBUF_LEVSHIFT/DOUT_BUF0*%
X304540222Y-143520000D02*
X304691500Y-143368722D01*
X326552647Y-142797647D02*
X328660000Y-144905000D01*
X304691500Y-143368722D02*
X304691500Y-143227301D01*
X305121154Y-142797647D02*
X326552647Y-142797647D01*
X304691500Y-143227301D02*
X305121154Y-142797647D01*
X303216000Y-143520000D02*
X304540222Y-143520000D01*
%TO.N,/DIGBUF_LEVSHIFT/DOUT_BUF1*%
X304851199Y-144520000D02*
X306246552Y-143124647D01*
X324339647Y-143124647D02*
X328660000Y-147445000D01*
X303216000Y-144520000D02*
X304851199Y-144520000D01*
X306246552Y-143124647D02*
X324339647Y-143124647D01*
%TO.N,/DIGBUF_LEVSHIFT/DOUT_BUF2*%
X303216000Y-145020000D02*
X304813647Y-145020000D01*
X322126647Y-143451647D02*
X328660000Y-149985000D01*
X306382000Y-143451647D02*
X322126647Y-143451647D01*
X304813647Y-145020000D02*
X306382000Y-143451647D01*
%TO.N,/DIGBUF_LEVSHIFT/DOUT_BUF3*%
X305555000Y-146528500D02*
X309578760Y-146528500D01*
X309578760Y-146528500D02*
X313530260Y-150480000D01*
X313530260Y-150480000D02*
X326615000Y-150480000D01*
X326615000Y-150480000D02*
X328660000Y-152525000D01*
X305046500Y-146020000D02*
X305555000Y-146528500D01*
X303216000Y-146020000D02*
X305046500Y-146020000D01*
%TO.N,/DIGBUF_LEVSHIFT/DOUT_BUF4*%
X305084052Y-146520000D02*
X305419552Y-146855500D01*
X309546550Y-146855500D02*
X315601050Y-152910000D01*
X315601050Y-152910000D02*
X326505000Y-152910000D01*
X326505000Y-152910000D02*
X328660000Y-155065000D01*
X305419552Y-146855500D02*
X309546550Y-146855500D01*
X303216000Y-146520000D02*
X305084052Y-146520000D01*
%TO.N,/DIGBUF_LEVSHIFT/DOUT_BUF5*%
X326251000Y-155196000D02*
X328660000Y-157605000D01*
X305441500Y-147853500D02*
X306185500Y-147109500D01*
X304658801Y-147520000D02*
X304992301Y-147853500D01*
X303216000Y-147520000D02*
X304658801Y-147520000D01*
X306185500Y-147109500D02*
X309441340Y-147109500D01*
X309441340Y-147109500D02*
X317527840Y-155196000D01*
X317527840Y-155196000D02*
X326251000Y-155196000D01*
X304992301Y-147853500D02*
X305441500Y-147853500D01*
%TO.N,/DIGBUF_LEVSHIFT/DOUT_BUF6*%
X304856853Y-148180500D02*
X305576948Y-148180500D01*
X319454630Y-157482000D02*
X325997000Y-157482000D01*
X305576948Y-148180500D02*
X306393948Y-147363500D01*
X306393948Y-147363500D02*
X309336130Y-147363500D01*
X309336130Y-147363500D02*
X319454630Y-157482000D01*
X325997000Y-157482000D02*
X328660000Y-160145000D01*
X303216000Y-148020000D02*
X304696353Y-148020000D01*
X304696353Y-148020000D02*
X304856853Y-148180500D01*
%TO.N,/DIGBUF_LEVSHIFT/DOUT_BUF7*%
X305699896Y-148520000D02*
X306602396Y-147617500D01*
X325743000Y-159768000D02*
X328660000Y-162685000D01*
X321381420Y-159768000D02*
X325743000Y-159768000D01*
X303216000Y-148520000D02*
X305699896Y-148520000D01*
X306602396Y-147617500D02*
X309230920Y-147617500D01*
X309230920Y-147617500D02*
X321381420Y-159768000D01*
%TO.N,/DIGBUF_LEVSHIFT/DOUT_BUF8*%
X325489000Y-162054000D02*
X328660000Y-165225000D01*
X304355000Y-148847000D02*
X305835344Y-148847000D01*
X303216000Y-149020000D02*
X304182000Y-149020000D01*
X306810844Y-147871500D02*
X309125710Y-147871500D01*
X304182000Y-149020000D02*
X304355000Y-148847000D01*
X323308210Y-162054000D02*
X325489000Y-162054000D01*
X309125710Y-147871500D02*
X323308210Y-162054000D01*
X305835344Y-148847000D02*
X306810844Y-147871500D01*
%TO.N,/DIGBUF_LEVSHIFT/DOUT_BUF9*%
X303216000Y-150020000D02*
X304268500Y-150020000D01*
X305577290Y-149933500D02*
X307385290Y-148125500D01*
X304268500Y-150020000D02*
X304355000Y-149933500D01*
X309020500Y-148125500D02*
X328660000Y-167765000D01*
X307385290Y-148125500D02*
X309020500Y-148125500D01*
X304355000Y-149933500D02*
X305577290Y-149933500D01*
%TO.N,/DIGBUF_LEVSHIFT/DOUT_BUF10*%
X308669500Y-148379500D02*
X324981000Y-164691000D01*
X303216000Y-150520000D02*
X305350000Y-150520000D01*
X307490500Y-148379500D02*
X308669500Y-148379500D01*
X305350000Y-150520000D02*
X307490500Y-148379500D01*
X324981000Y-164691000D02*
X324981000Y-166626000D01*
X324981000Y-166626000D02*
X328660000Y-170305000D01*
%TO.N,/DIGBUF_LEVSHIFT/DOUT_BUF11*%
X304747448Y-151520000D02*
X303216000Y-151520000D01*
X307955000Y-152140000D02*
X305367448Y-152140000D01*
X305367448Y-152140000D02*
X304747448Y-151520000D01*
X328660000Y-172845000D02*
X307955000Y-152140000D01*
%TO.N,/DIGBUF_LEVSHIFT/DOUT_BUF12*%
X304785000Y-152020000D02*
X303216000Y-152020000D01*
X313252630Y-173062370D02*
X311761500Y-171571240D01*
X326337370Y-173062370D02*
X313252630Y-173062370D01*
X311761500Y-171571240D02*
X311761500Y-156305710D01*
X307922790Y-152467000D02*
X305232000Y-152467000D01*
X328660000Y-175385000D02*
X326337370Y-173062370D01*
X305232000Y-152467000D02*
X304785000Y-152020000D01*
X311761500Y-156305710D02*
X307922790Y-152467000D01*
%TO.N,/DIGBUF_LEVSHIFT/DOUT_BUF13*%
X311507500Y-171676450D02*
X315466050Y-175635000D01*
X315466050Y-175635000D02*
X326370000Y-175635000D01*
X305255000Y-152794000D02*
X305353762Y-152794000D01*
X305029000Y-153020000D02*
X305255000Y-152794000D01*
X305353762Y-152794000D02*
X311507500Y-158947738D01*
X311507500Y-158947738D02*
X311507500Y-171676450D01*
X326370000Y-175635000D02*
X328660000Y-177925000D01*
X303216000Y-153020000D02*
X305029000Y-153020000D01*
%TO.N,/DIGBUF_LEVSHIFT/DOUT_BUF14*%
X326320000Y-178125000D02*
X328660000Y-180465000D01*
X303216000Y-153520000D02*
X304991448Y-153520000D01*
X317596840Y-178125000D02*
X326320000Y-178125000D01*
X304991448Y-153520000D02*
X305356000Y-153155448D01*
X311253500Y-171781660D02*
X317596840Y-178125000D01*
X305356000Y-153155448D02*
X311253500Y-159052948D01*
X311253500Y-159052948D02*
X311253500Y-171781660D01*
%TO.N,/DIGBUF_LEVSHIFT/DOUT_BUF15*%
X304436353Y-157950000D02*
X304856853Y-157529500D01*
X326275000Y-180620000D02*
X328660000Y-183005000D01*
X308781596Y-157529500D02*
X310999500Y-159747404D01*
X310999500Y-159747404D02*
X310999500Y-171886870D01*
X319732630Y-180620000D02*
X326275000Y-180620000D01*
X310999500Y-171886870D02*
X319732630Y-180620000D01*
X303210000Y-157950000D02*
X304436353Y-157950000D01*
X304856853Y-157529500D02*
X308781596Y-157529500D01*
%TO.N,/DIGBUF_LEVSHIFT/DOUT_BUF16*%
X310672500Y-159779614D02*
X310745500Y-159852614D01*
X326230000Y-183115000D02*
X328660000Y-185545000D01*
X321868420Y-183115000D02*
X326230000Y-183115000D01*
X304398801Y-158450000D02*
X304992301Y-157856500D01*
X310672500Y-159882852D02*
X310672500Y-159779614D01*
X310745500Y-159852614D02*
X310745500Y-171992080D01*
X308646148Y-157856500D02*
X310672500Y-159882852D01*
X304992301Y-157856500D02*
X308646148Y-157856500D01*
X303210000Y-158450000D02*
X304398801Y-158450000D01*
X310745500Y-171992080D02*
X321868420Y-183115000D01*
%TO.N,/DIGBUF_LEVSHIFT/DOUT_BUF17*%
X310491500Y-172097290D02*
X324029210Y-185635000D01*
X310491500Y-160061062D02*
X310491500Y-172097290D01*
X303216000Y-159450000D02*
X304851199Y-159450000D01*
X308666700Y-158339500D02*
X310345500Y-160018300D01*
X310345500Y-159915062D02*
X310491500Y-160061062D01*
X310345500Y-160018300D02*
X310345500Y-159915062D01*
X304851199Y-159450000D02*
X305961699Y-158339500D01*
X324029210Y-185635000D02*
X326210000Y-185635000D01*
X305961699Y-158339500D02*
X308666700Y-158339500D01*
X326210000Y-185635000D02*
X328660000Y-188085000D01*
%TO.N,/DIGBUF_LEVSHIFT/DOUT_BUF18*%
X303216000Y-159950000D02*
X304813647Y-159950000D01*
X310018500Y-160153748D02*
X310018500Y-171983500D01*
X306097147Y-158666500D02*
X308531252Y-158666500D01*
X308531252Y-158666500D02*
X310018500Y-160153748D01*
X304813647Y-159950000D02*
X306097147Y-158666500D01*
X310018500Y-171983500D02*
X328660000Y-190625000D01*
%TO.N,/DIGBUF_LEVSHIFT/CLKOUT_BUF*%
X303216000Y-143020000D02*
X304436353Y-143020000D01*
X305091353Y-142365000D02*
X328660000Y-142365000D01*
X304436353Y-143020000D02*
X305091353Y-142365000D01*
%TO.N,/DIGBUF_LEVSHIFT/CCOUT_BUF*%
X304840000Y-137090000D02*
X305289000Y-137539000D01*
X303271000Y-137090000D02*
X304840000Y-137090000D01*
X310379000Y-137539000D02*
X312665000Y-139825000D01*
X305289000Y-137539000D02*
X310379000Y-137539000D01*
X312665000Y-139825000D02*
X328660000Y-139825000D01*
%TO.N,/DIGBUF_LEVSHIFT/CLKRS_BUF*%
X303271000Y-136590000D02*
X305155000Y-136590000D01*
X305850000Y-137285000D02*
X328660000Y-137285000D01*
X305155000Y-136590000D02*
X305850000Y-137285000D01*
%TO.N,/DIGBUF_LEVSHIFT/AUX_BUF1*%
X311320260Y-132205000D02*
X328660000Y-132205000D01*
X309964760Y-133560500D02*
X311320260Y-132205000D01*
X305266500Y-135003500D02*
X306709500Y-133560500D01*
X304410000Y-135003500D02*
X305266500Y-135003500D01*
X303271000Y-135090000D02*
X304323500Y-135090000D01*
X306709500Y-133560500D02*
X309964760Y-133560500D01*
X304323500Y-135090000D02*
X304410000Y-135003500D01*
%TO.N,/DIGBUF_LEVSHIFT/AUX_BUF2*%
X306573844Y-133233500D02*
X309932550Y-133233500D01*
X304237000Y-134090000D02*
X304410000Y-133917000D01*
X309932550Y-133233500D02*
X313501050Y-129665000D01*
X305890344Y-133917000D02*
X306573844Y-133233500D01*
X304410000Y-133917000D02*
X305890344Y-133917000D01*
X313501050Y-129665000D02*
X328660000Y-129665000D01*
X303271000Y-134090000D02*
X304237000Y-134090000D01*
%TO.N,/DIGBUF_LEVSHIFT/AUX_BUF3*%
X315681840Y-127125000D02*
X328660000Y-127125000D01*
X309900340Y-132906500D02*
X315681840Y-127125000D01*
X303271000Y-133590000D02*
X305754896Y-133590000D01*
X305754896Y-133590000D02*
X306438396Y-132906500D01*
X306438396Y-132906500D02*
X309900340Y-132906500D01*
%TO.N,/DIGBUF_LEVSHIFT/AUX_BUF4*%
X304911853Y-133250500D02*
X305631948Y-133250500D01*
X304751353Y-133090000D02*
X304911853Y-133250500D01*
X303271000Y-133090000D02*
X304751353Y-133090000D01*
X305631948Y-133250500D02*
X306302948Y-132579500D01*
X306302948Y-132579500D02*
X309868130Y-132579500D01*
X309868130Y-132579500D02*
X317862630Y-124585000D01*
X317862630Y-124585000D02*
X328660000Y-124585000D01*
%TO.N,/DIGBUF_LEVSHIFT/AUX_BUF5*%
X305047301Y-132923500D02*
X305496500Y-132923500D01*
X305496500Y-132923500D02*
X306167500Y-132252500D01*
X303271000Y-132590000D02*
X304713801Y-132590000D01*
X320043420Y-122045000D02*
X328660000Y-122045000D01*
X309835920Y-132252500D02*
X320043420Y-122045000D01*
X306167500Y-132252500D02*
X309835920Y-132252500D01*
X304713801Y-132590000D02*
X305047301Y-132923500D01*
%TO.N,/DIGBUF_LEVSHIFT/AUX_BUF6*%
X305139052Y-131590000D02*
X305474552Y-131925500D01*
X303271000Y-131590000D02*
X305139052Y-131590000D01*
X305474552Y-131925500D02*
X309803710Y-131925500D01*
X309803710Y-131925500D02*
X322224210Y-119505000D01*
X322224210Y-119505000D02*
X328660000Y-119505000D01*
%TO.N,/DIGBUF_LEVSHIFT/AUX_BUF7*%
X309771500Y-131598500D02*
X324405000Y-116965000D01*
X305101500Y-131090000D02*
X305610000Y-131598500D01*
X305610000Y-131598500D02*
X309771500Y-131598500D01*
X324405000Y-116965000D02*
X328660000Y-116965000D01*
X303271000Y-131090000D02*
X305101500Y-131090000D01*
%TO.N,/DIGBUF_LEVSHIFT/AUX_BUF8*%
X320533647Y-114425000D02*
X328660000Y-114425000D01*
X304868647Y-130090000D02*
X320533647Y-114425000D01*
X303271000Y-130090000D02*
X304868647Y-130090000D01*
%TO.N,/DIGBUF_LEVSHIFT/AUX_BUF9*%
X303271000Y-129590000D02*
X304906199Y-129590000D01*
X322611199Y-111885000D02*
X328660000Y-111885000D01*
X304906199Y-129590000D02*
X322611199Y-111885000D01*
%TO.N,/DIGBUF_LEVSHIFT/AUX_BUF10*%
X303271000Y-128590000D02*
X304147948Y-128590000D01*
X304147948Y-128590000D02*
X323392948Y-109345000D01*
X323392948Y-109345000D02*
X328660000Y-109345000D01*
%TO.N,/DIGBUF_LEVSHIFT/AUX_BUF11*%
X325470500Y-106805000D02*
X328660000Y-106805000D01*
X304185500Y-128090000D02*
X325470500Y-106805000D01*
X303271000Y-128090000D02*
X304185500Y-128090000D01*
%TO.N,/IN*%
X203605812Y-143087000D02*
X201568312Y-143087000D01*
X201568312Y-143087000D02*
X201218312Y-142737000D01*
%TO.N,/RSTB*%
X203605812Y-141087000D02*
X203207278Y-141087000D01*
D41*
X166220000Y-216665000D02*
X166220000Y-214852500D01*
D35*
X202093312Y-139367000D02*
X201053312Y-138327000D01*
X202099312Y-139367000D02*
X202093312Y-139367000D01*
X203207278Y-141087000D02*
X202099312Y-139979034D01*
D41*
X166220000Y-214852500D02*
X167607500Y-213465000D01*
X167607500Y-211087500D02*
X170030000Y-208665000D01*
X167607500Y-213465000D02*
X167607500Y-211087500D01*
X166220000Y-216665000D02*
X166220000Y-225765000D01*
D35*
X202099312Y-139979034D02*
X202099312Y-139367000D01*
D41*
%TO.N,/RSTBCLK*%
X179020000Y-216665000D02*
X179020000Y-225765000D01*
X179020000Y-216665000D02*
X179020000Y-214952500D01*
X177532500Y-213465000D02*
X177532500Y-211087500D01*
X177532500Y-211087500D02*
X175110000Y-208665000D01*
X179020000Y-214952500D02*
X177532500Y-213465000D01*
D39*
%TO.N,GND*%
X304390777Y-167320000D02*
X304260777Y-167450000D01*
D36*
X218685000Y-60140000D02*
X218360000Y-59815000D01*
D38*
X114960000Y-190740000D02*
X113135000Y-190740000D01*
D36*
X113135000Y-190740000D02*
X112810000Y-190415000D01*
D39*
X304560000Y-126960000D02*
X304560000Y-126760000D01*
D41*
X290941000Y-130610000D02*
X289641000Y-130610000D01*
D39*
X303216000Y-147020000D02*
X304885000Y-147020000D01*
X294215000Y-154020000D02*
X294145000Y-154090000D01*
X294005000Y-164950000D02*
X294005000Y-165340000D01*
X294005000Y-164440000D02*
X294005000Y-164950000D01*
X295634000Y-162950000D02*
X294015000Y-162950000D01*
X295695000Y-138590000D02*
X294261000Y-138590000D01*
D37*
X137845000Y-87650000D02*
X137845000Y-86400000D01*
D41*
X211585000Y-58340000D02*
X211585000Y-60740000D01*
D39*
X294966000Y-157450000D02*
X294336000Y-156820000D01*
X303216000Y-142520000D02*
X303875000Y-142520000D01*
X293956000Y-147020000D02*
X293636000Y-147340000D01*
D36*
X203063312Y-145587000D02*
X203603312Y-145587000D01*
X188925000Y-62285000D02*
X188600000Y-61960000D01*
D41*
X308230000Y-165970000D02*
X309255000Y-165970000D01*
D37*
X306490000Y-81650000D02*
X306490000Y-80400000D01*
D38*
X133170000Y-88850000D02*
X131345000Y-88850000D01*
D37*
X195425000Y-59835000D02*
X195375000Y-59785000D01*
D39*
X304451777Y-134460000D02*
X305010000Y-134460000D01*
X294261000Y-138590000D02*
X294191000Y-138660000D01*
X294271000Y-129090000D02*
X293691000Y-128510000D01*
D37*
X124765000Y-114640000D02*
X124715000Y-114590000D01*
X267385000Y-74765000D02*
X266485000Y-75665000D01*
D36*
X118735000Y-193602500D02*
X118697500Y-193640000D01*
D39*
X294015000Y-162950000D02*
X294005000Y-162940000D01*
D36*
X115857500Y-168335000D02*
X116245000Y-168335000D01*
D37*
X119635000Y-189540000D02*
X119635000Y-188290000D01*
D39*
X295640000Y-154020000D02*
X294215000Y-154020000D01*
X294410000Y-136590000D02*
X294200000Y-136800000D01*
D36*
X204793312Y-147357000D02*
X204793312Y-146774500D01*
D39*
X295634000Y-168450000D02*
X294015000Y-168450000D01*
D41*
X290886000Y-160470000D02*
X289586000Y-160470000D01*
D39*
X294015000Y-164450000D02*
X294005000Y-164440000D01*
D37*
X267385000Y-72315000D02*
X267335000Y-72265000D01*
D41*
X106035000Y-188940000D02*
X106035000Y-191340000D01*
D39*
X294015000Y-167950000D02*
X294015000Y-167590000D01*
X294216000Y-158950000D02*
X293636000Y-158370000D01*
X295634000Y-163450000D02*
X294015000Y-163450000D01*
D41*
X290611000Y-151040000D02*
X289586000Y-151040000D01*
D39*
X304321777Y-134590000D02*
X304451777Y-134460000D01*
D41*
X181825000Y-60485000D02*
X181825000Y-62885000D01*
D39*
X304330000Y-139090000D02*
X304760000Y-138660000D01*
X295625000Y-142520000D02*
X294966000Y-142520000D01*
X304260777Y-167450000D02*
X303210000Y-167450000D01*
X304760000Y-137960000D02*
X304390000Y-137590000D01*
X294155000Y-167450000D02*
X294015000Y-167590000D01*
D36*
X131345000Y-88850000D02*
X131020000Y-88525000D01*
D37*
X266485000Y-75665000D02*
X266485000Y-77627500D01*
X225185000Y-58940000D02*
X225185000Y-60140000D01*
D39*
X304266777Y-164450000D02*
X303216000Y-164450000D01*
X294015000Y-166950000D02*
X294015000Y-166750000D01*
X303271000Y-134590000D02*
X304321777Y-134590000D01*
X295625000Y-147020000D02*
X293956000Y-147020000D01*
D37*
X306490000Y-80400000D02*
X306440000Y-80350000D01*
D39*
X294200000Y-137951000D02*
X294191000Y-137960000D01*
D36*
X129307500Y-91850000D02*
X129695000Y-91850000D01*
D39*
X303271000Y-129090000D02*
X304680000Y-129090000D01*
X295634000Y-168950000D02*
X294365000Y-168950000D01*
X294200000Y-137090000D02*
X294200000Y-137951000D01*
D38*
X262710000Y-74765000D02*
X260885000Y-74765000D01*
D37*
X306490000Y-81650000D02*
X306490000Y-82850000D01*
D39*
X304680000Y-129090000D02*
X305260000Y-128510000D01*
X304760000Y-137960000D02*
X304760000Y-138660000D01*
D37*
X124395000Y-165335000D02*
X123495000Y-166235000D01*
D39*
X295695000Y-137090000D02*
X294200000Y-137090000D01*
X303875000Y-142520000D02*
X304505000Y-141890000D01*
X304625000Y-144020000D02*
X305205000Y-143440000D01*
D41*
X308230000Y-151040000D02*
X309255000Y-151040000D01*
D39*
X295695000Y-138090000D02*
X294321000Y-138090000D01*
X294336000Y-141890000D02*
X294336000Y-141690000D01*
D37*
X124395000Y-164135000D02*
X124395000Y-162885000D01*
D39*
X294574223Y-149520000D02*
X294444223Y-149390000D01*
X295680000Y-134590000D02*
X294629223Y-134590000D01*
D37*
X306490000Y-82850000D02*
X305590000Y-83750000D01*
D39*
X304266777Y-149520000D02*
X304396777Y-149390000D01*
D37*
X124765000Y-115890000D02*
X124765000Y-114640000D01*
D39*
X294315000Y-166450000D02*
X295634000Y-166450000D01*
D36*
X202117791Y-141584063D02*
X202620728Y-142087000D01*
D39*
X294336000Y-156820000D02*
X294336000Y-156620000D01*
D41*
X253785000Y-72965000D02*
X253785000Y-75365000D01*
D39*
X304625000Y-158950000D02*
X305205000Y-158370000D01*
X304260777Y-168950000D02*
X303210000Y-168950000D01*
X304949000Y-168820000D02*
X304390777Y-168820000D01*
X303216000Y-154020000D02*
X304665000Y-154020000D01*
D37*
X305590000Y-83750000D02*
X305590000Y-85712500D01*
D39*
X294015000Y-168450000D02*
X294015000Y-167950000D01*
D36*
X204293312Y-138899500D02*
X204293312Y-139286013D01*
D39*
X294561000Y-137590000D02*
X295680000Y-137590000D01*
X303216000Y-157450000D02*
X303875000Y-157450000D01*
X304665000Y-154020000D02*
X304955000Y-154310000D01*
D37*
X118735000Y-191640000D02*
X118735000Y-193602500D01*
D39*
X295634000Y-166950000D02*
X294015000Y-166950000D01*
D37*
X124765000Y-117090000D02*
X123865000Y-117990000D01*
X119635000Y-190740000D02*
X118735000Y-191640000D01*
D41*
X290666000Y-136110000D02*
X289641000Y-136110000D01*
D39*
X294005000Y-162450000D02*
X294005000Y-162940000D01*
X295634000Y-163950000D02*
X294005000Y-163950000D01*
X294005000Y-162940000D02*
X294005000Y-163440000D01*
X303930000Y-127590000D02*
X304560000Y-126960000D01*
D36*
X266485000Y-77627500D02*
X266447500Y-77665000D01*
D37*
X119635000Y-188290000D02*
X119585000Y-188240000D01*
D36*
X203965812Y-138899500D02*
X204293312Y-138899500D01*
D39*
X294015000Y-167590000D02*
X294015000Y-166950000D01*
D36*
X299990000Y-82850000D02*
X299665000Y-82525000D01*
D38*
X120090000Y-117090000D02*
X118265000Y-117090000D01*
D36*
X186887500Y-65285000D02*
X187275000Y-65285000D01*
D37*
X124765000Y-115890000D02*
X124765000Y-117090000D01*
D39*
X295680000Y-139090000D02*
X294621000Y-139090000D01*
D37*
X267385000Y-73565000D02*
X267385000Y-72315000D01*
D39*
X294365000Y-168950000D02*
X294015000Y-168600000D01*
D41*
X307955000Y-160470000D02*
X309255000Y-160470000D01*
D36*
X260885000Y-74765000D02*
X260560000Y-74440000D01*
D39*
X295680000Y-127590000D02*
X295021000Y-127590000D01*
X304885000Y-147020000D02*
X305205000Y-147340000D01*
X294015000Y-166750000D02*
X294315000Y-166450000D01*
D38*
X301815000Y-82850000D02*
X299990000Y-82850000D01*
D39*
X294015000Y-168600000D02*
X294015000Y-168450000D01*
D37*
X225185000Y-60140000D02*
X224285000Y-61040000D01*
D41*
X111165000Y-115290000D02*
X111165000Y-117690000D01*
D39*
X304505000Y-141890000D02*
X304505000Y-141690000D01*
X303216000Y-152520000D02*
X304555000Y-152520000D01*
X295625000Y-157450000D02*
X294966000Y-157450000D01*
D37*
X195425000Y-61085000D02*
X195425000Y-62285000D01*
D39*
X294005000Y-163440000D02*
X294005000Y-163950000D01*
D41*
X307955000Y-145540000D02*
X309255000Y-145540000D01*
D37*
X195425000Y-61085000D02*
X195425000Y-59835000D01*
D39*
X295625000Y-158950000D02*
X294216000Y-158950000D01*
X304955000Y-164320000D02*
X304396777Y-164320000D01*
X304885000Y-161950000D02*
X305205000Y-162270000D01*
D36*
X258847500Y-77765000D02*
X259235000Y-77765000D01*
D39*
X294191000Y-137960000D02*
X294561000Y-137590000D01*
X303271000Y-132090000D02*
X304940000Y-132090000D01*
X295625000Y-144020000D02*
X294216000Y-144020000D01*
D37*
X195425000Y-62285000D02*
X194525000Y-63185000D01*
D36*
X117895000Y-165335000D02*
X117570000Y-165010000D01*
X111097500Y-193740000D02*
X111485000Y-193740000D01*
D39*
X303216000Y-144020000D02*
X304625000Y-144020000D01*
X294015000Y-163450000D02*
X294005000Y-163440000D01*
X295634000Y-162450000D02*
X294005000Y-162450000D01*
D37*
X225185000Y-57690000D02*
X225135000Y-57640000D01*
D39*
X295695000Y-136590000D02*
X294410000Y-136590000D01*
X294191000Y-137960000D02*
X294191000Y-138660000D01*
D36*
X224285000Y-63002500D02*
X224247500Y-63040000D01*
D39*
X304390777Y-168820000D02*
X304260777Y-168950000D01*
D41*
X308010000Y-130610000D02*
X309310000Y-130610000D01*
D36*
X203443312Y-138377000D02*
X203965812Y-138899500D01*
D39*
X304940000Y-132090000D02*
X305260000Y-132410000D01*
X295634000Y-164450000D02*
X294015000Y-164450000D01*
X304949000Y-167320000D02*
X304390777Y-167320000D01*
X294629223Y-134590000D02*
X294499223Y-134460000D01*
X294391000Y-126960000D02*
X294391000Y-126760000D01*
X304390000Y-137590000D02*
X303271000Y-137590000D01*
X294011000Y-132090000D02*
X293691000Y-132410000D01*
D37*
X137845000Y-87650000D02*
X137845000Y-88850000D01*
D39*
X304396777Y-149390000D02*
X304955000Y-149390000D01*
X303271000Y-127590000D02*
X303930000Y-127590000D01*
X294444223Y-149390000D02*
X293886000Y-149390000D01*
D41*
X124245000Y-87050000D02*
X124245000Y-89450000D01*
D39*
X304396777Y-164320000D02*
X304266777Y-164450000D01*
X295680000Y-132090000D02*
X294011000Y-132090000D01*
D36*
X204793312Y-145587000D02*
X207543312Y-142837000D01*
X202620728Y-142087000D02*
X203605812Y-142087000D01*
X116227500Y-120090000D02*
X116615000Y-120090000D01*
D39*
X295634000Y-161950000D02*
X294505000Y-161950000D01*
X294505000Y-161950000D02*
X294005000Y-162450000D01*
D36*
X202106249Y-141584063D02*
X202117791Y-141584063D01*
D38*
X220510000Y-60140000D02*
X218685000Y-60140000D01*
D37*
X224285000Y-61040000D02*
X224285000Y-63002500D01*
D36*
X305590000Y-85712500D02*
X305552500Y-85750000D01*
D37*
X119635000Y-189540000D02*
X119635000Y-190740000D01*
D41*
X308285000Y-136110000D02*
X309310000Y-136110000D01*
D37*
X124395000Y-162885000D02*
X124345000Y-162835000D01*
D41*
X290611000Y-165970000D02*
X289586000Y-165970000D01*
D39*
X303216000Y-158950000D02*
X304625000Y-158950000D01*
X295625000Y-149520000D02*
X294574223Y-149520000D01*
X295634000Y-164950000D02*
X294005000Y-164950000D01*
D36*
X202653312Y-145997000D02*
X203063312Y-145587000D01*
X216647500Y-63140000D02*
X217035000Y-63140000D01*
D39*
X303216000Y-149520000D02*
X304266777Y-149520000D01*
X294966000Y-142520000D02*
X294336000Y-141890000D01*
X293938970Y-152533970D02*
X293952940Y-152520000D01*
X295634000Y-165450000D02*
X294115000Y-165450000D01*
X303875000Y-157450000D02*
X304505000Y-156820000D01*
X295021000Y-127590000D02*
X294391000Y-126960000D01*
X294321000Y-138090000D02*
X294191000Y-137960000D01*
X295680000Y-129090000D02*
X294271000Y-129090000D01*
D37*
X137845000Y-86400000D02*
X137795000Y-86350000D01*
D41*
X290886000Y-145540000D02*
X289586000Y-145540000D01*
D39*
X295634000Y-167450000D02*
X294155000Y-167450000D01*
X295634000Y-167950000D02*
X294015000Y-167950000D01*
D38*
X119720000Y-165335000D02*
X117895000Y-165335000D01*
X190750000Y-62285000D02*
X188925000Y-62285000D01*
D37*
X267385000Y-73565000D02*
X267385000Y-74765000D01*
X124395000Y-164135000D02*
X124395000Y-165335000D01*
D36*
X297952500Y-85850000D02*
X298340000Y-85850000D01*
D39*
X303271000Y-139090000D02*
X304330000Y-139090000D01*
D41*
X292890000Y-81050000D02*
X292890000Y-83450000D01*
D39*
X294200000Y-136800000D02*
X294200000Y-137090000D01*
D36*
X204793312Y-146774500D02*
X204793312Y-145587000D01*
X204293312Y-139286013D02*
X207543312Y-142536013D01*
D39*
X294621000Y-139090000D02*
X294191000Y-138660000D01*
X304505000Y-156820000D02*
X304505000Y-156620000D01*
X294216000Y-144020000D02*
X293636000Y-143440000D01*
D36*
X118265000Y-117090000D02*
X117940000Y-116765000D01*
D37*
X137845000Y-88850000D02*
X136945000Y-89750000D01*
D39*
X294499223Y-134460000D02*
X293941000Y-134460000D01*
X293952940Y-152520000D02*
X295640000Y-152520000D01*
X294005000Y-163950000D02*
X294005000Y-164440000D01*
X304555000Y-152520000D02*
X304560000Y-152525000D01*
D41*
X110795000Y-163535000D02*
X110795000Y-165935000D01*
D36*
X207543312Y-142536013D02*
X207543312Y-142837000D01*
D39*
X294115000Y-165450000D02*
X294005000Y-165340000D01*
D36*
X204413312Y-147737000D02*
X204793312Y-147357000D01*
D37*
X225185000Y-58940000D02*
X225185000Y-57690000D01*
D39*
X303216000Y-161950000D02*
X304885000Y-161950000D01*
D40*
%TO.N,VDDCCO*%
X205575000Y-66085000D02*
X205575000Y-67085000D01*
D36*
X204259000Y-66355000D02*
X204259000Y-67085000D01*
D41*
X168060000Y-75820000D02*
X166385000Y-75820000D01*
D36*
X204259000Y-67085000D02*
X204259000Y-67901000D01*
D35*
X205575000Y-67085000D02*
X204259000Y-67085000D01*
D40*
X206675000Y-67085000D02*
X205575000Y-67085000D01*
X206675000Y-66085000D02*
X205575000Y-66085000D01*
D36*
X204259000Y-67901000D02*
X202675000Y-69485000D01*
D45*
%TO.N,Net-(J36-Pin_2)*%
X170275000Y-69795000D02*
X171800000Y-71320000D01*
X171800000Y-71320000D02*
X171800000Y-71820000D01*
X170275000Y-65820000D02*
X170275000Y-69795000D01*
%TD*%
%TA.AperFunction,Conductor*%
%TO.N,VDDTQ*%
G36*
X136126694Y-168653306D02*
G01*
X136145000Y-168697500D01*
X136145000Y-170672500D01*
X136126694Y-170716694D01*
X136082500Y-170735000D01*
X134445000Y-170735000D01*
X133645000Y-171535000D01*
X133645000Y-174309112D01*
X133626694Y-174353306D01*
X133563306Y-174416694D01*
X133519112Y-174435000D01*
X130007500Y-174435000D01*
X129963306Y-174416694D01*
X129945000Y-174372500D01*
X129945000Y-170997500D01*
X129963306Y-170953306D01*
X130007500Y-170935000D01*
X131745000Y-170935000D01*
X132745000Y-169935000D01*
X132745000Y-168697500D01*
X132763306Y-168653306D01*
X132807500Y-168635000D01*
X136082500Y-168635000D01*
X136126694Y-168653306D01*
G37*
%TD.AperFunction*%
%TD*%
%TA.AperFunction,Conductor*%
%TO.N,VDDEXT*%
G36*
X114815000Y-114890000D02*
G01*
X116452500Y-114890000D01*
X116496694Y-114908306D01*
X116515000Y-114952500D01*
X116515000Y-117227500D01*
X116496694Y-117271694D01*
X116452500Y-117290000D01*
X114515000Y-117290000D01*
X114515000Y-114590000D01*
X114815000Y-114890000D01*
G37*
%TD.AperFunction*%
%TD*%
%TA.AperFunction,Conductor*%
%TO.N,GND*%
G36*
X124776694Y-86268306D02*
G01*
X124795000Y-86312500D01*
X124795000Y-90187500D01*
X124776694Y-90231694D01*
X124732500Y-90250000D01*
X122857500Y-90250000D01*
X122813306Y-90231694D01*
X122795000Y-90187500D01*
X122795000Y-86312500D01*
X122813306Y-86268306D01*
X122857500Y-86250000D01*
X124732500Y-86250000D01*
X124776694Y-86268306D01*
G37*
%TD.AperFunction*%
%TD*%
%TA.AperFunction,Conductor*%
%TO.N,GND*%
G36*
X217535000Y-63340000D02*
G01*
X216197500Y-63340000D01*
X216153306Y-63321694D01*
X216135000Y-63277500D01*
X216135000Y-62502500D01*
X216153306Y-62458306D01*
X216197500Y-62440000D01*
X217435000Y-62440000D01*
X217535000Y-62440000D01*
X217535000Y-63340000D01*
G37*
%TD.AperFunction*%
%TD*%
%TA.AperFunction,Conductor*%
%TO.N,GND*%
G36*
X300521694Y-81068306D02*
G01*
X300540000Y-81112500D01*
X300540000Y-84524112D01*
X300521694Y-84568306D01*
X300040000Y-85050000D01*
X300040000Y-85987500D01*
X300021694Y-86031694D01*
X299977500Y-86050000D01*
X298840000Y-86050000D01*
X298840000Y-85150000D01*
X298740000Y-85150000D01*
X298740000Y-84075888D01*
X298758306Y-84031694D01*
X298840000Y-83950000D01*
X298840000Y-81112500D01*
X298858306Y-81068306D01*
X298902500Y-81050000D01*
X300477500Y-81050000D01*
X300521694Y-81068306D01*
G37*
%TD.AperFunction*%
%TD*%
%TA.AperFunction,Conductor*%
%TO.N,Net-(J28-Pin_2)*%
G36*
X132926694Y-165233306D02*
G01*
X132945000Y-165277500D01*
X132945000Y-167979112D01*
X132926694Y-168023306D01*
X132055000Y-168895000D01*
X132055000Y-169862500D01*
X132036694Y-169906694D01*
X131992500Y-169925000D01*
X131207500Y-169925000D01*
X131163306Y-169906694D01*
X131145000Y-169862500D01*
X131145000Y-168885000D01*
X130363306Y-168103306D01*
X130345000Y-168059112D01*
X130345000Y-165277500D01*
X130363306Y-165233306D01*
X130407500Y-165215000D01*
X132882500Y-165215000D01*
X132926694Y-165233306D01*
G37*
%TD.AperFunction*%
%TD*%
%TA.AperFunction,Conductor*%
%TO.N,GND*%
G36*
X106566694Y-188158306D02*
G01*
X106585000Y-188202500D01*
X106585000Y-192077500D01*
X106566694Y-192121694D01*
X106522500Y-192140000D01*
X104647500Y-192140000D01*
X104603306Y-192121694D01*
X104585000Y-192077500D01*
X104585000Y-188202500D01*
X104603306Y-188158306D01*
X104647500Y-188140000D01*
X106522500Y-188140000D01*
X106566694Y-188158306D01*
G37*
%TD.AperFunction*%
%TD*%
%TA.AperFunction,Conductor*%
%TO.N,GND*%
G36*
X147786694Y-51783306D02*
G01*
X147805000Y-51827500D01*
X147805000Y-54702500D01*
X147786694Y-54746694D01*
X147742500Y-54765000D01*
X138367500Y-54765000D01*
X138323306Y-54746694D01*
X138305000Y-54702500D01*
X138305000Y-51827500D01*
X138323306Y-51783306D01*
X138367500Y-51765000D01*
X147742500Y-51765000D01*
X147786694Y-51783306D01*
G37*
%TD.AperFunction*%
%TD*%
%TA.AperFunction,Conductor*%
%TO.N,GND*%
G36*
X293421694Y-80268306D02*
G01*
X293440000Y-80312500D01*
X293440000Y-84187500D01*
X293421694Y-84231694D01*
X293377500Y-84250000D01*
X291502500Y-84250000D01*
X291458306Y-84231694D01*
X291440000Y-84187500D01*
X291440000Y-80312500D01*
X291458306Y-80268306D01*
X291502500Y-80250000D01*
X293377500Y-80250000D01*
X293421694Y-80268306D01*
G37*
%TD.AperFunction*%
%TD*%
%TA.AperFunction,Conductor*%
%TO.N,GND*%
G36*
X219216694Y-58358306D02*
G01*
X219235000Y-58402500D01*
X219235000Y-61814112D01*
X219216694Y-61858306D01*
X218735000Y-62340000D01*
X218735000Y-63277500D01*
X218716694Y-63321694D01*
X218672500Y-63340000D01*
X217535000Y-63340000D01*
X217535000Y-62440000D01*
X217435000Y-62440000D01*
X217435000Y-61365888D01*
X217453306Y-61321694D01*
X217535000Y-61240000D01*
X217535000Y-58402500D01*
X217553306Y-58358306D01*
X217597500Y-58340000D01*
X219172500Y-58340000D01*
X219216694Y-58358306D01*
G37*
%TD.AperFunction*%
%TD*%
%TA.AperFunction,Conductor*%
%TO.N,/VDDACORE/VDDOSC_INT*%
G36*
X121833306Y-114608306D02*
G01*
X121996694Y-114771694D01*
X122015000Y-114815888D01*
X122015000Y-116787146D01*
X122015000Y-116790000D01*
X120844128Y-116790000D01*
X120809405Y-116779467D01*
X120803766Y-116775699D01*
X120737407Y-116762500D01*
X120737406Y-116762500D01*
X120118652Y-116762500D01*
X119377500Y-116762500D01*
X119333306Y-116744194D01*
X119315000Y-116700000D01*
X119315000Y-114952500D01*
X119333306Y-114908306D01*
X119377500Y-114890000D01*
X121015000Y-114890000D01*
X121296694Y-114608306D01*
X121340888Y-114590000D01*
X121789112Y-114590000D01*
X121833306Y-114608306D01*
G37*
%TD.AperFunction*%
%TD*%
%TA.AperFunction,Conductor*%
%TO.N,VDDEXT*%
G36*
X109685000Y-188540000D02*
G01*
X111322500Y-188540000D01*
X111366694Y-188558306D01*
X111385000Y-188602500D01*
X111385000Y-190877500D01*
X111366694Y-190921694D01*
X111322500Y-190940000D01*
X109385000Y-190940000D01*
X109385000Y-188240000D01*
X109685000Y-188540000D01*
G37*
%TD.AperFunction*%
%TD*%
%TA.AperFunction,Conductor*%
%TO.N,/VDDACORE/VDDOSC_INT*%
G36*
X123396694Y-114908306D02*
G01*
X123415000Y-114952500D01*
X123415000Y-116727500D01*
X123396694Y-116771694D01*
X123352500Y-116790000D01*
X122015000Y-116790000D01*
X122015000Y-114890000D01*
X123352500Y-114890000D01*
X123396694Y-114908306D01*
G37*
%TD.AperFunction*%
%TD*%
%TA.AperFunction,Conductor*%
%TO.N,GND*%
G36*
X117115000Y-120290000D02*
G01*
X115777500Y-120290000D01*
X115733306Y-120271694D01*
X115715000Y-120227500D01*
X115715000Y-119452500D01*
X115733306Y-119408306D01*
X115777500Y-119390000D01*
X117015000Y-119390000D01*
X117115000Y-119390000D01*
X117115000Y-120290000D01*
G37*
%TD.AperFunction*%
%TD*%
%TA.AperFunction,Conductor*%
%TO.N,GND*%
G36*
X147786694Y-60783306D02*
G01*
X147805000Y-60827500D01*
X147805000Y-63702500D01*
X147786694Y-63746694D01*
X147742500Y-63765000D01*
X138367500Y-63765000D01*
X138323306Y-63746694D01*
X138305000Y-63702500D01*
X138305000Y-60827500D01*
X138323306Y-60783306D01*
X138367500Y-60765000D01*
X147742500Y-60765000D01*
X147786694Y-60783306D01*
G37*
%TD.AperFunction*%
%TD*%
%TA.AperFunction,Conductor*%
%TO.N,GND*%
G36*
X187775000Y-65485000D02*
G01*
X186437500Y-65485000D01*
X186393306Y-65466694D01*
X186375000Y-65422500D01*
X186375000Y-64647500D01*
X186393306Y-64603306D01*
X186437500Y-64585000D01*
X187675000Y-64585000D01*
X187775000Y-64585000D01*
X187775000Y-65485000D01*
G37*
%TD.AperFunction*%
%TD*%
%TA.AperFunction,Conductor*%
%TO.N,/VDD3P3/VDD3P3_INT*%
G36*
X305121694Y-80668306D02*
G01*
X305140000Y-80712500D01*
X305140000Y-82487500D01*
X305121694Y-82531694D01*
X305077500Y-82550000D01*
X303740000Y-82550000D01*
X303740000Y-80650000D01*
X305077500Y-80650000D01*
X305121694Y-80668306D01*
G37*
%TD.AperFunction*%
%TD*%
%TA.AperFunction,Conductor*%
%TO.N,/CLKIN_N*%
G36*
X153874136Y-197105988D02*
G01*
X153891472Y-197108369D01*
X153898698Y-197112270D01*
X153901580Y-197119960D01*
X153901580Y-197192775D01*
X153902195Y-197217669D01*
X153903867Y-197238129D01*
X153906331Y-197255222D01*
X153909324Y-197270095D01*
X153912580Y-197283844D01*
X153912580Y-197283845D01*
X153915789Y-197297400D01*
X153915874Y-197297787D01*
X153918763Y-197312147D01*
X153918873Y-197312785D01*
X153921240Y-197329200D01*
X153921321Y-197329917D01*
X153922937Y-197349687D01*
X153922972Y-197350351D01*
X153923576Y-197374770D01*
X153923580Y-197375059D01*
X153923580Y-197382381D01*
X153921422Y-197389151D01*
X153915745Y-197393424D01*
X153822445Y-197426079D01*
X153814715Y-197426079D01*
X153721415Y-197393424D01*
X153715738Y-197389151D01*
X153713580Y-197382381D01*
X153713580Y-197375059D01*
X153713584Y-197374770D01*
X153714188Y-197350327D01*
X153714220Y-197349709D01*
X153715841Y-197329885D01*
X153715915Y-197329233D01*
X153718286Y-197312779D01*
X153718395Y-197312147D01*
X153721285Y-197297787D01*
X153721370Y-197297399D01*
X153724580Y-197283844D01*
X153727837Y-197270090D01*
X153730827Y-197255226D01*
X153733292Y-197238130D01*
X153734964Y-197217669D01*
X153735580Y-197192775D01*
X153735580Y-197119960D01*
X153738462Y-197112270D01*
X153745688Y-197108369D01*
X153763023Y-197105988D01*
X153816993Y-197098576D01*
X153820167Y-197098576D01*
X153874136Y-197105988D01*
G37*
%TD.AperFunction*%
%TD*%
%TA.AperFunction,Conductor*%
%TO.N,Net-(J32-Pin_2)*%
G36*
X203956694Y-62183306D02*
G01*
X203975000Y-62227500D01*
X203975000Y-64929112D01*
X203956694Y-64973306D01*
X203085000Y-65845000D01*
X203085000Y-66812500D01*
X203066694Y-66856694D01*
X203022500Y-66875000D01*
X202237500Y-66875000D01*
X202193306Y-66856694D01*
X202175000Y-66812500D01*
X202175000Y-65835000D01*
X201393306Y-65053306D01*
X201375000Y-65009112D01*
X201375000Y-62227500D01*
X201393306Y-62183306D01*
X201437500Y-62165000D01*
X203912500Y-62165000D01*
X203956694Y-62183306D01*
G37*
%TD.AperFunction*%
%TD*%
%TA.AperFunction,Conductor*%
%TO.N,GND*%
G36*
X259735000Y-77965000D02*
G01*
X258397500Y-77965000D01*
X258353306Y-77946694D01*
X258335000Y-77902500D01*
X258335000Y-77127500D01*
X258353306Y-77083306D01*
X258397500Y-77065000D01*
X259635000Y-77065000D01*
X259735000Y-77065000D01*
X259735000Y-77965000D01*
G37*
%TD.AperFunction*%
%TD*%
%TA.AperFunction,Conductor*%
%TO.N,VDDA2P5*%
G36*
X131366694Y-194058306D02*
G01*
X131385000Y-194102500D01*
X131385000Y-196077500D01*
X131366694Y-196121694D01*
X131322500Y-196140000D01*
X129685000Y-196140000D01*
X128885000Y-196940000D01*
X128885000Y-199714112D01*
X128866694Y-199758306D01*
X128803306Y-199821694D01*
X128759112Y-199840000D01*
X125247500Y-199840000D01*
X125203306Y-199821694D01*
X125185000Y-199777500D01*
X125185000Y-196402500D01*
X125203306Y-196358306D01*
X125247500Y-196340000D01*
X126985000Y-196340000D01*
X127985000Y-195340000D01*
X127985000Y-194102500D01*
X128003306Y-194058306D01*
X128047500Y-194040000D01*
X131322500Y-194040000D01*
X131366694Y-194058306D01*
G37*
%TD.AperFunction*%
%TD*%
%TA.AperFunction,Conductor*%
%TO.N,VDDTQ*%
G36*
X121111694Y-167203306D02*
G01*
X121130000Y-167247500D01*
X121130000Y-168883470D01*
X121111694Y-168927664D01*
X120375164Y-169664194D01*
X120330970Y-169682500D01*
X117625741Y-169682500D01*
X117612456Y-169681072D01*
X117601216Y-169678626D01*
X117549285Y-169682341D01*
X117544827Y-169682500D01*
X117529058Y-169682500D01*
X117513457Y-169684742D01*
X117509027Y-169685219D01*
X117457085Y-169688935D01*
X117446306Y-169692955D01*
X117433364Y-169696259D01*
X117421971Y-169697897D01*
X117374611Y-169719526D01*
X117370491Y-169721233D01*
X117321698Y-169739433D01*
X117312489Y-169746326D01*
X117301008Y-169753139D01*
X117290533Y-169757923D01*
X117251173Y-169792028D01*
X117247703Y-169794824D01*
X117235090Y-169804266D01*
X117223952Y-169815404D01*
X117220691Y-169818440D01*
X117181330Y-169852548D01*
X117175110Y-169862227D01*
X117166727Y-169872629D01*
X115673658Y-171365698D01*
X115650108Y-171380496D01*
X115622469Y-171383611D01*
X115615002Y-171382770D01*
X115615001Y-171382770D01*
X115581101Y-171386589D01*
X115447614Y-171401629D01*
X115288617Y-171457265D01*
X115145991Y-171546882D01*
X115026882Y-171665991D01*
X114937265Y-171808617D01*
X114881629Y-171967614D01*
X114862770Y-172134999D01*
X114881629Y-172302385D01*
X114937265Y-172461382D01*
X115026882Y-172604008D01*
X115145991Y-172723117D01*
X115266555Y-172798871D01*
X115288620Y-172812736D01*
X115447613Y-172868370D01*
X115615000Y-172887230D01*
X115782387Y-172868370D01*
X115941380Y-172812736D01*
X116084008Y-172723117D01*
X116203117Y-172604008D01*
X116292736Y-172461380D01*
X116348370Y-172302387D01*
X116367230Y-172135000D01*
X116366388Y-172127531D01*
X116369502Y-172099893D01*
X116384299Y-172076341D01*
X117754835Y-170705806D01*
X117799030Y-170687500D01*
X120504258Y-170687500D01*
X120517543Y-170688928D01*
X120528782Y-170691373D01*
X120528782Y-170691372D01*
X120528783Y-170691373D01*
X120580717Y-170687659D01*
X120585176Y-170687500D01*
X120600935Y-170687500D01*
X120600937Y-170687500D01*
X120616545Y-170685255D01*
X120620968Y-170684780D01*
X120672912Y-170681066D01*
X120683695Y-170677043D01*
X120696639Y-170673739D01*
X120708026Y-170672103D01*
X120755411Y-170650461D01*
X120759492Y-170648771D01*
X120808299Y-170630568D01*
X120817509Y-170623672D01*
X120828994Y-170616858D01*
X120839466Y-170612077D01*
X120878836Y-170577961D01*
X120882271Y-170575192D01*
X120894910Y-170565732D01*
X120906075Y-170554565D01*
X120909299Y-170551564D01*
X120948669Y-170517451D01*
X120954889Y-170507770D01*
X120963268Y-170497372D01*
X121944872Y-169515768D01*
X121955270Y-169507389D01*
X121964951Y-169501169D01*
X121999064Y-169461799D01*
X122002065Y-169458575D01*
X122013232Y-169447410D01*
X122022692Y-169434772D01*
X122025455Y-169431343D01*
X122059577Y-169391966D01*
X122064359Y-169381493D01*
X122071169Y-169370014D01*
X122078069Y-169360799D01*
X122096277Y-169311981D01*
X122097964Y-169307908D01*
X122119603Y-169260526D01*
X122121240Y-169249138D01*
X122124543Y-169236197D01*
X122128566Y-169225412D01*
X122132280Y-169173468D01*
X122132756Y-169169039D01*
X122133337Y-169165000D01*
X122135000Y-169153437D01*
X122135000Y-169137676D01*
X122135159Y-169133218D01*
X122137687Y-169097869D01*
X122138873Y-169081283D01*
X122136428Y-169070043D01*
X122135000Y-169056758D01*
X122135000Y-167247500D01*
X122153306Y-167203306D01*
X122197500Y-167185000D01*
X122612500Y-167185000D01*
X122656694Y-167203306D01*
X122675000Y-167247500D01*
X122675000Y-170019112D01*
X122656694Y-170063306D01*
X121743306Y-170976694D01*
X121699112Y-170995000D01*
X119105000Y-170995000D01*
X118615715Y-171484283D01*
X118578519Y-171502196D01*
X118538269Y-171493009D01*
X118481382Y-171457265D01*
X118481381Y-171457264D01*
X118481380Y-171457264D01*
X118401883Y-171429447D01*
X118322385Y-171401629D01*
X118155000Y-171382770D01*
X117987614Y-171401629D01*
X117828617Y-171457265D01*
X117685991Y-171546882D01*
X117566882Y-171665991D01*
X117477265Y-171808617D01*
X117421629Y-171967614D01*
X117402770Y-172134999D01*
X117421629Y-172302385D01*
X117477265Y-172461382D01*
X117513009Y-172518269D01*
X117522196Y-172558519D01*
X117504283Y-172595715D01*
X116013306Y-174086694D01*
X115993030Y-174100242D01*
X115969112Y-174105000D01*
X113930888Y-174105000D01*
X113886694Y-174086694D01*
X113783306Y-173983306D01*
X113765000Y-173939112D01*
X113765000Y-171990888D01*
X113783306Y-171946694D01*
X116286694Y-169443306D01*
X116330888Y-169425000D01*
X118565000Y-169425000D01*
X118806694Y-169183306D01*
X118850888Y-169165000D01*
X120305000Y-169165000D01*
X120605000Y-168865000D01*
X120605000Y-167280888D01*
X120623306Y-167236694D01*
X120656694Y-167203306D01*
X120700888Y-167185000D01*
X121067500Y-167185000D01*
X121111694Y-167203306D01*
G37*
%TD.AperFunction*%
%TD*%
%TA.AperFunction,Conductor*%
%TO.N,VDDEXT*%
G36*
X109366694Y-188158306D02*
G01*
X109385000Y-188202500D01*
X109385000Y-190940000D01*
X109385000Y-192077500D01*
X109366694Y-192121694D01*
X109322500Y-192140000D01*
X107447500Y-192140000D01*
X107403306Y-192121694D01*
X107385000Y-192077500D01*
X107385000Y-188202500D01*
X107403306Y-188158306D01*
X107447500Y-188140000D01*
X109322500Y-188140000D01*
X109366694Y-188158306D01*
G37*
%TD.AperFunction*%
%TD*%
%TA.AperFunction,Conductor*%
%TO.N,/VDDACORE/VDDCCO_INT*%
G36*
X192493306Y-59803306D02*
G01*
X192656694Y-59966694D01*
X192675000Y-60010888D01*
X192675000Y-61982146D01*
X192675000Y-61985000D01*
X191504128Y-61985000D01*
X191469405Y-61974467D01*
X191463766Y-61970699D01*
X191397407Y-61957500D01*
X191397406Y-61957500D01*
X190778652Y-61957500D01*
X190037500Y-61957500D01*
X189993306Y-61939194D01*
X189975000Y-61895000D01*
X189975000Y-60147500D01*
X189993306Y-60103306D01*
X190037500Y-60085000D01*
X191675000Y-60085000D01*
X191956694Y-59803306D01*
X192000888Y-59785000D01*
X192449112Y-59785000D01*
X192493306Y-59803306D01*
G37*
%TD.AperFunction*%
%TD*%
%TA.AperFunction,Conductor*%
%TO.N,GND*%
G36*
X160241694Y-69838306D02*
G01*
X160260000Y-69882500D01*
X160260000Y-71320000D01*
X160741694Y-71801694D01*
X160760000Y-71845888D01*
X160760000Y-72757500D01*
X160741694Y-72801694D01*
X160697500Y-72820000D01*
X157822500Y-72820000D01*
X157778306Y-72801694D01*
X157760000Y-72757500D01*
X157760000Y-71845888D01*
X157778306Y-71801694D01*
X158260000Y-71320000D01*
X158260000Y-69882500D01*
X158278306Y-69838306D01*
X158322500Y-69820000D01*
X160197500Y-69820000D01*
X160241694Y-69838306D01*
G37*
%TD.AperFunction*%
%TD*%
%TA.AperFunction,Conductor*%
%TO.N,VDDCCO*%
G36*
X207156694Y-65603306D02*
G01*
X207175000Y-65647500D01*
X207175000Y-67622500D01*
X207156694Y-67666694D01*
X207112500Y-67685000D01*
X205475000Y-67685000D01*
X204675000Y-68485000D01*
X204675000Y-71259112D01*
X204656694Y-71303306D01*
X204593306Y-71366694D01*
X204549112Y-71385000D01*
X201037500Y-71385000D01*
X200993306Y-71366694D01*
X200975000Y-71322500D01*
X200975000Y-67947500D01*
X200993306Y-67903306D01*
X201037500Y-67885000D01*
X202775000Y-67885000D01*
X203775000Y-66885000D01*
X203775000Y-65647500D01*
X203793306Y-65603306D01*
X203837500Y-65585000D01*
X207112500Y-65585000D01*
X207156694Y-65603306D01*
G37*
%TD.AperFunction*%
%TD*%
%TA.AperFunction,Conductor*%
%TO.N,/VDDD1P2/VDD1P2_INT*%
G36*
X222253306Y-57658306D02*
G01*
X222416694Y-57821694D01*
X222435000Y-57865888D01*
X222435000Y-59837146D01*
X222435000Y-59840000D01*
X221264128Y-59840000D01*
X221229405Y-59829467D01*
X221223766Y-59825699D01*
X221157407Y-59812500D01*
X221157406Y-59812500D01*
X220538652Y-59812500D01*
X219797500Y-59812500D01*
X219753306Y-59794194D01*
X219735000Y-59750000D01*
X219735000Y-58002500D01*
X219753306Y-57958306D01*
X219797500Y-57940000D01*
X221435000Y-57940000D01*
X221716694Y-57658306D01*
X221760888Y-57640000D01*
X222209112Y-57640000D01*
X222253306Y-57658306D01*
G37*
%TD.AperFunction*%
%TD*%
%TA.AperFunction,Conductor*%
%TO.N,VDDCCO*%
G36*
X192141694Y-64153306D02*
G01*
X192160000Y-64197500D01*
X192160000Y-65833470D01*
X192141694Y-65877664D01*
X191405164Y-66614194D01*
X191360970Y-66632500D01*
X188655741Y-66632500D01*
X188642456Y-66631072D01*
X188631216Y-66628626D01*
X188579285Y-66632341D01*
X188574827Y-66632500D01*
X188559058Y-66632500D01*
X188543457Y-66634742D01*
X188539027Y-66635219D01*
X188487085Y-66638935D01*
X188476306Y-66642955D01*
X188463364Y-66646259D01*
X188451971Y-66647897D01*
X188404611Y-66669526D01*
X188400491Y-66671233D01*
X188351698Y-66689433D01*
X188342489Y-66696326D01*
X188331008Y-66703139D01*
X188320533Y-66707923D01*
X188281173Y-66742028D01*
X188277703Y-66744824D01*
X188265090Y-66754266D01*
X188253952Y-66765404D01*
X188250691Y-66768440D01*
X188211330Y-66802548D01*
X188205110Y-66812227D01*
X188196727Y-66822629D01*
X186703658Y-68315698D01*
X186680108Y-68330496D01*
X186652469Y-68333611D01*
X186645002Y-68332770D01*
X186645001Y-68332770D01*
X186611101Y-68336589D01*
X186477614Y-68351629D01*
X186318617Y-68407265D01*
X186175991Y-68496882D01*
X186056882Y-68615991D01*
X185967265Y-68758617D01*
X185911629Y-68917614D01*
X185892770Y-69084999D01*
X185911629Y-69252385D01*
X185967265Y-69411382D01*
X186056882Y-69554008D01*
X186175991Y-69673117D01*
X186296555Y-69748871D01*
X186318620Y-69762736D01*
X186477613Y-69818370D01*
X186645000Y-69837230D01*
X186812387Y-69818370D01*
X186971380Y-69762736D01*
X187114008Y-69673117D01*
X187233117Y-69554008D01*
X187322736Y-69411380D01*
X187378370Y-69252387D01*
X187397230Y-69085000D01*
X187396388Y-69077531D01*
X187399502Y-69049893D01*
X187414299Y-69026341D01*
X188784835Y-67655806D01*
X188829030Y-67637500D01*
X191534258Y-67637500D01*
X191547543Y-67638928D01*
X191558782Y-67641373D01*
X191558782Y-67641372D01*
X191558783Y-67641373D01*
X191610717Y-67637659D01*
X191615176Y-67637500D01*
X191630935Y-67637500D01*
X191630937Y-67637500D01*
X191646545Y-67635255D01*
X191650968Y-67634780D01*
X191702912Y-67631066D01*
X191713695Y-67627043D01*
X191726639Y-67623739D01*
X191738026Y-67622103D01*
X191785411Y-67600461D01*
X191789492Y-67598771D01*
X191838299Y-67580568D01*
X191847509Y-67573672D01*
X191858994Y-67566858D01*
X191869466Y-67562077D01*
X191908836Y-67527961D01*
X191912271Y-67525192D01*
X191924910Y-67515732D01*
X191936075Y-67504565D01*
X191939299Y-67501564D01*
X191978669Y-67467451D01*
X191984889Y-67457770D01*
X191993268Y-67447372D01*
X192974872Y-66465768D01*
X192985270Y-66457389D01*
X192994951Y-66451169D01*
X193029064Y-66411799D01*
X193032065Y-66408575D01*
X193043232Y-66397410D01*
X193052692Y-66384772D01*
X193055455Y-66381343D01*
X193089577Y-66341966D01*
X193094359Y-66331493D01*
X193101169Y-66320014D01*
X193108069Y-66310799D01*
X193126277Y-66261981D01*
X193127964Y-66257908D01*
X193149603Y-66210526D01*
X193151240Y-66199138D01*
X193154543Y-66186197D01*
X193158566Y-66175412D01*
X193162280Y-66123468D01*
X193162756Y-66119039D01*
X193163337Y-66115000D01*
X193165000Y-66103437D01*
X193165000Y-66087676D01*
X193165159Y-66083218D01*
X193167687Y-66047869D01*
X193168873Y-66031283D01*
X193166428Y-66020043D01*
X193165000Y-66006758D01*
X193165000Y-64197500D01*
X193183306Y-64153306D01*
X193227500Y-64135000D01*
X193642500Y-64135000D01*
X193686694Y-64153306D01*
X193705000Y-64197500D01*
X193705000Y-66969112D01*
X193686694Y-67013306D01*
X192773306Y-67926694D01*
X192729112Y-67945000D01*
X190135000Y-67945000D01*
X189645715Y-68434283D01*
X189608519Y-68452196D01*
X189568269Y-68443009D01*
X189511382Y-68407265D01*
X189511381Y-68407264D01*
X189511380Y-68407264D01*
X189431883Y-68379446D01*
X189352385Y-68351629D01*
X189185000Y-68332770D01*
X189017614Y-68351629D01*
X188858617Y-68407265D01*
X188715991Y-68496882D01*
X188596882Y-68615991D01*
X188507265Y-68758617D01*
X188451629Y-68917614D01*
X188432770Y-69084999D01*
X188451629Y-69252385D01*
X188507265Y-69411382D01*
X188543009Y-69468269D01*
X188552196Y-69508519D01*
X188534283Y-69545715D01*
X187043306Y-71036694D01*
X187023030Y-71050242D01*
X186999112Y-71055000D01*
X184960888Y-71055000D01*
X184916694Y-71036694D01*
X184813306Y-70933306D01*
X184795000Y-70889112D01*
X184795000Y-68940888D01*
X184813306Y-68896694D01*
X187316694Y-66393306D01*
X187360888Y-66375000D01*
X189595000Y-66375000D01*
X189836694Y-66133306D01*
X189880888Y-66115000D01*
X191335000Y-66115000D01*
X191635000Y-65815000D01*
X191635000Y-64230888D01*
X191653306Y-64186694D01*
X191686694Y-64153306D01*
X191730888Y-64135000D01*
X192097500Y-64135000D01*
X192141694Y-64153306D01*
G37*
%TD.AperFunction*%
%TD*%
%TA.AperFunction,Conductor*%
%TO.N,VDDEXT*%
G36*
X114126694Y-162753306D02*
G01*
X114145000Y-162797500D01*
X114145000Y-165535000D01*
X114145000Y-166672500D01*
X114126694Y-166716694D01*
X114082500Y-166735000D01*
X112207500Y-166735000D01*
X112163306Y-166716694D01*
X112145000Y-166672500D01*
X112145000Y-162797500D01*
X112163306Y-162753306D01*
X112207500Y-162735000D01*
X114082500Y-162735000D01*
X114126694Y-162753306D01*
G37*
%TD.AperFunction*%
%TD*%
%TA.AperFunction,Conductor*%
%TO.N,GND*%
G36*
X111696694Y-114508306D02*
G01*
X111715000Y-114552500D01*
X111715000Y-118427500D01*
X111696694Y-118471694D01*
X111652500Y-118490000D01*
X109777500Y-118490000D01*
X109733306Y-118471694D01*
X109715000Y-118427500D01*
X109715000Y-114552500D01*
X109733306Y-114508306D01*
X109777500Y-114490000D01*
X111652500Y-114490000D01*
X111696694Y-114508306D01*
G37*
%TD.AperFunction*%
%TD*%
%TA.AperFunction,Conductor*%
%TO.N,/VDDA2P5/VDDA2P5_INT*%
G36*
X118266694Y-188558306D02*
G01*
X118285000Y-188602500D01*
X118285000Y-190377500D01*
X118266694Y-190421694D01*
X118222500Y-190440000D01*
X116885000Y-190440000D01*
X116885000Y-188540000D01*
X118222500Y-188540000D01*
X118266694Y-188558306D01*
G37*
%TD.AperFunction*%
%TD*%
%TA.AperFunction,Conductor*%
%TO.N,GND*%
G36*
X118796694Y-115308306D02*
G01*
X118815000Y-115352500D01*
X118815000Y-118764112D01*
X118796694Y-118808306D01*
X118315000Y-119290000D01*
X118315000Y-120227500D01*
X118296694Y-120271694D01*
X118252500Y-120290000D01*
X117115000Y-120290000D01*
X117115000Y-119390000D01*
X117015000Y-119390000D01*
X117015000Y-118315888D01*
X117033306Y-118271694D01*
X117115000Y-118190000D01*
X117115000Y-115352500D01*
X117133306Y-115308306D01*
X117177500Y-115290000D01*
X118752500Y-115290000D01*
X118796694Y-115308306D01*
G37*
%TD.AperFunction*%
%TD*%
%TA.AperFunction,Conductor*%
%TO.N,GND*%
G36*
X212116694Y-57558306D02*
G01*
X212135000Y-57602500D01*
X212135000Y-61477500D01*
X212116694Y-61521694D01*
X212072500Y-61540000D01*
X210197500Y-61540000D01*
X210153306Y-61521694D01*
X210135000Y-61477500D01*
X210135000Y-57602500D01*
X210153306Y-57558306D01*
X210197500Y-57540000D01*
X212072500Y-57540000D01*
X212116694Y-57558306D01*
G37*
%TD.AperFunction*%
%TD*%
%TA.AperFunction,Conductor*%
%TO.N,GND*%
G36*
X189456694Y-60503306D02*
G01*
X189475000Y-60547500D01*
X189475000Y-63959112D01*
X189456694Y-64003306D01*
X188975000Y-64485000D01*
X188975000Y-65422500D01*
X188956694Y-65466694D01*
X188912500Y-65485000D01*
X187775000Y-65485000D01*
X187775000Y-64585000D01*
X187675000Y-64585000D01*
X187675000Y-63510888D01*
X187693306Y-63466694D01*
X187775000Y-63385000D01*
X187775000Y-60547500D01*
X187793306Y-60503306D01*
X187837500Y-60485000D01*
X189412500Y-60485000D01*
X189456694Y-60503306D01*
G37*
%TD.AperFunction*%
%TD*%
%TA.AperFunction,Conductor*%
%TO.N,GND*%
G36*
X182356694Y-59703306D02*
G01*
X182375000Y-59747500D01*
X182375000Y-63622500D01*
X182356694Y-63666694D01*
X182312500Y-63685000D01*
X180437500Y-63685000D01*
X180393306Y-63666694D01*
X180375000Y-63622500D01*
X180375000Y-59747500D01*
X180393306Y-59703306D01*
X180437500Y-59685000D01*
X182312500Y-59685000D01*
X182356694Y-59703306D01*
G37*
%TD.AperFunction*%
%TD*%
%TA.AperFunction,Conductor*%
%TO.N,GND*%
G36*
X261416694Y-72983306D02*
G01*
X261435000Y-73027500D01*
X261435000Y-76439112D01*
X261416694Y-76483306D01*
X260935000Y-76965000D01*
X260935000Y-77902500D01*
X260916694Y-77946694D01*
X260872500Y-77965000D01*
X259735000Y-77965000D01*
X259735000Y-77065000D01*
X259635000Y-77065000D01*
X259635000Y-75990888D01*
X259653306Y-75946694D01*
X259735000Y-75865000D01*
X259735000Y-73027500D01*
X259753306Y-72983306D01*
X259797500Y-72965000D01*
X261372500Y-72965000D01*
X261416694Y-72983306D01*
G37*
%TD.AperFunction*%
%TD*%
%TA.AperFunction,Conductor*%
%TO.N,GND*%
G36*
X111326694Y-162753306D02*
G01*
X111345000Y-162797500D01*
X111345000Y-166672500D01*
X111326694Y-166716694D01*
X111282500Y-166735000D01*
X109407500Y-166735000D01*
X109363306Y-166716694D01*
X109345000Y-166672500D01*
X109345000Y-162797500D01*
X109363306Y-162753306D01*
X109407500Y-162735000D01*
X111282500Y-162735000D01*
X111326694Y-162753306D01*
G37*
%TD.AperFunction*%
%TD*%
%TA.AperFunction,Conductor*%
%TO.N,VDDOSC*%
G36*
X136496694Y-120408306D02*
G01*
X136515000Y-120452500D01*
X136515000Y-122427500D01*
X136496694Y-122471694D01*
X136452500Y-122490000D01*
X134815000Y-122490000D01*
X134015000Y-123290000D01*
X134015000Y-126064112D01*
X133996694Y-126108306D01*
X133933306Y-126171694D01*
X133889112Y-126190000D01*
X130377500Y-126190000D01*
X130333306Y-126171694D01*
X130315000Y-126127500D01*
X130315000Y-122752500D01*
X130333306Y-122708306D01*
X130377500Y-122690000D01*
X132115000Y-122690000D01*
X133115000Y-121690000D01*
X133115000Y-120452500D01*
X133133306Y-120408306D01*
X133177500Y-120390000D01*
X136452500Y-120390000D01*
X136496694Y-120408306D01*
G37*
%TD.AperFunction*%
%TD*%
%TA.AperFunction,Conductor*%
%TO.N,GND*%
G36*
X254316694Y-72183306D02*
G01*
X254335000Y-72227500D01*
X254335000Y-76102500D01*
X254316694Y-76146694D01*
X254272500Y-76165000D01*
X252397500Y-76165000D01*
X252353306Y-76146694D01*
X252335000Y-76102500D01*
X252335000Y-72227500D01*
X252353306Y-72183306D01*
X252397500Y-72165000D01*
X254272500Y-72165000D01*
X254316694Y-72183306D01*
G37*
%TD.AperFunction*%
%TD*%
%TA.AperFunction,Conductor*%
%TO.N,VDDEXT*%
G36*
X185156694Y-59703306D02*
G01*
X185175000Y-59747500D01*
X185175000Y-62485000D01*
X185175000Y-63622500D01*
X185156694Y-63666694D01*
X185112500Y-63685000D01*
X183237500Y-63685000D01*
X183193306Y-63666694D01*
X183175000Y-63622500D01*
X183175000Y-59747500D01*
X183193306Y-59703306D01*
X183237500Y-59685000D01*
X185112500Y-59685000D01*
X185156694Y-59703306D01*
G37*
%TD.AperFunction*%
%TD*%
%TA.AperFunction,Conductor*%
%TO.N,VDDEXT*%
G36*
X214916694Y-57558306D02*
G01*
X214935000Y-57602500D01*
X214935000Y-60340000D01*
X214935000Y-61477500D01*
X214916694Y-61521694D01*
X214872500Y-61540000D01*
X212997500Y-61540000D01*
X212953306Y-61521694D01*
X212935000Y-61477500D01*
X212935000Y-57602500D01*
X212953306Y-57558306D01*
X212997500Y-57540000D01*
X214872500Y-57540000D01*
X214916694Y-57558306D01*
G37*
%TD.AperFunction*%
%TD*%
%TA.AperFunction,Conductor*%
%TO.N,/VDDACORE/VDDTQ_INT*%
G36*
X121463306Y-162853306D02*
G01*
X121626694Y-163016694D01*
X121645000Y-163060888D01*
X121645000Y-165032146D01*
X121645000Y-165035000D01*
X120474128Y-165035000D01*
X120439405Y-165024467D01*
X120433766Y-165020699D01*
X120367407Y-165007500D01*
X120367406Y-165007500D01*
X119748652Y-165007500D01*
X119007500Y-165007500D01*
X118963306Y-164989194D01*
X118945000Y-164945000D01*
X118945000Y-163197500D01*
X118963306Y-163153306D01*
X119007500Y-163135000D01*
X120645000Y-163135000D01*
X120926694Y-162853306D01*
X120970888Y-162835000D01*
X121419112Y-162835000D01*
X121463306Y-162853306D01*
G37*
%TD.AperFunction*%
%TD*%
%TA.AperFunction,Conductor*%
%TO.N,VREF*%
G36*
X134561694Y-90718306D02*
G01*
X134580000Y-90762500D01*
X134580000Y-92398470D01*
X134561694Y-92442664D01*
X133825164Y-93179194D01*
X133780970Y-93197500D01*
X131075741Y-93197500D01*
X131062456Y-93196072D01*
X131051216Y-93193626D01*
X130999285Y-93197341D01*
X130994827Y-93197500D01*
X130979058Y-93197500D01*
X130963457Y-93199742D01*
X130959027Y-93200219D01*
X130907085Y-93203935D01*
X130896306Y-93207955D01*
X130883364Y-93211259D01*
X130871971Y-93212897D01*
X130824611Y-93234526D01*
X130820491Y-93236233D01*
X130771698Y-93254433D01*
X130762489Y-93261326D01*
X130751008Y-93268139D01*
X130740533Y-93272923D01*
X130701173Y-93307028D01*
X130697703Y-93309824D01*
X130685090Y-93319266D01*
X130673952Y-93330404D01*
X130670691Y-93333440D01*
X130631330Y-93367548D01*
X130625110Y-93377227D01*
X130616727Y-93387629D01*
X129123658Y-94880698D01*
X129100108Y-94895496D01*
X129072469Y-94898611D01*
X129065002Y-94897770D01*
X129065001Y-94897770D01*
X129031101Y-94901589D01*
X128897614Y-94916629D01*
X128738617Y-94972265D01*
X128595991Y-95061882D01*
X128476882Y-95180991D01*
X128387265Y-95323617D01*
X128331629Y-95482614D01*
X128312770Y-95649999D01*
X128331629Y-95817385D01*
X128387265Y-95976382D01*
X128476882Y-96119008D01*
X128595991Y-96238117D01*
X128716555Y-96313871D01*
X128738620Y-96327736D01*
X128897613Y-96383370D01*
X129065000Y-96402230D01*
X129232387Y-96383370D01*
X129391380Y-96327736D01*
X129534008Y-96238117D01*
X129653117Y-96119008D01*
X129742736Y-95976380D01*
X129798370Y-95817387D01*
X129817230Y-95650000D01*
X129816388Y-95642531D01*
X129819502Y-95614893D01*
X129834299Y-95591341D01*
X131204835Y-94220806D01*
X131249030Y-94202500D01*
X133954258Y-94202500D01*
X133967543Y-94203928D01*
X133978782Y-94206373D01*
X133978782Y-94206372D01*
X133978783Y-94206373D01*
X134030717Y-94202659D01*
X134035176Y-94202500D01*
X134050935Y-94202500D01*
X134050937Y-94202500D01*
X134066545Y-94200255D01*
X134070968Y-94199780D01*
X134122912Y-94196066D01*
X134133695Y-94192043D01*
X134146639Y-94188739D01*
X134158026Y-94187103D01*
X134205411Y-94165461D01*
X134209492Y-94163771D01*
X134258299Y-94145568D01*
X134267509Y-94138672D01*
X134278994Y-94131858D01*
X134289466Y-94127077D01*
X134328836Y-94092961D01*
X134332271Y-94090192D01*
X134344910Y-94080732D01*
X134356075Y-94069565D01*
X134359299Y-94066564D01*
X134398669Y-94032451D01*
X134404889Y-94022770D01*
X134413268Y-94012372D01*
X135394872Y-93030768D01*
X135405270Y-93022389D01*
X135414951Y-93016169D01*
X135449064Y-92976799D01*
X135452065Y-92973575D01*
X135463232Y-92962410D01*
X135472692Y-92949772D01*
X135475455Y-92946343D01*
X135509577Y-92906966D01*
X135514359Y-92896493D01*
X135521169Y-92885014D01*
X135528069Y-92875799D01*
X135546277Y-92826981D01*
X135547964Y-92822908D01*
X135569603Y-92775526D01*
X135571240Y-92764138D01*
X135574543Y-92751197D01*
X135578566Y-92740412D01*
X135582280Y-92688468D01*
X135582756Y-92684039D01*
X135583337Y-92680000D01*
X135585000Y-92668437D01*
X135585000Y-92652676D01*
X135585159Y-92648218D01*
X135587687Y-92612869D01*
X135588873Y-92596283D01*
X135586428Y-92585043D01*
X135585000Y-92571758D01*
X135585000Y-90762500D01*
X135603306Y-90718306D01*
X135647500Y-90700000D01*
X136062500Y-90700000D01*
X136106694Y-90718306D01*
X136125000Y-90762500D01*
X136125000Y-93534112D01*
X136106694Y-93578306D01*
X135193306Y-94491694D01*
X135149112Y-94510000D01*
X132555000Y-94510000D01*
X132065715Y-94999283D01*
X132028519Y-95017196D01*
X131988269Y-95008009D01*
X131931382Y-94972265D01*
X131931381Y-94972264D01*
X131931380Y-94972264D01*
X131851883Y-94944447D01*
X131772385Y-94916629D01*
X131605000Y-94897770D01*
X131437614Y-94916629D01*
X131278617Y-94972265D01*
X131135991Y-95061882D01*
X131016882Y-95180991D01*
X130927265Y-95323617D01*
X130871629Y-95482614D01*
X130852770Y-95649999D01*
X130871629Y-95817385D01*
X130927265Y-95976382D01*
X130963009Y-96033269D01*
X130972196Y-96073519D01*
X130954283Y-96110715D01*
X129463306Y-97601694D01*
X129443030Y-97615242D01*
X129419112Y-97620000D01*
X127380888Y-97620000D01*
X127336694Y-97601694D01*
X127233306Y-97498306D01*
X127215000Y-97454112D01*
X127215000Y-95505888D01*
X127233306Y-95461694D01*
X129736694Y-92958306D01*
X129780888Y-92940000D01*
X132015000Y-92940000D01*
X132256694Y-92698306D01*
X132300888Y-92680000D01*
X133755000Y-92680000D01*
X134055000Y-92380000D01*
X134055000Y-90795888D01*
X134073306Y-90751694D01*
X134106694Y-90718306D01*
X134150888Y-90700000D01*
X134517500Y-90700000D01*
X134561694Y-90718306D01*
G37*
%TD.AperFunction*%
%TD*%
%TA.AperFunction,Conductor*%
%TO.N,VDDEXT*%
G36*
X114445000Y-163135000D02*
G01*
X116082500Y-163135000D01*
X116126694Y-163153306D01*
X116145000Y-163197500D01*
X116145000Y-165472500D01*
X116126694Y-165516694D01*
X116082500Y-165535000D01*
X114145000Y-165535000D01*
X114145000Y-162835000D01*
X114445000Y-163135000D01*
G37*
%TD.AperFunction*%
%TD*%
%TA.AperFunction,Conductor*%
%TO.N,Net-(J16-Pin_2)*%
G36*
X128166694Y-190638306D02*
G01*
X128185000Y-190682500D01*
X128185000Y-193384112D01*
X128166694Y-193428306D01*
X127295000Y-194300000D01*
X127295000Y-195267500D01*
X127276694Y-195311694D01*
X127232500Y-195330000D01*
X126447500Y-195330000D01*
X126403306Y-195311694D01*
X126385000Y-195267500D01*
X126385000Y-194290000D01*
X125603306Y-193508306D01*
X125585000Y-193464112D01*
X125585000Y-190682500D01*
X125603306Y-190638306D01*
X125647500Y-190620000D01*
X128122500Y-190620000D01*
X128166694Y-190638306D01*
G37*
%TD.AperFunction*%
%TD*%
%TA.AperFunction,Conductor*%
%TO.N,Net-(J27-Pin_2)*%
G36*
X133296694Y-116988306D02*
G01*
X133315000Y-117032500D01*
X133315000Y-119734112D01*
X133296694Y-119778306D01*
X132425000Y-120650000D01*
X132425000Y-121617500D01*
X132406694Y-121661694D01*
X132362500Y-121680000D01*
X131577500Y-121680000D01*
X131533306Y-121661694D01*
X131515000Y-121617500D01*
X131515000Y-120640000D01*
X130733306Y-119858306D01*
X130715000Y-119814112D01*
X130715000Y-117032500D01*
X130733306Y-116988306D01*
X130777500Y-116970000D01*
X133252500Y-116970000D01*
X133296694Y-116988306D01*
G37*
%TD.AperFunction*%
%TD*%
%TA.AperFunction,Conductor*%
%TO.N,/VDDA2P5/VDDA2P5_INT*%
G36*
X116703306Y-188258306D02*
G01*
X116866694Y-188421694D01*
X116885000Y-188465888D01*
X116885000Y-190437146D01*
X116885000Y-190440000D01*
X115714128Y-190440000D01*
X115679405Y-190429467D01*
X115673766Y-190425699D01*
X115607407Y-190412500D01*
X115607406Y-190412500D01*
X114988652Y-190412500D01*
X114247500Y-190412500D01*
X114203306Y-190394194D01*
X114185000Y-190350000D01*
X114185000Y-188602500D01*
X114203306Y-188558306D01*
X114247500Y-188540000D01*
X115885000Y-188540000D01*
X116166694Y-188258306D01*
X116210888Y-188240000D01*
X116659112Y-188240000D01*
X116703306Y-188258306D01*
G37*
%TD.AperFunction*%
%TD*%
%TA.AperFunction,Conductor*%
%TO.N,/VDDD2P5/VDDD2P5_INT*%
G36*
X266016694Y-72583306D02*
G01*
X266035000Y-72627500D01*
X266035000Y-74402500D01*
X266016694Y-74446694D01*
X265972500Y-74465000D01*
X264635000Y-74465000D01*
X264635000Y-72565000D01*
X265972500Y-72565000D01*
X266016694Y-72583306D01*
G37*
%TD.AperFunction*%
%TD*%
%TA.AperFunction,Conductor*%
%TO.N,VDDEXT*%
G36*
X127576694Y-86268306D02*
G01*
X127595000Y-86312500D01*
X127595000Y-89050000D01*
X127595000Y-90187500D01*
X127576694Y-90231694D01*
X127532500Y-90250000D01*
X125657500Y-90250000D01*
X125613306Y-90231694D01*
X125595000Y-90187500D01*
X125595000Y-86312500D01*
X125613306Y-86268306D01*
X125657500Y-86250000D01*
X127532500Y-86250000D01*
X127576694Y-86268306D01*
G37*
%TD.AperFunction*%
%TD*%
%TA.AperFunction,Conductor*%
%TO.N,VDDEXT*%
G36*
X148286694Y-55283306D02*
G01*
X148305000Y-55327500D01*
X148305000Y-60202500D01*
X148286694Y-60246694D01*
X148242500Y-60265000D01*
X136367500Y-60265000D01*
X136323306Y-60246694D01*
X136305000Y-60202500D01*
X136305000Y-55327500D01*
X136323306Y-55283306D01*
X136367500Y-55265000D01*
X148242500Y-55265000D01*
X148286694Y-55283306D01*
G37*
%TD.AperFunction*%
%TD*%
%TA.AperFunction,Conductor*%
%TO.N,VDDEXT*%
G36*
X185475000Y-60085000D02*
G01*
X187112500Y-60085000D01*
X187156694Y-60103306D01*
X187175000Y-60147500D01*
X187175000Y-62422500D01*
X187156694Y-62466694D01*
X187112500Y-62485000D01*
X185175000Y-62485000D01*
X185175000Y-59785000D01*
X185475000Y-60085000D01*
G37*
%TD.AperFunction*%
%TD*%
%TA.AperFunction,Conductor*%
%TO.N,GND*%
G36*
X174958000Y-215581613D02*
G01*
X175003387Y-215627000D01*
X175020000Y-215689000D01*
X175020000Y-226841000D01*
X175003387Y-226903000D01*
X174958000Y-226948387D01*
X174896000Y-226965000D01*
X170344000Y-226965000D01*
X170282000Y-226948387D01*
X170236613Y-226903000D01*
X170220000Y-226841000D01*
X170220000Y-215689000D01*
X170236613Y-215627000D01*
X170282000Y-215581613D01*
X170344000Y-215565000D01*
X174896000Y-215565000D01*
X174958000Y-215581613D01*
G37*
%TD.AperFunction*%
%TD*%
%TA.AperFunction,Conductor*%
%TO.N,VDDEXT*%
G36*
X215235000Y-57940000D02*
G01*
X216872500Y-57940000D01*
X216916694Y-57958306D01*
X216935000Y-58002500D01*
X216935000Y-60277500D01*
X216916694Y-60321694D01*
X216872500Y-60340000D01*
X214935000Y-60340000D01*
X214935000Y-57640000D01*
X215235000Y-57940000D01*
G37*
%TD.AperFunction*%
%TD*%
%TA.AperFunction,Conductor*%
%TO.N,VDDEXT*%
G36*
X127895000Y-86650000D02*
G01*
X129532500Y-86650000D01*
X129576694Y-86668306D01*
X129595000Y-86712500D01*
X129595000Y-88987500D01*
X129576694Y-89031694D01*
X129532500Y-89050000D01*
X127595000Y-89050000D01*
X127595000Y-86350000D01*
X127895000Y-86650000D01*
G37*
%TD.AperFunction*%
%TD*%
%TA.AperFunction,Conductor*%
%TO.N,GND*%
G36*
X113666694Y-188958306D02*
G01*
X113685000Y-189002500D01*
X113685000Y-192414112D01*
X113666694Y-192458306D01*
X113185000Y-192940000D01*
X113185000Y-193877500D01*
X113166694Y-193921694D01*
X113122500Y-193940000D01*
X111985000Y-193940000D01*
X111985000Y-193040000D01*
X111885000Y-193040000D01*
X111885000Y-191965888D01*
X111903306Y-191921694D01*
X111985000Y-191840000D01*
X111985000Y-189002500D01*
X112003306Y-188958306D01*
X112047500Y-188940000D01*
X113622500Y-188940000D01*
X113666694Y-188958306D01*
G37*
%TD.AperFunction*%
%TD*%
%TA.AperFunction,Conductor*%
%TO.N,/IREF*%
G36*
X165123681Y-71983681D02*
G01*
X165150561Y-72023909D01*
X165160000Y-72071362D01*
X165160000Y-76496000D01*
X165143387Y-76558000D01*
X165098000Y-76603387D01*
X165036000Y-76620000D01*
X163311362Y-76620000D01*
X163263909Y-76610561D01*
X163223681Y-76583681D01*
X161196319Y-74556319D01*
X161169439Y-74516091D01*
X161160000Y-74468638D01*
X161160000Y-70220001D01*
X161159999Y-70219999D01*
X160460000Y-69520000D01*
X158284000Y-69520000D01*
X158222000Y-69503387D01*
X158176613Y-69458000D01*
X158160000Y-69396000D01*
X158160000Y-67320000D01*
X160460000Y-67320000D01*
X165123681Y-71983681D01*
G37*
%TD.AperFunction*%
%TD*%
%TA.AperFunction,Conductor*%
%TO.N,/VDDD2P5/VDDD2P5_INT*%
G36*
X264453306Y-72283306D02*
G01*
X264616694Y-72446694D01*
X264635000Y-72490888D01*
X264635000Y-74462146D01*
X264635000Y-74465000D01*
X263459128Y-74465000D01*
X263424405Y-74454467D01*
X263418766Y-74450699D01*
X263352407Y-74437500D01*
X263352406Y-74437500D01*
X262738652Y-74437500D01*
X261997500Y-74437500D01*
X261953306Y-74419194D01*
X261935000Y-74375000D01*
X261935000Y-72627500D01*
X261953306Y-72583306D01*
X261997500Y-72565000D01*
X263635000Y-72565000D01*
X263916694Y-72283306D01*
X263960888Y-72265000D01*
X264409112Y-72265000D01*
X264453306Y-72283306D01*
G37*
%TD.AperFunction*%
%TD*%
%TA.AperFunction,Conductor*%
%TO.N,/VDDACORE/VDDTQ_INT*%
G36*
X123026694Y-163153306D02*
G01*
X123045000Y-163197500D01*
X123045000Y-164972500D01*
X123026694Y-165016694D01*
X122982500Y-165035000D01*
X121645000Y-165035000D01*
X121645000Y-163135000D01*
X122982500Y-163135000D01*
X123026694Y-163153306D01*
G37*
%TD.AperFunction*%
%TD*%
%TA.AperFunction,Conductor*%
%TO.N,/VREF/VREF_INT*%
G36*
X136476694Y-86668306D02*
G01*
X136495000Y-86712500D01*
X136495000Y-88487500D01*
X136476694Y-88531694D01*
X136432500Y-88550000D01*
X135095000Y-88550000D01*
X135095000Y-86650000D01*
X136432500Y-86650000D01*
X136476694Y-86668306D01*
G37*
%TD.AperFunction*%
%TD*%
%TA.AperFunction,Conductor*%
%TO.N,/VDD3P3/VDD3P3_INT*%
G36*
X303558306Y-80368306D02*
G01*
X303721694Y-80531694D01*
X303740000Y-80575888D01*
X303740000Y-82547146D01*
X303740000Y-82550000D01*
X302569128Y-82550000D01*
X302534405Y-82539467D01*
X302528766Y-82535699D01*
X302462407Y-82522500D01*
X302462406Y-82522500D01*
X301843652Y-82522500D01*
X301102500Y-82522500D01*
X301058306Y-82504194D01*
X301040000Y-82460000D01*
X301040000Y-80712500D01*
X301058306Y-80668306D01*
X301102500Y-80650000D01*
X302740000Y-80650000D01*
X303021694Y-80368306D01*
X303065888Y-80350000D01*
X303514112Y-80350000D01*
X303558306Y-80368306D01*
G37*
%TD.AperFunction*%
%TD*%
%TA.AperFunction,Conductor*%
%TO.N,GND*%
G36*
X130195000Y-92050000D02*
G01*
X128857500Y-92050000D01*
X128813306Y-92031694D01*
X128795000Y-91987500D01*
X128795000Y-91212500D01*
X128813306Y-91168306D01*
X128857500Y-91150000D01*
X130095000Y-91150000D01*
X130195000Y-91150000D01*
X130195000Y-92050000D01*
G37*
%TD.AperFunction*%
%TD*%
%TA.AperFunction,Conductor*%
%TO.N,GND*%
G36*
X131876694Y-87068306D02*
G01*
X131895000Y-87112500D01*
X131895000Y-90524112D01*
X131876694Y-90568306D01*
X131395000Y-91050000D01*
X131395000Y-91987500D01*
X131376694Y-92031694D01*
X131332500Y-92050000D01*
X130195000Y-92050000D01*
X130195000Y-91150000D01*
X130095000Y-91150000D01*
X130095000Y-90075888D01*
X130113306Y-90031694D01*
X130195000Y-89950000D01*
X130195000Y-87112500D01*
X130213306Y-87068306D01*
X130257500Y-87050000D01*
X131832500Y-87050000D01*
X131876694Y-87068306D01*
G37*
%TD.AperFunction*%
%TD*%
%TA.AperFunction,Conductor*%
%TO.N,GND*%
G36*
X118426694Y-163553306D02*
G01*
X118445000Y-163597500D01*
X118445000Y-167009112D01*
X118426694Y-167053306D01*
X117945000Y-167535000D01*
X117945000Y-168472500D01*
X117926694Y-168516694D01*
X117882500Y-168535000D01*
X116745000Y-168535000D01*
X116745000Y-167635000D01*
X116645000Y-167635000D01*
X116645000Y-166560888D01*
X116663306Y-166516694D01*
X116745000Y-166435000D01*
X116745000Y-163597500D01*
X116763306Y-163553306D01*
X116807500Y-163535000D01*
X118382500Y-163535000D01*
X118426694Y-163553306D01*
G37*
%TD.AperFunction*%
%TD*%
%TA.AperFunction,Conductor*%
%TO.N,VDDEXT*%
G36*
X257435000Y-72565000D02*
G01*
X259072500Y-72565000D01*
X259116694Y-72583306D01*
X259135000Y-72627500D01*
X259135000Y-74902500D01*
X259116694Y-74946694D01*
X259072500Y-74965000D01*
X257135000Y-74965000D01*
X257135000Y-72265000D01*
X257435000Y-72565000D01*
G37*
%TD.AperFunction*%
%TD*%
%TA.AperFunction,Conductor*%
%TO.N,Net-(J20-Pin_2)*%
G36*
X146376694Y-88748306D02*
G01*
X146395000Y-88792500D01*
X146395000Y-91494112D01*
X146376694Y-91538306D01*
X145505000Y-92410000D01*
X145505000Y-93377500D01*
X145486694Y-93421694D01*
X145442500Y-93440000D01*
X144657500Y-93440000D01*
X144613306Y-93421694D01*
X144595000Y-93377500D01*
X144595000Y-92400000D01*
X143813306Y-91618306D01*
X143795000Y-91574112D01*
X143795000Y-88792500D01*
X143813306Y-88748306D01*
X143857500Y-88730000D01*
X146332500Y-88730000D01*
X146376694Y-88748306D01*
G37*
%TD.AperFunction*%
%TD*%
%TA.AperFunction,Conductor*%
%TO.N,/VDDACORE/VDDCCO_INT*%
G36*
X194056694Y-60103306D02*
G01*
X194075000Y-60147500D01*
X194075000Y-61922500D01*
X194056694Y-61966694D01*
X194012500Y-61985000D01*
X192675000Y-61985000D01*
X192675000Y-60085000D01*
X194012500Y-60085000D01*
X194056694Y-60103306D01*
G37*
%TD.AperFunction*%
%TD*%
%TA.AperFunction,Conductor*%
%TO.N,VDDEXT*%
G36*
X296221694Y-80268306D02*
G01*
X296240000Y-80312500D01*
X296240000Y-83050000D01*
X296240000Y-84187500D01*
X296221694Y-84231694D01*
X296177500Y-84250000D01*
X294302500Y-84250000D01*
X294258306Y-84231694D01*
X294240000Y-84187500D01*
X294240000Y-80312500D01*
X294258306Y-80268306D01*
X294302500Y-80250000D01*
X296177500Y-80250000D01*
X296221694Y-80268306D01*
G37*
%TD.AperFunction*%
%TD*%
%TA.AperFunction,Conductor*%
%TO.N,/IREF*%
G36*
X160441694Y-64638306D02*
G01*
X160460000Y-64682500D01*
X160460000Y-67320000D01*
X158160000Y-67320000D01*
X158160000Y-64682500D01*
X158178306Y-64638306D01*
X158222500Y-64620000D01*
X160397500Y-64620000D01*
X160441694Y-64638306D01*
G37*
%TD.AperFunction*%
%TD*%
%TA.AperFunction,Conductor*%
%TO.N,VDDEXT*%
G36*
X257116694Y-72183306D02*
G01*
X257135000Y-72227500D01*
X257135000Y-74965000D01*
X257135000Y-76102500D01*
X257116694Y-76146694D01*
X257072500Y-76165000D01*
X255197500Y-76165000D01*
X255153306Y-76146694D01*
X255135000Y-76102500D01*
X255135000Y-72227500D01*
X255153306Y-72183306D01*
X255197500Y-72165000D01*
X257072500Y-72165000D01*
X257116694Y-72183306D01*
G37*
%TD.AperFunction*%
%TD*%
%TA.AperFunction,Conductor*%
%TO.N,Net-(J36-Pin_1)*%
G36*
X165741694Y-56838306D02*
G01*
X165760000Y-56882500D01*
X165760000Y-61320000D01*
X168741694Y-64301694D01*
X168760000Y-64345888D01*
X168760000Y-66757500D01*
X168741694Y-66801694D01*
X168697500Y-66820000D01*
X160822500Y-66820000D01*
X160778306Y-66801694D01*
X160760000Y-66757500D01*
X160760000Y-64345888D01*
X160778306Y-64301694D01*
X163760000Y-61320000D01*
X163760000Y-56882500D01*
X163778306Y-56838306D01*
X163822500Y-56820000D01*
X165697500Y-56820000D01*
X165741694Y-56838306D01*
G37*
%TD.AperFunction*%
%TD*%
%TA.AperFunction,Conductor*%
%TO.N,/CLKIN_P*%
G36*
X153028048Y-196471344D02*
G01*
X153052488Y-196471949D01*
X153053110Y-196471981D01*
X153072928Y-196473602D01*
X153073587Y-196473676D01*
X153090031Y-196476046D01*
X153090670Y-196476156D01*
X153105030Y-196479046D01*
X153105418Y-196479131D01*
X153118974Y-196482341D01*
X153132727Y-196485598D01*
X153147591Y-196488588D01*
X153164687Y-196491053D01*
X153174917Y-196491889D01*
X153185143Y-196492725D01*
X153190560Y-196492858D01*
X153210044Y-196493341D01*
X153210062Y-196493341D01*
X153282859Y-196493341D01*
X153290549Y-196496223D01*
X153294450Y-196503449D01*
X153304242Y-196574749D01*
X153304242Y-196577933D01*
X153294450Y-196649233D01*
X153290549Y-196656459D01*
X153282859Y-196659341D01*
X153210044Y-196659341D01*
X153185148Y-196659956D01*
X153164688Y-196661628D01*
X153147595Y-196664092D01*
X153132722Y-196667085D01*
X153118974Y-196670341D01*
X153118973Y-196670341D01*
X153105417Y-196673550D01*
X153105030Y-196673635D01*
X153090670Y-196676524D01*
X153090032Y-196676634D01*
X153073617Y-196679001D01*
X153072900Y-196679082D01*
X153053130Y-196680698D01*
X153052466Y-196680733D01*
X153028049Y-196681337D01*
X153027760Y-196681341D01*
X153020438Y-196681341D01*
X153013668Y-196679183D01*
X153009395Y-196673506D01*
X153000899Y-196649233D01*
X152976739Y-196580204D01*
X152976739Y-196572478D01*
X153007147Y-196485598D01*
X153009395Y-196479176D01*
X153013668Y-196473499D01*
X153020438Y-196471341D01*
X153027760Y-196471341D01*
X153028048Y-196471344D01*
G37*
%TD.AperFunction*%
%TD*%
%TA.AperFunction,Conductor*%
%TO.N,/VDDD1P2/VDD1P2_INT*%
G36*
X223816694Y-57958306D02*
G01*
X223835000Y-58002500D01*
X223835000Y-59777500D01*
X223816694Y-59821694D01*
X223772500Y-59840000D01*
X222435000Y-59840000D01*
X222435000Y-57940000D01*
X223772500Y-57940000D01*
X223816694Y-57958306D01*
G37*
%TD.AperFunction*%
%TD*%
%TA.AperFunction,Conductor*%
%TO.N,GND*%
G36*
X116745000Y-168535000D02*
G01*
X115407500Y-168535000D01*
X115363306Y-168516694D01*
X115345000Y-168472500D01*
X115345000Y-167697500D01*
X115363306Y-167653306D01*
X115407500Y-167635000D01*
X116645000Y-167635000D01*
X116745000Y-167635000D01*
X116745000Y-168535000D01*
G37*
%TD.AperFunction*%
%TD*%
%TA.AperFunction,Conductor*%
%TO.N,/VREF/VREF_INT*%
G36*
X134913306Y-86368306D02*
G01*
X135076694Y-86531694D01*
X135095000Y-86575888D01*
X135095000Y-88547146D01*
X135095000Y-88550000D01*
X133924128Y-88550000D01*
X133889405Y-88539467D01*
X133883766Y-88535699D01*
X133817407Y-88522500D01*
X133817406Y-88522500D01*
X133198652Y-88522500D01*
X132457500Y-88522500D01*
X132413306Y-88504194D01*
X132395000Y-88460000D01*
X132395000Y-86712500D01*
X132413306Y-86668306D01*
X132457500Y-86650000D01*
X134095000Y-86650000D01*
X134376694Y-86368306D01*
X134420888Y-86350000D01*
X134869112Y-86350000D01*
X134913306Y-86368306D01*
G37*
%TD.AperFunction*%
%TD*%
%TA.AperFunction,Conductor*%
%TO.N,VDDEXT*%
G36*
X296540000Y-80650000D02*
G01*
X298177500Y-80650000D01*
X298221694Y-80668306D01*
X298240000Y-80712500D01*
X298240000Y-82987500D01*
X298221694Y-83031694D01*
X298177500Y-83050000D01*
X296240000Y-83050000D01*
X296240000Y-80350000D01*
X296540000Y-80650000D01*
G37*
%TD.AperFunction*%
%TD*%
%TA.AperFunction,Conductor*%
%TO.N,VDDOSC*%
G36*
X121481694Y-118958306D02*
G01*
X121500000Y-119002500D01*
X121500000Y-120638470D01*
X121481694Y-120682664D01*
X120745164Y-121419194D01*
X120700970Y-121437500D01*
X117995741Y-121437500D01*
X117982456Y-121436072D01*
X117971216Y-121433626D01*
X117919285Y-121437341D01*
X117914827Y-121437500D01*
X117899058Y-121437500D01*
X117883457Y-121439742D01*
X117879027Y-121440219D01*
X117827085Y-121443935D01*
X117816306Y-121447955D01*
X117803364Y-121451259D01*
X117791971Y-121452897D01*
X117744611Y-121474526D01*
X117740491Y-121476233D01*
X117691698Y-121494433D01*
X117682489Y-121501326D01*
X117671008Y-121508139D01*
X117660533Y-121512923D01*
X117621173Y-121547028D01*
X117617703Y-121549824D01*
X117605090Y-121559266D01*
X117593952Y-121570404D01*
X117590691Y-121573440D01*
X117551330Y-121607548D01*
X117545110Y-121617227D01*
X117536727Y-121627629D01*
X116043658Y-123120698D01*
X116020108Y-123135496D01*
X115992469Y-123138611D01*
X115985002Y-123137770D01*
X115985001Y-123137770D01*
X115951101Y-123141589D01*
X115817614Y-123156629D01*
X115658617Y-123212265D01*
X115515991Y-123301882D01*
X115396882Y-123420991D01*
X115307265Y-123563617D01*
X115251629Y-123722614D01*
X115232770Y-123889999D01*
X115251629Y-124057385D01*
X115307265Y-124216382D01*
X115396882Y-124359008D01*
X115515991Y-124478117D01*
X115636555Y-124553871D01*
X115658620Y-124567736D01*
X115817613Y-124623370D01*
X115985000Y-124642230D01*
X116152387Y-124623370D01*
X116311380Y-124567736D01*
X116454008Y-124478117D01*
X116573117Y-124359008D01*
X116662736Y-124216380D01*
X116718370Y-124057387D01*
X116737230Y-123890000D01*
X116736388Y-123882531D01*
X116739502Y-123854893D01*
X116754299Y-123831341D01*
X118124835Y-122460806D01*
X118169030Y-122442500D01*
X120874258Y-122442500D01*
X120887543Y-122443928D01*
X120898782Y-122446373D01*
X120898782Y-122446372D01*
X120898783Y-122446373D01*
X120950717Y-122442659D01*
X120955176Y-122442500D01*
X120970935Y-122442500D01*
X120970937Y-122442500D01*
X120986545Y-122440255D01*
X120990968Y-122439780D01*
X121042912Y-122436066D01*
X121053695Y-122432043D01*
X121066639Y-122428739D01*
X121078026Y-122427103D01*
X121125411Y-122405461D01*
X121129492Y-122403771D01*
X121178299Y-122385568D01*
X121187509Y-122378672D01*
X121198994Y-122371858D01*
X121209466Y-122367077D01*
X121248836Y-122332961D01*
X121252271Y-122330192D01*
X121264910Y-122320732D01*
X121276075Y-122309565D01*
X121279299Y-122306564D01*
X121318669Y-122272451D01*
X121324889Y-122262770D01*
X121333268Y-122252372D01*
X122314872Y-121270768D01*
X122325270Y-121262389D01*
X122334951Y-121256169D01*
X122369064Y-121216799D01*
X122372065Y-121213575D01*
X122383232Y-121202410D01*
X122392692Y-121189772D01*
X122395455Y-121186343D01*
X122429577Y-121146966D01*
X122434359Y-121136493D01*
X122441169Y-121125014D01*
X122448069Y-121115799D01*
X122466277Y-121066981D01*
X122467964Y-121062908D01*
X122489603Y-121015526D01*
X122491240Y-121004138D01*
X122494543Y-120991197D01*
X122498566Y-120980412D01*
X122502280Y-120928468D01*
X122502756Y-120924039D01*
X122503337Y-120920000D01*
X122505000Y-120908437D01*
X122505000Y-120892676D01*
X122505159Y-120888218D01*
X122507687Y-120852869D01*
X122508873Y-120836283D01*
X122506428Y-120825043D01*
X122505000Y-120811758D01*
X122505000Y-119002500D01*
X122523306Y-118958306D01*
X122567500Y-118940000D01*
X122982500Y-118940000D01*
X123026694Y-118958306D01*
X123045000Y-119002500D01*
X123045000Y-121774112D01*
X123026694Y-121818306D01*
X122113306Y-122731694D01*
X122069112Y-122750000D01*
X119475000Y-122750000D01*
X118985715Y-123239283D01*
X118948519Y-123257196D01*
X118908269Y-123248009D01*
X118851382Y-123212265D01*
X118851381Y-123212264D01*
X118851380Y-123212264D01*
X118771883Y-123184446D01*
X118692385Y-123156629D01*
X118525000Y-123137770D01*
X118357614Y-123156629D01*
X118198617Y-123212265D01*
X118055991Y-123301882D01*
X117936882Y-123420991D01*
X117847265Y-123563617D01*
X117791629Y-123722614D01*
X117772770Y-123889999D01*
X117791629Y-124057385D01*
X117847265Y-124216382D01*
X117883009Y-124273269D01*
X117892196Y-124313519D01*
X117874283Y-124350715D01*
X116383306Y-125841694D01*
X116363030Y-125855242D01*
X116339112Y-125860000D01*
X114300888Y-125860000D01*
X114256694Y-125841694D01*
X114153306Y-125738306D01*
X114135000Y-125694112D01*
X114135000Y-123745888D01*
X114153306Y-123701694D01*
X116656694Y-121198306D01*
X116700888Y-121180000D01*
X118935000Y-121180000D01*
X119176694Y-120938306D01*
X119220888Y-120920000D01*
X120675000Y-120920000D01*
X120975000Y-120620000D01*
X120975000Y-119035888D01*
X120993306Y-118991694D01*
X121026694Y-118958306D01*
X121070888Y-118940000D01*
X121437500Y-118940000D01*
X121481694Y-118958306D01*
G37*
%TD.AperFunction*%
%TD*%
%TA.AperFunction,Conductor*%
%TO.N,GND*%
G36*
X298840000Y-86050000D02*
G01*
X297502500Y-86050000D01*
X297458306Y-86031694D01*
X297440000Y-85987500D01*
X297440000Y-85212500D01*
X297458306Y-85168306D01*
X297502500Y-85150000D01*
X298740000Y-85150000D01*
X298840000Y-85150000D01*
X298840000Y-86050000D01*
G37*
%TD.AperFunction*%
%TD*%
%TA.AperFunction,Conductor*%
%TO.N,Net-(J33-CNTR)*%
G36*
X134286694Y-53083306D02*
G01*
X134305000Y-53127500D01*
X134305000Y-62902500D01*
X134286694Y-62946694D01*
X134242500Y-62965000D01*
X122767500Y-62965000D01*
X122723306Y-62946694D01*
X122705000Y-62902500D01*
X122705000Y-60555000D01*
X123752428Y-60555000D01*
X123772673Y-60786400D01*
X123832792Y-61010764D01*
X123930960Y-61221287D01*
X124064190Y-61411560D01*
X124228439Y-61575809D01*
X124418712Y-61709039D01*
X124418713Y-61709039D01*
X124418714Y-61709040D01*
X124629234Y-61807207D01*
X124704022Y-61827246D01*
X124853599Y-61867326D01*
X125085000Y-61887571D01*
X125316400Y-61867326D01*
X125391188Y-61847286D01*
X125540766Y-61807207D01*
X125751286Y-61709040D01*
X125941560Y-61575809D01*
X126105809Y-61411560D01*
X126239040Y-61221286D01*
X126337207Y-61010766D01*
X126397326Y-60786399D01*
X126417571Y-60555000D01*
X128832428Y-60555000D01*
X128852673Y-60786400D01*
X128912792Y-61010764D01*
X129010960Y-61221287D01*
X129144190Y-61411560D01*
X129308439Y-61575809D01*
X129498712Y-61709039D01*
X129498713Y-61709039D01*
X129498714Y-61709040D01*
X129709234Y-61807207D01*
X129784022Y-61827246D01*
X129933599Y-61867326D01*
X130165000Y-61887571D01*
X130396400Y-61867326D01*
X130471188Y-61847286D01*
X130620766Y-61807207D01*
X130831286Y-61709040D01*
X131021560Y-61575809D01*
X131185809Y-61411560D01*
X131319040Y-61221286D01*
X131417207Y-61010766D01*
X131477326Y-60786399D01*
X131497571Y-60555000D01*
X131477326Y-60323601D01*
X131477326Y-60323599D01*
X131417207Y-60099235D01*
X131319039Y-59888713D01*
X131185809Y-59698439D01*
X131021560Y-59534190D01*
X130831287Y-59400960D01*
X130620764Y-59302792D01*
X130396400Y-59242673D01*
X130165000Y-59222428D01*
X129933599Y-59242673D01*
X129709235Y-59302792D01*
X129498713Y-59400960D01*
X129308439Y-59534190D01*
X129144190Y-59698439D01*
X129010960Y-59888713D01*
X128912792Y-60099235D01*
X128852673Y-60323599D01*
X128832428Y-60555000D01*
X126417571Y-60555000D01*
X126397326Y-60323601D01*
X126397326Y-60323599D01*
X126337207Y-60099235D01*
X126239039Y-59888713D01*
X126105809Y-59698439D01*
X125941560Y-59534190D01*
X125751287Y-59400960D01*
X125540764Y-59302792D01*
X125316400Y-59242673D01*
X125085000Y-59222428D01*
X124853599Y-59242673D01*
X124629235Y-59302792D01*
X124418713Y-59400960D01*
X124228439Y-59534190D01*
X124064190Y-59698439D01*
X123930960Y-59888713D01*
X123832792Y-60099235D01*
X123772673Y-60323599D01*
X123752428Y-60555000D01*
X122705000Y-60555000D01*
X122705000Y-55475000D01*
X123752428Y-55475000D01*
X123772673Y-55706400D01*
X123832792Y-55930764D01*
X123930960Y-56141287D01*
X124064190Y-56331560D01*
X124228439Y-56495809D01*
X124418712Y-56629039D01*
X124418713Y-56629039D01*
X124418714Y-56629040D01*
X124629234Y-56727207D01*
X124704022Y-56747246D01*
X124853599Y-56787326D01*
X125085000Y-56807571D01*
X125316400Y-56787326D01*
X125391188Y-56767286D01*
X125540766Y-56727207D01*
X125751286Y-56629040D01*
X125941560Y-56495809D01*
X126105809Y-56331560D01*
X126239040Y-56141286D01*
X126337207Y-55930766D01*
X126397326Y-55706399D01*
X126417571Y-55475000D01*
X128832428Y-55475000D01*
X128852673Y-55706400D01*
X128912792Y-55930764D01*
X129010960Y-56141287D01*
X129144190Y-56331560D01*
X129308439Y-56495809D01*
X129498712Y-56629039D01*
X129498713Y-56629039D01*
X129498714Y-56629040D01*
X129709234Y-56727207D01*
X129784022Y-56747246D01*
X129933599Y-56787326D01*
X130165000Y-56807571D01*
X130396400Y-56787326D01*
X130471188Y-56767286D01*
X130620766Y-56727207D01*
X130831286Y-56629040D01*
X131021560Y-56495809D01*
X131185809Y-56331560D01*
X131319040Y-56141286D01*
X131417207Y-55930766D01*
X131477326Y-55706399D01*
X131497571Y-55475000D01*
X131477326Y-55243601D01*
X131477326Y-55243599D01*
X131417207Y-55019235D01*
X131319039Y-54808713D01*
X131185809Y-54618439D01*
X131021560Y-54454190D01*
X130831287Y-54320960D01*
X130620764Y-54222792D01*
X130396400Y-54162673D01*
X130165000Y-54142428D01*
X129933599Y-54162673D01*
X129709235Y-54222792D01*
X129498713Y-54320960D01*
X129308439Y-54454190D01*
X129144190Y-54618439D01*
X129010960Y-54808713D01*
X128912792Y-55019235D01*
X128852673Y-55243599D01*
X128832428Y-55475000D01*
X126417571Y-55475000D01*
X126397326Y-55243601D01*
X126397326Y-55243599D01*
X126337207Y-55019235D01*
X126239039Y-54808713D01*
X126105809Y-54618439D01*
X125941560Y-54454190D01*
X125751287Y-54320960D01*
X125540764Y-54222792D01*
X125316400Y-54162673D01*
X125085000Y-54142428D01*
X124853599Y-54162673D01*
X124629235Y-54222792D01*
X124418713Y-54320960D01*
X124228439Y-54454190D01*
X124064190Y-54618439D01*
X123930960Y-54808713D01*
X123832792Y-55019235D01*
X123772673Y-55243599D01*
X123752428Y-55475000D01*
X122705000Y-55475000D01*
X122705000Y-53127500D01*
X122723306Y-53083306D01*
X122767500Y-53065000D01*
X134242500Y-53065000D01*
X134286694Y-53083306D01*
G37*
%TD.AperFunction*%
%TD*%
%TA.AperFunction,Conductor*%
%TO.N,VDDEXT*%
G36*
X114496694Y-114508306D02*
G01*
X114515000Y-114552500D01*
X114515000Y-117290000D01*
X114515000Y-118427500D01*
X114496694Y-118471694D01*
X114452500Y-118490000D01*
X112577500Y-118490000D01*
X112533306Y-118471694D01*
X112515000Y-118427500D01*
X112515000Y-114552500D01*
X112533306Y-114508306D01*
X112577500Y-114490000D01*
X114452500Y-114490000D01*
X114496694Y-114508306D01*
G37*
%TD.AperFunction*%
%TD*%
%TA.AperFunction,Conductor*%
%TO.N,GND*%
G36*
X111985000Y-193940000D02*
G01*
X110647500Y-193940000D01*
X110603306Y-193921694D01*
X110585000Y-193877500D01*
X110585000Y-193102500D01*
X110603306Y-193058306D01*
X110647500Y-193040000D01*
X111885000Y-193040000D01*
X111985000Y-193040000D01*
X111985000Y-193940000D01*
G37*
%TD.AperFunction*%
%TD*%
%TA.AperFunction,Conductor*%
%TO.N,VREF*%
G36*
X149576694Y-92168306D02*
G01*
X149595000Y-92212500D01*
X149595000Y-94187500D01*
X149576694Y-94231694D01*
X149532500Y-94250000D01*
X147895000Y-94250000D01*
X147095000Y-95050000D01*
X147095000Y-97824112D01*
X147076694Y-97868306D01*
X147013306Y-97931694D01*
X146969112Y-97950000D01*
X143457500Y-97950000D01*
X143413306Y-97931694D01*
X143395000Y-97887500D01*
X143395000Y-94512500D01*
X143413306Y-94468306D01*
X143457500Y-94450000D01*
X145195000Y-94450000D01*
X146195000Y-93450000D01*
X146195000Y-92212500D01*
X146213306Y-92168306D01*
X146257500Y-92150000D01*
X149532500Y-92150000D01*
X149576694Y-92168306D01*
G37*
%TD.AperFunction*%
%TD*%
M02*
