%TF.GenerationSoftware,KiCad,Pcbnew,7.0.1-0*%
%TF.CreationDate,2023-04-17T18:48:32+01:00*%
%TF.ProjectId,cyborg65r2_thermo_pcb,6379626f-7267-4363-9572-325f74686572,rev?*%
%TF.SameCoordinates,Original*%
%TF.FileFunction,Copper,L4,Bot*%
%TF.FilePolarity,Positive*%
%FSLAX46Y46*%
G04 Gerber Fmt 4.6, Leading zero omitted, Abs format (unit mm)*
G04 Created by KiCad (PCBNEW 7.0.1-0) date 2023-04-17 18:48:32*
%MOMM*%
%LPD*%
G01*
G04 APERTURE LIST*
G04 Aperture macros list*
%AMRoundRect*
0 Rectangle with rounded corners*
0 $1 Rounding radius*
0 $2 $3 $4 $5 $6 $7 $8 $9 X,Y pos of 4 corners*
0 Add a 4 corners polygon primitive as box body*
4,1,4,$2,$3,$4,$5,$6,$7,$8,$9,$2,$3,0*
0 Add four circle primitives for the rounded corners*
1,1,$1+$1,$2,$3*
1,1,$1+$1,$4,$5*
1,1,$1+$1,$6,$7*
1,1,$1+$1,$8,$9*
0 Add four rect primitives between the rounded corners*
20,1,$1+$1,$2,$3,$4,$5,0*
20,1,$1+$1,$4,$5,$6,$7,0*
20,1,$1+$1,$6,$7,$8,$9,0*
20,1,$1+$1,$8,$9,$2,$3,0*%
G04 Aperture macros list end*
%TA.AperFunction,ComponentPad*%
%ADD10R,1.785000X1.785000*%
%TD*%
%TA.AperFunction,ComponentPad*%
%ADD11C,2.400000*%
%TD*%
%TA.AperFunction,ComponentPad*%
%ADD12C,1.240000*%
%TD*%
%TA.AperFunction,ComponentPad*%
%ADD13R,1.700000X1.700000*%
%TD*%
%TA.AperFunction,ComponentPad*%
%ADD14O,1.700000X1.700000*%
%TD*%
%TA.AperFunction,ComponentPad*%
%ADD15C,2.250000*%
%TD*%
%TA.AperFunction,SMDPad,CuDef*%
%ADD16RoundRect,0.250000X-0.475000X0.250000X-0.475000X-0.250000X0.475000X-0.250000X0.475000X0.250000X0*%
%TD*%
%TA.AperFunction,SMDPad,CuDef*%
%ADD17RoundRect,0.225000X0.225000X0.250000X-0.225000X0.250000X-0.225000X-0.250000X0.225000X-0.250000X0*%
%TD*%
%TA.AperFunction,SMDPad,CuDef*%
%ADD18RoundRect,0.225000X-0.250000X0.225000X-0.250000X-0.225000X0.250000X-0.225000X0.250000X0.225000X0*%
%TD*%
%TA.AperFunction,SMDPad,CuDef*%
%ADD19RoundRect,0.250000X-0.250000X-0.475000X0.250000X-0.475000X0.250000X0.475000X-0.250000X0.475000X0*%
%TD*%
%TA.AperFunction,SMDPad,CuDef*%
%ADD20RoundRect,0.250000X0.475000X-0.250000X0.475000X0.250000X-0.475000X0.250000X-0.475000X-0.250000X0*%
%TD*%
%TA.AperFunction,ViaPad*%
%ADD21C,0.500000*%
%TD*%
%TA.AperFunction,Conductor*%
%ADD22C,0.127000*%
%TD*%
%TA.AperFunction,Conductor*%
%ADD23C,0.500000*%
%TD*%
%TA.AperFunction,Conductor*%
%ADD24C,2.000000*%
%TD*%
%TA.AperFunction,Conductor*%
%ADD25C,1.000000*%
%TD*%
G04 APERTURE END LIST*
D10*
%TO.P,J19,1,CNTR*%
%TO.N,Net-(J19-CNTR)*%
X145395000Y-79750000D03*
D11*
%TO.P,J19,2,GND*%
%TO.N,GND*%
X142855000Y-82290000D03*
%TO.P,J19,3,GND*%
X147935000Y-82290000D03*
%TO.P,J19,4,GND*%
X147935000Y-77210000D03*
%TO.P,J19,5,GND*%
X142855000Y-77210000D03*
%TD*%
%TO.P,J26,5,GND*%
%TO.N,GND*%
X129405000Y-153695000D03*
%TO.P,J26,4,GND*%
X134485000Y-153695000D03*
%TO.P,J26,3,GND*%
X134485000Y-158775000D03*
%TO.P,J26,2,GND*%
X129405000Y-158775000D03*
D10*
%TO.P,J26,1,CNTR*%
%TO.N,Net-(J26-CNTR)*%
X131945000Y-156235000D03*
%TD*%
D11*
%TO.P,J9,1,PRB*%
%TO.N,VDDD1P2*%
X232435000Y-67340000D03*
%TD*%
%TO.P,J21,1,PRB*%
%TO.N,VDDOSC*%
X132015000Y-124290000D03*
%TD*%
D12*
%TO.P,VR2,3,CW*%
%TO.N,unconnected-(VR2-CW-Pad3)*%
X121065000Y-123890000D03*
%TO.P,VR2,2,WIPER*%
%TO.N,GND*%
X118525000Y-123890000D03*
%TO.P,VR2,1,CCW*%
%TO.N,Net-(U7-SET)*%
X115985000Y-123890000D03*
%TD*%
D13*
%TO.P,J38,1,Pin_1*%
%TO.N,Net-(J36-Pin_1)*%
X161785000Y-65820000D03*
D14*
%TO.P,J38,2,Pin_2*%
%TO.N,/IREF*%
X159245000Y-65820000D03*
%TO.P,J38,3,Pin_3*%
%TO.N,/IREF/IREF_INT*%
X156705000Y-65820000D03*
%TD*%
D13*
%TO.P,J41,1,Pin_1*%
%TO.N,/SDA*%
X287790000Y-121526199D03*
D14*
%TO.P,J41,2,Pin_2*%
%TO.N,GND*%
X287790000Y-118986199D03*
%TO.P,J41,3,Pin_3*%
%TO.N,/SCL*%
X287790000Y-116446199D03*
%TD*%
D11*
%TO.P,J1,1,PRB*%
%TO.N,VDD3P3*%
X313740000Y-90050000D03*
%TD*%
%TO.P,J29,1,PRB*%
%TO.N,VDDCCO*%
X202675000Y-69485000D03*
%TD*%
D13*
%TO.P,J36,1,Pin_1*%
%TO.N,Net-(J36-Pin_1)*%
X167735000Y-65820000D03*
D14*
%TO.P,J36,2,Pin_2*%
%TO.N,Net-(J36-Pin_2)*%
X170275000Y-65820000D03*
%TO.P,J36,3,Pin_3*%
%TO.N,VDDCCO*%
X172815000Y-65820000D03*
%TD*%
D15*
%TO.P,J47,5,GND*%
%TO.N,GND*%
X125275000Y-145280000D03*
%TO.P,J47,4,GND*%
X125275000Y-140200000D03*
%TO.P,J47,3,GND*%
X130355000Y-140200000D03*
%TO.P,J47,2,GND*%
X130355000Y-145280000D03*
%TO.P,J47,1,CNTR*%
%TO.N,Net-(J47-CNTR)*%
X127815000Y-142740000D03*
%TD*%
D11*
%TO.P,J15,5,GND*%
%TO.N,GND*%
X124645000Y-179100000D03*
%TO.P,J15,4,GND*%
X129725000Y-179100000D03*
%TO.P,J15,3,GND*%
X129725000Y-184180000D03*
%TO.P,J15,2,GND*%
X124645000Y-184180000D03*
D10*
%TO.P,J15,1,CNTR*%
%TO.N,Net-(J15-CNTR)*%
X127185000Y-181640000D03*
%TD*%
D11*
%TO.P,J17,1,PRB*%
%TO.N,VREF*%
X145095000Y-96050000D03*
%TD*%
%TO.P,J2,1,PRB*%
%TO.N,GND*%
X307440000Y-90050000D03*
%TD*%
%TO.P,J23,1,PRB*%
%TO.N,VDDTQ*%
X131645000Y-172535000D03*
%TD*%
%TO.P,J18,1,PRB*%
%TO.N,GND*%
X138785000Y-96050000D03*
%TD*%
D13*
%TO.P,J20,1,Pin_1*%
%TO.N,Net-(J19-CNTR)*%
X147625000Y-89950000D03*
D14*
%TO.P,J20,2,Pin_2*%
%TO.N,Net-(J20-Pin_2)*%
X145085000Y-89950000D03*
%TO.P,J20,3,Pin_3*%
%TO.N,/VREF/VREF_INT*%
X142545000Y-89950000D03*
%TD*%
D11*
%TO.P,J13,1,PRB*%
%TO.N,VDDA2P5*%
X126885000Y-197940000D03*
%TD*%
D10*
%TO.P,J37,1,CNTR*%
%TO.N,Net-(J36-Pin_1)*%
X164680000Y-58090000D03*
D11*
%TO.P,J37,2,GND*%
%TO.N,GND*%
X162140000Y-60630000D03*
%TO.P,J37,3,GND*%
X167220000Y-60630000D03*
%TO.P,J37,4,GND*%
X167220000Y-55550000D03*
%TO.P,J37,5,GND*%
X162140000Y-55550000D03*
%TD*%
D14*
%TO.P,J48,3,Pin_3*%
%TO.N,/RSTBCLK*%
X175110000Y-208665000D03*
%TO.P,J48,2,Pin_2*%
%TO.N,GND*%
X172570000Y-208665000D03*
D13*
%TO.P,J48,1,Pin_1*%
%TO.N,/RSTB*%
X170030000Y-208665000D03*
%TD*%
D11*
%TO.P,J14,1,PRB*%
%TO.N,GND*%
X120575000Y-197940000D03*
%TD*%
%TO.P,J24,1,PRB*%
%TO.N,GND*%
X125325000Y-172535000D03*
%TD*%
D10*
%TO.P,J11,1,CNTR*%
%TO.N,Net-(J11-CNTR)*%
X232735000Y-51040000D03*
D11*
%TO.P,J11,2,GND*%
%TO.N,GND*%
X230195000Y-53580000D03*
%TO.P,J11,3,GND*%
X235275000Y-53580000D03*
%TO.P,J11,4,GND*%
X235275000Y-48500000D03*
%TO.P,J11,5,GND*%
X230195000Y-48500000D03*
%TD*%
D14*
%TO.P,J16,3,Pin_3*%
%TO.N,/VDDA2P5/VDDA2P5_INT*%
X124335000Y-191840000D03*
%TO.P,J16,2,Pin_2*%
%TO.N,Net-(J16-Pin_2)*%
X126875000Y-191840000D03*
D13*
%TO.P,J16,1,Pin_1*%
%TO.N,Net-(J15-CNTR)*%
X129415000Y-191840000D03*
%TD*%
D15*
%TO.P,J40,5,GND*%
%TO.N,GND*%
X155847887Y-204839136D03*
%TO.P,J40,4,GND*%
X152255785Y-201247034D03*
%TO.P,J40,3,GND*%
X155847887Y-197654932D03*
%TO.P,J40,2,GND*%
X159439989Y-201247034D03*
%TO.P,J40,1,CNTR*%
%TO.N,/CLKIN_N*%
X155847887Y-201247034D03*
%TD*%
D14*
%TO.P,J27,3,Pin_3*%
%TO.N,/VDDACORE/VDDOSC_INT*%
X129465000Y-118190000D03*
%TO.P,J27,2,Pin_2*%
%TO.N,Net-(J27-Pin_2)*%
X132005000Y-118190000D03*
D13*
%TO.P,J27,1,Pin_1*%
%TO.N,Net-(J25-CNTR)*%
X134545000Y-118190000D03*
%TD*%
D10*
%TO.P,J7,1,CNTR*%
%TO.N,Net-(J7-CNTR)*%
X274935000Y-65665000D03*
D11*
%TO.P,J7,2,GND*%
%TO.N,GND*%
X272395000Y-68205000D03*
%TO.P,J7,3,GND*%
X277475000Y-68205000D03*
%TO.P,J7,4,GND*%
X277475000Y-63125000D03*
%TO.P,J7,5,GND*%
X272395000Y-63125000D03*
%TD*%
D12*
%TO.P,VR1,1,CCW*%
%TO.N,Net-(U6-SET)*%
X129065000Y-95650000D03*
%TO.P,VR1,2,WIPER*%
%TO.N,GND*%
X131605000Y-95650000D03*
%TO.P,VR1,3,CW*%
%TO.N,unconnected-(VR1-CW-Pad3)*%
X134145000Y-95650000D03*
%TD*%
D11*
%TO.P,J34,1,PRB*%
%TO.N,VDDEXT*%
X136305000Y-51265000D03*
%TD*%
D13*
%TO.P,J4,1,Pin_1*%
%TO.N,Net-(J3-CNTR)*%
X316280000Y-83950000D03*
D14*
%TO.P,J4,2,Pin_2*%
%TO.N,VDD3P3*%
X313740000Y-83950000D03*
%TO.P,J4,3,Pin_3*%
%TO.N,/VDD3P3/VDD3P3_INT*%
X311200000Y-83950000D03*
%TD*%
D11*
%TO.P,J5,1,PRB*%
%TO.N,VDDD2P5*%
X274645000Y-81965000D03*
%TD*%
D14*
%TO.P,J28,3,Pin_3*%
%TO.N,/VDDACORE/VDDTQ_INT*%
X129095000Y-166435000D03*
%TO.P,J28,2,Pin_2*%
%TO.N,Net-(J28-Pin_2)*%
X131635000Y-166435000D03*
D13*
%TO.P,J28,1,Pin_1*%
%TO.N,Net-(J26-CNTR)*%
X134175000Y-166435000D03*
%TD*%
%TO.P,J8,1,Pin_1*%
%TO.N,Net-(J7-CNTR)*%
X277175000Y-75865000D03*
D14*
%TO.P,J8,2,Pin_2*%
%TO.N,VDDD2P5*%
X274635000Y-75865000D03*
%TO.P,J8,3,Pin_3*%
%TO.N,/VDDD2P5/VDDD2P5_INT*%
X272095000Y-75865000D03*
%TD*%
D11*
%TO.P,J6,1,PRB*%
%TO.N,GND*%
X268335000Y-81965000D03*
%TD*%
D12*
%TO.P,VR4,3,CW*%
%TO.N,unconnected-(VR4-CW-Pad3)*%
X191725000Y-69085000D03*
%TO.P,VR4,2,WIPER*%
%TO.N,GND*%
X189185000Y-69085000D03*
%TO.P,VR4,1,CCW*%
%TO.N,Net-(U9-SET)*%
X186645000Y-69085000D03*
%TD*%
D14*
%TO.P,J46,68,Pin_68*%
%TO.N,GND*%
X331200000Y-190625000D03*
%TO.P,J46,67,Pin_67*%
%TO.N,/DIGBUF_LEVSHIFT/DOUT_BUF18*%
X328660000Y-190625000D03*
%TO.P,J46,66,Pin_66*%
%TO.N,GND*%
X331200000Y-188085000D03*
%TO.P,J46,65,Pin_65*%
%TO.N,/DIGBUF_LEVSHIFT/DOUT_BUF17*%
X328660000Y-188085000D03*
%TO.P,J46,64,Pin_64*%
%TO.N,GND*%
X331200000Y-185545000D03*
%TO.P,J46,63,Pin_63*%
%TO.N,/DIGBUF_LEVSHIFT/DOUT_BUF16*%
X328660000Y-185545000D03*
%TO.P,J46,62,Pin_62*%
%TO.N,GND*%
X331200000Y-183005000D03*
%TO.P,J46,61,Pin_61*%
%TO.N,/DIGBUF_LEVSHIFT/DOUT_BUF15*%
X328660000Y-183005000D03*
%TO.P,J46,60,Pin_60*%
%TO.N,GND*%
X331200000Y-180465000D03*
%TO.P,J46,59,Pin_59*%
%TO.N,/DIGBUF_LEVSHIFT/DOUT_BUF14*%
X328660000Y-180465000D03*
%TO.P,J46,58,Pin_58*%
%TO.N,GND*%
X331200000Y-177925000D03*
%TO.P,J46,57,Pin_57*%
%TO.N,/DIGBUF_LEVSHIFT/DOUT_BUF13*%
X328660000Y-177925000D03*
%TO.P,J46,56,Pin_56*%
%TO.N,GND*%
X331200000Y-175385000D03*
%TO.P,J46,55,Pin_55*%
%TO.N,/DIGBUF_LEVSHIFT/DOUT_BUF12*%
X328660000Y-175385000D03*
%TO.P,J46,54,Pin_54*%
%TO.N,GND*%
X331200000Y-172845000D03*
%TO.P,J46,53,Pin_53*%
%TO.N,/DIGBUF_LEVSHIFT/DOUT_BUF11*%
X328660000Y-172845000D03*
%TO.P,J46,52,Pin_52*%
%TO.N,GND*%
X331200000Y-170305000D03*
%TO.P,J46,51,Pin_51*%
%TO.N,/DIGBUF_LEVSHIFT/DOUT_BUF10*%
X328660000Y-170305000D03*
%TO.P,J46,50,Pin_50*%
%TO.N,GND*%
X331200000Y-167765000D03*
%TO.P,J46,49,Pin_49*%
%TO.N,/DIGBUF_LEVSHIFT/DOUT_BUF9*%
X328660000Y-167765000D03*
%TO.P,J46,48,Pin_48*%
%TO.N,GND*%
X331200000Y-165225000D03*
%TO.P,J46,47,Pin_47*%
%TO.N,/DIGBUF_LEVSHIFT/DOUT_BUF8*%
X328660000Y-165225000D03*
%TO.P,J46,46,Pin_46*%
%TO.N,GND*%
X331200000Y-162685000D03*
%TO.P,J46,45,Pin_45*%
%TO.N,/DIGBUF_LEVSHIFT/DOUT_BUF7*%
X328660000Y-162685000D03*
%TO.P,J46,44,Pin_44*%
%TO.N,GND*%
X331200000Y-160145000D03*
%TO.P,J46,43,Pin_43*%
%TO.N,/DIGBUF_LEVSHIFT/DOUT_BUF6*%
X328660000Y-160145000D03*
%TO.P,J46,42,Pin_42*%
%TO.N,GND*%
X331200000Y-157605000D03*
%TO.P,J46,41,Pin_41*%
%TO.N,/DIGBUF_LEVSHIFT/DOUT_BUF5*%
X328660000Y-157605000D03*
%TO.P,J46,40,Pin_40*%
%TO.N,GND*%
X331200000Y-155065000D03*
%TO.P,J46,39,Pin_39*%
%TO.N,/DIGBUF_LEVSHIFT/DOUT_BUF4*%
X328660000Y-155065000D03*
%TO.P,J46,38,Pin_38*%
%TO.N,GND*%
X331200000Y-152525000D03*
%TO.P,J46,37,Pin_37*%
%TO.N,/DIGBUF_LEVSHIFT/DOUT_BUF3*%
X328660000Y-152525000D03*
%TO.P,J46,36,Pin_36*%
%TO.N,GND*%
X331200000Y-149985000D03*
%TO.P,J46,35,Pin_35*%
%TO.N,/DIGBUF_LEVSHIFT/DOUT_BUF2*%
X328660000Y-149985000D03*
%TO.P,J46,34,Pin_34*%
%TO.N,GND*%
X331200000Y-147445000D03*
%TO.P,J46,33,Pin_33*%
%TO.N,/DIGBUF_LEVSHIFT/DOUT_BUF1*%
X328660000Y-147445000D03*
%TO.P,J46,32,Pin_32*%
%TO.N,GND*%
X331200000Y-144905000D03*
%TO.P,J46,31,Pin_31*%
%TO.N,/DIGBUF_LEVSHIFT/DOUT_BUF0*%
X328660000Y-144905000D03*
%TO.P,J46,30,Pin_30*%
%TO.N,GND*%
X331200000Y-142365000D03*
%TO.P,J46,29,Pin_29*%
%TO.N,/DIGBUF_LEVSHIFT/CLKOUT_BUF*%
X328660000Y-142365000D03*
%TO.P,J46,28,Pin_28*%
%TO.N,GND*%
X331200000Y-139825000D03*
%TO.P,J46,27,Pin_27*%
%TO.N,/DIGBUF_LEVSHIFT/CCOUT_BUF*%
X328660000Y-139825000D03*
%TO.P,J46,26,Pin_26*%
%TO.N,GND*%
X331200000Y-137285000D03*
%TO.P,J46,25,Pin_25*%
%TO.N,/DIGBUF_LEVSHIFT/CLKRS_BUF*%
X328660000Y-137285000D03*
%TO.P,J46,24,Pin_24*%
%TO.N,GND*%
X331200000Y-134745000D03*
%TO.P,J46,23,Pin_23*%
%TO.N,/DIGBUF_LEVSHIFT/AUX_BUF0*%
X328660000Y-134745000D03*
%TO.P,J46,22,Pin_22*%
%TO.N,GND*%
X331200000Y-132205000D03*
%TO.P,J46,21,Pin_21*%
%TO.N,/DIGBUF_LEVSHIFT/AUX_BUF1*%
X328660000Y-132205000D03*
%TO.P,J46,20,Pin_20*%
%TO.N,GND*%
X331200000Y-129665000D03*
%TO.P,J46,19,Pin_19*%
%TO.N,/DIGBUF_LEVSHIFT/AUX_BUF2*%
X328660000Y-129665000D03*
%TO.P,J46,18,Pin_18*%
%TO.N,GND*%
X331200000Y-127125000D03*
%TO.P,J46,17,Pin_17*%
%TO.N,/DIGBUF_LEVSHIFT/AUX_BUF3*%
X328660000Y-127125000D03*
%TO.P,J46,16,Pin_16*%
%TO.N,GND*%
X331200000Y-124585000D03*
%TO.P,J46,15,Pin_15*%
%TO.N,/DIGBUF_LEVSHIFT/AUX_BUF4*%
X328660000Y-124585000D03*
%TO.P,J46,14,Pin_14*%
%TO.N,GND*%
X331200000Y-122045000D03*
%TO.P,J46,13,Pin_13*%
%TO.N,/DIGBUF_LEVSHIFT/AUX_BUF5*%
X328660000Y-122045000D03*
%TO.P,J46,12,Pin_12*%
%TO.N,GND*%
X331200000Y-119505000D03*
%TO.P,J46,11,Pin_11*%
%TO.N,/DIGBUF_LEVSHIFT/AUX_BUF6*%
X328660000Y-119505000D03*
%TO.P,J46,10,Pin_10*%
%TO.N,GND*%
X331200000Y-116965000D03*
%TO.P,J46,9,Pin_9*%
%TO.N,/DIGBUF_LEVSHIFT/AUX_BUF7*%
X328660000Y-116965000D03*
%TO.P,J46,8,Pin_8*%
%TO.N,GND*%
X331200000Y-114425000D03*
%TO.P,J46,7,Pin_7*%
%TO.N,/DIGBUF_LEVSHIFT/AUX_BUF8*%
X328660000Y-114425000D03*
%TO.P,J46,6,Pin_6*%
%TO.N,GND*%
X331200000Y-111885000D03*
%TO.P,J46,5,Pin_5*%
%TO.N,/DIGBUF_LEVSHIFT/AUX_BUF9*%
X328660000Y-111885000D03*
%TO.P,J46,4,Pin_4*%
%TO.N,GND*%
X331200000Y-109345000D03*
%TO.P,J46,3,Pin_3*%
%TO.N,/DIGBUF_LEVSHIFT/AUX_BUF10*%
X328660000Y-109345000D03*
%TO.P,J46,2,Pin_2*%
%TO.N,GND*%
X331200000Y-106805000D03*
D13*
%TO.P,J46,1,Pin_1*%
%TO.N,/DIGBUF_LEVSHIFT/AUX_BUF11*%
X328660000Y-106805000D03*
%TD*%
D11*
%TO.P,J35,1,PRB*%
%TO.N,GND*%
X136305000Y-64265000D03*
%TD*%
%TO.P,J22,1,PRB*%
%TO.N,GND*%
X125695000Y-124290000D03*
%TD*%
D10*
%TO.P,J3,1,CNTR*%
%TO.N,Net-(J3-CNTR)*%
X314040000Y-73750000D03*
D11*
%TO.P,J3,2,GND*%
%TO.N,GND*%
X311500000Y-76290000D03*
%TO.P,J3,3,GND*%
X316580000Y-76290000D03*
%TO.P,J3,4,GND*%
X316580000Y-71210000D03*
%TO.P,J3,5,GND*%
X311500000Y-71210000D03*
%TD*%
D15*
%TO.P,J39,5,GND*%
%TO.N,GND*%
X149139989Y-198139136D03*
%TO.P,J39,4,GND*%
X145547887Y-194547034D03*
%TO.P,J39,3,GND*%
X149139989Y-190954932D03*
%TO.P,J39,2,GND*%
X152732091Y-194547034D03*
%TO.P,J39,1,CNTR*%
%TO.N,/CLKIN_P*%
X149139989Y-194547034D03*
%TD*%
D11*
%TO.P,J25,5,GND*%
%TO.N,GND*%
X129775000Y-105450000D03*
%TO.P,J25,4,GND*%
X134855000Y-105450000D03*
%TO.P,J25,3,GND*%
X134855000Y-110530000D03*
%TO.P,J25,2,GND*%
X129775000Y-110530000D03*
D10*
%TO.P,J25,1,CNTR*%
%TO.N,Net-(J25-CNTR)*%
X132315000Y-107990000D03*
%TD*%
D11*
%TO.P,J10,1,PRB*%
%TO.N,GND*%
X226135000Y-67340000D03*
%TD*%
D12*
%TO.P,VR3,3,CW*%
%TO.N,unconnected-(VR3-CW-Pad3)*%
X120695000Y-172135000D03*
%TO.P,VR3,2,WIPER*%
%TO.N,GND*%
X118155000Y-172135000D03*
%TO.P,VR3,1,CCW*%
%TO.N,Net-(U8-SET)*%
X115615000Y-172135000D03*
%TD*%
D13*
%TO.P,J12,1,Pin_1*%
%TO.N,Net-(J11-CNTR)*%
X234970000Y-61240000D03*
D14*
%TO.P,J12,2,Pin_2*%
%TO.N,VDDD1P2*%
X232430000Y-61240000D03*
%TO.P,J12,3,Pin_3*%
%TO.N,/VDDD1P2/VDD1P2_INT*%
X229890000Y-61240000D03*
%TD*%
D11*
%TO.P,J31,5,GND*%
%TO.N,GND*%
X200435000Y-50645000D03*
%TO.P,J31,4,GND*%
X205515000Y-50645000D03*
%TO.P,J31,3,GND*%
X205515000Y-55725000D03*
%TO.P,J31,2,GND*%
X200435000Y-55725000D03*
D10*
%TO.P,J31,1,CNTR*%
%TO.N,Net-(J31-CNTR)*%
X202975000Y-53185000D03*
%TD*%
D12*
%TO.P,VR5,1,CCW*%
%TO.N,unconnected-(VR5-CCW-Pad1)*%
X166720000Y-71820000D03*
%TO.P,VR5,2,WIPER*%
%TO.N,/IREF/IREF_INT*%
X169260000Y-71820000D03*
%TO.P,VR5,3,CW*%
%TO.N,Net-(J36-Pin_2)*%
X171800000Y-71820000D03*
%TD*%
D10*
%TO.P,J33,1,CNTR*%
%TO.N,Net-(J33-CNTR)*%
X127625000Y-58015000D03*
D11*
%TO.P,J33,2,GND*%
%TO.N,GND*%
X130165000Y-60555000D03*
%TO.P,J33,3,GND*%
X130165000Y-55475000D03*
%TO.P,J33,4,GND*%
X125085000Y-55475000D03*
%TO.P,J33,5,GND*%
X125085000Y-60555000D03*
%TD*%
D14*
%TO.P,J32,3,Pin_3*%
%TO.N,/VDDACORE/VDDCCO_INT*%
X200125000Y-63385000D03*
%TO.P,J32,2,Pin_2*%
%TO.N,Net-(J32-Pin_2)*%
X202665000Y-63385000D03*
D13*
%TO.P,J32,1,Pin_1*%
%TO.N,Net-(J31-CNTR)*%
X205205000Y-63385000D03*
%TD*%
D11*
%TO.P,J30,1,PRB*%
%TO.N,GND*%
X196355000Y-69485000D03*
%TD*%
D16*
%TO.P,C7,2*%
%TO.N,GND*%
X207063312Y-150997000D03*
%TO.P,C7,1*%
%TO.N,VDDD2P5*%
X207063312Y-149097000D03*
%TD*%
D17*
%TO.P,C4,2*%
%TO.N,GND*%
X196758312Y-144237000D03*
%TO.P,C4,1*%
%TO.N,VREF*%
X198308312Y-144237000D03*
%TD*%
D18*
%TO.P,C3,2*%
%TO.N,GND*%
X200803312Y-147717000D03*
%TO.P,C3,1*%
%TO.N,VDDA2P5*%
X200803312Y-146167000D03*
%TD*%
D19*
%TO.P,C8,2*%
%TO.N,GND*%
X215855000Y-139105000D03*
%TO.P,C8,1*%
%TO.N,VDDD2P5*%
X213955000Y-139105000D03*
%TD*%
D17*
%TO.P,C1,1*%
%TO.N,VDDCCO*%
X201043312Y-139627000D03*
%TO.P,C1,2*%
%TO.N,GND*%
X199493312Y-139627000D03*
%TD*%
D18*
%TO.P,C5,2*%
%TO.N,GND*%
X199293312Y-147717000D03*
%TO.P,C5,1*%
%TO.N,VDDTQ*%
X199293312Y-146167000D03*
%TD*%
%TO.P,C2,2*%
%TO.N,GND*%
X197793312Y-147712000D03*
%TO.P,C2,1*%
%TO.N,VDDOSC*%
X197793312Y-146162000D03*
%TD*%
D20*
%TO.P,C6,2*%
%TO.N,GND*%
X204233312Y-135407000D03*
%TO.P,C6,1*%
%TO.N,VDDD1P2*%
X204233312Y-137307000D03*
%TD*%
D21*
%TO.N,/RSTB*%
X204540000Y-149955000D03*
%TO.N,/IREF*%
X162760000Y-73320000D03*
X162760000Y-72320000D03*
X162760000Y-71320000D03*
%TO.N,VDDEXT*%
X109185000Y-189440000D03*
X138805000Y-57265000D03*
X130395000Y-92450000D03*
X140805000Y-57265000D03*
X127395000Y-88250000D03*
X296040000Y-82250000D03*
X145805000Y-57265000D03*
X117315000Y-120690000D03*
X127395000Y-87550000D03*
X259935000Y-78365000D03*
X143805000Y-58265000D03*
X140805000Y-58265000D03*
X109185000Y-188740000D03*
X214735000Y-58140000D03*
X116945000Y-168935000D03*
X217735000Y-63740000D03*
X256935000Y-73465000D03*
X141805000Y-58265000D03*
X184975000Y-60285000D03*
X299040000Y-86450000D03*
X139805000Y-58265000D03*
X113945000Y-163335000D03*
X142805000Y-57265000D03*
X214735000Y-58840000D03*
X147805000Y-58265000D03*
X184975000Y-60985000D03*
X113945000Y-164035000D03*
X184975000Y-61685000D03*
X114315000Y-116490000D03*
X144805000Y-57265000D03*
X187975000Y-65885000D03*
X256935000Y-72765000D03*
X141805000Y-57265000D03*
X144805000Y-58265000D03*
X138805000Y-58265000D03*
X146805000Y-57265000D03*
X296040000Y-81550000D03*
X112185000Y-194340000D03*
X145805000Y-58265000D03*
X127395000Y-86850000D03*
X139805000Y-57265000D03*
X256935000Y-74165000D03*
X109185000Y-190140000D03*
X143805000Y-57265000D03*
X142805000Y-58265000D03*
X114315000Y-115090000D03*
X146805000Y-58265000D03*
X147805000Y-57265000D03*
X296040000Y-80850000D03*
X113945000Y-164735000D03*
X114315000Y-115790000D03*
X214735000Y-59540000D03*
%TO.N,/VDD3P3/VDD3P3_INT*%
X303240000Y-82250000D03*
X303240000Y-81550000D03*
X303240000Y-80850000D03*
%TO.N,VDD3P3*%
X307000000Y-129120000D03*
X306345000Y-167430000D03*
X307005000Y-144110000D03*
X307050000Y-134680000D03*
X306725000Y-159180000D03*
X307085000Y-149660000D03*
%TO.N,VDDD2P5*%
X291610000Y-134620000D03*
X281732500Y-121656199D03*
X208503312Y-149597000D03*
X281732500Y-119716199D03*
X172575000Y-213467500D03*
X291715000Y-149680000D03*
X291970000Y-129230000D03*
X291945000Y-164540000D03*
X292035000Y-144120000D03*
X292125000Y-159030000D03*
X212713312Y-138537000D03*
%TO.N,/VDDD2P5/VDDD2P5_INT*%
X264135000Y-72765000D03*
X264135000Y-74165000D03*
X264135000Y-73465000D03*
%TO.N,/VDDD1P2/VDD1P2_INT*%
X221935000Y-59540000D03*
X221935000Y-58140000D03*
X221935000Y-58840000D03*
%TO.N,VDDD1P2*%
X202793312Y-136177000D03*
X205673312Y-136177000D03*
%TO.N,/VDDA2P5/VDDA2P5_INT*%
X116385000Y-190140000D03*
X116385000Y-188740000D03*
X116385000Y-189440000D03*
%TO.N,VDDA2P5*%
X129785000Y-194540000D03*
X129785000Y-195540000D03*
X130885000Y-194540000D03*
X130885000Y-195540000D03*
X201753312Y-146247000D03*
%TO.N,/VREF/VREF_INT*%
X134595000Y-86850000D03*
X134595000Y-87550000D03*
X134595000Y-88250000D03*
%TO.N,VREF*%
X147995000Y-92650000D03*
X147995000Y-93650000D03*
X149095000Y-92650000D03*
X198303312Y-143312500D03*
X149095000Y-93650000D03*
X127765000Y-97070000D03*
%TO.N,/VDDACORE/VDDTQ_INT*%
X121145000Y-163335000D03*
X121145000Y-164035000D03*
X121145000Y-164735000D03*
%TO.N,/VDDACORE/VDDCCO_INT*%
X192175000Y-60285000D03*
X192175000Y-61685000D03*
X192175000Y-60985000D03*
%TO.N,VDDOSC*%
X196653312Y-146827000D03*
X136015000Y-121890000D03*
X134915000Y-121890000D03*
X196653312Y-146157000D03*
X134915000Y-120890000D03*
X136015000Y-120890000D03*
X114685000Y-125310000D03*
%TO.N,VDDTQ*%
X135645000Y-169135000D03*
X134545000Y-170135000D03*
X134545000Y-169135000D03*
X135645000Y-170135000D03*
X114315000Y-173555000D03*
X201123312Y-145237000D03*
X200293312Y-145277000D03*
%TO.N,/VDDACORE/VDDOSC_INT*%
X121515000Y-116490000D03*
X121515000Y-115790000D03*
X121515000Y-115090000D03*
%TO.N,/IREF*%
X202133312Y-142417000D03*
%TO.N,/SDA*%
X285660000Y-119716199D03*
%TO.N,/RSTB*%
X201053312Y-138327000D03*
%TO.N,GND*%
X305205000Y-143440000D03*
X309310000Y-130610000D03*
X309255000Y-151040000D03*
X195853312Y-144237000D03*
X172670000Y-219915000D03*
X124445000Y-165435000D03*
X141805000Y-52265000D03*
X294145000Y-154090000D03*
X123195000Y-89050000D03*
X299040000Y-85750000D03*
X294391000Y-126760000D03*
X305205000Y-158370000D03*
X260535000Y-77065000D03*
X252735000Y-73065000D03*
X117915000Y-119390000D03*
X291840000Y-83650000D03*
X144305000Y-63265000D03*
X201783312Y-147197000D03*
X116945000Y-168235000D03*
X104985000Y-190940000D03*
X289586000Y-165970000D03*
X210535000Y-58440000D03*
X203443312Y-138377000D03*
X124345000Y-162835000D03*
X123195000Y-86550000D03*
X293886000Y-149390000D03*
X196843312Y-147907000D03*
X112185000Y-193640000D03*
X305010000Y-134460000D03*
X293941000Y-134460000D03*
X204233312Y-134237000D03*
X112785000Y-193040000D03*
X304955000Y-154310000D03*
X119685000Y-190840000D03*
X305260000Y-132410000D03*
X195375000Y-59785000D03*
X109745000Y-163035000D03*
X137795000Y-86350000D03*
X110115000Y-117290000D03*
X299640000Y-85150000D03*
X172620000Y-222365000D03*
X304760000Y-138660000D03*
X210535000Y-60340000D03*
X305260000Y-128510000D03*
X207063312Y-152277000D03*
X144305000Y-52265000D03*
X204413312Y-147737000D03*
X180775000Y-63085000D03*
X119585000Y-188240000D03*
X289586000Y-145540000D03*
X124715000Y-114590000D03*
X195475000Y-62385000D03*
X110115000Y-114790000D03*
X304760000Y-137960000D03*
X117545000Y-168235000D03*
X217735000Y-62440000D03*
X291840000Y-80550000D03*
X293636000Y-143440000D03*
X210535000Y-57840000D03*
X188575000Y-64585000D03*
X117915000Y-119990000D03*
X187975000Y-65185000D03*
X217735000Y-63040000D03*
X252735000Y-72465000D03*
X291840000Y-81150000D03*
X137895000Y-88950000D03*
X130995000Y-91750000D03*
X117545000Y-167635000D03*
X293636000Y-147340000D03*
X104985000Y-188440000D03*
X123195000Y-87150000D03*
X252735000Y-75565000D03*
X218335000Y-62440000D03*
X304955000Y-149390000D03*
X104985000Y-191540000D03*
X293636000Y-158370000D03*
X293691000Y-128510000D03*
X159760000Y-72320000D03*
X304949000Y-168820000D03*
X130395000Y-91150000D03*
X293691000Y-132410000D03*
X259935000Y-77665000D03*
X252735000Y-74965000D03*
X146805000Y-63265000D03*
X305205000Y-147340000D03*
X304955000Y-164320000D03*
X309310000Y-136110000D03*
X187975000Y-64585000D03*
X309255000Y-165970000D03*
X304560000Y-152525000D03*
X294336000Y-156620000D03*
X304949000Y-167320000D03*
X117315000Y-119390000D03*
X225235000Y-60240000D03*
X109745000Y-165535000D03*
X180775000Y-60585000D03*
X306440000Y-80350000D03*
X267335000Y-72265000D03*
X180775000Y-62485000D03*
X109745000Y-166135000D03*
X305205000Y-162270000D03*
X294191000Y-138660000D03*
X180775000Y-59985000D03*
X110115000Y-115390000D03*
X289641000Y-136110000D03*
X112785000Y-193640000D03*
X293938970Y-152533970D03*
X123195000Y-89650000D03*
X124815000Y-117190000D03*
X294336000Y-141690000D03*
X141805000Y-63265000D03*
X210535000Y-60940000D03*
X259935000Y-77065000D03*
X260535000Y-77665000D03*
X309255000Y-160470000D03*
X289586000Y-160470000D03*
X110115000Y-117890000D03*
X217063312Y-139107000D03*
X299040000Y-85150000D03*
X117315000Y-119990000D03*
X299640000Y-85750000D03*
X309255000Y-145540000D03*
X130995000Y-91150000D03*
X130395000Y-91750000D03*
X291840000Y-83050000D03*
X304505000Y-141690000D03*
X198593312Y-139627000D03*
X146805000Y-52265000D03*
X225135000Y-57640000D03*
X289586000Y-151040000D03*
X304560000Y-126760000D03*
X218335000Y-63040000D03*
X289641000Y-130610000D03*
X267435000Y-74865000D03*
X294015000Y-167590000D03*
X202106249Y-141584063D03*
X188575000Y-65185000D03*
X139305000Y-63265000D03*
X202653312Y-145997000D03*
X116945000Y-167635000D03*
X158760000Y-72320000D03*
X112185000Y-193040000D03*
X104985000Y-189040000D03*
X139305000Y-52265000D03*
X304505000Y-156620000D03*
X294191000Y-137960000D03*
X306540000Y-82950000D03*
X109745000Y-163635000D03*
X294005000Y-163470000D03*
%TO.N,VDDCCO*%
X201043312Y-140557000D03*
X168060000Y-75820000D03*
X206675000Y-67085000D03*
X185345000Y-70505000D03*
X205575000Y-67085000D03*
X205575000Y-66085000D03*
X206675000Y-66085000D03*
%TD*%
D22*
%TO.N,/RSTB*%
X204540000Y-149955000D02*
X205306812Y-149188188D01*
X205306812Y-149188188D02*
X205306812Y-141010500D01*
X205306812Y-141010500D02*
X202623312Y-138327000D01*
X202623312Y-138327000D02*
X201053312Y-138327000D01*
D23*
%TO.N,VREF*%
X198303312Y-143312500D02*
X194682500Y-143312500D01*
X194682500Y-143312500D02*
X193640000Y-142270000D01*
D24*
X174260000Y-122890000D02*
X193640000Y-142270000D01*
X174260000Y-105270000D02*
X174260000Y-122890000D01*
X145095000Y-96050000D02*
X165040000Y-96050000D01*
X165040000Y-96050000D02*
X174260000Y-105270000D01*
%TO.N,/IREF*%
X162760000Y-71320000D02*
X162760000Y-75840000D01*
X162760000Y-75840000D02*
X177695000Y-90775000D01*
X177695000Y-90775000D02*
X177695000Y-122240000D01*
X177695000Y-122240000D02*
X196995000Y-141540000D01*
D23*
X202133312Y-142417000D02*
X200496600Y-142417000D01*
X200496600Y-142417000D02*
X199884600Y-141805000D01*
X197260000Y-141805000D02*
X196995000Y-141540000D01*
X199884600Y-141805000D02*
X197260000Y-141805000D01*
D25*
%TO.N,VDDD2P5*%
X213281312Y-139105000D02*
X212713312Y-138537000D01*
X208503312Y-149597000D02*
X207563312Y-149597000D01*
X207563312Y-149597000D02*
X207063312Y-149097000D01*
X213955000Y-139105000D02*
X213281312Y-139105000D01*
D23*
%TO.N,VDDD1P2*%
X205673312Y-136177000D02*
X205363312Y-136177000D01*
X202793312Y-136177000D02*
X203103312Y-136177000D01*
X205363312Y-136177000D02*
X204233312Y-137307000D01*
X203103312Y-136177000D02*
X204233312Y-137307000D01*
%TO.N,VDDA2P5*%
X200883312Y-146247000D02*
X200803312Y-146167000D01*
X201753312Y-146247000D02*
X200883312Y-146247000D01*
%TO.N,VREF*%
X198303312Y-143312500D02*
X198303312Y-144232000D01*
%TO.N,VDDOSC*%
X196653312Y-146827000D02*
X196653312Y-146157000D01*
X196653312Y-146157000D02*
X197788312Y-146157000D01*
X197788312Y-146157000D02*
X197793312Y-146162000D01*
%TO.N,VDDTQ*%
X199373718Y-146167000D02*
X200273718Y-145267000D01*
D24*
%TO.N,/IREF/IREF_INT*%
X158260000Y-68820000D02*
X156705000Y-67265000D01*
X169260000Y-70943188D02*
X167136812Y-68820000D01*
X156705000Y-67265000D02*
X156705000Y-65820000D01*
X167136812Y-68820000D02*
X158260000Y-68820000D01*
X169260000Y-71820000D02*
X169260000Y-70943188D01*
D22*
%TO.N,/SDA*%
X287470000Y-121526199D02*
X285660000Y-119716199D01*
X287790000Y-121526199D02*
X287470000Y-121526199D01*
D23*
%TO.N,GND*%
X198593312Y-139627000D02*
X199493312Y-139627000D01*
X201783312Y-147197000D02*
X201323312Y-147197000D01*
X204233312Y-134237000D02*
X204233312Y-135407000D01*
X201323312Y-147197000D02*
X200803312Y-147717000D01*
D25*
X215855000Y-139105000D02*
X217061312Y-139105000D01*
D23*
X195853312Y-144237000D02*
X196758312Y-144237000D01*
D25*
X207063312Y-150997000D02*
X207063312Y-152277000D01*
X217061312Y-139105000D02*
X217063312Y-139107000D01*
D23*
%TO.N,VDDCCO*%
X201043312Y-140557000D02*
X201043312Y-139627000D01*
%TD*%
%TA.AperFunction,Conductor*%
%TO.N,GND*%
G36*
X201261312Y-147273613D02*
G01*
X201306699Y-147319000D01*
X201323312Y-147381000D01*
X201323312Y-147945638D01*
X201313873Y-147993091D01*
X201286993Y-148033319D01*
X200629631Y-148690681D01*
X200589403Y-148717561D01*
X200541950Y-148727000D01*
X196687312Y-148727000D01*
X196625312Y-148710387D01*
X196579925Y-148665000D01*
X196563312Y-148603000D01*
X196563312Y-147381000D01*
X196579925Y-147319000D01*
X196625312Y-147273613D01*
X196687312Y-147257000D01*
X201199312Y-147257000D01*
X201261312Y-147273613D01*
G37*
%TD.AperFunction*%
%TD*%
M02*
