%TF.GenerationSoftware,KiCad,Pcbnew,7.0.1-0*%
%TF.CreationDate,2023-04-17T18:56:11+01:00*%
%TF.ProjectId,cyborg65r2_pcb,6379626f-7267-4363-9572-325f7063622e,rev?*%
%TF.SameCoordinates,Original*%
%TF.FileFunction,Soldermask,Top*%
%TF.FilePolarity,Negative*%
%FSLAX46Y46*%
G04 Gerber Fmt 4.6, Leading zero omitted, Abs format (unit mm)*
G04 Created by KiCad (PCBNEW 7.0.1-0) date 2023-04-17 18:56:11*
%MOMM*%
%LPD*%
G01*
G04 APERTURE LIST*
G04 Aperture macros list*
%AMRoundRect*
0 Rectangle with rounded corners*
0 $1 Rounding radius*
0 $2 $3 $4 $5 $6 $7 $8 $9 X,Y pos of 4 corners*
0 Add a 4 corners polygon primitive as box body*
4,1,4,$2,$3,$4,$5,$6,$7,$8,$9,$2,$3,0*
0 Add four circle primitives for the rounded corners*
1,1,$1+$1,$2,$3*
1,1,$1+$1,$4,$5*
1,1,$1+$1,$6,$7*
1,1,$1+$1,$8,$9*
0 Add four rect primitives between the rounded corners*
20,1,$1+$1,$2,$3,$4,$5,0*
20,1,$1+$1,$4,$5,$6,$7,0*
20,1,$1+$1,$6,$7,$8,$9,0*
20,1,$1+$1,$8,$9,$2,$3,0*%
G04 Aperture macros list end*
%ADD10R,1.785000X1.785000*%
%ADD11C,2.400000*%
%ADD12R,0.890000X1.020000*%
%ADD13RoundRect,0.250000X0.250000X0.475000X-0.250000X0.475000X-0.250000X-0.475000X0.250000X-0.475000X0*%
%ADD14RoundRect,0.250000X-0.250000X-0.475000X0.250000X-0.475000X0.250000X0.475000X-0.250000X0.475000X0*%
%ADD15RoundRect,0.250000X-0.475000X0.250000X-0.475000X-0.250000X0.475000X-0.250000X0.475000X0.250000X0*%
%ADD16RoundRect,0.100000X0.625000X0.100000X-0.625000X0.100000X-0.625000X-0.100000X0.625000X-0.100000X0*%
%ADD17R,1.650000X2.850000*%
%ADD18RoundRect,0.250000X-0.262500X-0.450000X0.262500X-0.450000X0.262500X0.450000X-0.262500X0.450000X0*%
%ADD19C,1.240000*%
%ADD20R,1.700000X1.700000*%
%ADD21O,1.700000X1.700000*%
%ADD22RoundRect,0.100000X-0.625000X-0.100000X0.625000X-0.100000X0.625000X0.100000X-0.625000X0.100000X0*%
%ADD23RoundRect,0.225000X0.225000X0.250000X-0.225000X0.250000X-0.225000X-0.250000X0.225000X-0.250000X0*%
%ADD24RoundRect,0.250000X0.262500X0.450000X-0.262500X0.450000X-0.262500X-0.450000X0.262500X-0.450000X0*%
%ADD25R,1.475000X0.300000*%
%ADD26C,3.200000*%
%ADD27RoundRect,0.225000X-0.250000X0.225000X-0.250000X-0.225000X0.250000X-0.225000X0.250000X0.225000X0*%
%ADD28RoundRect,0.250000X0.475000X-0.250000X0.475000X0.250000X-0.475000X0.250000X-0.475000X-0.250000X0*%
%ADD29C,2.250000*%
%ADD30RoundRect,0.150000X-0.150000X-0.200000X0.150000X-0.200000X0.150000X0.200000X-0.150000X0.200000X0*%
%ADD31C,1.000000*%
%ADD32RoundRect,0.062500X-0.375000X-0.062500X0.375000X-0.062500X0.375000X0.062500X-0.375000X0.062500X0*%
%ADD33RoundRect,0.062500X-0.062500X-0.375000X0.062500X-0.375000X0.062500X0.375000X-0.062500X0.375000X0*%
%ADD34R,5.900000X5.900000*%
%ADD35R,1.400000X2.100000*%
%ADD36R,0.880000X2.810000*%
%ADD37R,0.300000X1.475000*%
%ADD38RoundRect,0.150000X0.150000X0.200000X-0.150000X0.200000X-0.150000X-0.200000X0.150000X-0.200000X0*%
%ADD39RoundRect,0.200000X0.200000X0.275000X-0.200000X0.275000X-0.200000X-0.275000X0.200000X-0.275000X0*%
G04 APERTURE END LIST*
D10*
%TO.C,J19*%
X130700000Y-58800000D03*
D11*
X128160000Y-61340000D03*
X133240000Y-61340000D03*
X133240000Y-56260000D03*
X128160000Y-56260000D03*
%TD*%
D12*
%TO.C,L5*%
X160984000Y-57970000D03*
X159356000Y-57970000D03*
%TD*%
D10*
%TO.C,J26*%
X123700000Y-82800000D03*
D11*
X121160000Y-85340000D03*
X126240000Y-85340000D03*
X126240000Y-80260000D03*
X121160000Y-80260000D03*
%TD*%
D13*
%TO.C,C51*%
X195950000Y-127540000D03*
X194050000Y-127540000D03*
%TD*%
D11*
%TO.C,J42*%
X186480000Y-123680000D03*
%TD*%
D14*
%TO.C,C35*%
X126250000Y-103700000D03*
X128150000Y-103700000D03*
%TD*%
D15*
%TO.C,C7*%
X179640000Y-121320000D03*
X179640000Y-123220000D03*
%TD*%
D16*
%TO.C,U5*%
X140815000Y-142510000D03*
X140815000Y-141860000D03*
X140815000Y-141210000D03*
X140815000Y-140560000D03*
X140815000Y-139910000D03*
X140815000Y-139260000D03*
X136515000Y-139260000D03*
X136515000Y-139910000D03*
X136515000Y-140560000D03*
X136515000Y-141210000D03*
X136515000Y-141860000D03*
X136515000Y-142510000D03*
D17*
X138665000Y-140885000D03*
%TD*%
D18*
%TO.C,R10*%
X117787500Y-107900000D03*
X119612500Y-107900000D03*
%TD*%
D11*
%TO.C,J9*%
X171400000Y-75100000D03*
%TD*%
%TO.C,J21*%
X135400000Y-112100000D03*
%TD*%
D14*
%TO.C,C20*%
X162250000Y-66700000D03*
X164150000Y-66700000D03*
%TD*%
D19*
%TO.C,VR2*%
X119370000Y-111700000D03*
X121910000Y-111700000D03*
X124450000Y-111700000D03*
%TD*%
D18*
%TO.C,R4*%
X190587500Y-56800000D03*
X192412500Y-56800000D03*
%TD*%
D15*
%TO.C,C48*%
X151000000Y-43000000D03*
X151000000Y-44900000D03*
%TD*%
D20*
%TO.C,J38*%
X150625000Y-96500000D03*
D21*
X148085000Y-96500000D03*
X145545000Y-96500000D03*
%TD*%
D22*
%TO.C,U9*%
X143175000Y-51950000D03*
X143175000Y-52600000D03*
X143175000Y-53250000D03*
X143175000Y-53900000D03*
X143175000Y-54550000D03*
X143175000Y-55200000D03*
X147475000Y-55200000D03*
X147475000Y-54550000D03*
X147475000Y-53900000D03*
X147475000Y-53250000D03*
X147475000Y-52600000D03*
X147475000Y-51950000D03*
D17*
X145325000Y-53575000D03*
%TD*%
D23*
%TO.C,C4*%
X170885000Y-116460000D03*
X169335000Y-116460000D03*
%TD*%
D24*
%TO.C,R17*%
X173472500Y-133470000D03*
X171647500Y-133470000D03*
%TD*%
D13*
%TO.C,C24*%
X133740000Y-141760000D03*
X131840000Y-141760000D03*
%TD*%
D20*
%TO.C,J41*%
X180460000Y-102245000D03*
D21*
X180460000Y-99705000D03*
X180460000Y-97165000D03*
%TD*%
D25*
%TO.C,U12*%
X198799000Y-124520000D03*
X198799000Y-125020000D03*
X198799000Y-125520000D03*
X198799000Y-126020000D03*
X198799000Y-126520000D03*
X198799000Y-127020000D03*
X198799000Y-127520000D03*
X198799000Y-128020000D03*
X198799000Y-128520000D03*
X198799000Y-129020000D03*
X198799000Y-129520000D03*
X198799000Y-130020000D03*
X198799000Y-130520000D03*
X198799000Y-131020000D03*
X198799000Y-131520000D03*
X198799000Y-132020000D03*
X198799000Y-132520000D03*
X198799000Y-133020000D03*
X198799000Y-133520000D03*
X198799000Y-134020000D03*
X198799000Y-134520000D03*
X198799000Y-135020000D03*
X198799000Y-135520000D03*
X198799000Y-136020000D03*
X206375000Y-136020000D03*
X206375000Y-135520000D03*
X206375000Y-135020000D03*
X206375000Y-134520000D03*
X206375000Y-134020000D03*
X206375000Y-133520000D03*
X206375000Y-133020000D03*
X206375000Y-132520000D03*
X206375000Y-132020000D03*
X206375000Y-131520000D03*
X206375000Y-131020000D03*
X206375000Y-130520000D03*
X206375000Y-130020000D03*
X206375000Y-129520000D03*
X206375000Y-129020000D03*
X206375000Y-128520000D03*
X206375000Y-128020000D03*
X206375000Y-127520000D03*
X206375000Y-127020000D03*
X206375000Y-126520000D03*
X206375000Y-126020000D03*
X206375000Y-125520000D03*
X206375000Y-125020000D03*
X206375000Y-124520000D03*
%TD*%
D26*
%TO.C,H1*%
X104000000Y-37000000D03*
%TD*%
D27*
%TO.C,C3*%
X173380000Y-118390000D03*
X173380000Y-119940000D03*
%TD*%
D13*
%TO.C,C53*%
X195680000Y-118110000D03*
X193780000Y-118110000D03*
%TD*%
D11*
%TO.C,J1*%
X212400000Y-75100000D03*
%TD*%
D25*
%TO.C,U11*%
X198805000Y-109590000D03*
X198805000Y-110090000D03*
X198805000Y-110590000D03*
X198805000Y-111090000D03*
X198805000Y-111590000D03*
X198805000Y-112090000D03*
X198805000Y-112590000D03*
X198805000Y-113090000D03*
X198805000Y-113590000D03*
X198805000Y-114090000D03*
X198805000Y-114590000D03*
X198805000Y-115090000D03*
X198805000Y-115590000D03*
X198805000Y-116090000D03*
X198805000Y-116590000D03*
X198805000Y-117090000D03*
X198805000Y-117590000D03*
X198805000Y-118090000D03*
X198805000Y-118590000D03*
X198805000Y-119090000D03*
X198805000Y-119590000D03*
X198805000Y-120090000D03*
X198805000Y-120590000D03*
X198805000Y-121090000D03*
X206381000Y-121090000D03*
X206381000Y-120590000D03*
X206381000Y-120090000D03*
X206381000Y-119590000D03*
X206381000Y-119090000D03*
X206381000Y-118590000D03*
X206381000Y-118090000D03*
X206381000Y-117590000D03*
X206381000Y-117090000D03*
X206381000Y-116590000D03*
X206381000Y-116090000D03*
X206381000Y-115590000D03*
X206381000Y-115090000D03*
X206381000Y-114590000D03*
X206381000Y-114090000D03*
X206381000Y-113590000D03*
X206381000Y-113090000D03*
X206381000Y-112590000D03*
X206381000Y-112090000D03*
X206381000Y-111590000D03*
X206381000Y-111090000D03*
X206381000Y-110590000D03*
X206381000Y-110090000D03*
X206381000Y-109590000D03*
%TD*%
D14*
%TO.C,C21*%
X143540000Y-142360000D03*
X145440000Y-142360000D03*
%TD*%
D12*
%TO.C,L4*%
X124984000Y-95970000D03*
X123356000Y-95970000D03*
%TD*%
D13*
%TO.C,C29*%
X116450000Y-103100000D03*
X114550000Y-103100000D03*
%TD*%
D11*
%TO.C,J29*%
X159400000Y-61100000D03*
%TD*%
D20*
%TO.C,J36*%
X156575000Y-96500000D03*
D21*
X159115000Y-96500000D03*
X161655000Y-96500000D03*
%TD*%
D28*
%TO.C,C45*%
X148500000Y-39000000D03*
X148500000Y-37100000D03*
%TD*%
D15*
%TO.C,C42*%
X143500000Y-43000000D03*
X143500000Y-44900000D03*
%TD*%
D29*
%TO.C,J47*%
X149360000Y-113060000D03*
X151900000Y-115600000D03*
X151900000Y-110520000D03*
X146820000Y-110520000D03*
X146820000Y-115600000D03*
%TD*%
D10*
%TO.C,J15*%
X124290000Y-149660000D03*
D11*
X126830000Y-147120000D03*
X121750000Y-147120000D03*
X121750000Y-152200000D03*
X126830000Y-152200000D03*
%TD*%
D13*
%TO.C,C30*%
X104450000Y-90100000D03*
X102550000Y-90100000D03*
%TD*%
D30*
%TO.C,D1*%
X200900000Y-70900000D03*
X199500000Y-70900000D03*
%TD*%
D13*
%TO.C,C25*%
X111450000Y-66100000D03*
X109550000Y-66100000D03*
%TD*%
D11*
%TO.C,J17*%
X130400000Y-75100000D03*
%TD*%
D13*
%TO.C,C13*%
X181650000Y-52240000D03*
X179750000Y-52240000D03*
%TD*%
D22*
%TO.C,U3*%
X184370000Y-51950000D03*
X184370000Y-52600000D03*
X184370000Y-53250000D03*
X184370000Y-53900000D03*
X184370000Y-54550000D03*
X184370000Y-55200000D03*
X188670000Y-55200000D03*
X188670000Y-54550000D03*
X188670000Y-53900000D03*
X188670000Y-53250000D03*
X188670000Y-52600000D03*
X188670000Y-51950000D03*
D17*
X186520000Y-53575000D03*
%TD*%
D14*
%TO.C,C8*%
X186520000Y-111340000D03*
X188420000Y-111340000D03*
%TD*%
D18*
%TO.C,R5*%
X153787500Y-70900000D03*
X155612500Y-70900000D03*
%TD*%
D11*
%TO.C,J2*%
X206100000Y-75100000D03*
%TD*%
%TO.C,J23*%
X123400000Y-99100000D03*
%TD*%
D31*
%TO.C,FID1*%
X121000000Y-61000000D03*
%TD*%
D32*
%TO.C,U1*%
X176182500Y-111810000D03*
X176182500Y-112310000D03*
X176182500Y-112810000D03*
X176182500Y-113310000D03*
X176182500Y-113810000D03*
X176182500Y-114310000D03*
X176182500Y-114810000D03*
X176182500Y-115310000D03*
X176182500Y-115810000D03*
X176182500Y-116310000D03*
X176182500Y-116810000D03*
X176182500Y-117310000D03*
X176182500Y-117810000D03*
X176182500Y-118310000D03*
D33*
X176870000Y-118997500D03*
X177370000Y-118997500D03*
X177870000Y-118997500D03*
X178370000Y-118997500D03*
X178870000Y-118997500D03*
X179370000Y-118997500D03*
X179870000Y-118997500D03*
X180370000Y-118997500D03*
X180870000Y-118997500D03*
X181370000Y-118997500D03*
X181870000Y-118997500D03*
X182370000Y-118997500D03*
X182870000Y-118997500D03*
X183370000Y-118997500D03*
D32*
X184057500Y-118310000D03*
X184057500Y-117810000D03*
X184057500Y-117310000D03*
X184057500Y-116810000D03*
X184057500Y-116310000D03*
X184057500Y-115810000D03*
X184057500Y-115310000D03*
X184057500Y-114810000D03*
X184057500Y-114310000D03*
X184057500Y-113810000D03*
X184057500Y-113310000D03*
X184057500Y-112810000D03*
X184057500Y-112310000D03*
X184057500Y-111810000D03*
D33*
X183370000Y-111122500D03*
X182870000Y-111122500D03*
X182370000Y-111122500D03*
X181870000Y-111122500D03*
X181370000Y-111122500D03*
X180870000Y-111122500D03*
X180370000Y-111122500D03*
X179870000Y-111122500D03*
X179370000Y-111122500D03*
X178870000Y-111122500D03*
X178370000Y-111122500D03*
X177870000Y-111122500D03*
X177370000Y-111122500D03*
X176870000Y-111122500D03*
D34*
X180120000Y-115060000D03*
%TD*%
D30*
%TO.C,D3*%
X159900000Y-70900000D03*
X158500000Y-70900000D03*
%TD*%
D23*
%TO.C,C1*%
X173620000Y-111850000D03*
X172070000Y-111850000D03*
%TD*%
D22*
%TO.C,U8*%
X107175000Y-89950000D03*
X107175000Y-90600000D03*
X107175000Y-91250000D03*
X107175000Y-91900000D03*
X107175000Y-92550000D03*
X107175000Y-93200000D03*
X111475000Y-93200000D03*
X111475000Y-92550000D03*
X111475000Y-91900000D03*
X111475000Y-91250000D03*
X111475000Y-90600000D03*
X111475000Y-89950000D03*
D17*
X109325000Y-91575000D03*
%TD*%
D11*
%TO.C,J18*%
X124090000Y-75100000D03*
%TD*%
D20*
%TO.C,J20*%
X132930000Y-69000000D03*
D21*
X130390000Y-69000000D03*
X127850000Y-69000000D03*
%TD*%
D14*
%TO.C,C27*%
X120350000Y-68800000D03*
X122250000Y-68800000D03*
%TD*%
D18*
%TO.C,R18*%
X179747500Y-133470000D03*
X181572500Y-133470000D03*
%TD*%
D11*
%TO.C,J13*%
X124590000Y-133360000D03*
%TD*%
D24*
%TO.C,R7*%
X142202500Y-137560000D03*
X140377500Y-137560000D03*
%TD*%
D18*
%TO.C,R15*%
X175460000Y-102375000D03*
X177285000Y-102375000D03*
%TD*%
D15*
%TO.C,C52*%
X186960000Y-102840000D03*
X186960000Y-104740000D03*
%TD*%
D31*
%TO.C,FID2*%
X209000000Y-80000000D03*
%TD*%
D10*
%TO.C,J37*%
X153520000Y-88770000D03*
D11*
X150980000Y-91310000D03*
X156060000Y-91310000D03*
X156060000Y-86230000D03*
X150980000Y-86230000D03*
%TD*%
D35*
%TO.C,S2*%
X183060000Y-136670000D03*
X183060000Y-145770000D03*
X178260000Y-136670000D03*
X178260000Y-145770000D03*
%TD*%
D20*
%TO.C,J48*%
X174070000Y-128670000D03*
D21*
X176610000Y-128670000D03*
X179150000Y-128670000D03*
%TD*%
D15*
%TO.C,C41*%
X146000000Y-43000000D03*
X146000000Y-44900000D03*
%TD*%
D18*
%TO.C,R12*%
X141787500Y-56900000D03*
X143612500Y-56900000D03*
%TD*%
D22*
%TO.C,U4*%
X155175000Y-65950000D03*
X155175000Y-66600000D03*
X155175000Y-67250000D03*
X155175000Y-67900000D03*
X155175000Y-68550000D03*
X155175000Y-69200000D03*
X159475000Y-69200000D03*
X159475000Y-68550000D03*
X159475000Y-67900000D03*
X159475000Y-67250000D03*
X159475000Y-66600000D03*
X159475000Y-65950000D03*
D17*
X157325000Y-67575000D03*
%TD*%
D11*
%TO.C,J14*%
X130900000Y-133360000D03*
%TD*%
D13*
%TO.C,C31*%
X116450000Y-105500000D03*
X114550000Y-105500000D03*
%TD*%
D11*
%TO.C,J24*%
X117080000Y-99100000D03*
%TD*%
D13*
%TO.C,C38*%
X140450000Y-52100000D03*
X138550000Y-52100000D03*
%TD*%
D26*
%TO.C,H2*%
X225000000Y-37000000D03*
%TD*%
D31*
%TO.C,FID3*%
X141000000Y-147000000D03*
%TD*%
D36*
%TO.C,F1*%
X137945000Y-41140000D03*
X141215000Y-41140000D03*
%TD*%
D12*
%TO.C,L2*%
X131984000Y-71970000D03*
X130356000Y-71970000D03*
%TD*%
D14*
%TO.C,C59*%
X209500000Y-118110000D03*
X211400000Y-118110000D03*
%TD*%
D13*
%TO.C,C26*%
X111450000Y-68500000D03*
X109550000Y-68500000D03*
%TD*%
D10*
%TO.C,J11*%
X171700000Y-58800000D03*
D11*
X169160000Y-61340000D03*
X174240000Y-61340000D03*
X174240000Y-56260000D03*
X169160000Y-56260000D03*
%TD*%
D28*
%TO.C,C58*%
X186960000Y-89570000D03*
X186960000Y-87670000D03*
%TD*%
D20*
%TO.C,J16*%
X122060000Y-139460000D03*
D21*
X124600000Y-139460000D03*
X127140000Y-139460000D03*
%TD*%
D29*
%TO.C,J40*%
X162320000Y-139572102D03*
X165912102Y-139572102D03*
X162320000Y-135980000D03*
X158727898Y-139572102D03*
X162320000Y-143164204D03*
%TD*%
D20*
%TO.C,J27*%
X137930000Y-106000000D03*
D21*
X135390000Y-106000000D03*
X132850000Y-106000000D03*
%TD*%
D22*
%TO.C,U6*%
X114175000Y-65950000D03*
X114175000Y-66600000D03*
X114175000Y-67250000D03*
X114175000Y-67900000D03*
X114175000Y-68550000D03*
X114175000Y-69200000D03*
X118475000Y-69200000D03*
X118475000Y-68550000D03*
X118475000Y-67900000D03*
X118475000Y-67250000D03*
X118475000Y-66600000D03*
X118475000Y-65950000D03*
D17*
X116325000Y-67575000D03*
%TD*%
D11*
%TO.C,J43*%
X190630000Y-123690000D03*
%TD*%
D30*
%TO.C,D2*%
X189100000Y-56800000D03*
X187700000Y-56800000D03*
%TD*%
D10*
%TO.C,J7*%
X200900000Y-44800000D03*
D11*
X198360000Y-47340000D03*
X203440000Y-47340000D03*
X203440000Y-42260000D03*
X198360000Y-42260000D03*
%TD*%
D22*
%TO.C,U7*%
X119175000Y-102950000D03*
X119175000Y-103600000D03*
X119175000Y-104250000D03*
X119175000Y-104900000D03*
X119175000Y-105550000D03*
X119175000Y-106200000D03*
X123475000Y-106200000D03*
X123475000Y-105550000D03*
X123475000Y-104900000D03*
X123475000Y-104250000D03*
X123475000Y-103600000D03*
X123475000Y-102950000D03*
D17*
X121325000Y-104575000D03*
%TD*%
D18*
%TO.C,R9*%
X112787500Y-70900000D03*
X114612500Y-70900000D03*
%TD*%
D27*
%TO.C,C5*%
X171870000Y-118390000D03*
X171870000Y-119940000D03*
%TD*%
D19*
%TO.C,VR1*%
X114370000Y-74700000D03*
X116910000Y-74700000D03*
X119450000Y-74700000D03*
%TD*%
D14*
%TO.C,C39*%
X149350000Y-54800000D03*
X151250000Y-54800000D03*
%TD*%
D22*
%TO.C,U2*%
X196175000Y-65950000D03*
X196175000Y-66600000D03*
X196175000Y-67250000D03*
X196175000Y-67900000D03*
X196175000Y-68550000D03*
X196175000Y-69200000D03*
X200475000Y-69200000D03*
X200475000Y-68550000D03*
X200475000Y-67900000D03*
X200475000Y-67250000D03*
X200475000Y-66600000D03*
X200475000Y-65950000D03*
D17*
X198325000Y-67575000D03*
%TD*%
D15*
%TO.C,C49*%
X148100000Y-99550000D03*
X148100000Y-101450000D03*
%TD*%
D13*
%TO.C,C10*%
X193450000Y-68500000D03*
X191550000Y-68500000D03*
%TD*%
D37*
%TO.C,U10*%
X183940000Y-99985000D03*
X184440000Y-99985000D03*
X184940000Y-99985000D03*
X185440000Y-99985000D03*
X185940000Y-99985000D03*
X186440000Y-99985000D03*
X186940000Y-99985000D03*
X187440000Y-99985000D03*
X187940000Y-99985000D03*
X188440000Y-99985000D03*
X188940000Y-99985000D03*
X189440000Y-99985000D03*
X189940000Y-99985000D03*
X190440000Y-99985000D03*
X190940000Y-99985000D03*
X191440000Y-99985000D03*
X191940000Y-99985000D03*
X192440000Y-99985000D03*
X192940000Y-99985000D03*
X193440000Y-99985000D03*
X193940000Y-99985000D03*
X194440000Y-99985000D03*
X194940000Y-99985000D03*
X195440000Y-99985000D03*
X195440000Y-92409000D03*
X194940000Y-92409000D03*
X194440000Y-92409000D03*
X193940000Y-92409000D03*
X193440000Y-92409000D03*
X192940000Y-92409000D03*
X192440000Y-92409000D03*
X191940000Y-92409000D03*
X191440000Y-92409000D03*
X190940000Y-92409000D03*
X190440000Y-92409000D03*
X189940000Y-92409000D03*
X189440000Y-92409000D03*
X188940000Y-92409000D03*
X188440000Y-92409000D03*
X187940000Y-92409000D03*
X187440000Y-92409000D03*
X186940000Y-92409000D03*
X186440000Y-92409000D03*
X185940000Y-92409000D03*
X185440000Y-92409000D03*
X184940000Y-92409000D03*
X184440000Y-92409000D03*
X183940000Y-92409000D03*
%TD*%
D12*
%TO.C,L3*%
X136984000Y-108970000D03*
X135356000Y-108970000D03*
%TD*%
D11*
%TO.C,J34*%
X140500000Y-34500000D03*
%TD*%
D14*
%TO.C,C12*%
X203250000Y-66500000D03*
X205150000Y-66500000D03*
%TD*%
D20*
%TO.C,J4*%
X214940000Y-69000000D03*
D21*
X212400000Y-69000000D03*
X209860000Y-69000000D03*
%TD*%
D11*
%TO.C,J5*%
X200610000Y-61100000D03*
%TD*%
D28*
%TO.C,C43*%
X143500000Y-39000000D03*
X143500000Y-37100000D03*
%TD*%
D14*
%TO.C,C28*%
X121250000Y-66700000D03*
X123150000Y-66700000D03*
%TD*%
D18*
%TO.C,R3*%
X182987500Y-56900000D03*
X184812500Y-56900000D03*
%TD*%
D11*
%TO.C,J44*%
X186490000Y-129330000D03*
%TD*%
D18*
%TO.C,R2*%
X202387500Y-71000000D03*
X204212500Y-71000000D03*
%TD*%
D14*
%TO.C,C56*%
X209220000Y-112610000D03*
X211120000Y-112610000D03*
%TD*%
D13*
%TO.C,C54*%
X195680000Y-133040000D03*
X193780000Y-133040000D03*
%TD*%
D30*
%TO.C,D5*%
X118900000Y-70900000D03*
X117500000Y-70900000D03*
%TD*%
D20*
%TO.C,J28*%
X125930000Y-93000000D03*
D21*
X123390000Y-93000000D03*
X120850000Y-93000000D03*
%TD*%
D20*
%TO.C,J8*%
X203140000Y-55000000D03*
D21*
X200600000Y-55000000D03*
X198060000Y-55000000D03*
%TD*%
D18*
%TO.C,R6*%
X161387500Y-70800000D03*
X163212500Y-70800000D03*
%TD*%
D11*
%TO.C,J6*%
X194300000Y-61100000D03*
%TD*%
D19*
%TO.C,VR4*%
X143370000Y-60700000D03*
X145910000Y-60700000D03*
X148450000Y-60700000D03*
%TD*%
D13*
%TO.C,C14*%
X181650000Y-54410000D03*
X179750000Y-54410000D03*
%TD*%
D20*
%TO.C,J46*%
X224370000Y-63670000D03*
D21*
X226910000Y-63670000D03*
X224370000Y-66210000D03*
X226910000Y-66210000D03*
X224370000Y-68750000D03*
X226910000Y-68750000D03*
X224370000Y-71290000D03*
X226910000Y-71290000D03*
X224370000Y-73830000D03*
X226910000Y-73830000D03*
X224370000Y-76370000D03*
X226910000Y-76370000D03*
X224370000Y-78910000D03*
X226910000Y-78910000D03*
X224370000Y-81450000D03*
X226910000Y-81450000D03*
X224370000Y-83990000D03*
X226910000Y-83990000D03*
X224370000Y-86530000D03*
X226910000Y-86530000D03*
X224370000Y-89070000D03*
X226910000Y-89070000D03*
X224370000Y-91610000D03*
X226910000Y-91610000D03*
X224370000Y-94150000D03*
X226910000Y-94150000D03*
X224370000Y-96690000D03*
X226910000Y-96690000D03*
X224370000Y-99230000D03*
X226910000Y-99230000D03*
X224370000Y-101770000D03*
X226910000Y-101770000D03*
X224370000Y-104310000D03*
X226910000Y-104310000D03*
X224370000Y-106850000D03*
X226910000Y-106850000D03*
X224370000Y-109390000D03*
X226910000Y-109390000D03*
X224370000Y-111930000D03*
X226910000Y-111930000D03*
X224370000Y-114470000D03*
X226910000Y-114470000D03*
X224370000Y-117010000D03*
X226910000Y-117010000D03*
X224370000Y-119550000D03*
X226910000Y-119550000D03*
X224370000Y-122090000D03*
X226910000Y-122090000D03*
X224370000Y-124630000D03*
X226910000Y-124630000D03*
X224370000Y-127170000D03*
X226910000Y-127170000D03*
X224370000Y-129710000D03*
X226910000Y-129710000D03*
X224370000Y-132250000D03*
X226910000Y-132250000D03*
X224370000Y-134790000D03*
X226910000Y-134790000D03*
X224370000Y-137330000D03*
X226910000Y-137330000D03*
X224370000Y-139870000D03*
X226910000Y-139870000D03*
X224370000Y-142410000D03*
X226910000Y-142410000D03*
X224370000Y-144950000D03*
X226910000Y-144950000D03*
X224370000Y-147490000D03*
X226910000Y-147490000D03*
%TD*%
D12*
%TO.C,L1*%
X123006000Y-136490000D03*
X124634000Y-136490000D03*
%TD*%
D24*
%TO.C,R8*%
X134602500Y-137660000D03*
X132777500Y-137660000D03*
%TD*%
D18*
%TO.C,R1*%
X194787500Y-70900000D03*
X196612500Y-70900000D03*
%TD*%
D13*
%TO.C,C32*%
X104450000Y-92500000D03*
X102550000Y-92500000D03*
%TD*%
D31*
%TO.C,FID4*%
X189000000Y-138000000D03*
%TD*%
D13*
%TO.C,C50*%
X195950000Y-112610000D03*
X194050000Y-112610000D03*
%TD*%
%TO.C,C18*%
X152450000Y-68500000D03*
X150550000Y-68500000D03*
%TD*%
D14*
%TO.C,C60*%
X209490000Y-133040000D03*
X211390000Y-133040000D03*
%TD*%
D11*
%TO.C,J35*%
X140500000Y-47500000D03*
%TD*%
D24*
%TO.C,R13*%
X155225000Y-106500000D03*
X153400000Y-106500000D03*
%TD*%
D27*
%TO.C,C2*%
X170370000Y-118385000D03*
X170370000Y-119935000D03*
%TD*%
D14*
%TO.C,C33*%
X125350000Y-105800000D03*
X127250000Y-105800000D03*
%TD*%
D18*
%TO.C,R11*%
X105787500Y-94900000D03*
X107612500Y-94900000D03*
%TD*%
D28*
%TO.C,C6*%
X176810000Y-109530000D03*
X176810000Y-107630000D03*
%TD*%
D18*
%TO.C,R14*%
X175457500Y-100435000D03*
X177282500Y-100435000D03*
%TD*%
D14*
%TO.C,C22*%
X143540000Y-139960000D03*
X145440000Y-139960000D03*
%TD*%
%TO.C,C15*%
X190550000Y-54800000D03*
X192450000Y-54800000D03*
%TD*%
%TO.C,C36*%
X114250000Y-90700000D03*
X116150000Y-90700000D03*
%TD*%
D11*
%TO.C,J22*%
X129080000Y-112100000D03*
%TD*%
D13*
%TO.C,C23*%
X134640000Y-139660000D03*
X132740000Y-139660000D03*
%TD*%
D14*
%TO.C,C11*%
X202350000Y-68800000D03*
X204250000Y-68800000D03*
%TD*%
D10*
%TO.C,J3*%
X212700000Y-58800000D03*
D11*
X210160000Y-61340000D03*
X215240000Y-61340000D03*
X215240000Y-56260000D03*
X210160000Y-56260000D03*
%TD*%
D29*
%TO.C,J39*%
X155612102Y-132872102D03*
X159204204Y-132872102D03*
X155612102Y-129280000D03*
X152020000Y-132872102D03*
X155612102Y-136464204D03*
%TD*%
D38*
%TO.C,D4*%
X136090000Y-137560000D03*
X137490000Y-137560000D03*
%TD*%
D10*
%TO.C,J25*%
X135700000Y-95800000D03*
D11*
X133160000Y-98340000D03*
X138240000Y-98340000D03*
X138240000Y-93260000D03*
X133160000Y-93260000D03*
%TD*%
%TO.C,J10*%
X165100000Y-75100000D03*
%TD*%
D14*
%TO.C,C34*%
X113350000Y-92800000D03*
X115250000Y-92800000D03*
%TD*%
D13*
%TO.C,C17*%
X152450000Y-66100000D03*
X150550000Y-66100000D03*
%TD*%
D26*
%TO.C,H3*%
X104000000Y-150000000D03*
%TD*%
D15*
%TO.C,C55*%
X192460000Y-103110000D03*
X192460000Y-105010000D03*
%TD*%
D28*
%TO.C,C46*%
X151000000Y-39000000D03*
X151000000Y-37100000D03*
%TD*%
D13*
%TO.C,C37*%
X140450000Y-54500000D03*
X138550000Y-54500000D03*
%TD*%
D28*
%TO.C,C44*%
X146000000Y-39000000D03*
X146000000Y-37100000D03*
%TD*%
D15*
%TO.C,C47*%
X148500000Y-43000000D03*
X148500000Y-44900000D03*
%TD*%
D19*
%TO.C,VR3*%
X107370000Y-98700000D03*
X109910000Y-98700000D03*
X112450000Y-98700000D03*
%TD*%
D14*
%TO.C,C40*%
X150250000Y-52700000D03*
X152150000Y-52700000D03*
%TD*%
D20*
%TO.C,J12*%
X173935000Y-69000000D03*
D21*
X171395000Y-69000000D03*
X168855000Y-69000000D03*
%TD*%
D10*
%TO.C,J31*%
X159700000Y-44800000D03*
D11*
X157160000Y-47340000D03*
X162240000Y-47340000D03*
X162240000Y-42260000D03*
X157160000Y-42260000D03*
%TD*%
D26*
%TO.C,H4*%
X215000000Y-151000000D03*
%TD*%
D30*
%TO.C,D8*%
X147900000Y-56900000D03*
X146500000Y-56900000D03*
%TD*%
D14*
%TO.C,C57*%
X209220000Y-127540000D03*
X211120000Y-127540000D03*
%TD*%
D39*
%TO.C,R16*%
X173795000Y-114960000D03*
X172145000Y-114960000D03*
%TD*%
D14*
%TO.C,C19*%
X161350000Y-68800000D03*
X163250000Y-68800000D03*
%TD*%
D35*
%TO.C,S1*%
X170260000Y-145770000D03*
X170260000Y-136670000D03*
X175060000Y-145770000D03*
X175060000Y-136670000D03*
%TD*%
D19*
%TO.C,VR5*%
X155560000Y-102500000D03*
X158100000Y-102500000D03*
X160640000Y-102500000D03*
%TD*%
D14*
%TO.C,C16*%
X191450000Y-52700000D03*
X193350000Y-52700000D03*
%TD*%
D30*
%TO.C,D6*%
X123900000Y-107900000D03*
X122500000Y-107900000D03*
%TD*%
D10*
%TO.C,J33*%
X131820000Y-41250000D03*
D11*
X134360000Y-43790000D03*
X134360000Y-38710000D03*
X129280000Y-38710000D03*
X129280000Y-43790000D03*
%TD*%
D30*
%TO.C,D7*%
X111900000Y-94900000D03*
X110500000Y-94900000D03*
%TD*%
D13*
%TO.C,C9*%
X193450000Y-66100000D03*
X191550000Y-66100000D03*
%TD*%
D28*
%TO.C,C61*%
X192460000Y-89295000D03*
X192460000Y-87395000D03*
%TD*%
D20*
%TO.C,J32*%
X161930000Y-55000000D03*
D21*
X159390000Y-55000000D03*
X156850000Y-55000000D03*
%TD*%
D11*
%TO.C,J30*%
X153080000Y-61100000D03*
%TD*%
%TO.C,J45*%
X190630000Y-129330000D03*
%TD*%
M02*
