M48
; DRILL file {KiCad 7.0.1-0} date 2023 April 17, Monday 18:55:53
; FORMAT={-:-/ absolute / inch / decimal}
; #@! TF.CreationDate,2023-04-17T18:55:53+01:00
; #@! TF.GenerationSoftware,Kicad,Pcbnew,7.0.1-0
; #@! TF.FileFunction,Plated,1,4,PTH
FMAT,2
INCH
; #@! TA.AperFunction,Plated,PTH,ViaDrill
T1C0.0100
; #@! TA.AperFunction,Plated,PTH,ComponentDrill
T2C0.0291
; #@! TA.AperFunction,Plated,PTH,ComponentDrill
T3C0.0394
; #@! TA.AperFunction,Plated,PTH,ComponentDrill
T4C0.0469
; #@! TA.AperFunction,Plated,PTH,ComponentDrill
T5C0.0591
; #@! TA.AperFunction,Plated,PTH,ComponentDrill
T6C0.0630
%
G90
G05
T1
X3.9961Y-3.5276
X3.9961Y-3.5512
X3.9961Y-3.626
X3.9961Y-3.6496
X4.0984Y-3.4449
X4.0984Y-3.4843
X4.126Y-3.4449
X4.126Y-3.4843
X4.1535Y-3.4449
X4.1535Y-3.4843
X4.1614Y-3.5394
X4.1614Y-3.5669
X4.1614Y-3.5945
X4.176Y-3.9417
X4.2717Y-2.5827
X4.2717Y-2.6063
X4.2717Y-2.6811
X4.2717Y-2.7047
X4.2795Y-3.7087
X4.2795Y-3.7323
X4.2795Y-3.7598
X4.3031Y-3.7087
X4.3031Y-3.7323
X4.437Y-2.5945
X4.437Y-2.622
X4.437Y-2.6496
X4.4449Y-3.5394
X4.4449Y-3.5669
X4.4449Y-3.5945
X4.4516Y-2.9969
X4.4685Y-4.0394
X4.4685Y-4.063
X4.4685Y-4.1378
X4.4685Y-4.1614
X4.5551Y-2.7638
X4.5551Y-2.7874
X4.5551Y-2.815
X4.5709Y-3.5197
X4.5748Y-3.622
X4.5787Y-2.7638
X4.5787Y-2.7874
X4.6339Y-4.0512
X4.6339Y-4.0787
X4.6339Y-4.1063
X4.6484Y-4.4535
X4.7205Y-2.5945
X4.7205Y-2.622
X4.7205Y-2.6496
X4.7476Y-5.3449
X4.7476Y-5.3843
X4.752Y-4.2205
X4.752Y-4.2441
X4.752Y-4.2717
X4.7756Y-4.2205
X4.7756Y-4.2441
X4.7909Y-5.3449
X4.7909Y-5.3843
X4.8465Y-2.5748
X4.8504Y-2.6772
X4.9173Y-4.0512
X4.9173Y-4.0787
X4.9173Y-4.1063
X4.9724Y-3.7677
X4.9724Y-3.8071
X5.0157Y-3.7677
X5.0157Y-3.8071
X5.0433Y-4.0315
X5.0472Y-4.1339
X5.1886Y-5.5299
X5.1925Y-5.6323
X5.248Y-2.8228
X5.248Y-2.8622
X5.2913Y-2.8228
X5.2913Y-2.8622
X5.3185Y-5.5575
X5.3185Y-5.585
X5.3185Y-5.6126
X5.3937Y-5.1969
X5.3937Y-5.2362
X5.3937Y-5.2756
X5.3937Y-5.315
X5.4134Y-2.0315
X5.4134Y-2.0551
X5.4134Y-2.1299
X5.4134Y-2.1535
X5.4331Y-5.1969
X5.4331Y-5.2362
X5.4331Y-5.2756
X5.4331Y-5.315
X5.4449Y-4.2795
X5.4449Y-4.3189
X5.4602Y-5.4197
X5.4602Y-5.4433
X5.4724Y-5.1969
X5.4724Y-5.2362
X5.4724Y-5.2756
X5.4724Y-5.315
X5.4839Y-5.3921
X5.4839Y-5.4197
X5.4839Y-5.4433
X5.4882Y-4.2795
X5.4882Y-4.3189
X5.5118Y-5.1969
X5.5118Y-5.2362
X5.5118Y-5.2756
X5.5118Y-5.315
X5.5787Y-2.0433
X5.5787Y-2.0709
X5.5787Y-2.0984
X5.5933Y-2.4457
X5.602Y-5.5575
X5.602Y-5.585
X5.602Y-5.6126
X5.6299Y-1.5945
X5.6299Y-1.6339
X5.6496Y-1.3976
X5.6496Y-1.8307
X5.6693Y-1.5945
X5.6693Y-1.6339
X5.6969Y-2.2126
X5.6969Y-2.2362
X5.6969Y-2.2638
X5.7087Y-1.5945
X5.7087Y-1.6339
X5.7205Y-2.2126
X5.7205Y-2.2362
X5.748Y-1.3976
X5.748Y-1.5945
X5.748Y-1.6339
X5.748Y-1.8307
X5.7673Y-5.5024
X5.7673Y-5.526
X5.7673Y-5.6008
X5.7673Y-5.6244
X5.7874Y-1.5945
X5.7874Y-1.6339
X5.811Y-4.0551
X5.8268Y-1.5945
X5.8268Y-1.6339
X5.8465Y-1.3976
X5.8465Y-1.8307
X5.8504Y-4.0551
X5.8622Y-2.0433
X5.8622Y-2.0709
X5.8622Y-2.0984
X5.8661Y-1.5945
X5.8661Y-1.6339
X5.8858Y-2.5827
X5.8858Y-2.6063
X5.8858Y-2.6811
X5.8858Y-2.7047
X5.9055Y-1.5945
X5.9055Y-1.6339
X5.9449Y-1.3976
X5.9449Y-1.5945
X5.9449Y-1.6339
X5.9449Y-1.8307
X5.9685Y-4.0157
X5.9685Y-4.0551
X5.9685Y-4.0945
X5.9843Y-1.5945
X5.9843Y-1.6339
X5.9882Y-2.0236
X5.9921Y-2.126
X6.0512Y-2.5945
X6.0512Y-2.622
X6.0512Y-2.6496
X6.1693Y-2.7638
X6.1693Y-2.7874
X6.1693Y-2.815
X6.1772Y-4.1929
X6.1929Y-2.7638
X6.1929Y-2.7874
X6.3346Y-2.5945
X6.3346Y-2.622
X6.3346Y-2.6496
X6.3898Y-2.2717
X6.3898Y-2.311
X6.4331Y-2.2717
X6.4331Y-2.311
X6.4606Y-2.5748
X6.4646Y-2.6772
X6.6311Y-4.585
X6.6626Y-4.6606
X6.6626Y-4.687
X6.6701Y-4.7295
X6.7276Y-4.5486
X6.739Y-4.4035
X6.8059Y-4.626
X6.8354Y-4.4402
X6.8358Y-4.3524
X6.8386Y-4.6244
X6.8634Y-4.6642
X6.8646Y-4.7016
X6.8662Y-3.9541
X6.8662Y-4.0305
X6.8773Y-4.4806
X6.8783Y-4.5134
X6.8988Y-4.6543
X6.9043Y-4.2677
X6.9299Y-4.3543
X6.9531Y-5.2547
X6.9551Y-5.6051
X6.9571Y-5.5087
X6.961Y-4.1913
X6.9681Y-4.7228
X7.0177Y-4.2677
X7.0209Y-3.9541
X7.0354Y-2.0315
X7.0354Y-2.0551
X7.0354Y-2.1299
X7.0354Y-2.1535
X7.0724Y-4.9016
X7.1291Y-4.7961
X7.2008Y-2.0433
X7.2008Y-2.0709
X7.2008Y-2.0984
X7.2091Y-3.5874
X7.2091Y-3.9878
X7.278Y-3.5598
X7.278Y-4.0153
X7.2949Y-4.3606
X7.302Y-3.4913
X7.3063Y-4.0831
X7.3189Y-2.2126
X7.3189Y-2.2362
X7.3189Y-2.2638
X7.3425Y-2.2126
X7.3425Y-2.2362
X7.3606Y-3.4004
X7.3606Y-4.1748
X7.4315Y-3.5598
X7.4315Y-4.0153
X7.4661Y-4.3831
X7.4843Y-2.0433
X7.4843Y-2.0709
X7.4843Y-2.0984
X7.5Y-2.5827
X7.5Y-2.6063
X7.5Y-2.6811
X7.5Y-2.7047
X7.5122Y-3.5697
X7.5122Y-4.0055
X7.5185Y-4.0972
X7.5209Y-3.4894
X7.5772Y-3.4004
X7.5772Y-4.1748
X7.5886Y-4.4335
X7.5886Y-4.65
X7.5886Y-5.0213
X7.5886Y-5.2378
X7.6102Y-2.0236
X7.6142Y-2.126
X7.65Y-3.5795
X7.65Y-3.9956
X7.6654Y-2.5945
X7.6654Y-2.622
X7.6654Y-2.6496
X7.6724Y-4.5965
X7.6776Y-3.5795
X7.6776Y-3.9956
X7.6815Y-5.1815
X7.685Y-4.3776
X7.6886Y-4.9646
X7.7481Y-4.3508
X7.7481Y-4.5043
X7.7481Y-4.9386
X7.7559Y-2.9724
X7.7559Y-3.0118
X7.7559Y-3.0512
X7.7559Y-3.0906
X7.7559Y-3.1299
X7.7559Y-3.1693
X7.7559Y-3.9961
X7.7559Y-4.0354
X7.7559Y-4.0748
X7.7559Y-4.1142
X7.7559Y-4.1535
X7.7559Y-4.1929
X7.7579Y-4.585
X7.76Y-4.7088
X7.7626Y-5.1394
X7.763Y-5.3016
X7.7681Y-4.7701
X7.7756Y-4.2819
X7.7756Y-4.8697
X7.7835Y-2.7638
X7.7835Y-2.7874
X7.7835Y-2.815
X7.7953Y-2.9724
X7.7953Y-3.0118
X7.7953Y-3.0512
X7.7953Y-3.0906
X7.7953Y-3.1299
X7.7953Y-3.1693
X7.7953Y-3.9961
X7.7953Y-4.0354
X7.7953Y-4.0748
X7.7953Y-4.1142
X7.7953Y-4.1535
X7.7953Y-4.1929
X7.8071Y-2.7638
X7.8071Y-2.7874
X7.8346Y-2.9724
X7.8346Y-3.0118
X7.8346Y-3.0512
X7.8346Y-3.0906
X7.8346Y-3.1299
X7.8346Y-3.1693
X7.8346Y-3.9961
X7.8346Y-4.0354
X7.8346Y-4.0748
X7.8346Y-4.1142
X7.8346Y-4.1535
X7.8346Y-4.1929
X7.874Y-2.9724
X7.874Y-3.0118
X7.874Y-3.0512
X7.874Y-3.0906
X7.874Y-3.1299
X7.874Y-3.1693
X7.874Y-3.9961
X7.874Y-4.0354
X7.874Y-4.0748
X7.874Y-4.1142
X7.874Y-4.1535
X7.874Y-4.1929
X7.9488Y-2.5945
X7.9488Y-2.622
X7.9488Y-2.6496
X8.0748Y-2.5748
X8.0787Y-2.6772
X8.176Y-4.2819
X8.176Y-4.8697
X8.1781Y-4.7085
X8.1935Y-5.2909
X8.1935Y-5.35
X8.1937Y-4.585
X8.1937Y-4.7787
X8.1937Y-5.1728
X8.2035Y-4.3508
X8.2035Y-4.5043
X8.2035Y-4.9386
X8.2035Y-5.0921
X8.2484Y-5.2953
X8.2634Y-4.9705
X8.2744Y-4.3772
X8.2776Y-4.5957
X8.363Y-4.4335
X8.363Y-4.65
X8.363Y-5.0213
X8.363Y-5.2378
T2
X4.2272Y-3.8858
X4.3272Y-3.8858
X4.4272Y-3.8858
X4.5028Y-2.9409
X4.6028Y-2.9409
X4.6996Y-4.3976
X4.7028Y-2.9409
X4.7996Y-4.3976
X4.8996Y-4.3976
X5.6445Y-2.3898
X5.7445Y-2.3898
X5.8445Y-2.3898
X6.1244Y-4.0354
X6.2244Y-4.0354
X6.3244Y-4.0354
T3
X4.7579Y-3.6614
X4.8055Y-5.4906
X4.8579Y-3.6614
X4.9055Y-5.4906
X4.9579Y-3.6614
X5.0055Y-5.4906
X5.0335Y-2.7165
X5.1335Y-2.7165
X5.2303Y-4.1732
X5.2335Y-2.7165
X5.3303Y-4.1732
X5.4303Y-4.1732
X5.7301Y-3.7992
X5.8301Y-3.7992
X5.9301Y-3.7992
X6.1644Y-3.7992
X6.1752Y-2.1654
X6.2644Y-3.7992
X6.2752Y-2.1654
X6.3644Y-3.7992
X6.3752Y-2.1654
X6.6478Y-2.7165
X6.7478Y-2.7165
X6.8478Y-2.7165
X6.8531Y-5.0657
X6.9531Y-5.0657
X7.0531Y-5.0657
X7.1047Y-3.8254
X7.1047Y-3.9254
X7.1047Y-4.0254
X7.7976Y-2.1654
X7.8976Y-2.1654
X7.9976Y-2.1654
X8.2622Y-2.7165
X8.3622Y-2.7165
X8.4622Y-2.7165
X8.8335Y-2.5067
X8.8335Y-2.6067
X8.8335Y-2.7067
X8.8335Y-2.8067
X8.8335Y-2.9067
X8.8335Y-3.0067
X8.8335Y-3.1067
X8.8335Y-3.2067
X8.8335Y-3.3067
X8.8335Y-3.4067
X8.8335Y-3.5067
X8.8335Y-3.6067
X8.8335Y-3.7067
X8.8335Y-3.8067
X8.8335Y-3.9067
X8.8335Y-4.0067
X8.8335Y-4.1067
X8.8335Y-4.2067
X8.8335Y-4.3067
X8.8335Y-4.4067
X8.8335Y-4.5067
X8.8335Y-4.6067
X8.8335Y-4.7067
X8.8335Y-4.8067
X8.8335Y-4.9067
X8.8335Y-5.0067
X8.8335Y-5.1067
X8.8335Y-5.2067
X8.8335Y-5.3067
X8.8335Y-5.4067
X8.8335Y-5.5067
X8.8335Y-5.6067
X8.8335Y-5.7067
X8.8335Y-5.8067
X8.9335Y-2.5067
X8.9335Y-2.6067
X8.9335Y-2.7067
X8.9335Y-2.8067
X8.9335Y-2.9067
X8.9335Y-3.0067
X8.9335Y-3.1067
X8.9335Y-3.2067
X8.9335Y-3.3067
X8.9335Y-3.4067
X8.9335Y-3.5067
X8.9335Y-3.6067
X8.9335Y-3.7067
X8.9335Y-3.8067
X8.9335Y-3.9067
X8.9335Y-4.0067
X8.9335Y-4.1067
X8.9335Y-4.2067
X8.9335Y-4.3067
X8.9335Y-4.4067
X8.9335Y-4.5067
X8.9335Y-4.6067
X8.9335Y-4.7067
X8.9335Y-4.8067
X8.9335Y-4.9067
X8.9335Y-5.0067
X8.9335Y-5.1067
X8.9335Y-5.2067
X8.9335Y-5.3067
X8.9335Y-5.4067
X8.9335Y-5.5067
X8.9335Y-5.6067
X8.9335Y-5.7067
X8.9335Y-5.8067
T4
X4.8701Y-3.2598
X4.8933Y-5.8921
X5.1457Y-2.315
X5.1898Y-1.624
X5.3425Y-3.7717
X6.0441Y-3.4949
X6.2874Y-1.7638
X6.7598Y-2.315
X7.9094Y-1.7638
X8.374Y-2.315
T5
X5.7803Y-4.3512
X5.7803Y-4.5512
X5.8803Y-4.4512
X5.9803Y-4.3512
X5.9803Y-4.5512
X5.985Y-5.2312
X6.1265Y-5.0898
X6.1265Y-5.2312
X6.1265Y-5.3726
X6.2491Y-5.495
X6.2679Y-5.2312
X6.3906Y-5.3535
X6.3906Y-5.495
X6.3906Y-5.6364
X6.532Y-5.495
T6
X4.6094Y-3.9016
X4.7701Y-3.1598
X4.7701Y-3.3598
X4.7933Y-5.7921
X4.7933Y-5.9921
X4.8583Y-3.9016
X4.8854Y-2.9567
X4.9051Y-5.2504
X4.9701Y-3.1598
X4.9701Y-3.3598
X4.9933Y-5.7921
X4.9933Y-5.9921
X5.0457Y-2.215
X5.0457Y-2.415
X5.0819Y-4.4134
X5.0898Y-1.524
X5.0898Y-1.724
X5.1339Y-2.9567
X5.1535Y-5.2504
X5.2425Y-3.6717
X5.2425Y-3.8717
X5.2457Y-2.215
X5.2457Y-2.415
X5.2898Y-1.524
X5.2898Y-1.724
X5.3307Y-4.4134
X5.4425Y-3.6717
X5.4425Y-3.8717
X5.5315Y-1.3583
X5.5315Y-1.8701
X5.9441Y-3.3949
X5.9441Y-3.5949
X6.0268Y-2.4055
X6.1441Y-3.3949
X6.1441Y-3.5949
X6.1874Y-1.6638
X6.1874Y-1.8638
X6.2756Y-2.4055
X6.3874Y-1.6638
X6.3874Y-1.8638
X6.5Y-2.9567
X6.6598Y-2.215
X6.6598Y-2.415
X6.748Y-2.9567
X6.8598Y-2.215
X6.8598Y-2.415
X7.3417Y-4.8693
X7.3421Y-5.0917
X7.5051Y-4.8697
X7.5051Y-5.0917
X7.6496Y-2.4055
X7.8094Y-1.6638
X7.8094Y-1.8638
X7.898Y-2.4055
X8.0094Y-1.6638
X8.0094Y-1.8638
X8.1142Y-2.9567
X8.274Y-2.215
X8.274Y-2.415
X8.3622Y-2.9567
X8.474Y-2.215
X8.474Y-2.415
T0
M30
