%TF.GenerationSoftware,KiCad,Pcbnew,7.0.1-0*%
%TF.CreationDate,2023-04-17T18:56:10+01:00*%
%TF.ProjectId,cyborg65r2_pcb,6379626f-7267-4363-9572-325f7063622e,rev?*%
%TF.SameCoordinates,Original*%
%TF.FileFunction,Copper,L1,Top*%
%TF.FilePolarity,Positive*%
%FSLAX46Y46*%
G04 Gerber Fmt 4.6, Leading zero omitted, Abs format (unit mm)*
G04 Created by KiCad (PCBNEW 7.0.1-0) date 2023-04-17 18:56:10*
%MOMM*%
%LPD*%
G01*
G04 APERTURE LIST*
G04 Aperture macros list*
%AMRoundRect*
0 Rectangle with rounded corners*
0 $1 Rounding radius*
0 $2 $3 $4 $5 $6 $7 $8 $9 X,Y pos of 4 corners*
0 Add a 4 corners polygon primitive as box body*
4,1,4,$2,$3,$4,$5,$6,$7,$8,$9,$2,$3,0*
0 Add four circle primitives for the rounded corners*
1,1,$1+$1,$2,$3*
1,1,$1+$1,$4,$5*
1,1,$1+$1,$6,$7*
1,1,$1+$1,$8,$9*
0 Add four rect primitives between the rounded corners*
20,1,$1+$1,$2,$3,$4,$5,0*
20,1,$1+$1,$4,$5,$6,$7,0*
20,1,$1+$1,$6,$7,$8,$9,0*
20,1,$1+$1,$8,$9,$2,$3,0*%
G04 Aperture macros list end*
%TA.AperFunction,ComponentPad*%
%ADD10R,1.785000X1.785000*%
%TD*%
%TA.AperFunction,ComponentPad*%
%ADD11C,2.400000*%
%TD*%
%TA.AperFunction,SMDPad,CuDef*%
%ADD12R,0.890000X1.020000*%
%TD*%
%TA.AperFunction,SMDPad,CuDef*%
%ADD13RoundRect,0.250000X0.250000X0.475000X-0.250000X0.475000X-0.250000X-0.475000X0.250000X-0.475000X0*%
%TD*%
%TA.AperFunction,SMDPad,CuDef*%
%ADD14RoundRect,0.250000X-0.250000X-0.475000X0.250000X-0.475000X0.250000X0.475000X-0.250000X0.475000X0*%
%TD*%
%TA.AperFunction,SMDPad,CuDef*%
%ADD15RoundRect,0.250000X-0.475000X0.250000X-0.475000X-0.250000X0.475000X-0.250000X0.475000X0.250000X0*%
%TD*%
%TA.AperFunction,SMDPad,CuDef*%
%ADD16RoundRect,0.100000X0.625000X0.100000X-0.625000X0.100000X-0.625000X-0.100000X0.625000X-0.100000X0*%
%TD*%
%TA.AperFunction,SMDPad,CuDef*%
%ADD17R,1.650000X2.850000*%
%TD*%
%TA.AperFunction,SMDPad,CuDef*%
%ADD18RoundRect,0.250000X-0.262500X-0.450000X0.262500X-0.450000X0.262500X0.450000X-0.262500X0.450000X0*%
%TD*%
%TA.AperFunction,ComponentPad*%
%ADD19C,1.240000*%
%TD*%
%TA.AperFunction,ComponentPad*%
%ADD20R,1.700000X1.700000*%
%TD*%
%TA.AperFunction,ComponentPad*%
%ADD21O,1.700000X1.700000*%
%TD*%
%TA.AperFunction,SMDPad,CuDef*%
%ADD22RoundRect,0.100000X-0.625000X-0.100000X0.625000X-0.100000X0.625000X0.100000X-0.625000X0.100000X0*%
%TD*%
%TA.AperFunction,SMDPad,CuDef*%
%ADD23RoundRect,0.225000X0.225000X0.250000X-0.225000X0.250000X-0.225000X-0.250000X0.225000X-0.250000X0*%
%TD*%
%TA.AperFunction,SMDPad,CuDef*%
%ADD24RoundRect,0.250000X0.262500X0.450000X-0.262500X0.450000X-0.262500X-0.450000X0.262500X-0.450000X0*%
%TD*%
%TA.AperFunction,SMDPad,CuDef*%
%ADD25R,1.475000X0.300000*%
%TD*%
%TA.AperFunction,SMDPad,CuDef*%
%ADD26RoundRect,0.225000X-0.250000X0.225000X-0.250000X-0.225000X0.250000X-0.225000X0.250000X0.225000X0*%
%TD*%
%TA.AperFunction,SMDPad,CuDef*%
%ADD27RoundRect,0.250000X0.475000X-0.250000X0.475000X0.250000X-0.475000X0.250000X-0.475000X-0.250000X0*%
%TD*%
%TA.AperFunction,ComponentPad*%
%ADD28C,2.250000*%
%TD*%
%TA.AperFunction,SMDPad,CuDef*%
%ADD29RoundRect,0.150000X-0.150000X-0.200000X0.150000X-0.200000X0.150000X0.200000X-0.150000X0.200000X0*%
%TD*%
%TA.AperFunction,SMDPad,CuDef*%
%ADD30C,0.500000*%
%TD*%
%TA.AperFunction,SMDPad,CuDef*%
%ADD31RoundRect,0.062500X-0.375000X-0.062500X0.375000X-0.062500X0.375000X0.062500X-0.375000X0.062500X0*%
%TD*%
%TA.AperFunction,SMDPad,CuDef*%
%ADD32RoundRect,0.062500X-0.062500X-0.375000X0.062500X-0.375000X0.062500X0.375000X-0.062500X0.375000X0*%
%TD*%
%TA.AperFunction,SMDPad,CuDef*%
%ADD33R,5.900000X5.900000*%
%TD*%
%TA.AperFunction,SMDPad,CuDef*%
%ADD34R,1.400000X2.100000*%
%TD*%
%TA.AperFunction,SMDPad,CuDef*%
%ADD35R,0.880000X2.810000*%
%TD*%
%TA.AperFunction,SMDPad,CuDef*%
%ADD36R,0.300000X1.475000*%
%TD*%
%TA.AperFunction,SMDPad,CuDef*%
%ADD37RoundRect,0.150000X0.150000X0.200000X-0.150000X0.200000X-0.150000X-0.200000X0.150000X-0.200000X0*%
%TD*%
%TA.AperFunction,SMDPad,CuDef*%
%ADD38RoundRect,0.200000X0.200000X0.275000X-0.200000X0.275000X-0.200000X-0.275000X0.200000X-0.275000X0*%
%TD*%
%TA.AperFunction,ViaPad*%
%ADD39C,0.500000*%
%TD*%
%TA.AperFunction,Conductor*%
%ADD40C,0.750000*%
%TD*%
%TA.AperFunction,Conductor*%
%ADD41C,0.400000*%
%TD*%
%TA.AperFunction,Conductor*%
%ADD42C,0.256000*%
%TD*%
%TA.AperFunction,Conductor*%
%ADD43C,0.127000*%
%TD*%
%TA.AperFunction,Conductor*%
%ADD44C,0.300000*%
%TD*%
%TA.AperFunction,Conductor*%
%ADD45C,0.500000*%
%TD*%
%TA.AperFunction,Conductor*%
%ADD46C,1.000000*%
%TD*%
%TA.AperFunction,Conductor*%
%ADD47C,0.210000*%
%TD*%
%TA.AperFunction,Conductor*%
%ADD48C,0.166000*%
%TD*%
%TA.AperFunction,Conductor*%
%ADD49C,2.000000*%
%TD*%
G04 APERTURE END LIST*
D10*
%TO.P,J19,1,CNTR*%
%TO.N,Net-(J19-CNTR)*%
X130700000Y-58800000D03*
D11*
%TO.P,J19,2,GND*%
%TO.N,GND*%
X128160000Y-61340000D03*
%TO.P,J19,3,GND*%
X133240000Y-61340000D03*
%TO.P,J19,4,GND*%
X133240000Y-56260000D03*
%TO.P,J19,5,GND*%
X128160000Y-56260000D03*
%TD*%
D12*
%TO.P,L5,1*%
%TO.N,VDDCCO*%
X160984000Y-57970000D03*
%TO.P,L5,2*%
%TO.N,Net-(J32-Pin_2)*%
X159356000Y-57970000D03*
%TD*%
D10*
%TO.P,J26,1,CNTR*%
%TO.N,Net-(J26-CNTR)*%
X123700000Y-82800000D03*
D11*
%TO.P,J26,2,GND*%
%TO.N,GND*%
X121160000Y-85340000D03*
%TO.P,J26,3,GND*%
X126240000Y-85340000D03*
%TO.P,J26,4,GND*%
X126240000Y-80260000D03*
%TO.P,J26,5,GND*%
X121160000Y-80260000D03*
%TD*%
D13*
%TO.P,C51,1*%
%TO.N,VDDD2P5*%
X195950000Y-127540000D03*
%TO.P,C51,2*%
%TO.N,GND*%
X194050000Y-127540000D03*
%TD*%
D11*
%TO.P,J42,1,PRB*%
%TO.N,/CLKRS*%
X186480000Y-123680000D03*
%TD*%
D14*
%TO.P,C35,1*%
%TO.N,/VDDACORE/VDDOSC_INT*%
X126250000Y-103700000D03*
%TO.P,C35,2*%
%TO.N,GND*%
X128150000Y-103700000D03*
%TD*%
D15*
%TO.P,C7,1*%
%TO.N,VDDD2P5*%
X179640000Y-121320000D03*
%TO.P,C7,2*%
%TO.N,GND*%
X179640000Y-123220000D03*
%TD*%
D16*
%TO.P,U5,1,IN*%
%TO.N,VDDEXT*%
X140815000Y-142510000D03*
%TO.P,U5,2,IN*%
X140815000Y-141860000D03*
%TO.P,U5,3,IN*%
X140815000Y-141210000D03*
%TO.P,U5,4,EN/UV*%
X140815000Y-140560000D03*
%TO.P,U5,5,PG*%
%TO.N,unconnected-(U5-PG-Pad5)*%
X140815000Y-139910000D03*
%TO.P,U5,6,ILIM*%
%TO.N,Net-(U5-ILIM)*%
X140815000Y-139260000D03*
%TO.P,U5,7,PGFB*%
%TO.N,Net-(D4-K)*%
X136515000Y-139260000D03*
%TO.P,U5,8,SET*%
%TO.N,Net-(U5-SET)*%
X136515000Y-139910000D03*
%TO.P,U5,9,GND*%
%TO.N,GND*%
X136515000Y-140560000D03*
%TO.P,U5,10,OUTS*%
%TO.N,/VDDA2P5/VDDA2P5_INT*%
X136515000Y-141210000D03*
%TO.P,U5,11,OUT*%
X136515000Y-141860000D03*
%TO.P,U5,12,OUT*%
X136515000Y-142510000D03*
D17*
%TO.P,U5,13,GND*%
%TO.N,GND*%
X138665000Y-140885000D03*
%TD*%
D18*
%TO.P,R10,1*%
%TO.N,Net-(U7-ILIM)*%
X117787500Y-107900000D03*
%TO.P,R10,2*%
%TO.N,GND*%
X119612500Y-107900000D03*
%TD*%
D11*
%TO.P,J9,1,PRB*%
%TO.N,VDDD1P2*%
X171400000Y-75100000D03*
%TD*%
%TO.P,J21,1,PRB*%
%TO.N,VDDOSC*%
X135400000Y-112100000D03*
%TD*%
D14*
%TO.P,C20,1*%
%TO.N,/VDDD1P2/VDD1P2_INT*%
X162250000Y-66700000D03*
%TO.P,C20,2*%
%TO.N,GND*%
X164150000Y-66700000D03*
%TD*%
D19*
%TO.P,VR2,1,CCW*%
%TO.N,Net-(U7-SET)*%
X119370000Y-111700000D03*
%TO.P,VR2,2,WIPER*%
%TO.N,GND*%
X121910000Y-111700000D03*
%TO.P,VR2,3,CW*%
%TO.N,unconnected-(VR2-CW-Pad3)*%
X124450000Y-111700000D03*
%TD*%
D18*
%TO.P,R4,1*%
%TO.N,Net-(U3-SET)*%
X190587500Y-56800000D03*
%TO.P,R4,2*%
%TO.N,GND*%
X192412500Y-56800000D03*
%TD*%
D15*
%TO.P,C48,1*%
%TO.N,VDDEXT*%
X151000000Y-43000000D03*
%TO.P,C48,2*%
%TO.N,GND*%
X151000000Y-44900000D03*
%TD*%
D20*
%TO.P,J38,1,Pin_1*%
%TO.N,Net-(J36-Pin_1)*%
X150625000Y-96500000D03*
D21*
%TO.P,J38,2,Pin_2*%
%TO.N,/IREF*%
X148085000Y-96500000D03*
%TO.P,J38,3,Pin_3*%
%TO.N,/IREF/IREF_INT*%
X145545000Y-96500000D03*
%TD*%
D22*
%TO.P,U9,1,IN*%
%TO.N,VDDEXT*%
X143175000Y-51950000D03*
%TO.P,U9,2,IN*%
X143175000Y-52600000D03*
%TO.P,U9,3,IN*%
X143175000Y-53250000D03*
%TO.P,U9,4,EN/UV*%
X143175000Y-53900000D03*
%TO.P,U9,5,PG*%
%TO.N,unconnected-(U9-PG-Pad5)*%
X143175000Y-54550000D03*
%TO.P,U9,6,ILIM*%
%TO.N,Net-(U9-ILIM)*%
X143175000Y-55200000D03*
%TO.P,U9,7,PGFB*%
%TO.N,Net-(D8-K)*%
X147475000Y-55200000D03*
%TO.P,U9,8,SET*%
%TO.N,Net-(U9-SET)*%
X147475000Y-54550000D03*
%TO.P,U9,9,GND*%
%TO.N,GND*%
X147475000Y-53900000D03*
%TO.P,U9,10,OUTS*%
%TO.N,/VDDACORE/VDDCCO_INT*%
X147475000Y-53250000D03*
%TO.P,U9,11,OUT*%
X147475000Y-52600000D03*
%TO.P,U9,12,OUT*%
X147475000Y-51950000D03*
D17*
%TO.P,U9,13,GND*%
%TO.N,GND*%
X145325000Y-53575000D03*
%TD*%
D23*
%TO.P,C4,1*%
%TO.N,VREF*%
X170885000Y-116460000D03*
%TO.P,C4,2*%
%TO.N,GND*%
X169335000Y-116460000D03*
%TD*%
D24*
%TO.P,R17,1*%
%TO.N,VDDD2P5*%
X173472500Y-133470000D03*
%TO.P,R17,2*%
%TO.N,/RSTB*%
X171647500Y-133470000D03*
%TD*%
D13*
%TO.P,C24,1*%
%TO.N,/VDDA2P5/VDDA2P5_INT*%
X133740000Y-141760000D03*
%TO.P,C24,2*%
%TO.N,GND*%
X131840000Y-141760000D03*
%TD*%
D20*
%TO.P,J41,1,Pin_1*%
%TO.N,/SDA*%
X180460000Y-102245000D03*
D21*
%TO.P,J41,2,Pin_2*%
%TO.N,GND*%
X180460000Y-99705000D03*
%TO.P,J41,3,Pin_3*%
%TO.N,/SCL*%
X180460000Y-97165000D03*
%TD*%
D25*
%TO.P,U12,1,1DIR*%
%TO.N,GND*%
X198799000Y-124520000D03*
%TO.P,U12,2,1B1*%
%TO.N,/DOUT15*%
X198799000Y-125020000D03*
%TO.P,U12,3,1B2*%
%TO.N,/DOUT16*%
X198799000Y-125520000D03*
%TO.P,U12,4,GND_1*%
%TO.N,GND*%
X198799000Y-126020000D03*
%TO.P,U12,5,1B3*%
%TO.N,/DOUT17*%
X198799000Y-126520000D03*
%TO.P,U12,6,1B4*%
%TO.N,/DOUT18*%
X198799000Y-127020000D03*
%TO.P,U12,7,VCCB_1*%
%TO.N,VDDD2P5*%
X198799000Y-127520000D03*
%TO.P,U12,8,1B5*%
%TO.N,/CLKRS*%
X198799000Y-128020000D03*
%TO.P,U12,9,1B6*%
%TO.N,/CCOUT*%
X198799000Y-128520000D03*
%TO.P,U12,10,GND_2*%
%TO.N,GND*%
X198799000Y-129020000D03*
%TO.P,U12,11,1B7*%
X198799000Y-129520000D03*
%TO.P,U12,12,1B8*%
X198799000Y-130020000D03*
%TO.P,U12,13,2B1*%
X198799000Y-130520000D03*
%TO.P,U12,14,2B2*%
X198799000Y-131020000D03*
%TO.P,U12,15,GND_3*%
X198799000Y-131520000D03*
%TO.P,U12,16,2B3*%
X198799000Y-132020000D03*
%TO.P,U12,17,2B4*%
X198799000Y-132520000D03*
%TO.P,U12,18,VCCB_2*%
%TO.N,VDDD2P5*%
X198799000Y-133020000D03*
%TO.P,U12,19,2B5*%
%TO.N,GND*%
X198799000Y-133520000D03*
%TO.P,U12,20,2B6*%
X198799000Y-134020000D03*
%TO.P,U12,21,GND_4*%
X198799000Y-134520000D03*
%TO.P,U12,22,2B7*%
X198799000Y-135020000D03*
%TO.P,U12,23,2B8*%
X198799000Y-135520000D03*
%TO.P,U12,24,2DIR*%
X198799000Y-136020000D03*
%TO.P,U12,25,2~{OE}*%
X206375000Y-136020000D03*
%TO.P,U12,26,2A8*%
%TO.N,unconnected-(U12-2A8-Pad26)*%
X206375000Y-135520000D03*
%TO.P,U12,27,2A7*%
%TO.N,unconnected-(U12-2A7-Pad27)*%
X206375000Y-135020000D03*
%TO.P,U12,28,GND_5*%
%TO.N,GND*%
X206375000Y-134520000D03*
%TO.P,U12,29,2A6*%
%TO.N,unconnected-(U12-2A6-Pad29)*%
X206375000Y-134020000D03*
%TO.P,U12,30,2A5*%
%TO.N,unconnected-(U12-2A5-Pad30)*%
X206375000Y-133520000D03*
%TO.P,U12,31,VCCA_1*%
%TO.N,VDD3P3*%
X206375000Y-133020000D03*
%TO.P,U12,32,2A4*%
%TO.N,unconnected-(U12-2A4-Pad32)*%
X206375000Y-132520000D03*
%TO.P,U12,33,2A3*%
%TO.N,unconnected-(U12-2A3-Pad33)*%
X206375000Y-132020000D03*
%TO.P,U12,34,GND_6*%
%TO.N,GND*%
X206375000Y-131520000D03*
%TO.P,U12,35,2A2*%
%TO.N,unconnected-(U12-2A2-Pad35)*%
X206375000Y-131020000D03*
%TO.P,U12,36,2A1*%
%TO.N,unconnected-(U12-2A1-Pad36)*%
X206375000Y-130520000D03*
%TO.P,U12,37,1A8*%
%TO.N,unconnected-(U12-1A8-Pad37)*%
X206375000Y-130020000D03*
%TO.P,U12,38,1A7*%
%TO.N,unconnected-(U12-1A7-Pad38)*%
X206375000Y-129520000D03*
%TO.P,U12,39,GND_7*%
%TO.N,GND*%
X206375000Y-129020000D03*
%TO.P,U12,40,1A6*%
%TO.N,unconnected-(U12-1A6-Pad40)*%
X206375000Y-128520000D03*
%TO.P,U12,41,1A5*%
%TO.N,unconnected-(U12-1A5-Pad41)*%
X206375000Y-128020000D03*
%TO.P,U12,42,VCCA_2*%
%TO.N,VDD3P3*%
X206375000Y-127520000D03*
%TO.P,U12,43,1A4*%
%TO.N,/DIGBUF_LEVSHIFT/DOUT_BUF18*%
X206375000Y-127020000D03*
%TO.P,U12,44,1A3*%
%TO.N,/DIGBUF_LEVSHIFT/DOUT_BUF17*%
X206375000Y-126520000D03*
%TO.P,U12,45,GND_8*%
%TO.N,GND*%
X206375000Y-126020000D03*
%TO.P,U12,46,1A2*%
%TO.N,/DIGBUF_LEVSHIFT/DOUT_BUF16*%
X206375000Y-125520000D03*
%TO.P,U12,47,1A1*%
%TO.N,/DIGBUF_LEVSHIFT/DOUT_BUF15*%
X206375000Y-125020000D03*
%TO.P,U12,48,1~{OE}*%
%TO.N,GND*%
X206375000Y-124520000D03*
%TD*%
D26*
%TO.P,C3,1*%
%TO.N,VDDA2P5*%
X173380000Y-118390000D03*
%TO.P,C3,2*%
%TO.N,GND*%
X173380000Y-119940000D03*
%TD*%
D13*
%TO.P,C53,1*%
%TO.N,VDDD2P5*%
X195680000Y-118110000D03*
%TO.P,C53,2*%
%TO.N,GND*%
X193780000Y-118110000D03*
%TD*%
D11*
%TO.P,J1,1,PRB*%
%TO.N,VDD3P3*%
X212400000Y-75100000D03*
%TD*%
D25*
%TO.P,U11,1,1DIR*%
%TO.N,GND*%
X198805000Y-109590000D03*
%TO.P,U11,2,1B1*%
%TO.N,/CLKOUT*%
X198805000Y-110090000D03*
%TO.P,U11,3,1B2*%
%TO.N,/DOUT0*%
X198805000Y-110590000D03*
%TO.P,U11,4,GND_1*%
%TO.N,GND*%
X198805000Y-111090000D03*
%TO.P,U11,5,1B3*%
%TO.N,/DOUT1*%
X198805000Y-111590000D03*
%TO.P,U11,6,1B4*%
%TO.N,/DOUT2*%
X198805000Y-112090000D03*
%TO.P,U11,7,VCCB_1*%
%TO.N,VDDD2P5*%
X198805000Y-112590000D03*
%TO.P,U11,8,1B5*%
%TO.N,/DOUT3*%
X198805000Y-113090000D03*
%TO.P,U11,9,1B6*%
%TO.N,/DOUT4*%
X198805000Y-113590000D03*
%TO.P,U11,10,GND_2*%
%TO.N,GND*%
X198805000Y-114090000D03*
%TO.P,U11,11,1B7*%
%TO.N,/DOUT5*%
X198805000Y-114590000D03*
%TO.P,U11,12,1B8*%
%TO.N,/DOUT6*%
X198805000Y-115090000D03*
%TO.P,U11,13,2B1*%
%TO.N,/DOUT7*%
X198805000Y-115590000D03*
%TO.P,U11,14,2B2*%
%TO.N,/DOUT8*%
X198805000Y-116090000D03*
%TO.P,U11,15,GND_3*%
%TO.N,GND*%
X198805000Y-116590000D03*
%TO.P,U11,16,2B3*%
%TO.N,/DOUT9*%
X198805000Y-117090000D03*
%TO.P,U11,17,2B4*%
%TO.N,/DOUT10*%
X198805000Y-117590000D03*
%TO.P,U11,18,VCCB_2*%
%TO.N,VDDD2P5*%
X198805000Y-118090000D03*
%TO.P,U11,19,2B5*%
%TO.N,/DOUT11*%
X198805000Y-118590000D03*
%TO.P,U11,20,2B6*%
%TO.N,/DOUT12*%
X198805000Y-119090000D03*
%TO.P,U11,21,GND_4*%
%TO.N,GND*%
X198805000Y-119590000D03*
%TO.P,U11,22,2B7*%
%TO.N,/DOUT13*%
X198805000Y-120090000D03*
%TO.P,U11,23,2B8*%
%TO.N,/DOUT14*%
X198805000Y-120590000D03*
%TO.P,U11,24,2DIR*%
%TO.N,GND*%
X198805000Y-121090000D03*
%TO.P,U11,25,2~{OE}*%
X206381000Y-121090000D03*
%TO.P,U11,26,2A8*%
%TO.N,/DIGBUF_LEVSHIFT/DOUT_BUF14*%
X206381000Y-120590000D03*
%TO.P,U11,27,2A7*%
%TO.N,/DIGBUF_LEVSHIFT/DOUT_BUF13*%
X206381000Y-120090000D03*
%TO.P,U11,28,GND_5*%
%TO.N,GND*%
X206381000Y-119590000D03*
%TO.P,U11,29,2A6*%
%TO.N,/DIGBUF_LEVSHIFT/DOUT_BUF12*%
X206381000Y-119090000D03*
%TO.P,U11,30,2A5*%
%TO.N,/DIGBUF_LEVSHIFT/DOUT_BUF11*%
X206381000Y-118590000D03*
%TO.P,U11,31,VCCA_1*%
%TO.N,VDD3P3*%
X206381000Y-118090000D03*
%TO.P,U11,32,2A4*%
%TO.N,/DIGBUF_LEVSHIFT/DOUT_BUF10*%
X206381000Y-117590000D03*
%TO.P,U11,33,2A3*%
%TO.N,/DIGBUF_LEVSHIFT/DOUT_BUF9*%
X206381000Y-117090000D03*
%TO.P,U11,34,GND_6*%
%TO.N,GND*%
X206381000Y-116590000D03*
%TO.P,U11,35,2A2*%
%TO.N,/DIGBUF_LEVSHIFT/DOUT_BUF8*%
X206381000Y-116090000D03*
%TO.P,U11,36,2A1*%
%TO.N,/DIGBUF_LEVSHIFT/DOUT_BUF7*%
X206381000Y-115590000D03*
%TO.P,U11,37,1A8*%
%TO.N,/DIGBUF_LEVSHIFT/DOUT_BUF6*%
X206381000Y-115090000D03*
%TO.P,U11,38,1A7*%
%TO.N,/DIGBUF_LEVSHIFT/DOUT_BUF5*%
X206381000Y-114590000D03*
%TO.P,U11,39,GND_7*%
%TO.N,GND*%
X206381000Y-114090000D03*
%TO.P,U11,40,1A6*%
%TO.N,/DIGBUF_LEVSHIFT/DOUT_BUF4*%
X206381000Y-113590000D03*
%TO.P,U11,41,1A5*%
%TO.N,/DIGBUF_LEVSHIFT/DOUT_BUF3*%
X206381000Y-113090000D03*
%TO.P,U11,42,VCCA_2*%
%TO.N,VDD3P3*%
X206381000Y-112590000D03*
%TO.P,U11,43,1A4*%
%TO.N,/DIGBUF_LEVSHIFT/DOUT_BUF2*%
X206381000Y-112090000D03*
%TO.P,U11,44,1A3*%
%TO.N,/DIGBUF_LEVSHIFT/DOUT_BUF1*%
X206381000Y-111590000D03*
%TO.P,U11,45,GND_8*%
%TO.N,GND*%
X206381000Y-111090000D03*
%TO.P,U11,46,1A2*%
%TO.N,/DIGBUF_LEVSHIFT/DOUT_BUF0*%
X206381000Y-110590000D03*
%TO.P,U11,47,1A1*%
%TO.N,/DIGBUF_LEVSHIFT/CLKOUT_BUF*%
X206381000Y-110090000D03*
%TO.P,U11,48,1~{OE}*%
%TO.N,GND*%
X206381000Y-109590000D03*
%TD*%
D14*
%TO.P,C21,1*%
%TO.N,VDDEXT*%
X143540000Y-142360000D03*
%TO.P,C21,2*%
%TO.N,GND*%
X145440000Y-142360000D03*
%TD*%
D12*
%TO.P,L4,1*%
%TO.N,VDDTQ*%
X124984000Y-95970000D03*
%TO.P,L4,2*%
%TO.N,Net-(J28-Pin_2)*%
X123356000Y-95970000D03*
%TD*%
D13*
%TO.P,C29,1*%
%TO.N,VDDEXT*%
X116450000Y-103100000D03*
%TO.P,C29,2*%
%TO.N,GND*%
X114550000Y-103100000D03*
%TD*%
D11*
%TO.P,J29,1,PRB*%
%TO.N,VDDCCO*%
X159400000Y-61100000D03*
%TD*%
D20*
%TO.P,J36,1,Pin_1*%
%TO.N,Net-(J36-Pin_1)*%
X156575000Y-96500000D03*
D21*
%TO.P,J36,2,Pin_2*%
%TO.N,Net-(J36-Pin_2)*%
X159115000Y-96500000D03*
%TO.P,J36,3,Pin_3*%
%TO.N,VDDCCO*%
X161655000Y-96500000D03*
%TD*%
D27*
%TO.P,C45,1*%
%TO.N,VDDEXT*%
X148500000Y-39000000D03*
%TO.P,C45,2*%
%TO.N,GND*%
X148500000Y-37100000D03*
%TD*%
D15*
%TO.P,C42,1*%
%TO.N,VDDEXT*%
X143500000Y-43000000D03*
%TO.P,C42,2*%
%TO.N,GND*%
X143500000Y-44900000D03*
%TD*%
D28*
%TO.P,J47,1,CNTR*%
%TO.N,Net-(J47-CNTR)*%
X149360000Y-113060000D03*
%TO.P,J47,2,GND*%
%TO.N,GND*%
X151900000Y-115600000D03*
%TO.P,J47,3,GND*%
X151900000Y-110520000D03*
%TO.P,J47,4,GND*%
X146820000Y-110520000D03*
%TO.P,J47,5,GND*%
X146820000Y-115600000D03*
%TD*%
D10*
%TO.P,J15,1,CNTR*%
%TO.N,Net-(J15-CNTR)*%
X124290000Y-149660000D03*
D11*
%TO.P,J15,2,GND*%
%TO.N,GND*%
X126830000Y-147120000D03*
%TO.P,J15,3,GND*%
X121750000Y-147120000D03*
%TO.P,J15,4,GND*%
X121750000Y-152200000D03*
%TO.P,J15,5,GND*%
X126830000Y-152200000D03*
%TD*%
D13*
%TO.P,C30,1*%
%TO.N,VDDEXT*%
X104450000Y-90100000D03*
%TO.P,C30,2*%
%TO.N,GND*%
X102550000Y-90100000D03*
%TD*%
D29*
%TO.P,D1,1,K*%
%TO.N,Net-(D1-K)*%
X200900000Y-70900000D03*
%TO.P,D1,2,A*%
%TO.N,VDDEXT*%
X199500000Y-70900000D03*
%TD*%
D13*
%TO.P,C25,1*%
%TO.N,VDDEXT*%
X111450000Y-66100000D03*
%TO.P,C25,2*%
%TO.N,GND*%
X109550000Y-66100000D03*
%TD*%
D11*
%TO.P,J17,1,PRB*%
%TO.N,VREF*%
X130400000Y-75100000D03*
%TD*%
D13*
%TO.P,C13,1*%
%TO.N,VDDEXT*%
X181650000Y-52240000D03*
%TO.P,C13,2*%
%TO.N,GND*%
X179750000Y-52240000D03*
%TD*%
D22*
%TO.P,U3,1,IN*%
%TO.N,VDDEXT*%
X184370000Y-51950000D03*
%TO.P,U3,2,IN*%
X184370000Y-52600000D03*
%TO.P,U3,3,IN*%
X184370000Y-53250000D03*
%TO.P,U3,4,EN/UV*%
X184370000Y-53900000D03*
%TO.P,U3,5,PG*%
%TO.N,unconnected-(U3-PG-Pad5)*%
X184370000Y-54550000D03*
%TO.P,U3,6,ILIM*%
%TO.N,Net-(U3-ILIM)*%
X184370000Y-55200000D03*
%TO.P,U3,7,PGFB*%
%TO.N,Net-(D2-K)*%
X188670000Y-55200000D03*
%TO.P,U3,8,SET*%
%TO.N,Net-(U3-SET)*%
X188670000Y-54550000D03*
%TO.P,U3,9,GND*%
%TO.N,GND*%
X188670000Y-53900000D03*
%TO.P,U3,10,OUTS*%
%TO.N,/VDDD2P5/VDDD2P5_INT*%
X188670000Y-53250000D03*
%TO.P,U3,11,OUT*%
X188670000Y-52600000D03*
%TO.P,U3,12,OUT*%
X188670000Y-51950000D03*
D17*
%TO.P,U3,13,GND*%
%TO.N,GND*%
X186520000Y-53575000D03*
%TD*%
D14*
%TO.P,C8,1*%
%TO.N,VDDD2P5*%
X186520000Y-111340000D03*
%TO.P,C8,2*%
%TO.N,GND*%
X188420000Y-111340000D03*
%TD*%
D18*
%TO.P,R5,1*%
%TO.N,Net-(U4-ILIM)*%
X153787500Y-70900000D03*
%TO.P,R5,2*%
%TO.N,GND*%
X155612500Y-70900000D03*
%TD*%
D11*
%TO.P,J2,1,PRB*%
%TO.N,GND*%
X206100000Y-75100000D03*
%TD*%
%TO.P,J23,1,PRB*%
%TO.N,VDDTQ*%
X123400000Y-99100000D03*
%TD*%
D30*
%TO.P,FID1,*%
%TO.N,*%
X121000000Y-61000000D03*
%TD*%
D31*
%TO.P,U1,1,SDA*%
%TO.N,/SDA*%
X176182500Y-111810000D03*
%TO.P,U1,2,NC*%
%TO.N,unconnected-(U1-NC-Pad2)*%
X176182500Y-112310000D03*
%TO.P,U1,3,SCL*%
%TO.N,/SCL*%
X176182500Y-112810000D03*
%TO.P,U1,4,RSTB*%
%TO.N,/RSTB*%
X176182500Y-113310000D03*
%TO.P,U1,5,VDDCCO*%
%TO.N,VDDCCO*%
X176182500Y-113810000D03*
%TO.P,U1,6,VSSA*%
%TO.N,GND*%
X176182500Y-114310000D03*
%TO.P,U1,7,IBIAS*%
%TO.N,/IREF*%
X176182500Y-114810000D03*
%TO.P,U1,8,IN*%
%TO.N,/IN*%
X176182500Y-115310000D03*
%TO.P,U1,9,VREF*%
%TO.N,VREF*%
X176182500Y-115810000D03*
%TO.P,U1,10,VDDOSC*%
%TO.N,VDDOSC*%
X176182500Y-116310000D03*
%TO.P,U1,11,VDDTQ*%
%TO.N,VDDTQ*%
X176182500Y-116810000D03*
%TO.P,U1,12,VDDIOA*%
%TO.N,VDDA2P5*%
X176182500Y-117310000D03*
%TO.P,U1,13,VSSIOA*%
%TO.N,GND*%
X176182500Y-117810000D03*
%TO.P,U1,14,CLKINP*%
%TO.N,/CLKIN_P*%
X176182500Y-118310000D03*
D32*
%TO.P,U1,15,CLKINN*%
%TO.N,/CLKIN_N*%
X176870000Y-118997500D03*
%TO.P,U1,16,VSSCNTRTP*%
%TO.N,GND*%
X177370000Y-118997500D03*
%TO.P,U1,17,RSTBCLK*%
%TO.N,/RSTBCLK*%
X177870000Y-118997500D03*
%TO.P,U1,18,CCOOUT*%
%TO.N,/CCOUT*%
X178370000Y-118997500D03*
%TO.P,U1,19,CLKRS*%
%TO.N,/CLKRS*%
X178870000Y-118997500D03*
%TO.P,U1,20,VDDIOD*%
%TO.N,VDDD2P5*%
X179370000Y-118997500D03*
%TO.P,U1,21,DOUT18*%
%TO.N,/DOUT18*%
X179870000Y-118997500D03*
%TO.P,U1,22,DOUT17*%
%TO.N,/DOUT17*%
X180370000Y-118997500D03*
%TO.P,U1,23,DOUT16*%
%TO.N,/DOUT16*%
X180870000Y-118997500D03*
%TO.P,U1,24,DOUT15*%
%TO.N,/DOUT15*%
X181370000Y-118997500D03*
%TO.P,U1,25,DOUT14*%
%TO.N,/DOUT14*%
X181870000Y-118997500D03*
%TO.P,U1,26,DOUT13*%
%TO.N,/DOUT13*%
X182370000Y-118997500D03*
%TO.P,U1,27,DOUT12*%
%TO.N,/DOUT12*%
X182870000Y-118997500D03*
%TO.P,U1,28,DOUT11*%
%TO.N,/DOUT11*%
X183370000Y-118997500D03*
D31*
%TO.P,U1,29,DOUT10*%
%TO.N,/DOUT10*%
X184057500Y-118310000D03*
%TO.P,U1,30,NC*%
%TO.N,unconnected-(U1-NC-Pad30)*%
X184057500Y-117810000D03*
%TO.P,U1,31,DOUT9*%
%TO.N,/DOUT9*%
X184057500Y-117310000D03*
%TO.P,U1,32,DOUT8*%
%TO.N,/DOUT8*%
X184057500Y-116810000D03*
%TO.P,U1,33,DOUT7*%
%TO.N,/DOUT7*%
X184057500Y-116310000D03*
%TO.P,U1,34,DOUT6*%
%TO.N,/DOUT6*%
X184057500Y-115810000D03*
%TO.P,U1,35,DOUT5*%
%TO.N,/DOUT5*%
X184057500Y-115310000D03*
%TO.P,U1,36,DOUT4*%
%TO.N,/DOUT4*%
X184057500Y-114810000D03*
%TO.P,U1,37,DOUT3*%
%TO.N,/DOUT3*%
X184057500Y-114310000D03*
%TO.P,U1,38,DOUT2*%
%TO.N,/DOUT2*%
X184057500Y-113810000D03*
%TO.P,U1,39,DOUT1*%
%TO.N,/DOUT1*%
X184057500Y-113310000D03*
%TO.P,U1,40,DOUT0*%
%TO.N,/DOUT0*%
X184057500Y-112810000D03*
%TO.P,U1,41,CLKOUT*%
%TO.N,/CLKOUT*%
X184057500Y-112310000D03*
%TO.P,U1,42,VDDIOD*%
%TO.N,VDDD2P5*%
X184057500Y-111810000D03*
D32*
%TO.P,U1,43,AUX0*%
%TO.N,/AUX0*%
X183370000Y-111122500D03*
%TO.P,U1,44,AUX1*%
%TO.N,/AUX1*%
X182870000Y-111122500D03*
%TO.P,U1,45,AUX2*%
%TO.N,/AUX2*%
X182370000Y-111122500D03*
%TO.P,U1,46,AUX3*%
%TO.N,/AUX3*%
X181870000Y-111122500D03*
%TO.P,U1,47,AUX4*%
%TO.N,/AUX4*%
X181370000Y-111122500D03*
%TO.P,U1,48,AUX5*%
%TO.N,/AUX5*%
X180870000Y-111122500D03*
%TO.P,U1,49,AUX6*%
%TO.N,/AUX6*%
X180370000Y-111122500D03*
%TO.P,U1,50,AUX7*%
%TO.N,/AUX7*%
X179870000Y-111122500D03*
%TO.P,U1,51,AUX8*%
%TO.N,/AUX8*%
X179370000Y-111122500D03*
%TO.P,U1,52,AUX9*%
%TO.N,/AUX9*%
X178870000Y-111122500D03*
%TO.P,U1,53,AUX10*%
%TO.N,/AUX10*%
X178370000Y-111122500D03*
%TO.P,U1,54,AUX11*%
%TO.N,/AUX11*%
X177870000Y-111122500D03*
%TO.P,U1,55,VDDD*%
%TO.N,VDDD1P2*%
X177370000Y-111122500D03*
%TO.P,U1,56,VSSD*%
%TO.N,GND*%
X176870000Y-111122500D03*
D33*
%TO.P,U1,57,VSSD*%
X180120000Y-115060000D03*
%TD*%
D29*
%TO.P,D3,1,K*%
%TO.N,Net-(D3-K)*%
X159900000Y-70900000D03*
%TO.P,D3,2,A*%
%TO.N,VDDEXT*%
X158500000Y-70900000D03*
%TD*%
D23*
%TO.P,C1,1*%
%TO.N,VDDCCO*%
X173620000Y-111850000D03*
%TO.P,C1,2*%
%TO.N,GND*%
X172070000Y-111850000D03*
%TD*%
D22*
%TO.P,U8,1,IN*%
%TO.N,VDDEXT*%
X107175000Y-89950000D03*
%TO.P,U8,2,IN*%
X107175000Y-90600000D03*
%TO.P,U8,3,IN*%
X107175000Y-91250000D03*
%TO.P,U8,4,EN/UV*%
X107175000Y-91900000D03*
%TO.P,U8,5,PG*%
%TO.N,unconnected-(U8-PG-Pad5)*%
X107175000Y-92550000D03*
%TO.P,U8,6,ILIM*%
%TO.N,Net-(U8-ILIM)*%
X107175000Y-93200000D03*
%TO.P,U8,7,PGFB*%
%TO.N,Net-(D7-K)*%
X111475000Y-93200000D03*
%TO.P,U8,8,SET*%
%TO.N,Net-(U8-SET)*%
X111475000Y-92550000D03*
%TO.P,U8,9,GND*%
%TO.N,GND*%
X111475000Y-91900000D03*
%TO.P,U8,10,OUTS*%
%TO.N,/VDDACORE/VDDTQ_INT*%
X111475000Y-91250000D03*
%TO.P,U8,11,OUT*%
X111475000Y-90600000D03*
%TO.P,U8,12,OUT*%
X111475000Y-89950000D03*
D17*
%TO.P,U8,13,GND*%
%TO.N,GND*%
X109325000Y-91575000D03*
%TD*%
D11*
%TO.P,J18,1,PRB*%
%TO.N,GND*%
X124090000Y-75100000D03*
%TD*%
D20*
%TO.P,J20,1,Pin_1*%
%TO.N,Net-(J19-CNTR)*%
X132930000Y-69000000D03*
D21*
%TO.P,J20,2,Pin_2*%
%TO.N,Net-(J20-Pin_2)*%
X130390000Y-69000000D03*
%TO.P,J20,3,Pin_3*%
%TO.N,/VREF/VREF_INT*%
X127850000Y-69000000D03*
%TD*%
D14*
%TO.P,C27,1*%
%TO.N,Net-(U6-SET)*%
X120350000Y-68800000D03*
%TO.P,C27,2*%
%TO.N,GND*%
X122250000Y-68800000D03*
%TD*%
D18*
%TO.P,R18,1*%
%TO.N,VDDD2P5*%
X179747500Y-133470000D03*
%TO.P,R18,2*%
%TO.N,/RSTBCLK*%
X181572500Y-133470000D03*
%TD*%
D11*
%TO.P,J13,1,PRB*%
%TO.N,VDDA2P5*%
X124590000Y-133360000D03*
%TD*%
D24*
%TO.P,R7,1*%
%TO.N,Net-(U5-ILIM)*%
X142202500Y-137560000D03*
%TO.P,R7,2*%
%TO.N,GND*%
X140377500Y-137560000D03*
%TD*%
D18*
%TO.P,R15,1*%
%TO.N,VDDD2P5*%
X175460000Y-102375000D03*
%TO.P,R15,2*%
%TO.N,/SCL*%
X177285000Y-102375000D03*
%TD*%
D15*
%TO.P,C52,1*%
%TO.N,VDDD2P5*%
X186960000Y-102840000D03*
%TO.P,C52,2*%
%TO.N,GND*%
X186960000Y-104740000D03*
%TD*%
D30*
%TO.P,FID2,*%
%TO.N,*%
X209000000Y-80000000D03*
%TD*%
D10*
%TO.P,J37,1,CNTR*%
%TO.N,Net-(J36-Pin_1)*%
X153520000Y-88770000D03*
D11*
%TO.P,J37,2,GND*%
%TO.N,GND*%
X150980000Y-91310000D03*
%TO.P,J37,3,GND*%
X156060000Y-91310000D03*
%TO.P,J37,4,GND*%
X156060000Y-86230000D03*
%TO.P,J37,5,GND*%
X150980000Y-86230000D03*
%TD*%
D34*
%TO.P,S2,1,B*%
%TO.N,/RSTBCLK*%
X183060000Y-136670000D03*
%TO.P,S2,2,B*%
X183060000Y-145770000D03*
%TO.P,S2,3,A*%
%TO.N,GND*%
X178260000Y-136670000D03*
%TO.P,S2,4,A*%
X178260000Y-145770000D03*
%TD*%
D20*
%TO.P,J48,1,Pin_1*%
%TO.N,/RSTB*%
X174070000Y-128670000D03*
D21*
%TO.P,J48,2,Pin_2*%
%TO.N,GND*%
X176610000Y-128670000D03*
%TO.P,J48,3,Pin_3*%
%TO.N,/RSTBCLK*%
X179150000Y-128670000D03*
%TD*%
D15*
%TO.P,C41,1*%
%TO.N,VDDEXT*%
X146000000Y-43000000D03*
%TO.P,C41,2*%
%TO.N,GND*%
X146000000Y-44900000D03*
%TD*%
D18*
%TO.P,R12,1*%
%TO.N,Net-(U9-ILIM)*%
X141787500Y-56900000D03*
%TO.P,R12,2*%
%TO.N,GND*%
X143612500Y-56900000D03*
%TD*%
D22*
%TO.P,U4,1,IN*%
%TO.N,VDDEXT*%
X155175000Y-65950000D03*
%TO.P,U4,2,IN*%
X155175000Y-66600000D03*
%TO.P,U4,3,IN*%
X155175000Y-67250000D03*
%TO.P,U4,4,EN/UV*%
X155175000Y-67900000D03*
%TO.P,U4,5,PG*%
%TO.N,unconnected-(U4-PG-Pad5)*%
X155175000Y-68550000D03*
%TO.P,U4,6,ILIM*%
%TO.N,Net-(U4-ILIM)*%
X155175000Y-69200000D03*
%TO.P,U4,7,PGFB*%
%TO.N,Net-(D3-K)*%
X159475000Y-69200000D03*
%TO.P,U4,8,SET*%
%TO.N,Net-(U4-SET)*%
X159475000Y-68550000D03*
%TO.P,U4,9,GND*%
%TO.N,GND*%
X159475000Y-67900000D03*
%TO.P,U4,10,OUTS*%
%TO.N,/VDDD1P2/VDD1P2_INT*%
X159475000Y-67250000D03*
%TO.P,U4,11,OUT*%
X159475000Y-66600000D03*
%TO.P,U4,12,OUT*%
X159475000Y-65950000D03*
D17*
%TO.P,U4,13,GND*%
%TO.N,GND*%
X157325000Y-67575000D03*
%TD*%
D11*
%TO.P,J14,1,PRB*%
%TO.N,GND*%
X130900000Y-133360000D03*
%TD*%
D13*
%TO.P,C31,1*%
%TO.N,VDDEXT*%
X116450000Y-105500000D03*
%TO.P,C31,2*%
%TO.N,GND*%
X114550000Y-105500000D03*
%TD*%
D11*
%TO.P,J24,1,PRB*%
%TO.N,GND*%
X117080000Y-99100000D03*
%TD*%
D13*
%TO.P,C38,1*%
%TO.N,VDDEXT*%
X140450000Y-52100000D03*
%TO.P,C38,2*%
%TO.N,GND*%
X138550000Y-52100000D03*
%TD*%
D30*
%TO.P,FID3,*%
%TO.N,*%
X141000000Y-147000000D03*
%TD*%
D35*
%TO.P,F1,1,1*%
%TO.N,Net-(J33-CNTR)*%
X137945000Y-41140000D03*
%TO.P,F1,2,2*%
%TO.N,VDDEXT*%
X141215000Y-41140000D03*
%TD*%
D12*
%TO.P,L2,1*%
%TO.N,VREF*%
X131984000Y-71970000D03*
%TO.P,L2,2*%
%TO.N,Net-(J20-Pin_2)*%
X130356000Y-71970000D03*
%TD*%
D14*
%TO.P,C59,1*%
%TO.N,VDD3P3*%
X209500000Y-118110000D03*
%TO.P,C59,2*%
%TO.N,GND*%
X211400000Y-118110000D03*
%TD*%
D13*
%TO.P,C26,1*%
%TO.N,VDDEXT*%
X111450000Y-68500000D03*
%TO.P,C26,2*%
%TO.N,GND*%
X109550000Y-68500000D03*
%TD*%
D10*
%TO.P,J11,1,CNTR*%
%TO.N,Net-(J11-CNTR)*%
X171700000Y-58800000D03*
D11*
%TO.P,J11,2,GND*%
%TO.N,GND*%
X169160000Y-61340000D03*
%TO.P,J11,3,GND*%
X174240000Y-61340000D03*
%TO.P,J11,4,GND*%
X174240000Y-56260000D03*
%TO.P,J11,5,GND*%
X169160000Y-56260000D03*
%TD*%
D27*
%TO.P,C58,1*%
%TO.N,VDD3P3*%
X186960000Y-89570000D03*
%TO.P,C58,2*%
%TO.N,GND*%
X186960000Y-87670000D03*
%TD*%
D20*
%TO.P,J16,1,Pin_1*%
%TO.N,Net-(J15-CNTR)*%
X122060000Y-139460000D03*
D21*
%TO.P,J16,2,Pin_2*%
%TO.N,Net-(J16-Pin_2)*%
X124600000Y-139460000D03*
%TO.P,J16,3,Pin_3*%
%TO.N,/VDDA2P5/VDDA2P5_INT*%
X127140000Y-139460000D03*
%TD*%
D28*
%TO.P,J40,1,CNTR*%
%TO.N,/CLKIN_N*%
X162320000Y-139572102D03*
%TO.P,J40,2,GND*%
%TO.N,GND*%
X165912102Y-139572102D03*
%TO.P,J40,3,GND*%
X162320000Y-135980000D03*
%TO.P,J40,4,GND*%
X158727898Y-139572102D03*
%TO.P,J40,5,GND*%
X162320000Y-143164204D03*
%TD*%
D20*
%TO.P,J27,1,Pin_1*%
%TO.N,Net-(J25-CNTR)*%
X137930000Y-106000000D03*
D21*
%TO.P,J27,2,Pin_2*%
%TO.N,Net-(J27-Pin_2)*%
X135390000Y-106000000D03*
%TO.P,J27,3,Pin_3*%
%TO.N,/VDDACORE/VDDOSC_INT*%
X132850000Y-106000000D03*
%TD*%
D22*
%TO.P,U6,1,IN*%
%TO.N,VDDEXT*%
X114175000Y-65950000D03*
%TO.P,U6,2,IN*%
X114175000Y-66600000D03*
%TO.P,U6,3,IN*%
X114175000Y-67250000D03*
%TO.P,U6,4,EN/UV*%
X114175000Y-67900000D03*
%TO.P,U6,5,PG*%
%TO.N,unconnected-(U6-PG-Pad5)*%
X114175000Y-68550000D03*
%TO.P,U6,6,ILIM*%
%TO.N,Net-(U6-ILIM)*%
X114175000Y-69200000D03*
%TO.P,U6,7,PGFB*%
%TO.N,Net-(D5-K)*%
X118475000Y-69200000D03*
%TO.P,U6,8,SET*%
%TO.N,Net-(U6-SET)*%
X118475000Y-68550000D03*
%TO.P,U6,9,GND*%
%TO.N,GND*%
X118475000Y-67900000D03*
%TO.P,U6,10,OUTS*%
%TO.N,/VREF/VREF_INT*%
X118475000Y-67250000D03*
%TO.P,U6,11,OUT*%
X118475000Y-66600000D03*
%TO.P,U6,12,OUT*%
X118475000Y-65950000D03*
D17*
%TO.P,U6,13,GND*%
%TO.N,GND*%
X116325000Y-67575000D03*
%TD*%
D11*
%TO.P,J43,1,PRB*%
%TO.N,GND*%
X190630000Y-123690000D03*
%TD*%
D29*
%TO.P,D2,1,K*%
%TO.N,Net-(D2-K)*%
X189100000Y-56800000D03*
%TO.P,D2,2,A*%
%TO.N,VDDEXT*%
X187700000Y-56800000D03*
%TD*%
D10*
%TO.P,J7,1,CNTR*%
%TO.N,Net-(J7-CNTR)*%
X200900000Y-44800000D03*
D11*
%TO.P,J7,2,GND*%
%TO.N,GND*%
X198360000Y-47340000D03*
%TO.P,J7,3,GND*%
X203440000Y-47340000D03*
%TO.P,J7,4,GND*%
X203440000Y-42260000D03*
%TO.P,J7,5,GND*%
X198360000Y-42260000D03*
%TD*%
D22*
%TO.P,U7,1,IN*%
%TO.N,VDDEXT*%
X119175000Y-102950000D03*
%TO.P,U7,2,IN*%
X119175000Y-103600000D03*
%TO.P,U7,3,IN*%
X119175000Y-104250000D03*
%TO.P,U7,4,EN/UV*%
X119175000Y-104900000D03*
%TO.P,U7,5,PG*%
%TO.N,unconnected-(U7-PG-Pad5)*%
X119175000Y-105550000D03*
%TO.P,U7,6,ILIM*%
%TO.N,Net-(U7-ILIM)*%
X119175000Y-106200000D03*
%TO.P,U7,7,PGFB*%
%TO.N,Net-(D6-K)*%
X123475000Y-106200000D03*
%TO.P,U7,8,SET*%
%TO.N,Net-(U7-SET)*%
X123475000Y-105550000D03*
%TO.P,U7,9,GND*%
%TO.N,GND*%
X123475000Y-104900000D03*
%TO.P,U7,10,OUTS*%
%TO.N,/VDDACORE/VDDOSC_INT*%
X123475000Y-104250000D03*
%TO.P,U7,11,OUT*%
X123475000Y-103600000D03*
%TO.P,U7,12,OUT*%
X123475000Y-102950000D03*
D17*
%TO.P,U7,13,GND*%
%TO.N,GND*%
X121325000Y-104575000D03*
%TD*%
D18*
%TO.P,R9,1*%
%TO.N,Net-(U6-ILIM)*%
X112787500Y-70900000D03*
%TO.P,R9,2*%
%TO.N,GND*%
X114612500Y-70900000D03*
%TD*%
D26*
%TO.P,C5,1*%
%TO.N,VDDTQ*%
X171870000Y-118390000D03*
%TO.P,C5,2*%
%TO.N,GND*%
X171870000Y-119940000D03*
%TD*%
D19*
%TO.P,VR1,1,CCW*%
%TO.N,Net-(U6-SET)*%
X114370000Y-74700000D03*
%TO.P,VR1,2,WIPER*%
%TO.N,GND*%
X116910000Y-74700000D03*
%TO.P,VR1,3,CW*%
%TO.N,unconnected-(VR1-CW-Pad3)*%
X119450000Y-74700000D03*
%TD*%
D14*
%TO.P,C39,1*%
%TO.N,Net-(U9-SET)*%
X149350000Y-54800000D03*
%TO.P,C39,2*%
%TO.N,GND*%
X151250000Y-54800000D03*
%TD*%
D22*
%TO.P,U2,1,IN*%
%TO.N,VDDEXT*%
X196175000Y-65950000D03*
%TO.P,U2,2,IN*%
X196175000Y-66600000D03*
%TO.P,U2,3,IN*%
X196175000Y-67250000D03*
%TO.P,U2,4,EN/UV*%
X196175000Y-67900000D03*
%TO.P,U2,5,PG*%
%TO.N,unconnected-(U2-PG-Pad5)*%
X196175000Y-68550000D03*
%TO.P,U2,6,ILIM*%
%TO.N,Net-(U2-ILIM)*%
X196175000Y-69200000D03*
%TO.P,U2,7,PGFB*%
%TO.N,Net-(D1-K)*%
X200475000Y-69200000D03*
%TO.P,U2,8,SET*%
%TO.N,Net-(U2-SET)*%
X200475000Y-68550000D03*
%TO.P,U2,9,GND*%
%TO.N,GND*%
X200475000Y-67900000D03*
%TO.P,U2,10,OUTS*%
%TO.N,/VDD3P3/VDD3P3_INT*%
X200475000Y-67250000D03*
%TO.P,U2,11,OUT*%
X200475000Y-66600000D03*
%TO.P,U2,12,OUT*%
X200475000Y-65950000D03*
D17*
%TO.P,U2,13,GND*%
%TO.N,GND*%
X198325000Y-67575000D03*
%TD*%
D15*
%TO.P,C49,1*%
%TO.N,/IREF*%
X148100000Y-99550000D03*
%TO.P,C49,2*%
%TO.N,GND*%
X148100000Y-101450000D03*
%TD*%
D13*
%TO.P,C10,1*%
%TO.N,VDDEXT*%
X193450000Y-68500000D03*
%TO.P,C10,2*%
%TO.N,GND*%
X191550000Y-68500000D03*
%TD*%
D36*
%TO.P,U10,1,1DIR*%
%TO.N,GND*%
X183940000Y-99985000D03*
%TO.P,U10,2,1B1*%
%TO.N,/AUX11*%
X184440000Y-99985000D03*
%TO.P,U10,3,1B2*%
%TO.N,/AUX10*%
X184940000Y-99985000D03*
%TO.P,U10,4,GND_1*%
%TO.N,GND*%
X185440000Y-99985000D03*
%TO.P,U10,5,1B3*%
%TO.N,/AUX9*%
X185940000Y-99985000D03*
%TO.P,U10,6,1B4*%
%TO.N,/AUX8*%
X186440000Y-99985000D03*
%TO.P,U10,7,VCCB_1*%
%TO.N,VDDD2P5*%
X186940000Y-99985000D03*
%TO.P,U10,8,1B5*%
%TO.N,/AUX7*%
X187440000Y-99985000D03*
%TO.P,U10,9,1B6*%
%TO.N,/AUX6*%
X187940000Y-99985000D03*
%TO.P,U10,10,GND_2*%
%TO.N,GND*%
X188440000Y-99985000D03*
%TO.P,U10,11,1B7*%
%TO.N,/AUX5*%
X188940000Y-99985000D03*
%TO.P,U10,12,1B8*%
%TO.N,/AUX4*%
X189440000Y-99985000D03*
%TO.P,U10,13,2B1*%
%TO.N,/AUX3*%
X189940000Y-99985000D03*
%TO.P,U10,14,2B2*%
%TO.N,/AUX2*%
X190440000Y-99985000D03*
%TO.P,U10,15,GND_3*%
%TO.N,GND*%
X190940000Y-99985000D03*
%TO.P,U10,16,2B3*%
%TO.N,/AUX1*%
X191440000Y-99985000D03*
%TO.P,U10,17,2B4*%
%TO.N,/AUX0*%
X191940000Y-99985000D03*
%TO.P,U10,18,VCCB_2*%
%TO.N,VDDD2P5*%
X192440000Y-99985000D03*
%TO.P,U10,19,2B5*%
%TO.N,GND*%
X192940000Y-99985000D03*
%TO.P,U10,20,2B6*%
X193440000Y-99985000D03*
%TO.P,U10,21,GND_4*%
X193940000Y-99985000D03*
%TO.P,U10,22,2B7*%
X194440000Y-99985000D03*
%TO.P,U10,23,2B8*%
X194940000Y-99985000D03*
%TO.P,U10,24,2DIR*%
X195440000Y-99985000D03*
%TO.P,U10,25,2~{OE}*%
X195440000Y-92409000D03*
%TO.P,U10,26,2A8*%
%TO.N,unconnected-(U10-2A8-Pad26)*%
X194940000Y-92409000D03*
%TO.P,U10,27,2A7*%
%TO.N,unconnected-(U10-2A7-Pad27)*%
X194440000Y-92409000D03*
%TO.P,U10,28,GND_5*%
%TO.N,GND*%
X193940000Y-92409000D03*
%TO.P,U10,29,2A6*%
%TO.N,/DIGBUF_LEVSHIFT/CCOUT_BUF*%
X193440000Y-92409000D03*
%TO.P,U10,30,2A5*%
%TO.N,/DIGBUF_LEVSHIFT/CLKRS_BUF*%
X192940000Y-92409000D03*
%TO.P,U10,31,VCCA_1*%
%TO.N,VDD3P3*%
X192440000Y-92409000D03*
%TO.P,U10,32,2A4*%
%TO.N,/DIGBUF_LEVSHIFT/AUX_BUF0*%
X191940000Y-92409000D03*
%TO.P,U10,33,2A3*%
%TO.N,/DIGBUF_LEVSHIFT/AUX_BUF1*%
X191440000Y-92409000D03*
%TO.P,U10,34,GND_6*%
%TO.N,GND*%
X190940000Y-92409000D03*
%TO.P,U10,35,2A2*%
%TO.N,/DIGBUF_LEVSHIFT/AUX_BUF2*%
X190440000Y-92409000D03*
%TO.P,U10,36,2A1*%
%TO.N,/DIGBUF_LEVSHIFT/AUX_BUF3*%
X189940000Y-92409000D03*
%TO.P,U10,37,1A8*%
%TO.N,/DIGBUF_LEVSHIFT/AUX_BUF4*%
X189440000Y-92409000D03*
%TO.P,U10,38,1A7*%
%TO.N,/DIGBUF_LEVSHIFT/AUX_BUF5*%
X188940000Y-92409000D03*
%TO.P,U10,39,GND_7*%
%TO.N,GND*%
X188440000Y-92409000D03*
%TO.P,U10,40,1A6*%
%TO.N,/DIGBUF_LEVSHIFT/AUX_BUF6*%
X187940000Y-92409000D03*
%TO.P,U10,41,1A5*%
%TO.N,/DIGBUF_LEVSHIFT/AUX_BUF7*%
X187440000Y-92409000D03*
%TO.P,U10,42,VCCA_2*%
%TO.N,VDD3P3*%
X186940000Y-92409000D03*
%TO.P,U10,43,1A4*%
%TO.N,/DIGBUF_LEVSHIFT/AUX_BUF8*%
X186440000Y-92409000D03*
%TO.P,U10,44,1A3*%
%TO.N,/DIGBUF_LEVSHIFT/AUX_BUF9*%
X185940000Y-92409000D03*
%TO.P,U10,45,GND_8*%
%TO.N,GND*%
X185440000Y-92409000D03*
%TO.P,U10,46,1A2*%
%TO.N,/DIGBUF_LEVSHIFT/AUX_BUF10*%
X184940000Y-92409000D03*
%TO.P,U10,47,1A1*%
%TO.N,/DIGBUF_LEVSHIFT/AUX_BUF11*%
X184440000Y-92409000D03*
%TO.P,U10,48,1~{OE}*%
%TO.N,GND*%
X183940000Y-92409000D03*
%TD*%
D12*
%TO.P,L3,1*%
%TO.N,VDDOSC*%
X136984000Y-108970000D03*
%TO.P,L3,2*%
%TO.N,Net-(J27-Pin_2)*%
X135356000Y-108970000D03*
%TD*%
D11*
%TO.P,J34,1,PRB*%
%TO.N,VDDEXT*%
X140500000Y-34500000D03*
%TD*%
D14*
%TO.P,C12,1*%
%TO.N,/VDD3P3/VDD3P3_INT*%
X203250000Y-66500000D03*
%TO.P,C12,2*%
%TO.N,GND*%
X205150000Y-66500000D03*
%TD*%
D20*
%TO.P,J4,1,Pin_1*%
%TO.N,Net-(J3-CNTR)*%
X214940000Y-69000000D03*
D21*
%TO.P,J4,2,Pin_2*%
%TO.N,VDD3P3*%
X212400000Y-69000000D03*
%TO.P,J4,3,Pin_3*%
%TO.N,/VDD3P3/VDD3P3_INT*%
X209860000Y-69000000D03*
%TD*%
D11*
%TO.P,J5,1,PRB*%
%TO.N,VDDD2P5*%
X200610000Y-61100000D03*
%TD*%
D27*
%TO.P,C43,1*%
%TO.N,VDDEXT*%
X143500000Y-39000000D03*
%TO.P,C43,2*%
%TO.N,GND*%
X143500000Y-37100000D03*
%TD*%
D14*
%TO.P,C28,1*%
%TO.N,/VREF/VREF_INT*%
X121250000Y-66700000D03*
%TO.P,C28,2*%
%TO.N,GND*%
X123150000Y-66700000D03*
%TD*%
D18*
%TO.P,R3,1*%
%TO.N,Net-(U3-ILIM)*%
X182987500Y-56900000D03*
%TO.P,R3,2*%
%TO.N,GND*%
X184812500Y-56900000D03*
%TD*%
D11*
%TO.P,J44,1,PRB*%
%TO.N,/CCOUT*%
X186490000Y-129330000D03*
%TD*%
D18*
%TO.P,R2,1*%
%TO.N,Net-(U2-SET)*%
X202387500Y-71000000D03*
%TO.P,R2,2*%
%TO.N,GND*%
X204212500Y-71000000D03*
%TD*%
D14*
%TO.P,C56,1*%
%TO.N,VDD3P3*%
X209220000Y-112610000D03*
%TO.P,C56,2*%
%TO.N,GND*%
X211120000Y-112610000D03*
%TD*%
D13*
%TO.P,C54,1*%
%TO.N,VDDD2P5*%
X195680000Y-133040000D03*
%TO.P,C54,2*%
%TO.N,GND*%
X193780000Y-133040000D03*
%TD*%
D29*
%TO.P,D5,1,K*%
%TO.N,Net-(D5-K)*%
X118900000Y-70900000D03*
%TO.P,D5,2,A*%
%TO.N,VDDEXT*%
X117500000Y-70900000D03*
%TD*%
D20*
%TO.P,J28,1,Pin_1*%
%TO.N,Net-(J26-CNTR)*%
X125930000Y-93000000D03*
D21*
%TO.P,J28,2,Pin_2*%
%TO.N,Net-(J28-Pin_2)*%
X123390000Y-93000000D03*
%TO.P,J28,3,Pin_3*%
%TO.N,/VDDACORE/VDDTQ_INT*%
X120850000Y-93000000D03*
%TD*%
D20*
%TO.P,J8,1,Pin_1*%
%TO.N,Net-(J7-CNTR)*%
X203140000Y-55000000D03*
D21*
%TO.P,J8,2,Pin_2*%
%TO.N,VDDD2P5*%
X200600000Y-55000000D03*
%TO.P,J8,3,Pin_3*%
%TO.N,/VDDD2P5/VDDD2P5_INT*%
X198060000Y-55000000D03*
%TD*%
D18*
%TO.P,R6,1*%
%TO.N,Net-(U4-SET)*%
X161387500Y-70800000D03*
%TO.P,R6,2*%
%TO.N,GND*%
X163212500Y-70800000D03*
%TD*%
D11*
%TO.P,J6,1,PRB*%
%TO.N,GND*%
X194300000Y-61100000D03*
%TD*%
D19*
%TO.P,VR4,1,CCW*%
%TO.N,Net-(U9-SET)*%
X143370000Y-60700000D03*
%TO.P,VR4,2,WIPER*%
%TO.N,GND*%
X145910000Y-60700000D03*
%TO.P,VR4,3,CW*%
%TO.N,unconnected-(VR4-CW-Pad3)*%
X148450000Y-60700000D03*
%TD*%
D13*
%TO.P,C14,1*%
%TO.N,VDDEXT*%
X181650000Y-54410000D03*
%TO.P,C14,2*%
%TO.N,GND*%
X179750000Y-54410000D03*
%TD*%
D20*
%TO.P,J46,1,Pin_1*%
%TO.N,/DIGBUF_LEVSHIFT/AUX_BUF11*%
X224370000Y-63670000D03*
D21*
%TO.P,J46,2,Pin_2*%
%TO.N,GND*%
X226910000Y-63670000D03*
%TO.P,J46,3,Pin_3*%
%TO.N,/DIGBUF_LEVSHIFT/AUX_BUF10*%
X224370000Y-66210000D03*
%TO.P,J46,4,Pin_4*%
%TO.N,GND*%
X226910000Y-66210000D03*
%TO.P,J46,5,Pin_5*%
%TO.N,/DIGBUF_LEVSHIFT/AUX_BUF9*%
X224370000Y-68750000D03*
%TO.P,J46,6,Pin_6*%
%TO.N,GND*%
X226910000Y-68750000D03*
%TO.P,J46,7,Pin_7*%
%TO.N,/DIGBUF_LEVSHIFT/AUX_BUF8*%
X224370000Y-71290000D03*
%TO.P,J46,8,Pin_8*%
%TO.N,GND*%
X226910000Y-71290000D03*
%TO.P,J46,9,Pin_9*%
%TO.N,/DIGBUF_LEVSHIFT/AUX_BUF7*%
X224370000Y-73830000D03*
%TO.P,J46,10,Pin_10*%
%TO.N,GND*%
X226910000Y-73830000D03*
%TO.P,J46,11,Pin_11*%
%TO.N,/DIGBUF_LEVSHIFT/AUX_BUF6*%
X224370000Y-76370000D03*
%TO.P,J46,12,Pin_12*%
%TO.N,GND*%
X226910000Y-76370000D03*
%TO.P,J46,13,Pin_13*%
%TO.N,/DIGBUF_LEVSHIFT/AUX_BUF5*%
X224370000Y-78910000D03*
%TO.P,J46,14,Pin_14*%
%TO.N,GND*%
X226910000Y-78910000D03*
%TO.P,J46,15,Pin_15*%
%TO.N,/DIGBUF_LEVSHIFT/AUX_BUF4*%
X224370000Y-81450000D03*
%TO.P,J46,16,Pin_16*%
%TO.N,GND*%
X226910000Y-81450000D03*
%TO.P,J46,17,Pin_17*%
%TO.N,/DIGBUF_LEVSHIFT/AUX_BUF3*%
X224370000Y-83990000D03*
%TO.P,J46,18,Pin_18*%
%TO.N,GND*%
X226910000Y-83990000D03*
%TO.P,J46,19,Pin_19*%
%TO.N,/DIGBUF_LEVSHIFT/AUX_BUF2*%
X224370000Y-86530000D03*
%TO.P,J46,20,Pin_20*%
%TO.N,GND*%
X226910000Y-86530000D03*
%TO.P,J46,21,Pin_21*%
%TO.N,/DIGBUF_LEVSHIFT/AUX_BUF1*%
X224370000Y-89070000D03*
%TO.P,J46,22,Pin_22*%
%TO.N,GND*%
X226910000Y-89070000D03*
%TO.P,J46,23,Pin_23*%
%TO.N,/DIGBUF_LEVSHIFT/AUX_BUF0*%
X224370000Y-91610000D03*
%TO.P,J46,24,Pin_24*%
%TO.N,GND*%
X226910000Y-91610000D03*
%TO.P,J46,25,Pin_25*%
%TO.N,/DIGBUF_LEVSHIFT/CLKRS_BUF*%
X224370000Y-94150000D03*
%TO.P,J46,26,Pin_26*%
%TO.N,GND*%
X226910000Y-94150000D03*
%TO.P,J46,27,Pin_27*%
%TO.N,/DIGBUF_LEVSHIFT/CCOUT_BUF*%
X224370000Y-96690000D03*
%TO.P,J46,28,Pin_28*%
%TO.N,GND*%
X226910000Y-96690000D03*
%TO.P,J46,29,Pin_29*%
%TO.N,/DIGBUF_LEVSHIFT/CLKOUT_BUF*%
X224370000Y-99230000D03*
%TO.P,J46,30,Pin_30*%
%TO.N,GND*%
X226910000Y-99230000D03*
%TO.P,J46,31,Pin_31*%
%TO.N,/DIGBUF_LEVSHIFT/DOUT_BUF0*%
X224370000Y-101770000D03*
%TO.P,J46,32,Pin_32*%
%TO.N,GND*%
X226910000Y-101770000D03*
%TO.P,J46,33,Pin_33*%
%TO.N,/DIGBUF_LEVSHIFT/DOUT_BUF1*%
X224370000Y-104310000D03*
%TO.P,J46,34,Pin_34*%
%TO.N,GND*%
X226910000Y-104310000D03*
%TO.P,J46,35,Pin_35*%
%TO.N,/DIGBUF_LEVSHIFT/DOUT_BUF2*%
X224370000Y-106850000D03*
%TO.P,J46,36,Pin_36*%
%TO.N,GND*%
X226910000Y-106850000D03*
%TO.P,J46,37,Pin_37*%
%TO.N,/DIGBUF_LEVSHIFT/DOUT_BUF3*%
X224370000Y-109390000D03*
%TO.P,J46,38,Pin_38*%
%TO.N,GND*%
X226910000Y-109390000D03*
%TO.P,J46,39,Pin_39*%
%TO.N,/DIGBUF_LEVSHIFT/DOUT_BUF4*%
X224370000Y-111930000D03*
%TO.P,J46,40,Pin_40*%
%TO.N,GND*%
X226910000Y-111930000D03*
%TO.P,J46,41,Pin_41*%
%TO.N,/DIGBUF_LEVSHIFT/DOUT_BUF5*%
X224370000Y-114470000D03*
%TO.P,J46,42,Pin_42*%
%TO.N,GND*%
X226910000Y-114470000D03*
%TO.P,J46,43,Pin_43*%
%TO.N,/DIGBUF_LEVSHIFT/DOUT_BUF6*%
X224370000Y-117010000D03*
%TO.P,J46,44,Pin_44*%
%TO.N,GND*%
X226910000Y-117010000D03*
%TO.P,J46,45,Pin_45*%
%TO.N,/DIGBUF_LEVSHIFT/DOUT_BUF7*%
X224370000Y-119550000D03*
%TO.P,J46,46,Pin_46*%
%TO.N,GND*%
X226910000Y-119550000D03*
%TO.P,J46,47,Pin_47*%
%TO.N,/DIGBUF_LEVSHIFT/DOUT_BUF8*%
X224370000Y-122090000D03*
%TO.P,J46,48,Pin_48*%
%TO.N,GND*%
X226910000Y-122090000D03*
%TO.P,J46,49,Pin_49*%
%TO.N,/DIGBUF_LEVSHIFT/DOUT_BUF9*%
X224370000Y-124630000D03*
%TO.P,J46,50,Pin_50*%
%TO.N,GND*%
X226910000Y-124630000D03*
%TO.P,J46,51,Pin_51*%
%TO.N,/DIGBUF_LEVSHIFT/DOUT_BUF10*%
X224370000Y-127170000D03*
%TO.P,J46,52,Pin_52*%
%TO.N,GND*%
X226910000Y-127170000D03*
%TO.P,J46,53,Pin_53*%
%TO.N,/DIGBUF_LEVSHIFT/DOUT_BUF11*%
X224370000Y-129710000D03*
%TO.P,J46,54,Pin_54*%
%TO.N,GND*%
X226910000Y-129710000D03*
%TO.P,J46,55,Pin_55*%
%TO.N,/DIGBUF_LEVSHIFT/DOUT_BUF12*%
X224370000Y-132250000D03*
%TO.P,J46,56,Pin_56*%
%TO.N,GND*%
X226910000Y-132250000D03*
%TO.P,J46,57,Pin_57*%
%TO.N,/DIGBUF_LEVSHIFT/DOUT_BUF13*%
X224370000Y-134790000D03*
%TO.P,J46,58,Pin_58*%
%TO.N,GND*%
X226910000Y-134790000D03*
%TO.P,J46,59,Pin_59*%
%TO.N,/DIGBUF_LEVSHIFT/DOUT_BUF14*%
X224370000Y-137330000D03*
%TO.P,J46,60,Pin_60*%
%TO.N,GND*%
X226910000Y-137330000D03*
%TO.P,J46,61,Pin_61*%
%TO.N,/DIGBUF_LEVSHIFT/DOUT_BUF15*%
X224370000Y-139870000D03*
%TO.P,J46,62,Pin_62*%
%TO.N,GND*%
X226910000Y-139870000D03*
%TO.P,J46,63,Pin_63*%
%TO.N,/DIGBUF_LEVSHIFT/DOUT_BUF16*%
X224370000Y-142410000D03*
%TO.P,J46,64,Pin_64*%
%TO.N,GND*%
X226910000Y-142410000D03*
%TO.P,J46,65,Pin_65*%
%TO.N,/DIGBUF_LEVSHIFT/DOUT_BUF17*%
X224370000Y-144950000D03*
%TO.P,J46,66,Pin_66*%
%TO.N,GND*%
X226910000Y-144950000D03*
%TO.P,J46,67,Pin_67*%
%TO.N,/DIGBUF_LEVSHIFT/DOUT_BUF18*%
X224370000Y-147490000D03*
%TO.P,J46,68,Pin_68*%
%TO.N,GND*%
X226910000Y-147490000D03*
%TD*%
D12*
%TO.P,L1,1*%
%TO.N,VDDA2P5*%
X123006000Y-136490000D03*
%TO.P,L1,2*%
%TO.N,Net-(J16-Pin_2)*%
X124634000Y-136490000D03*
%TD*%
D24*
%TO.P,R8,1*%
%TO.N,Net-(U5-SET)*%
X134602500Y-137660000D03*
%TO.P,R8,2*%
%TO.N,GND*%
X132777500Y-137660000D03*
%TD*%
D18*
%TO.P,R1,1*%
%TO.N,Net-(U2-ILIM)*%
X194787500Y-70900000D03*
%TO.P,R1,2*%
%TO.N,GND*%
X196612500Y-70900000D03*
%TD*%
D13*
%TO.P,C32,1*%
%TO.N,VDDEXT*%
X104450000Y-92500000D03*
%TO.P,C32,2*%
%TO.N,GND*%
X102550000Y-92500000D03*
%TD*%
D30*
%TO.P,FID4,*%
%TO.N,*%
X189000000Y-138000000D03*
%TD*%
D13*
%TO.P,C50,1*%
%TO.N,VDDD2P5*%
X195950000Y-112610000D03*
%TO.P,C50,2*%
%TO.N,GND*%
X194050000Y-112610000D03*
%TD*%
%TO.P,C18,1*%
%TO.N,VDDEXT*%
X152450000Y-68500000D03*
%TO.P,C18,2*%
%TO.N,GND*%
X150550000Y-68500000D03*
%TD*%
D14*
%TO.P,C60,1*%
%TO.N,VDD3P3*%
X209490000Y-133040000D03*
%TO.P,C60,2*%
%TO.N,GND*%
X211390000Y-133040000D03*
%TD*%
D11*
%TO.P,J35,1,PRB*%
%TO.N,GND*%
X140500000Y-47500000D03*
%TD*%
D24*
%TO.P,R13,1*%
%TO.N,VDDCCO*%
X155225000Y-106500000D03*
%TO.P,R13,2*%
%TO.N,/IREF*%
X153400000Y-106500000D03*
%TD*%
D26*
%TO.P,C2,1*%
%TO.N,VDDOSC*%
X170370000Y-118385000D03*
%TO.P,C2,2*%
%TO.N,GND*%
X170370000Y-119935000D03*
%TD*%
D14*
%TO.P,C33,1*%
%TO.N,Net-(U7-SET)*%
X125350000Y-105800000D03*
%TO.P,C33,2*%
%TO.N,GND*%
X127250000Y-105800000D03*
%TD*%
D18*
%TO.P,R11,1*%
%TO.N,Net-(U8-ILIM)*%
X105787500Y-94900000D03*
%TO.P,R11,2*%
%TO.N,GND*%
X107612500Y-94900000D03*
%TD*%
D27*
%TO.P,C6,1*%
%TO.N,VDDD1P2*%
X176810000Y-109530000D03*
%TO.P,C6,2*%
%TO.N,GND*%
X176810000Y-107630000D03*
%TD*%
D18*
%TO.P,R14,1*%
%TO.N,VDDD2P5*%
X175457500Y-100435000D03*
%TO.P,R14,2*%
%TO.N,/SDA*%
X177282500Y-100435000D03*
%TD*%
D14*
%TO.P,C22,1*%
%TO.N,VDDEXT*%
X143540000Y-139960000D03*
%TO.P,C22,2*%
%TO.N,GND*%
X145440000Y-139960000D03*
%TD*%
%TO.P,C15,1*%
%TO.N,Net-(U3-SET)*%
X190550000Y-54800000D03*
%TO.P,C15,2*%
%TO.N,GND*%
X192450000Y-54800000D03*
%TD*%
%TO.P,C36,1*%
%TO.N,/VDDACORE/VDDTQ_INT*%
X114250000Y-90700000D03*
%TO.P,C36,2*%
%TO.N,GND*%
X116150000Y-90700000D03*
%TD*%
D11*
%TO.P,J22,1,PRB*%
%TO.N,GND*%
X129080000Y-112100000D03*
%TD*%
D13*
%TO.P,C23,1*%
%TO.N,Net-(U5-SET)*%
X134640000Y-139660000D03*
%TO.P,C23,2*%
%TO.N,GND*%
X132740000Y-139660000D03*
%TD*%
D14*
%TO.P,C11,1*%
%TO.N,Net-(U2-SET)*%
X202350000Y-68800000D03*
%TO.P,C11,2*%
%TO.N,GND*%
X204250000Y-68800000D03*
%TD*%
D10*
%TO.P,J3,1,CNTR*%
%TO.N,Net-(J3-CNTR)*%
X212700000Y-58800000D03*
D11*
%TO.P,J3,2,GND*%
%TO.N,GND*%
X210160000Y-61340000D03*
%TO.P,J3,3,GND*%
X215240000Y-61340000D03*
%TO.P,J3,4,GND*%
X215240000Y-56260000D03*
%TO.P,J3,5,GND*%
X210160000Y-56260000D03*
%TD*%
D28*
%TO.P,J39,1,CNTR*%
%TO.N,/CLKIN_P*%
X155612102Y-132872102D03*
%TO.P,J39,2,GND*%
%TO.N,GND*%
X159204204Y-132872102D03*
%TO.P,J39,3,GND*%
X155612102Y-129280000D03*
%TO.P,J39,4,GND*%
X152020000Y-132872102D03*
%TO.P,J39,5,GND*%
X155612102Y-136464204D03*
%TD*%
D37*
%TO.P,D4,1,K*%
%TO.N,Net-(D4-K)*%
X136090000Y-137560000D03*
%TO.P,D4,2,A*%
%TO.N,VDDEXT*%
X137490000Y-137560000D03*
%TD*%
D10*
%TO.P,J25,1,CNTR*%
%TO.N,Net-(J25-CNTR)*%
X135700000Y-95800000D03*
D11*
%TO.P,J25,2,GND*%
%TO.N,GND*%
X133160000Y-98340000D03*
%TO.P,J25,3,GND*%
X138240000Y-98340000D03*
%TO.P,J25,4,GND*%
X138240000Y-93260000D03*
%TO.P,J25,5,GND*%
X133160000Y-93260000D03*
%TD*%
%TO.P,J10,1,PRB*%
%TO.N,GND*%
X165100000Y-75100000D03*
%TD*%
D14*
%TO.P,C34,1*%
%TO.N,Net-(U8-SET)*%
X113350000Y-92800000D03*
%TO.P,C34,2*%
%TO.N,GND*%
X115250000Y-92800000D03*
%TD*%
D13*
%TO.P,C17,1*%
%TO.N,VDDEXT*%
X152450000Y-66100000D03*
%TO.P,C17,2*%
%TO.N,GND*%
X150550000Y-66100000D03*
%TD*%
D15*
%TO.P,C55,1*%
%TO.N,VDDD2P5*%
X192460000Y-103110000D03*
%TO.P,C55,2*%
%TO.N,GND*%
X192460000Y-105010000D03*
%TD*%
D27*
%TO.P,C46,1*%
%TO.N,VDDEXT*%
X151000000Y-39000000D03*
%TO.P,C46,2*%
%TO.N,GND*%
X151000000Y-37100000D03*
%TD*%
D13*
%TO.P,C37,1*%
%TO.N,VDDEXT*%
X140450000Y-54500000D03*
%TO.P,C37,2*%
%TO.N,GND*%
X138550000Y-54500000D03*
%TD*%
D27*
%TO.P,C44,1*%
%TO.N,VDDEXT*%
X146000000Y-39000000D03*
%TO.P,C44,2*%
%TO.N,GND*%
X146000000Y-37100000D03*
%TD*%
D15*
%TO.P,C47,1*%
%TO.N,VDDEXT*%
X148500000Y-43000000D03*
%TO.P,C47,2*%
%TO.N,GND*%
X148500000Y-44900000D03*
%TD*%
D19*
%TO.P,VR3,1,CCW*%
%TO.N,Net-(U8-SET)*%
X107370000Y-98700000D03*
%TO.P,VR3,2,WIPER*%
%TO.N,GND*%
X109910000Y-98700000D03*
%TO.P,VR3,3,CW*%
%TO.N,unconnected-(VR3-CW-Pad3)*%
X112450000Y-98700000D03*
%TD*%
D14*
%TO.P,C40,1*%
%TO.N,/VDDACORE/VDDCCO_INT*%
X150250000Y-52700000D03*
%TO.P,C40,2*%
%TO.N,GND*%
X152150000Y-52700000D03*
%TD*%
D20*
%TO.P,J12,1,Pin_1*%
%TO.N,Net-(J11-CNTR)*%
X173935000Y-69000000D03*
D21*
%TO.P,J12,2,Pin_2*%
%TO.N,VDDD1P2*%
X171395000Y-69000000D03*
%TO.P,J12,3,Pin_3*%
%TO.N,/VDDD1P2/VDD1P2_INT*%
X168855000Y-69000000D03*
%TD*%
D10*
%TO.P,J31,1,CNTR*%
%TO.N,Net-(J31-CNTR)*%
X159700000Y-44800000D03*
D11*
%TO.P,J31,2,GND*%
%TO.N,GND*%
X157160000Y-47340000D03*
%TO.P,J31,3,GND*%
X162240000Y-47340000D03*
%TO.P,J31,4,GND*%
X162240000Y-42260000D03*
%TO.P,J31,5,GND*%
X157160000Y-42260000D03*
%TD*%
D29*
%TO.P,D8,1,K*%
%TO.N,Net-(D8-K)*%
X147900000Y-56900000D03*
%TO.P,D8,2,A*%
%TO.N,VDDEXT*%
X146500000Y-56900000D03*
%TD*%
D14*
%TO.P,C57,1*%
%TO.N,VDD3P3*%
X209220000Y-127540000D03*
%TO.P,C57,2*%
%TO.N,GND*%
X211120000Y-127540000D03*
%TD*%
D38*
%TO.P,R16,1*%
%TO.N,/IN*%
X173795000Y-114960000D03*
%TO.P,R16,2*%
%TO.N,Net-(J47-CNTR)*%
X172145000Y-114960000D03*
%TD*%
D14*
%TO.P,C19,1*%
%TO.N,Net-(U4-SET)*%
X161350000Y-68800000D03*
%TO.P,C19,2*%
%TO.N,GND*%
X163250000Y-68800000D03*
%TD*%
D34*
%TO.P,S1,1,B*%
%TO.N,/RSTB*%
X170260000Y-145770000D03*
%TO.P,S1,2,B*%
X170260000Y-136670000D03*
%TO.P,S1,3,A*%
%TO.N,GND*%
X175060000Y-145770000D03*
%TO.P,S1,4,A*%
X175060000Y-136670000D03*
%TD*%
D19*
%TO.P,VR5,1,CCW*%
%TO.N,unconnected-(VR5-CCW-Pad1)*%
X155560000Y-102500000D03*
%TO.P,VR5,2,WIPER*%
%TO.N,/IREF/IREF_INT*%
X158100000Y-102500000D03*
%TO.P,VR5,3,CW*%
%TO.N,Net-(J36-Pin_2)*%
X160640000Y-102500000D03*
%TD*%
D14*
%TO.P,C16,1*%
%TO.N,/VDDD2P5/VDDD2P5_INT*%
X191450000Y-52700000D03*
%TO.P,C16,2*%
%TO.N,GND*%
X193350000Y-52700000D03*
%TD*%
D29*
%TO.P,D6,1,K*%
%TO.N,Net-(D6-K)*%
X123900000Y-107900000D03*
%TO.P,D6,2,A*%
%TO.N,VDDEXT*%
X122500000Y-107900000D03*
%TD*%
D10*
%TO.P,J33,1,CNTR*%
%TO.N,Net-(J33-CNTR)*%
X131820000Y-41250000D03*
D11*
%TO.P,J33,2,GND*%
%TO.N,GND*%
X134360000Y-43790000D03*
%TO.P,J33,3,GND*%
X134360000Y-38710000D03*
%TO.P,J33,4,GND*%
X129280000Y-38710000D03*
%TO.P,J33,5,GND*%
X129280000Y-43790000D03*
%TD*%
D29*
%TO.P,D7,1,K*%
%TO.N,Net-(D7-K)*%
X111900000Y-94900000D03*
%TO.P,D7,2,A*%
%TO.N,VDDEXT*%
X110500000Y-94900000D03*
%TD*%
D13*
%TO.P,C9,1*%
%TO.N,VDDEXT*%
X193450000Y-66100000D03*
%TO.P,C9,2*%
%TO.N,GND*%
X191550000Y-66100000D03*
%TD*%
D27*
%TO.P,C61,1*%
%TO.N,VDD3P3*%
X192460000Y-89295000D03*
%TO.P,C61,2*%
%TO.N,GND*%
X192460000Y-87395000D03*
%TD*%
D20*
%TO.P,J32,1,Pin_1*%
%TO.N,Net-(J31-CNTR)*%
X161930000Y-55000000D03*
D21*
%TO.P,J32,2,Pin_2*%
%TO.N,Net-(J32-Pin_2)*%
X159390000Y-55000000D03*
%TO.P,J32,3,Pin_3*%
%TO.N,/VDDACORE/VDDCCO_INT*%
X156850000Y-55000000D03*
%TD*%
D11*
%TO.P,J30,1,PRB*%
%TO.N,GND*%
X153080000Y-61100000D03*
%TD*%
%TO.P,J45,1,PRB*%
%TO.N,GND*%
X190630000Y-129330000D03*
%TD*%
D39*
%TO.N,VDDEXT*%
X104800000Y-88500000D03*
X142290000Y-141860000D03*
X143000000Y-40500000D03*
X115700000Y-71500000D03*
X145000000Y-40500000D03*
X112700000Y-67300000D03*
X194700000Y-67300000D03*
X150000000Y-40500000D03*
X120700000Y-108500000D03*
X112700000Y-66600000D03*
X185900000Y-57500000D03*
X104800000Y-87500000D03*
X148000000Y-41500000D03*
X145000000Y-41500000D03*
X142290000Y-142560000D03*
X153700000Y-65900000D03*
X108700000Y-95500000D03*
X156700000Y-71500000D03*
X182900000Y-52600000D03*
X146000000Y-41500000D03*
X141700000Y-51900000D03*
X197700000Y-71500000D03*
X144000000Y-41500000D03*
X105500000Y-88500000D03*
X105700000Y-89900000D03*
X147000000Y-40500000D03*
X153700000Y-66600000D03*
X152000000Y-41500000D03*
X141700000Y-52600000D03*
X105700000Y-90600000D03*
X141700000Y-53300000D03*
X117700000Y-104300000D03*
X104100000Y-87500000D03*
X149000000Y-40500000D03*
X144700000Y-57500000D03*
X182900000Y-51900000D03*
X146000000Y-40500000D03*
X149000000Y-41500000D03*
X143000000Y-41500000D03*
X151000000Y-40500000D03*
X194700000Y-66600000D03*
X139290000Y-136960000D03*
X150000000Y-41500000D03*
X112700000Y-65900000D03*
X105500000Y-87500000D03*
X144000000Y-40500000D03*
X182900000Y-53300000D03*
X142290000Y-141160000D03*
X148000000Y-40500000D03*
X104100000Y-88500000D03*
X147000000Y-41500000D03*
X117700000Y-102900000D03*
X151000000Y-41500000D03*
X152000000Y-40500000D03*
X194700000Y-65900000D03*
X105700000Y-91300000D03*
X117700000Y-103600000D03*
X153700000Y-67300000D03*
%TO.N,/VDD3P3/VDD3P3_INT*%
X201900000Y-67300000D03*
X201900000Y-66600000D03*
X201900000Y-65900000D03*
%TO.N,VDD3P3*%
X185470000Y-88680000D03*
X209510000Y-134500000D03*
X210170000Y-111180000D03*
X191030000Y-88630000D03*
X209890000Y-126250000D03*
X210250000Y-116730000D03*
%TO.N,VDDD2P5*%
X200000000Y-75500000D03*
X198000000Y-78500000D03*
X197000000Y-76500000D03*
X199000000Y-104500000D03*
X198000000Y-80500000D03*
X198000000Y-77500000D03*
X190970000Y-104070000D03*
X198000000Y-105500000D03*
X174402500Y-102375000D03*
X200000000Y-105500000D03*
X197000000Y-106500000D03*
X197000000Y-102500000D03*
X198000000Y-103500000D03*
X199000000Y-77500000D03*
X199000000Y-106500000D03*
X200000000Y-106500000D03*
X199000000Y-101500000D03*
X197000000Y-77500000D03*
X199000000Y-78500000D03*
X198000000Y-76500000D03*
X197000000Y-104500000D03*
X200000000Y-80500000D03*
X199000000Y-80500000D03*
X181080000Y-121820000D03*
X199000000Y-75500000D03*
X200000000Y-76500000D03*
X174402500Y-100435000D03*
X200000000Y-78500000D03*
X198000000Y-79500000D03*
X200000000Y-104500000D03*
X198000000Y-101500000D03*
X200000000Y-102500000D03*
X197000000Y-79500000D03*
X200000000Y-103500000D03*
X176610000Y-133470000D03*
X198000000Y-75500000D03*
X200000000Y-77500000D03*
X198000000Y-106500000D03*
X198000000Y-102500000D03*
X198000000Y-104500000D03*
X194880000Y-116750000D03*
X185580000Y-103710000D03*
X199000000Y-103500000D03*
X199000000Y-79500000D03*
X197000000Y-80500000D03*
X200000000Y-101500000D03*
X195110000Y-131610000D03*
X195200000Y-111190000D03*
X200000000Y-79500000D03*
X197000000Y-105500000D03*
X195290000Y-126100000D03*
X199000000Y-105500000D03*
X199000000Y-76500000D03*
X197000000Y-75500000D03*
X197000000Y-103500000D03*
X197000000Y-101500000D03*
X185290000Y-110760000D03*
X199000000Y-102500000D03*
X197000000Y-78500000D03*
%TO.N,/VDDD2P5/VDDD2P5_INT*%
X190100000Y-51900000D03*
X190100000Y-53300000D03*
X190100000Y-52600000D03*
%TO.N,/VDDD1P2/VDD1P2_INT*%
X160900000Y-67300000D03*
X160900000Y-65900000D03*
X160900000Y-66600000D03*
%TO.N,VDDD1P2*%
X175370000Y-108400000D03*
X178250000Y-108400000D03*
%TO.N,/VDDA2P5/VDDA2P5_INT*%
X135090000Y-141160000D03*
X135090000Y-142560000D03*
X135090000Y-141860000D03*
%TO.N,VDDA2P5*%
X140000000Y-132000000D03*
X138000000Y-135000000D03*
X121690000Y-136760000D03*
X121690000Y-135760000D03*
X140000000Y-133000000D03*
X120590000Y-136760000D03*
X140000000Y-134000000D03*
X138000000Y-134000000D03*
X138000000Y-133000000D03*
X120590000Y-135760000D03*
X138000000Y-132000000D03*
X140000000Y-135000000D03*
X139000000Y-135000000D03*
X174330000Y-118470000D03*
X137000000Y-133000000D03*
X139000000Y-134000000D03*
X139000000Y-133000000D03*
X139000000Y-132000000D03*
X137000000Y-135000000D03*
X137000000Y-132000000D03*
X137000000Y-134000000D03*
%TO.N,/VREF/VREF_INT*%
X119900000Y-65900000D03*
X119900000Y-66600000D03*
X119900000Y-67300000D03*
%TO.N,VREF*%
X133300000Y-71700000D03*
X133300000Y-72700000D03*
X134400000Y-71700000D03*
X170880000Y-115535500D03*
X134400000Y-72700000D03*
X113070000Y-76120000D03*
%TO.N,/VDDACORE/VDDTQ_INT*%
X112900000Y-89900000D03*
X112900000Y-90600000D03*
X112900000Y-91300000D03*
%TO.N,/VDDACORE/VDDCCO_INT*%
X148900000Y-51900000D03*
X148900000Y-53300000D03*
X148900000Y-52600000D03*
%TO.N,VDDOSC*%
X169230000Y-119050000D03*
X139400000Y-109700000D03*
X138300000Y-109700000D03*
X169230000Y-118380000D03*
X138300000Y-108700000D03*
X139400000Y-108700000D03*
X118070000Y-113120000D03*
%TO.N,VDDTQ*%
X127400000Y-95700000D03*
X126300000Y-96700000D03*
X126300000Y-95700000D03*
X127400000Y-96700000D03*
X106070000Y-100120000D03*
X173700000Y-117460000D03*
X172870000Y-117500000D03*
%TO.N,/VDDACORE/VDDOSC_INT*%
X124900000Y-104300000D03*
X124900000Y-103600000D03*
X124900000Y-102900000D03*
%TO.N,/IREF*%
X151600000Y-102000000D03*
X151600000Y-104000000D03*
X151600000Y-103000000D03*
X174710000Y-114640000D03*
%TO.N,/SDA*%
X178330000Y-100435000D03*
%TO.N,/RSTB*%
X173630000Y-110550000D03*
%TO.N,GND*%
X208370000Y-110510000D03*
X186960000Y-86370000D03*
X212420000Y-118110000D03*
X168430000Y-116460000D03*
X176710000Y-139920000D03*
X116200000Y-92000000D03*
X146000000Y-35500000D03*
X197310000Y-121160000D03*
X108500000Y-68100000D03*
X197700000Y-70800000D03*
X183110000Y-101289000D03*
X208370000Y-125440000D03*
X186500000Y-56200000D03*
X178700000Y-52200000D03*
X121300000Y-107200000D03*
X190500000Y-68700000D03*
X148500000Y-46500000D03*
X174360000Y-119420000D03*
X108700000Y-94800000D03*
X146490000Y-140360000D03*
X192751000Y-133040000D03*
X149500000Y-66200000D03*
X176020000Y-110600000D03*
X116100000Y-89400000D03*
X108500000Y-65600000D03*
X197051000Y-116460000D03*
X169420000Y-120130000D03*
X139290000Y-137660000D03*
X190810000Y-90670000D03*
X190810000Y-101739000D03*
X176810000Y-106460000D03*
X138690000Y-138260000D03*
X208120000Y-121380000D03*
X131790000Y-140460000D03*
X188760000Y-90420000D03*
X152100000Y-51400000D03*
X101500000Y-89600000D03*
X123100000Y-65400000D03*
X113500000Y-105100000D03*
X198300000Y-70200000D03*
X176660000Y-142370000D03*
X195010000Y-90920000D03*
X149500000Y-68100000D03*
X184860000Y-90420000D03*
X179640000Y-124500000D03*
X148500000Y-35500000D03*
X176990000Y-119960000D03*
X137500000Y-54700000D03*
X131890000Y-143060000D03*
X192751000Y-112610000D03*
X128100000Y-102400000D03*
X152200000Y-54000000D03*
X113500000Y-102600000D03*
X194310000Y-90920000D03*
X109300000Y-94800000D03*
X156700000Y-70200000D03*
X190500000Y-65600000D03*
X196801000Y-110510000D03*
X149500000Y-65600000D03*
X145300000Y-56200000D03*
X121300000Y-107800000D03*
X144700000Y-56800000D03*
X156700000Y-70800000D03*
X178700000Y-51600000D03*
X190500000Y-66200000D03*
X123200000Y-68000000D03*
X116300000Y-70800000D03*
X109300000Y-94200000D03*
X196801000Y-114410000D03*
X146490000Y-142860000D03*
X108500000Y-66200000D03*
X178700000Y-54700000D03*
X157300000Y-70200000D03*
X208120000Y-116460000D03*
X146490000Y-139760000D03*
X196801000Y-125440000D03*
X184860000Y-101989000D03*
X148600000Y-103000000D03*
X208114000Y-135890000D03*
X115700000Y-70200000D03*
X188760000Y-101989000D03*
X185900000Y-56800000D03*
X178700000Y-54100000D03*
X151000000Y-46500000D03*
X208370000Y-114410000D03*
X208120000Y-131390000D03*
X192460000Y-86370000D03*
X144700000Y-56200000D03*
X212420000Y-133040000D03*
X207725000Y-119595000D03*
X197501000Y-123690000D03*
X208114000Y-134390000D03*
X120700000Y-107200000D03*
X164200000Y-68000000D03*
X101500000Y-92100000D03*
X137500000Y-52200000D03*
X205100000Y-65400000D03*
X193300000Y-51400000D03*
X137500000Y-54100000D03*
X101500000Y-92700000D03*
X208370000Y-129340000D03*
X195010000Y-101489000D03*
X137500000Y-51600000D03*
X113500000Y-103200000D03*
X192460000Y-106039000D03*
X138690000Y-137660000D03*
X197103970Y-119603970D03*
X108500000Y-68700000D03*
X128200000Y-105000000D03*
X197501000Y-108760000D03*
X146000000Y-46500000D03*
X149500000Y-68700000D03*
X185900000Y-56200000D03*
X186500000Y-56800000D03*
X212420000Y-127540000D03*
X192751000Y-127540000D03*
X113500000Y-105700000D03*
X189640000Y-111330000D03*
X197700000Y-70200000D03*
X120700000Y-107800000D03*
X198300000Y-70800000D03*
X212420000Y-112610000D03*
X116300000Y-70200000D03*
X115700000Y-70800000D03*
X190500000Y-68100000D03*
X207670000Y-108760000D03*
X171170000Y-111850000D03*
X151000000Y-35500000D03*
X164100000Y-65400000D03*
X192751000Y-118110000D03*
X183110000Y-91120000D03*
X157300000Y-70800000D03*
X186960000Y-106039000D03*
X193400000Y-54000000D03*
X197180000Y-134660000D03*
X174682937Y-113807063D03*
X145300000Y-56800000D03*
X143500000Y-46500000D03*
X175230000Y-118220000D03*
X108700000Y-94200000D03*
X147600000Y-103000000D03*
X139290000Y-138260000D03*
X146490000Y-142260000D03*
X143500000Y-35500000D03*
X207670000Y-123690000D03*
X194310000Y-101489000D03*
X205200000Y-68000000D03*
X101500000Y-90200000D03*
X197170000Y-130540000D03*
%TO.N,VDDCCO*%
X173620000Y-112780000D03*
X156900000Y-106500000D03*
X163400000Y-58700000D03*
X142070000Y-62120000D03*
X162300000Y-58700000D03*
X162300000Y-57700000D03*
X163400000Y-57700000D03*
%TD*%
D40*
%TO.N,Net-(U9-SET)*%
X145320000Y-58750000D02*
X143370000Y-60700000D01*
D41*
X147475000Y-54550000D02*
X149100000Y-54550000D01*
D40*
X149387500Y-57682500D02*
X148320000Y-58750000D01*
D42*
X149387500Y-54837500D02*
X149350000Y-54800000D01*
D40*
X148320000Y-58750000D02*
X145320000Y-58750000D01*
D41*
X149100000Y-54550000D02*
X149350000Y-54800000D01*
D40*
X149387500Y-54837500D02*
X149387500Y-57682500D01*
D42*
%TO.N,Net-(D1-K)*%
X200900000Y-69200000D02*
X200475000Y-69200000D01*
X200900000Y-70900000D02*
X200900000Y-69200000D01*
%TO.N,VDDEXT*%
X121900000Y-108500000D02*
X122500000Y-107900000D01*
X194750000Y-67250000D02*
X194700000Y-67300000D01*
D41*
X143175000Y-51950000D02*
X141750000Y-51950000D01*
D42*
X139290000Y-136960000D02*
X138090000Y-136960000D01*
X112750000Y-65950000D02*
X112700000Y-65900000D01*
D41*
X114175000Y-65950000D02*
X112750000Y-65950000D01*
D43*
X112700000Y-65900000D02*
X112600000Y-65800000D01*
D42*
X115700000Y-71500000D02*
X116900000Y-71500000D01*
X187100000Y-57500000D02*
X187700000Y-56900000D01*
X145900000Y-57500000D02*
X146500000Y-56900000D01*
X117750000Y-102950000D02*
X117700000Y-102900000D01*
D41*
X143175000Y-52600000D02*
X141700000Y-52600000D01*
D43*
X141700000Y-51900000D02*
X141600000Y-51800000D01*
D41*
X184375000Y-53250000D02*
X182950000Y-53250000D01*
X140815000Y-142510000D02*
X142240000Y-142510000D01*
D42*
X116900000Y-71500000D02*
X117500000Y-70900000D01*
D41*
X143175000Y-53250000D02*
X141750000Y-53250000D01*
D42*
X105750000Y-89950000D02*
X105700000Y-89900000D01*
X198900000Y-71500000D02*
X199500000Y-70900000D01*
X194750000Y-65950000D02*
X194700000Y-65900000D01*
D43*
X105700000Y-89900000D02*
X105600000Y-89800000D01*
D42*
X141750000Y-51950000D02*
X141700000Y-51900000D01*
D41*
X114175000Y-66600000D02*
X112700000Y-66600000D01*
D43*
X142290000Y-142560000D02*
X142390000Y-142660000D01*
X182900000Y-51900000D02*
X182800000Y-51800000D01*
X194700000Y-65900000D02*
X194600000Y-65800000D01*
D41*
X140815000Y-141210000D02*
X142240000Y-141210000D01*
X155175000Y-66600000D02*
X153700000Y-66600000D01*
D43*
X117700000Y-102900000D02*
X117600000Y-102800000D01*
D42*
X142240000Y-141210000D02*
X142290000Y-141160000D01*
X109900000Y-95500000D02*
X110500000Y-94900000D01*
D41*
X196175000Y-66600000D02*
X194700000Y-66600000D01*
D42*
X156700000Y-71500000D02*
X157900000Y-71500000D01*
X182950000Y-53250000D02*
X182900000Y-53300000D01*
D41*
X107175000Y-91250000D02*
X105750000Y-91250000D01*
D42*
X112750000Y-67250000D02*
X112700000Y-67300000D01*
X141750000Y-53250000D02*
X141700000Y-53300000D01*
D41*
X155175000Y-67250000D02*
X153750000Y-67250000D01*
X119175000Y-102950000D02*
X117750000Y-102950000D01*
X119175000Y-104250000D02*
X117750000Y-104250000D01*
D42*
X182950000Y-51950000D02*
X182900000Y-51900000D01*
D41*
X184375000Y-52600000D02*
X182900000Y-52600000D01*
D43*
X153700000Y-65900000D02*
X153600000Y-65800000D01*
D42*
X157900000Y-71500000D02*
X158500000Y-70900000D01*
D41*
X196175000Y-67250000D02*
X194750000Y-67250000D01*
D42*
X120700000Y-108500000D02*
X121900000Y-108500000D01*
D41*
X114175000Y-67250000D02*
X112750000Y-67250000D01*
D42*
X197700000Y-71500000D02*
X198900000Y-71500000D01*
D41*
X107175000Y-89950000D02*
X105750000Y-89950000D01*
X119175000Y-103600000D02*
X117700000Y-103600000D01*
X155175000Y-65950000D02*
X153750000Y-65950000D01*
D42*
X105750000Y-91250000D02*
X105700000Y-91300000D01*
X138090000Y-136960000D02*
X137490000Y-137560000D01*
X153750000Y-67250000D02*
X153700000Y-67300000D01*
X142240000Y-142510000D02*
X142290000Y-142560000D01*
D41*
X196175000Y-65950000D02*
X194750000Y-65950000D01*
D42*
X185900000Y-57500000D02*
X187100000Y-57500000D01*
D41*
X107175000Y-90600000D02*
X105700000Y-90600000D01*
X140815000Y-141860000D02*
X142290000Y-141860000D01*
X184375000Y-51950000D02*
X182950000Y-51950000D01*
D42*
X153750000Y-65950000D02*
X153700000Y-65900000D01*
X117750000Y-104250000D02*
X117700000Y-104300000D01*
X108700000Y-95500000D02*
X109900000Y-95500000D01*
X144700000Y-57500000D02*
X145900000Y-57500000D01*
%TO.N,/VDD3P3/VDD3P3_INT*%
X201850000Y-67250000D02*
X201900000Y-67300000D01*
D41*
X200475000Y-67250000D02*
X201850000Y-67250000D01*
X200475000Y-66600000D02*
X201900000Y-66600000D01*
D42*
X201850000Y-65950000D02*
X201900000Y-65900000D01*
D41*
X200475000Y-65950000D02*
X201850000Y-65950000D01*
D40*
%TO.N,Net-(U2-SET)*%
X202387500Y-70800000D02*
X202387500Y-68837500D01*
D42*
X202387500Y-68837500D02*
X202350000Y-68800000D01*
D41*
X202100000Y-68550000D02*
X202350000Y-68800000D01*
X200475000Y-68550000D02*
X202100000Y-68550000D01*
D42*
%TO.N,Net-(D2-K)*%
X189100000Y-55200000D02*
X188675000Y-55200000D01*
X189100000Y-56900000D02*
X189100000Y-55200000D01*
D44*
%TO.N,VDD3P3*%
X206381000Y-118090000D02*
X209475000Y-118090000D01*
X186940000Y-89590000D02*
X186960000Y-89570000D01*
X206381000Y-112590000D02*
X209200000Y-112590000D01*
X186940000Y-92409000D02*
X186940000Y-89590000D01*
D45*
X191795000Y-88630000D02*
X192460000Y-89295000D01*
D44*
X206381000Y-127520000D02*
X209200000Y-127520000D01*
X209200000Y-112590000D02*
X209220000Y-112610000D01*
D45*
X209510000Y-133060000D02*
X209490000Y-133040000D01*
D44*
X192440000Y-89315000D02*
X192460000Y-89295000D01*
D45*
X209890000Y-126250000D02*
X209890000Y-126870000D01*
X186070000Y-88680000D02*
X186960000Y-89570000D01*
D44*
X209475000Y-133020000D02*
X209495000Y-133040000D01*
D45*
X210170000Y-111660000D02*
X209220000Y-112610000D01*
X210170000Y-111180000D02*
X210170000Y-111660000D01*
X209890000Y-126870000D02*
X209220000Y-127540000D01*
X185470000Y-88680000D02*
X186070000Y-88680000D01*
X210250000Y-116730000D02*
X210250000Y-117360000D01*
D44*
X209200000Y-127520000D02*
X209220000Y-127540000D01*
X206381000Y-133020000D02*
X209475000Y-133020000D01*
X192440000Y-92409000D02*
X192440000Y-89315000D01*
D45*
X210250000Y-117360000D02*
X209500000Y-118110000D01*
D44*
X209475000Y-118090000D02*
X209495000Y-118110000D01*
D45*
X209510000Y-134500000D02*
X209510000Y-133060000D01*
X191030000Y-88630000D02*
X191795000Y-88630000D01*
D46*
%TO.N,VDDD2P5*%
X174402500Y-100435000D02*
X175457500Y-100435000D01*
X174402500Y-102375000D02*
X174402500Y-100435000D01*
D44*
X198790000Y-133020000D02*
X195696000Y-133020000D01*
D45*
X195200000Y-111190000D02*
X195200000Y-111860000D01*
D46*
X176610000Y-133470000D02*
X179747500Y-133470000D01*
D45*
X186090000Y-103710000D02*
X186960000Y-102840000D01*
D44*
X192440000Y-103094000D02*
X192460000Y-103114000D01*
D42*
X184057500Y-111810000D02*
X185400000Y-111810000D01*
D44*
X192440000Y-100000000D02*
X192440000Y-103094000D01*
D45*
X195110000Y-131610000D02*
X195110000Y-132470000D01*
D44*
X198790000Y-112590000D02*
X195971000Y-112590000D01*
X195696000Y-133020000D02*
X195676000Y-133040000D01*
D42*
X185400000Y-111810000D02*
X185870000Y-111340000D01*
D46*
X181080000Y-121820000D02*
X180140000Y-121820000D01*
D44*
X198790000Y-127520000D02*
X195971000Y-127520000D01*
D45*
X195290000Y-126880000D02*
X195950000Y-127540000D01*
X190970000Y-104070000D02*
X191500000Y-104070000D01*
D46*
X176610000Y-133470000D02*
X173472500Y-133470000D01*
D45*
X195200000Y-111860000D02*
X195950000Y-112610000D01*
X185870000Y-111340000D02*
X185290000Y-110760000D01*
D44*
X195696000Y-118090000D02*
X195676000Y-118110000D01*
D45*
X185580000Y-103710000D02*
X186090000Y-103710000D01*
D44*
X198790000Y-118090000D02*
X195696000Y-118090000D01*
D42*
X179370000Y-118997500D02*
X179370000Y-121050000D01*
D44*
X195971000Y-112590000D02*
X195951000Y-112610000D01*
D46*
X180140000Y-121820000D02*
X179640000Y-121320000D01*
D44*
X195971000Y-127520000D02*
X195951000Y-127540000D01*
D45*
X186520000Y-111340000D02*
X185870000Y-111340000D01*
X195110000Y-132470000D02*
X195680000Y-133040000D01*
X191500000Y-104070000D02*
X192460000Y-103110000D01*
X194880000Y-117310000D02*
X195680000Y-118110000D01*
D44*
X186940000Y-100000000D02*
X186940000Y-102819000D01*
D45*
X194880000Y-116750000D02*
X194880000Y-117310000D01*
D42*
X179370000Y-121050000D02*
X179640000Y-121320000D01*
D46*
X174402500Y-102375000D02*
X175460000Y-102375000D01*
D44*
X186940000Y-102819000D02*
X186960000Y-102839000D01*
D45*
X195290000Y-126100000D02*
X195290000Y-126880000D01*
D41*
%TO.N,Net-(U2-ILIM)*%
X194787500Y-70587500D02*
X196175000Y-69200000D01*
D42*
X194787500Y-70900000D02*
X194787500Y-70587500D01*
D41*
%TO.N,/VDDD2P5/VDDD2P5_INT*%
X188675000Y-52600000D02*
X190100000Y-52600000D01*
X188675000Y-51950000D02*
X190050000Y-51950000D01*
D42*
X190050000Y-53250000D02*
X190100000Y-53300000D01*
X190050000Y-51950000D02*
X190100000Y-51900000D01*
D41*
X188675000Y-53250000D02*
X190050000Y-53250000D01*
D42*
%TO.N,Net-(U3-SET)*%
X190587500Y-54837500D02*
X190550000Y-54800000D01*
D40*
X190587500Y-56800000D02*
X190587500Y-54837500D01*
D41*
X188675000Y-54550000D02*
X190300000Y-54550000D01*
X190300000Y-54550000D02*
X190550000Y-54800000D01*
D42*
%TO.N,/VDDD1P2/VDD1P2_INT*%
X160850000Y-67250000D02*
X160900000Y-67300000D01*
D41*
X159475000Y-67250000D02*
X160850000Y-67250000D01*
X159475000Y-66600000D02*
X160900000Y-66600000D01*
D42*
X160850000Y-65950000D02*
X160900000Y-65900000D01*
D41*
X159475000Y-65950000D02*
X160850000Y-65950000D01*
D42*
%TO.N,Net-(D3-K)*%
X159900000Y-70900000D02*
X159900000Y-69200000D01*
X159900000Y-69200000D02*
X159475000Y-69200000D01*
D45*
%TO.N,VDDD1P2*%
X178250000Y-108400000D02*
X177940000Y-108400000D01*
X175370000Y-108400000D02*
X175680000Y-108400000D01*
X177940000Y-108400000D02*
X176810000Y-109530000D01*
D42*
X177370000Y-110090000D02*
X176810000Y-109530000D01*
X177370000Y-111122500D02*
X177370000Y-110090000D01*
D45*
X175680000Y-108400000D02*
X176810000Y-109530000D01*
D42*
%TO.N,Net-(U3-ILIM)*%
X182987500Y-56900000D02*
X182987500Y-56587500D01*
D41*
X182987500Y-56587500D02*
X184375000Y-55200000D01*
D40*
%TO.N,Net-(U4-SET)*%
X161387500Y-70800000D02*
X161387500Y-68837500D01*
D41*
X161100000Y-68550000D02*
X161350000Y-68800000D01*
X159475000Y-68550000D02*
X161100000Y-68550000D01*
D42*
X161387500Y-68837500D02*
X161350000Y-68800000D01*
%TO.N,/VDDA2P5/VDDA2P5_INT*%
X135140000Y-141210000D02*
X135090000Y-141160000D01*
X135140000Y-142510000D02*
X135090000Y-142560000D01*
D41*
X136515000Y-141860000D02*
X135090000Y-141860000D01*
X136515000Y-141210000D02*
X135140000Y-141210000D01*
X136515000Y-142510000D02*
X135140000Y-142510000D01*
D42*
%TO.N,Net-(D4-K)*%
X136090000Y-137560000D02*
X136090000Y-139260000D01*
X136090000Y-139260000D02*
X136515000Y-139260000D01*
D45*
%TO.N,VDDA2P5*%
X173460000Y-118470000D02*
X173380000Y-118390000D01*
D42*
X123006000Y-136490000D02*
X123006000Y-134944000D01*
X175322584Y-117310000D02*
X174242584Y-118390000D01*
D45*
X174330000Y-118470000D02*
X173460000Y-118470000D01*
D42*
X123006000Y-134944000D02*
X124590000Y-133360000D01*
X176182500Y-117310000D02*
X175322584Y-117310000D01*
%TO.N,Net-(J16-Pin_2)*%
X124634000Y-136490000D02*
X124634000Y-139426000D01*
X124634000Y-139426000D02*
X124600000Y-139460000D01*
D41*
%TO.N,Net-(U4-ILIM)*%
X153787500Y-70587500D02*
X155175000Y-69200000D01*
D42*
X153787500Y-70900000D02*
X153787500Y-70587500D01*
D41*
%TO.N,Net-(U5-SET)*%
X136515000Y-139910000D02*
X134890000Y-139910000D01*
X134890000Y-139910000D02*
X134640000Y-139660000D01*
D40*
X134602500Y-137660000D02*
X134602500Y-139622500D01*
D42*
X134602500Y-139622500D02*
X134640000Y-139660000D01*
%TO.N,/VREF/VREF_INT*%
X119850000Y-67250000D02*
X119900000Y-67300000D01*
D41*
X118475000Y-65950000D02*
X119850000Y-65950000D01*
D42*
X119850000Y-65950000D02*
X119900000Y-65900000D01*
D41*
X118475000Y-66600000D02*
X119900000Y-66600000D01*
X118475000Y-67250000D02*
X119850000Y-67250000D01*
D42*
%TO.N,Net-(D5-K)*%
X118900000Y-70900000D02*
X118900000Y-69200000D01*
X118900000Y-69200000D02*
X118475000Y-69200000D01*
%TO.N,VREF*%
X171535000Y-115810000D02*
X170885000Y-116460000D01*
X131984000Y-71970000D02*
X131984000Y-73516000D01*
X131984000Y-73516000D02*
X130400000Y-75100000D01*
D45*
X170880000Y-115535500D02*
X170880000Y-116455000D01*
D42*
X176182500Y-115810000D02*
X171535000Y-115810000D01*
D45*
X170880000Y-116455000D02*
X170885000Y-116460000D01*
D42*
%TO.N,Net-(J20-Pin_2)*%
X130356000Y-71970000D02*
X130356000Y-69034000D01*
X130356000Y-69034000D02*
X130390000Y-69000000D01*
D41*
%TO.N,Net-(U5-ILIM)*%
X142202500Y-137872500D02*
X140815000Y-139260000D01*
D42*
X142202500Y-137560000D02*
X142202500Y-137872500D01*
D40*
%TO.N,Net-(U6-SET)*%
X120387500Y-68837500D02*
X120387500Y-71682500D01*
D41*
X120100000Y-68550000D02*
X120350000Y-68800000D01*
D42*
X120387500Y-68837500D02*
X120350000Y-68800000D01*
D40*
X116320000Y-72750000D02*
X114370000Y-74700000D01*
X119320000Y-72750000D02*
X116320000Y-72750000D01*
X120387500Y-71682500D02*
X119320000Y-72750000D01*
D41*
X118475000Y-68550000D02*
X120100000Y-68550000D01*
%TO.N,/VDDACORE/VDDTQ_INT*%
X111475000Y-91250000D02*
X112850000Y-91250000D01*
D42*
X112850000Y-91250000D02*
X112900000Y-91300000D01*
X112850000Y-89950000D02*
X112900000Y-89900000D01*
D41*
X111475000Y-90600000D02*
X112900000Y-90600000D01*
X111475000Y-89950000D02*
X112850000Y-89950000D01*
D40*
%TO.N,Net-(U8-SET)*%
X109320000Y-96750000D02*
X107370000Y-98700000D01*
X112320000Y-96750000D02*
X109320000Y-96750000D01*
D41*
X113100000Y-92550000D02*
X113350000Y-92800000D01*
D40*
X113387500Y-92837500D02*
X113387500Y-95682500D01*
X113387500Y-95682500D02*
X112320000Y-96750000D01*
D41*
X111475000Y-92550000D02*
X113100000Y-92550000D01*
D42*
X113387500Y-92837500D02*
X113350000Y-92800000D01*
D41*
%TO.N,/VDDACORE/VDDCCO_INT*%
X147475000Y-51950000D02*
X148850000Y-51950000D01*
X147475000Y-52600000D02*
X148900000Y-52600000D01*
D42*
X148850000Y-53250000D02*
X148900000Y-53300000D01*
D41*
X147475000Y-53250000D02*
X148850000Y-53250000D01*
D42*
X148850000Y-51950000D02*
X148900000Y-51900000D01*
%TO.N,Net-(D7-K)*%
X111900000Y-93200000D02*
X111475000Y-93200000D01*
X111900000Y-94900000D02*
X111900000Y-93200000D01*
%TO.N,Net-(D8-K)*%
X147900000Y-55200000D02*
X147475000Y-55200000D01*
X147900000Y-56900000D02*
X147900000Y-55200000D01*
%TO.N,VDDOSC*%
X174638000Y-116310000D02*
X174560000Y-116388000D01*
X176182500Y-116310000D02*
X174638000Y-116310000D01*
D45*
X169230000Y-118380000D02*
X170365000Y-118380000D01*
X170365000Y-118380000D02*
X170370000Y-118385000D01*
X169230000Y-119050000D02*
X169230000Y-118380000D01*
D42*
X136984000Y-108970000D02*
X136984000Y-110516000D01*
D45*
X170370000Y-118385000D02*
X170389594Y-118385000D01*
X170389594Y-118385000D02*
X172386594Y-116388000D01*
D42*
X136984000Y-110516000D02*
X135400000Y-112100000D01*
D45*
X172386594Y-116388000D02*
X174560000Y-116388000D01*
D40*
%TO.N,Net-(U7-SET)*%
X125387500Y-108682500D02*
X124320000Y-109750000D01*
X125387500Y-105837500D02*
X125387500Y-108682500D01*
D41*
X123475000Y-105550000D02*
X125100000Y-105550000D01*
X125100000Y-105550000D02*
X125350000Y-105800000D01*
D40*
X121320000Y-109750000D02*
X119370000Y-111700000D01*
D42*
X125387500Y-105837500D02*
X125350000Y-105800000D01*
D40*
X124320000Y-109750000D02*
X121320000Y-109750000D01*
D42*
%TO.N,VDDTQ*%
X124984000Y-95970000D02*
X124984000Y-96700000D01*
D45*
X171950406Y-118390000D02*
X172850406Y-117490000D01*
D42*
X172910000Y-117460000D02*
X172870000Y-117500000D01*
D45*
X171870000Y-118390000D02*
X171950406Y-118390000D01*
X127400000Y-96700000D02*
X126300000Y-96700000D01*
D42*
X174867703Y-117120000D02*
X174040000Y-117120000D01*
X176182500Y-116810000D02*
X175177703Y-116810000D01*
X174040000Y-117120000D02*
X173700000Y-117460000D01*
D45*
X126300000Y-95700000D02*
X126300000Y-96700000D01*
D42*
X124984000Y-96700000D02*
X124984000Y-97516000D01*
X175177703Y-116810000D02*
X174867703Y-117120000D01*
D43*
X126300000Y-96700000D02*
X124984000Y-96700000D01*
D42*
X173700000Y-117460000D02*
X172910000Y-117460000D01*
X124984000Y-97516000D02*
X123400000Y-99100000D01*
D45*
X127400000Y-95700000D02*
X126300000Y-95700000D01*
D42*
%TO.N,Net-(J28-Pin_2)*%
X123356000Y-95970000D02*
X123356000Y-93034000D01*
X123356000Y-93034000D02*
X123390000Y-93000000D01*
%TO.N,Net-(J32-Pin_2)*%
X159356000Y-55034000D02*
X159390000Y-55000000D01*
X159356000Y-57970000D02*
X159356000Y-55034000D01*
%TO.N,Net-(U6-ILIM)*%
X112787500Y-70900000D02*
X112787500Y-70587500D01*
D41*
X112787500Y-70587500D02*
X114175000Y-69200000D01*
%TO.N,/VDDACORE/VDDOSC_INT*%
X123475000Y-102950000D02*
X124850000Y-102950000D01*
X123475000Y-103600000D02*
X124900000Y-103600000D01*
D42*
X124850000Y-104250000D02*
X124900000Y-104300000D01*
X124850000Y-102950000D02*
X124900000Y-102900000D01*
D41*
X123475000Y-104250000D02*
X124850000Y-104250000D01*
%TO.N,Net-(U8-ILIM)*%
X105787500Y-94587500D02*
X107175000Y-93200000D01*
D42*
X105787500Y-94900000D02*
X105787500Y-94587500D01*
%TO.N,Net-(D6-K)*%
X123900000Y-106200000D02*
X123475000Y-106200000D01*
X123900000Y-107900000D02*
X123900000Y-106200000D01*
%TO.N,Net-(J27-Pin_2)*%
X135356000Y-108970000D02*
X135356000Y-106034000D01*
X135356000Y-106034000D02*
X135390000Y-106000000D01*
D41*
%TO.N,Net-(U7-ILIM)*%
X117787500Y-107587500D02*
X119175000Y-106200000D01*
D42*
X117787500Y-107900000D02*
X117787500Y-107587500D01*
D43*
%TO.N,/IREF*%
X174880000Y-114810000D02*
X174710000Y-114640000D01*
X176182500Y-114810000D02*
X174880000Y-114810000D01*
D47*
%TO.N,/CLKIN_P*%
X157841409Y-134901409D02*
X159500000Y-134901409D01*
D48*
X176041078Y-118931738D02*
X160212830Y-134759987D01*
D47*
X157499987Y-134759987D02*
X155612102Y-132872102D01*
D48*
X159871409Y-134901409D02*
X159500000Y-134901409D01*
X176182500Y-118590317D02*
X176182500Y-118310000D01*
X176041060Y-118931720D02*
G75*
G03*
X176182499Y-118590316I-341360J341420D01*
G01*
X159871409Y-134901423D02*
G75*
G03*
X160212829Y-134759986I-9J482823D01*
G01*
D47*
X157499989Y-134759984D02*
G75*
G03*
X157841409Y-134901409I341411J341384D01*
G01*
D48*
%TO.N,/CLKIN_N*%
X176248261Y-119138921D02*
X160432114Y-134955069D01*
X160290693Y-135296491D02*
X160290693Y-135700000D01*
X176589683Y-118997500D02*
X176870000Y-118997500D01*
D47*
X160290693Y-137342795D02*
X160290693Y-135700000D01*
X160432114Y-137684216D02*
X162320000Y-139572102D01*
X160290687Y-137342795D02*
G75*
G03*
X160432114Y-137684215I482813J-5D01*
G01*
D48*
X176589683Y-118997475D02*
G75*
G03*
X176248261Y-119138921I17J-482825D01*
G01*
X160432126Y-134955081D02*
G75*
G03*
X160290693Y-135296491I341374J-341419D01*
G01*
D43*
%TO.N,/SDA*%
X174856500Y-108612699D02*
X174856500Y-108187301D01*
X174856500Y-108187301D02*
X175630000Y-107413801D01*
X176182500Y-111810000D02*
X175330000Y-110957500D01*
X175330000Y-109086199D02*
X174856500Y-108612699D01*
X180298801Y-102245000D02*
X180460000Y-102245000D01*
X175630000Y-107413801D02*
X175630000Y-106913801D01*
X175630000Y-106913801D02*
X180298801Y-102245000D01*
X175330000Y-110957500D02*
X175330000Y-109086199D01*
X178330000Y-100435000D02*
X177282500Y-100435000D01*
%TO.N,/SCL*%
X175003000Y-112043000D02*
X175770000Y-112810000D01*
X178930000Y-98695000D02*
X178930000Y-103151353D01*
X174529500Y-108748147D02*
X175003000Y-109221647D01*
X175770000Y-112810000D02*
X176182500Y-112810000D01*
X180460000Y-97165000D02*
X178930000Y-98695000D01*
X174529500Y-108051853D02*
X174529500Y-108748147D01*
X177218177Y-104863177D02*
X175303000Y-106778353D01*
X175003000Y-109221647D02*
X175003000Y-112043000D01*
X177285000Y-102375000D02*
X177285000Y-104796354D01*
X175303000Y-107278353D02*
X174529500Y-108051853D01*
X177285000Y-104796354D02*
X177218177Y-104863177D01*
X175303000Y-106778353D02*
X175303000Y-107278353D01*
X178930000Y-103151353D02*
X177218177Y-104863177D01*
%TO.N,/CCOUT*%
X186490000Y-129330000D02*
X186490000Y-128130000D01*
X196510000Y-129370000D02*
X197360000Y-128520000D01*
X178370000Y-118997500D02*
X178370000Y-120577552D01*
X178033000Y-120914552D02*
X178033000Y-124435200D01*
X189704552Y-126097000D02*
X192977552Y-129370000D01*
X178370000Y-120577552D02*
X178033000Y-120914552D01*
X192977552Y-129370000D02*
X196510000Y-129370000D01*
X186490000Y-128130000D02*
X184457000Y-126097000D01*
X179694800Y-126097000D02*
X189704552Y-126097000D01*
X184457000Y-126097000D02*
X184450000Y-126097000D01*
X178033000Y-124435200D02*
X179694800Y-126097000D01*
X197360000Y-128520000D02*
X198799000Y-128520000D01*
%TO.N,/CLKRS*%
X178360000Y-121050000D02*
X178360000Y-124299752D01*
X189840000Y-125770000D02*
X192830000Y-128760000D01*
X178870000Y-120540000D02*
X178360000Y-121050000D01*
X184420000Y-125770000D02*
X189840000Y-125770000D01*
X179830248Y-125770000D02*
X184420000Y-125770000D01*
X196510000Y-128760000D02*
X197250000Y-128020000D01*
X192830000Y-128760000D02*
X196510000Y-128760000D01*
X186480000Y-123680000D02*
X184420000Y-125740000D01*
X197250000Y-128020000D02*
X198799000Y-128020000D01*
X184420000Y-125740000D02*
X184420000Y-125770000D01*
X178360000Y-124299752D02*
X179830248Y-125770000D01*
X178870000Y-118997500D02*
X178870000Y-120540000D01*
%TO.N,/DOUT18*%
X191954353Y-121782000D02*
X182255966Y-121782000D01*
X198790000Y-127020000D02*
X197192353Y-127020000D01*
X179870000Y-119396034D02*
X179870000Y-118997500D01*
X182255966Y-121782000D02*
X179870000Y-119396034D01*
X197192353Y-127020000D02*
X191954353Y-121782000D01*
%TO.N,/DOUT17*%
X180370000Y-119396034D02*
X180370000Y-118997500D01*
X182428966Y-121455000D02*
X180370000Y-119396034D01*
X192089801Y-121455000D02*
X182428966Y-121455000D01*
X197154801Y-126520000D02*
X192089801Y-121455000D01*
X198790000Y-126520000D02*
X197154801Y-126520000D01*
%TO.N,/DOUT16*%
X182601966Y-121128000D02*
X180870000Y-119396034D01*
X180870000Y-119396034D02*
X180870000Y-118997500D01*
X197913052Y-125520000D02*
X193520052Y-121127000D01*
X193520052Y-121127000D02*
X184677688Y-121127000D01*
X198790000Y-125520000D02*
X197913052Y-125520000D01*
X184676688Y-121128000D02*
X182601966Y-121128000D01*
X184677688Y-121127000D02*
X184676688Y-121128000D01*
%TO.N,/DOUT15*%
X181370000Y-118997500D02*
X181370000Y-119396034D01*
X184542240Y-120800000D02*
X193655500Y-120800000D01*
X184541240Y-120801000D02*
X184542240Y-120800000D01*
X193655500Y-120800000D02*
X197875500Y-125020000D01*
X181370000Y-119396034D02*
X182774966Y-120801000D01*
X197875500Y-125020000D02*
X198790000Y-125020000D01*
X182774966Y-120801000D02*
X184541240Y-120801000D01*
%TO.N,/DOUT14*%
X197417000Y-120497000D02*
X197510000Y-120590000D01*
X196174552Y-120191000D02*
X196480552Y-120497000D01*
X184405792Y-120474000D02*
X184688792Y-120191000D01*
X184688792Y-120191000D02*
X196174552Y-120191000D01*
X196480552Y-120497000D02*
X197417000Y-120497000D01*
X181870000Y-119396034D02*
X182947966Y-120474000D01*
X181870000Y-118997500D02*
X181870000Y-119396034D01*
X197510000Y-120590000D02*
X198805000Y-120590000D01*
X182947966Y-120474000D02*
X184405792Y-120474000D01*
%TO.N,/DOUT13*%
X196310000Y-119864000D02*
X196616000Y-120170000D01*
X196616000Y-120170000D02*
X197410000Y-120170000D01*
X182370000Y-118997500D02*
X182370000Y-119396034D01*
X197410000Y-120170000D02*
X197490000Y-120090000D01*
X197490000Y-120090000D02*
X198805000Y-120090000D01*
X184270344Y-120147000D02*
X184553344Y-119864000D01*
X184553344Y-119864000D02*
X196310000Y-119864000D01*
X182370000Y-119396034D02*
X183120966Y-120147000D01*
X183120966Y-120147000D02*
X184270344Y-120147000D01*
%TO.N,/DOUT12*%
X182870000Y-118997500D02*
X182870000Y-119396034D01*
X198790000Y-119090000D02*
X196892448Y-119090000D01*
X196892448Y-119090000D02*
X196445448Y-119537000D01*
X184417896Y-119537000D02*
X193160000Y-119537000D01*
X182870000Y-119396034D02*
X183293966Y-119820000D01*
X184134896Y-119820000D02*
X184417896Y-119537000D01*
X183293966Y-119820000D02*
X184134896Y-119820000D01*
X196445448Y-119537000D02*
X193151000Y-119537000D01*
%TO.N,/DOUT11*%
X196310000Y-119210000D02*
X196930000Y-118590000D01*
X196930000Y-118590000D02*
X198790000Y-118590000D01*
X183370000Y-118997500D02*
X183582500Y-119210000D01*
X183582500Y-119210000D02*
X196310000Y-119210000D01*
%TO.N,/DOUT10*%
X195216052Y-115887500D02*
X192093332Y-115887500D01*
X186415032Y-116037000D02*
X185090000Y-117362032D01*
X192093332Y-115887500D02*
X191943832Y-116037000D01*
X191943832Y-116037000D02*
X186415032Y-116037000D01*
X185090000Y-117940000D02*
X184720000Y-118310000D01*
X196918552Y-117590000D02*
X195216052Y-115887500D01*
X185090000Y-117362032D02*
X185090000Y-117940000D01*
X184720000Y-118310000D02*
X184057500Y-118310000D01*
X198790000Y-117590000D02*
X196918552Y-117590000D01*
%TO.N,/DOUT9*%
X184679584Y-117310000D02*
X186279584Y-115710000D01*
X191957884Y-115560500D02*
X193750000Y-115560500D01*
X195351500Y-115560500D02*
X193751000Y-115560500D01*
X184057500Y-117310000D02*
X184679584Y-117310000D01*
X191808384Y-115710000D02*
X191957884Y-115560500D01*
X197737500Y-117090000D02*
X197651000Y-117003500D01*
X197651000Y-117003500D02*
X196794500Y-117003500D01*
X196794500Y-117003500D02*
X195351500Y-115560500D01*
X186279584Y-115710000D02*
X191808384Y-115710000D01*
X198790000Y-117090000D02*
X197737500Y-117090000D01*
%TO.N,/DOUT8*%
X186144136Y-115383000D02*
X191672936Y-115383000D01*
X191822436Y-115233500D02*
X195487156Y-115233500D01*
X184717136Y-116810000D02*
X186144136Y-115383000D01*
X191672936Y-115383000D02*
X191822436Y-115233500D01*
X184057500Y-116810000D02*
X184717136Y-116810000D01*
X197651000Y-115917000D02*
X197824000Y-116090000D01*
X197824000Y-116090000D02*
X198790000Y-116090000D01*
X196170656Y-115917000D02*
X197651000Y-115917000D01*
X195487156Y-115233500D02*
X196170656Y-115917000D01*
%TO.N,/DOUT7*%
X184754688Y-116310000D02*
X186008688Y-115056000D01*
X191537488Y-115056000D02*
X191686988Y-114906500D01*
X195622604Y-114906500D02*
X196306104Y-115590000D01*
X196306104Y-115590000D02*
X198790000Y-115590000D01*
X186008688Y-115056000D02*
X191537488Y-115056000D01*
X191686988Y-114906500D02*
X195622604Y-114906500D01*
X184057500Y-116310000D02*
X184754688Y-116310000D01*
%TO.N,/DOUT6*%
X184057500Y-115810000D02*
X184792240Y-115810000D01*
X191551540Y-114579500D02*
X195758052Y-114579500D01*
X197149147Y-115250500D02*
X197309647Y-115090000D01*
X185873240Y-114729000D02*
X191402040Y-114729000D01*
X191402040Y-114729000D02*
X191551540Y-114579500D01*
X195758052Y-114579500D02*
X196429052Y-115250500D01*
X196429052Y-115250500D02*
X197149147Y-115250500D01*
X197309647Y-115090000D02*
X198790000Y-115090000D01*
X184792240Y-115810000D02*
X185873240Y-114729000D01*
%TO.N,/DOUT5*%
X184057500Y-115310000D02*
X184829792Y-115310000D01*
X185737792Y-114402000D02*
X191266592Y-114402000D01*
X198790000Y-114590000D02*
X197347199Y-114590000D01*
X196564500Y-114923500D02*
X195893500Y-114252500D01*
X191416092Y-114252500D02*
X193540000Y-114252500D01*
X197013699Y-114923500D02*
X196564500Y-114923500D01*
X197347199Y-114590000D02*
X197013699Y-114923500D01*
X195893500Y-114252500D02*
X193451000Y-114252500D01*
X184829792Y-115310000D02*
X185737792Y-114402000D01*
X191266592Y-114402000D02*
X191416092Y-114252500D01*
%TO.N,/DOUT4*%
X184867344Y-114810000D02*
X185602344Y-114075000D01*
X191131144Y-114075000D02*
X191280644Y-113925500D01*
X196586448Y-113925500D02*
X196921948Y-113590000D01*
X191280644Y-113925500D02*
X196586448Y-113925500D01*
X184057500Y-114810000D02*
X184867344Y-114810000D01*
X196921948Y-113590000D02*
X198790000Y-113590000D01*
X185602344Y-114075000D02*
X191131144Y-114075000D01*
%TO.N,/DOUT3*%
X184904896Y-114310000D02*
X185466896Y-113748000D01*
X190995696Y-113748000D02*
X191106848Y-113636848D01*
X185466896Y-113748000D02*
X190995696Y-113748000D01*
X196451000Y-113598500D02*
X191145196Y-113598500D01*
X198790000Y-113090000D02*
X196959500Y-113090000D01*
X191145196Y-113598500D02*
X191106848Y-113636848D01*
X196959500Y-113090000D02*
X196451000Y-113598500D01*
X184057500Y-114310000D02*
X184904896Y-114310000D01*
%TO.N,/DOUT2*%
X195142154Y-110521647D02*
X194042301Y-111621500D01*
X185331448Y-113421000D02*
X184942448Y-113810000D01*
X197192353Y-112090000D02*
X195624000Y-110521647D01*
X195624000Y-110521647D02*
X195142154Y-110521647D01*
X192659748Y-111621500D02*
X190860248Y-113421000D01*
X194042301Y-111621500D02*
X192659748Y-111621500D01*
X184942448Y-113810000D02*
X184057500Y-113810000D01*
X198790000Y-112090000D02*
X197192353Y-112090000D01*
X190860248Y-113421000D02*
X185331448Y-113421000D01*
%TO.N,/DOUT1*%
X195006706Y-110194647D02*
X195759448Y-110194647D01*
X192524300Y-111294500D02*
X193906853Y-111294500D01*
X190724800Y-113094000D02*
X192524300Y-111294500D01*
X198790000Y-111590000D02*
X197154801Y-111590000D01*
X193906853Y-111294500D02*
X195006706Y-110194647D01*
X195759448Y-110194647D02*
X196122401Y-110557600D01*
X184980000Y-113310000D02*
X185196000Y-113094000D01*
X197154801Y-111590000D02*
X195951000Y-110386199D01*
X185196000Y-113094000D02*
X190724800Y-113094000D01*
X184057500Y-113310000D02*
X184980000Y-113310000D01*
%TO.N,/DOUT0*%
X197913052Y-110590000D02*
X197231526Y-109908474D01*
X184057500Y-112810000D02*
X185020000Y-112810000D01*
X185020000Y-112810000D02*
X185063000Y-112767000D01*
X190589352Y-112767000D02*
X192388852Y-110967500D01*
X194719853Y-109867647D02*
X197190699Y-109867647D01*
X185063000Y-112767000D02*
X190589352Y-112767000D01*
X197190699Y-109867647D02*
X197231526Y-109908474D01*
X193620000Y-110967500D02*
X194719853Y-109867647D01*
X198790000Y-110590000D02*
X197913052Y-110590000D01*
X192388852Y-110967500D02*
X193620000Y-110967500D01*
%TO.N,/CLKOUT*%
X190453904Y-112440000D02*
X192253404Y-110640500D01*
X185060000Y-112440000D02*
X190453904Y-112440000D01*
X197326147Y-109540647D02*
X197875500Y-110090000D01*
X184057500Y-112310000D02*
X184930000Y-112310000D01*
X184930000Y-112310000D02*
X185060000Y-112440000D01*
X194584405Y-109540647D02*
X197326147Y-109540647D01*
X197875500Y-110090000D02*
X198790000Y-110090000D01*
X192253404Y-110640500D02*
X193484552Y-110640500D01*
X193484552Y-110640500D02*
X194584405Y-109540647D01*
%TO.N,/AUX0*%
X183563568Y-109753568D02*
X187932568Y-109753568D01*
X183370000Y-111122500D02*
X183370000Y-109947136D01*
X187932568Y-109753568D02*
X190237500Y-107448636D01*
X183370000Y-109947136D02*
X183563568Y-109753568D01*
X190237500Y-103573948D02*
X191940000Y-101871448D01*
X191940000Y-101871448D02*
X191940000Y-100000000D01*
X190237500Y-107448636D02*
X190237500Y-103573948D01*
%TO.N,/AUX1*%
X182870000Y-111122500D02*
X182870000Y-109984688D01*
X191353500Y-101139000D02*
X191440000Y-101052500D01*
X189910500Y-103438500D02*
X191353500Y-101995500D01*
X191440000Y-101052500D02*
X191440000Y-100000000D01*
X189910500Y-107313188D02*
X189910500Y-103438500D01*
X187831688Y-109392000D02*
X189910500Y-107313188D01*
X183462688Y-109392000D02*
X187831688Y-109392000D01*
X182870000Y-109984688D02*
X183462688Y-109392000D01*
X191353500Y-101995500D02*
X191353500Y-101139000D01*
%TO.N,/AUX2*%
X187696240Y-109065000D02*
X189583500Y-107177740D01*
X182370000Y-111122500D02*
X182370000Y-110022240D01*
X190267000Y-102619344D02*
X190267000Y-101139000D01*
X189583500Y-107177740D02*
X189583500Y-103302844D01*
X183327240Y-109065000D02*
X187696240Y-109065000D01*
X182370000Y-110022240D02*
X183327240Y-109065000D01*
X189583500Y-103302844D02*
X190267000Y-102619344D01*
X190440000Y-100966000D02*
X190440000Y-100000000D01*
X190267000Y-101139000D02*
X190440000Y-100966000D01*
%TO.N,/AUX3*%
X189256500Y-107042292D02*
X189256500Y-103167396D01*
X181870000Y-110059792D02*
X183191792Y-108738000D01*
X189940000Y-102483896D02*
X189940000Y-100000000D01*
X181870000Y-111122500D02*
X181870000Y-110059792D01*
X183191792Y-108738000D02*
X187560792Y-108738000D01*
X187560792Y-108738000D02*
X189256500Y-107042292D01*
X189256500Y-103167396D02*
X189940000Y-102483896D01*
%TO.N,/AUX4*%
X183056344Y-108411000D02*
X187425344Y-108411000D01*
X189600500Y-102360948D02*
X189600500Y-101640853D01*
X181370000Y-110097344D02*
X183056344Y-108411000D01*
X188929500Y-106906844D02*
X188929500Y-103031948D01*
X188929500Y-103031948D02*
X189600500Y-102360948D01*
X189440000Y-101480353D02*
X189440000Y-100000000D01*
X187425344Y-108411000D02*
X188929500Y-106906844D01*
X181370000Y-111122500D02*
X181370000Y-110097344D01*
X189600500Y-101640853D02*
X189440000Y-101480353D01*
%TO.N,/AUX5*%
X187289896Y-108084000D02*
X188602500Y-106771396D01*
X189273500Y-101776301D02*
X188940000Y-101442801D01*
X188602500Y-106771396D02*
X188602500Y-102896500D01*
X188602500Y-102896500D02*
X189273500Y-102225500D01*
X180870000Y-110134896D02*
X182920896Y-108084000D01*
X180870000Y-111122500D02*
X180870000Y-110134896D01*
X189273500Y-102225500D02*
X189273500Y-101776301D01*
X188940000Y-101442801D02*
X188940000Y-100000000D01*
X182920896Y-108084000D02*
X187289896Y-108084000D01*
%TO.N,/AUX6*%
X188275500Y-102203552D02*
X187940000Y-101868052D01*
X187154448Y-107757000D02*
X188275500Y-106635948D01*
X188275500Y-106635948D02*
X188275500Y-102203552D01*
X182785448Y-107757000D02*
X187154448Y-107757000D01*
X180370000Y-110172448D02*
X182785448Y-107757000D01*
X180370000Y-111122500D02*
X180370000Y-110172448D01*
X187940000Y-101868052D02*
X187940000Y-100000000D01*
%TO.N,/AUX7*%
X182650000Y-107430000D02*
X187019000Y-107430000D01*
X179870000Y-111122500D02*
X179870000Y-110210000D01*
X187948500Y-102339000D02*
X187440000Y-101830500D01*
X187440000Y-101830500D02*
X187440000Y-100000000D01*
X187948500Y-106500500D02*
X187948500Y-102339000D01*
X179870000Y-110210000D02*
X182650000Y-107430000D01*
X187019000Y-107430000D02*
X187948500Y-106500500D01*
%TO.N,/AUX8*%
X184871647Y-103166000D02*
X186440000Y-101597647D01*
X179370000Y-111122500D02*
X179370000Y-109397344D01*
X184871647Y-103895697D02*
X184871647Y-103166000D01*
X186440000Y-101597647D02*
X186440000Y-100000000D01*
X179370000Y-109397344D02*
X184871647Y-103895697D01*
%TO.N,/AUX9*%
X184544647Y-103760249D02*
X184544647Y-103030552D01*
X185940000Y-101635199D02*
X185940000Y-100000000D01*
X178870000Y-111122500D02*
X178870000Y-109434896D01*
X184544647Y-103030552D02*
X185940000Y-101635199D01*
X178870000Y-109434896D02*
X184544647Y-103760249D01*
%TO.N,/AUX10*%
X184940000Y-100876948D02*
X184217647Y-101599301D01*
X178370000Y-111122500D02*
X178370000Y-109472448D01*
X184217647Y-103624801D02*
X184217647Y-103080000D01*
X178370000Y-109472448D02*
X184217647Y-103624801D01*
X184217647Y-101599301D02*
X184217647Y-103080000D01*
X184940000Y-100000000D02*
X184940000Y-100876948D01*
%TO.N,/AUX11*%
X183890647Y-101463853D02*
X184440000Y-100914500D01*
X177870000Y-111122500D02*
X177870000Y-109510000D01*
X184440000Y-100914500D02*
X184440000Y-100000000D01*
X177870000Y-109510000D02*
X183890647Y-103489353D01*
X183890647Y-103489353D02*
X183890647Y-101463853D01*
D42*
%TO.N,Net-(U9-ILIM)*%
X141787500Y-56900000D02*
X141787500Y-56587500D01*
D41*
X141787500Y-56587500D02*
X143175000Y-55200000D01*
D43*
%TO.N,/DIGBUF_LEVSHIFT/DOUT_BUF0*%
X222929500Y-107375604D02*
X222929500Y-103210500D01*
X207705222Y-110590000D02*
X207856500Y-110438722D01*
X207856500Y-110438722D02*
X207856500Y-110297301D01*
X208286154Y-109867647D02*
X220437457Y-109867647D01*
X207856500Y-110297301D02*
X208286154Y-109867647D01*
X206381000Y-110590000D02*
X207705222Y-110590000D01*
X220437457Y-109867647D02*
X222929500Y-107375604D01*
X222929500Y-103210500D02*
X224370000Y-101770000D01*
%TO.N,/DIGBUF_LEVSHIFT/DOUT_BUF1*%
X223256500Y-107511052D02*
X223256500Y-105423500D01*
X208016199Y-111590000D02*
X209411552Y-110194647D01*
X223256500Y-105423500D02*
X224370000Y-104310000D01*
X206381000Y-111590000D02*
X208016199Y-111590000D01*
X209411552Y-110194647D02*
X220572905Y-110194647D01*
X220572905Y-110194647D02*
X223256500Y-107511052D01*
%TO.N,/DIGBUF_LEVSHIFT/DOUT_BUF2*%
X206381000Y-112090000D02*
X207978647Y-112090000D01*
X209547000Y-110521647D02*
X220708353Y-110521647D01*
X224370000Y-106860000D02*
X224370000Y-106850000D01*
X207978647Y-112090000D02*
X209547000Y-110521647D01*
X220708353Y-110521647D02*
X224370000Y-106860000D01*
%TO.N,/DIGBUF_LEVSHIFT/DOUT_BUF3*%
X208720000Y-113598500D02*
X212511252Y-113598500D01*
X215261105Y-110848647D02*
X222911353Y-110848647D01*
X208211500Y-113090000D02*
X208720000Y-113598500D01*
X222911353Y-110848647D02*
X224370000Y-109390000D01*
X212511252Y-113598500D02*
X215261105Y-110848647D01*
X206381000Y-113090000D02*
X208211500Y-113090000D01*
%TO.N,/DIGBUF_LEVSHIFT/DOUT_BUF4*%
X208584552Y-113925500D02*
X212646700Y-113925500D01*
X208249052Y-113590000D02*
X208584552Y-113925500D01*
X206381000Y-113590000D02*
X208249052Y-113590000D01*
X212646700Y-113925500D02*
X214642200Y-111930000D01*
X214642200Y-111930000D02*
X224370000Y-111930000D01*
%TO.N,/DIGBUF_LEVSHIFT/DOUT_BUF5*%
X208606500Y-114923500D02*
X209277500Y-114252500D01*
X209277500Y-114252500D02*
X217254740Y-114252500D01*
X217254740Y-114252500D02*
X217472240Y-114470000D01*
X208157301Y-114923500D02*
X208606500Y-114923500D01*
X207823801Y-114590000D02*
X208157301Y-114923500D01*
X206381000Y-114590000D02*
X207823801Y-114590000D01*
X217472240Y-114470000D02*
X224370000Y-114470000D01*
%TO.N,/DIGBUF_LEVSHIFT/DOUT_BUF6*%
X208741948Y-115250500D02*
X209412948Y-114579500D01*
X207861353Y-115090000D02*
X208021853Y-115250500D01*
X208021853Y-115250500D02*
X208741948Y-115250500D01*
X217119292Y-114579500D02*
X219549792Y-117010000D01*
X209412948Y-114579500D02*
X217119292Y-114579500D01*
X206381000Y-115090000D02*
X207861353Y-115090000D01*
X219549792Y-117010000D02*
X224370000Y-117010000D01*
%TO.N,/DIGBUF_LEVSHIFT/DOUT_BUF7*%
X206381000Y-115590000D02*
X208864896Y-115590000D01*
X208864896Y-115590000D02*
X209548396Y-114906500D01*
X222500000Y-117680000D02*
X224370000Y-119550000D01*
X216983844Y-114906500D02*
X219757344Y-117680000D01*
X219757344Y-117680000D02*
X222500000Y-117680000D01*
X209548396Y-114906500D02*
X216983844Y-114906500D01*
%TO.N,/DIGBUF_LEVSHIFT/DOUT_BUF8*%
X222173000Y-119893000D02*
X224370000Y-122090000D01*
X221507896Y-119893000D02*
X222173000Y-119893000D01*
X216848396Y-115233500D02*
X221507896Y-119893000D01*
X209683844Y-115233500D02*
X216848396Y-115233500D01*
X206381000Y-116090000D02*
X207347000Y-116090000D01*
X207347000Y-116090000D02*
X207520000Y-115917000D01*
X207520000Y-115917000D02*
X209000344Y-115917000D01*
X209000344Y-115917000D02*
X209683844Y-115233500D01*
%TO.N,/DIGBUF_LEVSHIFT/DOUT_BUF9*%
X221846000Y-122106000D02*
X224370000Y-124630000D01*
X208376500Y-117003500D02*
X209819500Y-115560500D01*
X221846000Y-120693552D02*
X221846000Y-122106000D01*
X216712948Y-115560500D02*
X221846000Y-120693552D01*
X209819500Y-115560500D02*
X216712948Y-115560500D01*
X206381000Y-117090000D02*
X207433500Y-117090000D01*
X207433500Y-117090000D02*
X207520000Y-117003500D01*
X207520000Y-117003500D02*
X208376500Y-117003500D01*
%TO.N,/DIGBUF_LEVSHIFT/DOUT_BUF10*%
X206381000Y-117590000D02*
X208252448Y-117590000D01*
X221519000Y-124319000D02*
X224370000Y-127170000D01*
X209954948Y-115887500D02*
X216577500Y-115887500D01*
X221519000Y-120829000D02*
X221519000Y-124319000D01*
X216577500Y-115887500D02*
X221519000Y-120829000D01*
X208252448Y-117590000D02*
X209954948Y-115887500D01*
%TO.N,/DIGBUF_LEVSHIFT/DOUT_BUF11*%
X221192000Y-126532000D02*
X224370000Y-129710000D01*
X206381000Y-118590000D02*
X207912448Y-118590000D01*
X219430000Y-119210000D02*
X221192000Y-120972000D01*
X207912448Y-118590000D02*
X208532448Y-119210000D01*
X221192000Y-120972000D02*
X221192000Y-126532000D01*
X208532448Y-119210000D02*
X219430000Y-119210000D01*
%TO.N,/DIGBUF_LEVSHIFT/DOUT_BUF12*%
X207950000Y-119090000D02*
X208397000Y-119537000D01*
X219294552Y-119537000D02*
X220865000Y-121107448D01*
X220865000Y-128745000D02*
X224370000Y-132250000D01*
X220865000Y-121107448D02*
X220865000Y-128745000D01*
X206381000Y-119090000D02*
X207950000Y-119090000D01*
X208397000Y-119537000D02*
X219294552Y-119537000D01*
%TO.N,/DIGBUF_LEVSHIFT/DOUT_BUF13*%
X208420000Y-119864000D02*
X219159104Y-119864000D01*
X206381000Y-120090000D02*
X208194000Y-120090000D01*
X219159104Y-119864000D02*
X220538000Y-121242896D01*
X208194000Y-120090000D02*
X208420000Y-119864000D01*
X220538000Y-121242896D02*
X220538000Y-130958000D01*
X220538000Y-130958000D02*
X224370000Y-134790000D01*
%TO.N,/DIGBUF_LEVSHIFT/DOUT_BUF14*%
X208156448Y-120590000D02*
X208521000Y-120225448D01*
X220211000Y-121378344D02*
X220211000Y-133171000D01*
X220211000Y-133171000D02*
X224370000Y-137330000D01*
X206381000Y-120590000D02*
X208156448Y-120590000D01*
X219058104Y-120225448D02*
X220211000Y-121378344D01*
X208521000Y-120225448D02*
X219058104Y-120225448D01*
%TO.N,/DIGBUF_LEVSHIFT/DOUT_BUF15*%
X211946596Y-124599500D02*
X214164500Y-126817404D01*
X214164500Y-129347156D02*
X222020000Y-137202656D01*
X206375000Y-125020000D02*
X207601353Y-125020000D01*
X214164500Y-126817404D02*
X214164500Y-129347156D01*
X207601353Y-125020000D02*
X208021853Y-124599500D01*
X208021853Y-124599500D02*
X211946596Y-124599500D01*
X222020000Y-137202656D02*
X222020000Y-137520000D01*
X222020000Y-137520000D02*
X224370000Y-139870000D01*
%TO.N,/DIGBUF_LEVSHIFT/DOUT_BUF16*%
X221693000Y-137338104D02*
X221693000Y-139733000D01*
X207563801Y-125520000D02*
X208157301Y-124926500D01*
X211811148Y-124926500D02*
X213837500Y-126952852D01*
X213837500Y-126952852D02*
X213837500Y-129482604D01*
X213837500Y-129482604D02*
X221693000Y-137338104D01*
X206375000Y-125520000D02*
X207563801Y-125520000D01*
X221693000Y-139733000D02*
X224370000Y-142410000D01*
X208157301Y-124926500D02*
X211811148Y-124926500D01*
%TO.N,/DIGBUF_LEVSHIFT/DOUT_BUF17*%
X213510500Y-129618052D02*
X221366000Y-137473552D01*
X206381000Y-126520000D02*
X208016199Y-126520000D01*
X213510500Y-127088300D02*
X213510500Y-129618052D01*
X211831700Y-125409500D02*
X213510500Y-127088300D01*
X221366000Y-141946000D02*
X224370000Y-144950000D01*
X208016199Y-126520000D02*
X209126699Y-125409500D01*
X221366000Y-137473552D02*
X221366000Y-141946000D01*
X209126699Y-125409500D02*
X211831700Y-125409500D01*
%TO.N,/DIGBUF_LEVSHIFT/DOUT_BUF18*%
X209262147Y-125736500D02*
X211696252Y-125736500D01*
X213183500Y-127223748D02*
X213183500Y-129753500D01*
X206381000Y-127020000D02*
X207978647Y-127020000D01*
X221039000Y-137609000D02*
X221039000Y-144159000D01*
X221039000Y-144159000D02*
X224370000Y-147490000D01*
X207978647Y-127020000D02*
X209262147Y-125736500D01*
X213183500Y-129753500D02*
X221039000Y-137609000D01*
X211696252Y-125736500D02*
X213183500Y-127223748D01*
%TO.N,/DIGBUF_LEVSHIFT/CLKOUT_BUF*%
X207601353Y-110090000D02*
X208150706Y-109540647D01*
X220302009Y-109540647D02*
X222602500Y-107240156D01*
X222602500Y-107240156D02*
X222602500Y-100997500D01*
X208150706Y-109540647D02*
X220302009Y-109540647D01*
X222602500Y-100997500D02*
X224370000Y-99230000D01*
X206381000Y-110090000D02*
X207601353Y-110090000D01*
%TO.N,/DIGBUF_LEVSHIFT/CCOUT_BUF*%
X222523000Y-94843000D02*
X224370000Y-96690000D01*
X222523000Y-90103000D02*
X222523000Y-94843000D01*
X193440000Y-90840000D02*
X196442000Y-87838000D01*
X196442000Y-87838000D02*
X220258000Y-87838000D01*
X220258000Y-87838000D02*
X222523000Y-90103000D01*
X193440000Y-92409000D02*
X193440000Y-90840000D01*
%TO.N,/DIGBUF_LEVSHIFT/CLKRS_BUF*%
X222850000Y-89967552D02*
X222850000Y-92630000D01*
X192940000Y-90877552D02*
X196306552Y-87511000D01*
X196306552Y-87511000D02*
X220393448Y-87511000D01*
X220393448Y-87511000D02*
X222850000Y-89967552D01*
X222850000Y-92630000D02*
X224370000Y-94150000D01*
X192940000Y-92409000D02*
X192940000Y-90877552D01*
%TO.N,/DIGBUF_LEVSHIFT/AUX_BUF0*%
X220528896Y-87184000D02*
X224370000Y-91025104D01*
X224370000Y-91025104D02*
X224370000Y-91610000D01*
X191940000Y-90537552D02*
X190237500Y-88835052D01*
X190237500Y-88835052D02*
X190237500Y-87370000D01*
X192776252Y-85606500D02*
X194353752Y-87184000D01*
X194353752Y-87184000D02*
X220528896Y-87184000D01*
X190237500Y-87370000D02*
X192001000Y-85606500D01*
X191940000Y-92409000D02*
X191940000Y-90537552D01*
X192001000Y-85606500D02*
X192776252Y-85606500D01*
%TO.N,/DIGBUF_LEVSHIFT/AUX_BUF1*%
X191353500Y-91270000D02*
X191353500Y-90413500D01*
X192911700Y-85279500D02*
X194489200Y-86857000D01*
X191440000Y-91356500D02*
X191353500Y-91270000D01*
X194489200Y-86857000D02*
X220664344Y-86857000D01*
X191353500Y-90413500D02*
X189910500Y-88970500D01*
X222877344Y-89070000D02*
X224370000Y-89070000D01*
X220664344Y-86857000D02*
X222877344Y-89070000D01*
X191440000Y-92409000D02*
X191440000Y-91356500D01*
X189910500Y-88970500D02*
X189910500Y-87234552D01*
X189910500Y-87234552D02*
X191865552Y-85279500D01*
X191865552Y-85279500D02*
X192911700Y-85279500D01*
%TO.N,/DIGBUF_LEVSHIFT/AUX_BUF2*%
X193047148Y-84952500D02*
X194624648Y-86530000D01*
X194624648Y-86530000D02*
X224370000Y-86530000D01*
X190440000Y-92409000D02*
X190440000Y-91443000D01*
X190267000Y-91270000D02*
X190267000Y-89789656D01*
X189583500Y-89106156D02*
X189583500Y-87099104D01*
X190440000Y-91443000D02*
X190267000Y-91270000D01*
X190267000Y-89789656D02*
X189583500Y-89106156D01*
X189583500Y-87099104D02*
X191730104Y-84952500D01*
X191730104Y-84952500D02*
X193047148Y-84952500D01*
%TO.N,/DIGBUF_LEVSHIFT/AUX_BUF3*%
X189940000Y-92409000D02*
X189940000Y-89925104D01*
X189256500Y-89241604D02*
X189256500Y-86963656D01*
X189940000Y-89925104D02*
X189256500Y-89241604D01*
X191594656Y-84625500D02*
X223734500Y-84625500D01*
X223734500Y-84625500D02*
X224370000Y-83990000D01*
X189256500Y-86963656D02*
X191594656Y-84625500D01*
%TO.N,/DIGBUF_LEVSHIFT/AUX_BUF4*%
X189600500Y-90048052D02*
X188929500Y-89377052D01*
X188929500Y-89377052D02*
X188929500Y-86828208D01*
X220360000Y-84250000D02*
X223160000Y-81450000D01*
X189440000Y-90928647D02*
X189600500Y-90768147D01*
X191507708Y-84250000D02*
X220360000Y-84250000D01*
X223160000Y-81450000D02*
X224370000Y-81450000D01*
X189440000Y-92409000D02*
X189440000Y-90928647D01*
X189600500Y-90768147D02*
X189600500Y-90048052D01*
X188929500Y-86828208D02*
X191507708Y-84250000D01*
%TO.N,/DIGBUF_LEVSHIFT/AUX_BUF5*%
X188940000Y-90966199D02*
X189273500Y-90632699D01*
X189273500Y-90632699D02*
X189273500Y-90183500D01*
X188602500Y-86692760D02*
X191372260Y-83923000D01*
X220219240Y-83923000D02*
X222780000Y-81362240D01*
X189273500Y-90183500D02*
X188602500Y-89512500D01*
X188602500Y-89512500D02*
X188602500Y-86692760D01*
X188940000Y-92409000D02*
X188940000Y-90966199D01*
X222780000Y-80500000D02*
X224370000Y-78910000D01*
X222780000Y-81362240D02*
X222780000Y-80500000D01*
X191372260Y-83923000D02*
X220219240Y-83923000D01*
%TO.N,/DIGBUF_LEVSHIFT/AUX_BUF6*%
X222453000Y-78287000D02*
X224370000Y-76370000D01*
X191236812Y-83596000D02*
X220083792Y-83596000D01*
X187940000Y-90540948D02*
X188275500Y-90205448D01*
X188275500Y-86557312D02*
X191236812Y-83596000D01*
X220083792Y-83596000D02*
X222453000Y-81226792D01*
X222453000Y-81226792D02*
X222453000Y-78287000D01*
X188275500Y-90205448D02*
X188275500Y-86557312D01*
X187940000Y-92409000D02*
X187940000Y-90540948D01*
%TO.N,/DIGBUF_LEVSHIFT/AUX_BUF7*%
X187948500Y-85908500D02*
X190588000Y-83269000D01*
X219948344Y-83269000D02*
X222126000Y-81091344D01*
X222126000Y-81091344D02*
X222126000Y-76074000D01*
X187440000Y-90578500D02*
X187948500Y-90070000D01*
X222126000Y-76074000D02*
X224370000Y-73830000D01*
X187948500Y-90070000D02*
X187948500Y-85908500D01*
X190588000Y-83269000D02*
X219948344Y-83269000D01*
X187440000Y-92409000D02*
X187440000Y-90578500D01*
%TO.N,/DIGBUF_LEVSHIFT/AUX_BUF8*%
X219812896Y-82942000D02*
X221799000Y-80955896D01*
X186440000Y-92409000D02*
X186440000Y-90811353D01*
X221799000Y-73861000D02*
X224370000Y-71290000D01*
X184871647Y-89243000D02*
X184871647Y-87378601D01*
X221799000Y-80955896D02*
X221799000Y-73861000D01*
X189794500Y-82942000D02*
X219812896Y-82942000D01*
X187130000Y-85606500D02*
X189794500Y-82942000D01*
X186643748Y-85606500D02*
X187130000Y-85606500D01*
X186440000Y-90811353D02*
X184871647Y-89243000D01*
X184871647Y-87378601D02*
X186643748Y-85606500D01*
%TO.N,/DIGBUF_LEVSHIFT/AUX_BUF9*%
X184544647Y-87243153D02*
X189172800Y-82615000D01*
X185940000Y-92409000D02*
X185940000Y-90773801D01*
X189172800Y-82615000D02*
X219677448Y-82615000D01*
X219677448Y-82615000D02*
X221472000Y-80820448D01*
X221472000Y-71648000D02*
X224370000Y-68750000D01*
X221472000Y-80820448D02*
X221472000Y-71648000D01*
X185940000Y-90773801D02*
X184544647Y-89378448D01*
X184544647Y-89378448D02*
X184544647Y-87243153D01*
%TO.N,/DIGBUF_LEVSHIFT/AUX_BUF10*%
X183600948Y-87724404D02*
X189037352Y-82288000D01*
X219542000Y-82288000D02*
X221145000Y-80685000D01*
X221145000Y-80685000D02*
X221145000Y-69435000D01*
X184940000Y-91532052D02*
X183600948Y-90193000D01*
X183600948Y-90193000D02*
X183600948Y-87724404D01*
X184940000Y-92409000D02*
X184940000Y-91532052D01*
X221145000Y-69435000D02*
X224370000Y-66210000D01*
X189037352Y-82288000D02*
X219542000Y-82288000D01*
%TO.N,/DIGBUF_LEVSHIFT/AUX_BUF11*%
X184440000Y-91494500D02*
X183273948Y-90328448D01*
X220818000Y-80549552D02*
X220818000Y-67222000D01*
X188901904Y-81961000D02*
X219406552Y-81961000D01*
X219406552Y-81961000D02*
X220818000Y-80549552D01*
X184440000Y-92409000D02*
X184440000Y-91494500D01*
X183273948Y-90328448D02*
X183273948Y-87588956D01*
X183273948Y-87588956D02*
X188901904Y-81961000D01*
X220818000Y-67222000D02*
X224370000Y-63670000D01*
%TO.N,/IN*%
X176182500Y-115310000D02*
X174145000Y-115310000D01*
X174145000Y-115310000D02*
X173795000Y-114960000D01*
%TO.N,/RSTB*%
X176182500Y-113310000D02*
X175783966Y-113310000D01*
D46*
X170260000Y-136670000D02*
X170260000Y-134857500D01*
D43*
X174670000Y-111590000D02*
X173630000Y-110550000D01*
X174676000Y-111590000D02*
X174670000Y-111590000D01*
X175783966Y-113310000D02*
X174676000Y-112202034D01*
D46*
X170260000Y-134857500D02*
X171647500Y-133470000D01*
X171647500Y-131092500D02*
X174070000Y-128670000D01*
X171647500Y-133470000D02*
X171647500Y-131092500D01*
X170260000Y-136670000D02*
X170260000Y-145770000D01*
D43*
X174676000Y-112202034D02*
X174676000Y-111590000D01*
%TO.N,/RSTBCLK*%
X177706000Y-127226000D02*
X179150000Y-128670000D01*
D46*
X183060000Y-136670000D02*
X183060000Y-145770000D01*
D43*
X177870000Y-118997500D02*
X177870000Y-120615104D01*
D46*
X183060000Y-136670000D02*
X183060000Y-134957500D01*
X181572500Y-133470000D02*
X181572500Y-131092500D01*
X181572500Y-131092500D02*
X179150000Y-128670000D01*
D43*
X177870000Y-120615104D02*
X177706000Y-120779104D01*
D46*
X183060000Y-134957500D02*
X181572500Y-133470000D01*
D43*
X177706000Y-120779104D02*
X177706000Y-127226000D01*
D44*
%TO.N,GND*%
X207555777Y-134390000D02*
X207425777Y-134520000D01*
D42*
X157650000Y-67900000D02*
X157325000Y-67575000D01*
D41*
X136515000Y-140560000D02*
X138340000Y-140560000D01*
D42*
X138340000Y-140560000D02*
X138665000Y-140885000D01*
D44*
X183310000Y-91120000D02*
X183110000Y-91120000D01*
D46*
X186960000Y-104739000D02*
X186960000Y-106039000D01*
D44*
X206381000Y-114090000D02*
X208050000Y-114090000D01*
X197380000Y-121090000D02*
X197310000Y-121160000D01*
X197170000Y-132020000D02*
X197170000Y-132410000D01*
X197170000Y-131510000D02*
X197170000Y-132020000D01*
X198799000Y-130020000D02*
X197180000Y-130020000D01*
X194940000Y-99985000D02*
X194940000Y-101419000D01*
D40*
X123150000Y-66700000D02*
X123150000Y-65450000D01*
D46*
X150550000Y-66100000D02*
X150550000Y-68500000D01*
D44*
X198131000Y-124520000D02*
X197501000Y-123890000D01*
X206381000Y-109590000D02*
X207040000Y-109590000D01*
X197121000Y-114090000D02*
X196801000Y-114410000D01*
D42*
X175640000Y-117810000D02*
X176180000Y-117810000D01*
X145650000Y-53900000D02*
X145325000Y-53575000D01*
D46*
X211395000Y-133040000D02*
X212420000Y-133040000D01*
D40*
X205150000Y-66700000D02*
X205150000Y-65450000D01*
D41*
X118475000Y-67900000D02*
X116650000Y-67900000D01*
D40*
X152150000Y-51450000D02*
X152100000Y-51400000D01*
D44*
X190810000Y-91228223D02*
X190810000Y-90670000D01*
X194940000Y-101419000D02*
X195010000Y-101489000D01*
X185440000Y-101409000D02*
X184860000Y-101989000D01*
D40*
X128150000Y-102450000D02*
X128100000Y-102400000D01*
X193350000Y-53900000D02*
X192450000Y-54800000D01*
D42*
X132740000Y-137697500D02*
X132777500Y-137660000D01*
D44*
X197180000Y-130020000D02*
X197170000Y-130010000D01*
D42*
X107612500Y-94900000D02*
X108000000Y-94900000D01*
D45*
X174360000Y-119420000D02*
X173900000Y-119420000D01*
D40*
X131840000Y-141760000D02*
X131840000Y-143010000D01*
D44*
X198805000Y-121090000D02*
X197380000Y-121090000D01*
X192940000Y-101270000D02*
X193150000Y-101480000D01*
D42*
X177370000Y-119580000D02*
X177370000Y-118997500D01*
D44*
X198799000Y-135520000D02*
X197180000Y-135520000D01*
D46*
X194051000Y-127540000D02*
X192751000Y-127540000D01*
D44*
X197180000Y-131520000D02*
X197170000Y-131510000D01*
D40*
X193350000Y-51450000D02*
X193300000Y-51400000D01*
D46*
X145440000Y-142360000D02*
X145440000Y-139960000D01*
D44*
X197180000Y-135020000D02*
X197180000Y-134660000D01*
X197381000Y-126020000D02*
X196801000Y-125440000D01*
X198799000Y-130520000D02*
X197180000Y-130520000D01*
D46*
X193776000Y-118110000D02*
X192751000Y-118110000D01*
D44*
X190940000Y-91358223D02*
X190810000Y-91228223D01*
D46*
X138550000Y-52100000D02*
X138550000Y-54500000D01*
D44*
X195440000Y-91350000D02*
X195010000Y-90920000D01*
X198790000Y-109590000D02*
X198131000Y-109590000D01*
X207425777Y-134520000D02*
X206375000Y-134520000D01*
X194310000Y-90920000D02*
X193940000Y-91290000D01*
X197320000Y-134520000D02*
X197180000Y-134660000D01*
D42*
X116650000Y-67900000D02*
X116325000Y-67575000D01*
D40*
X192450000Y-54800000D02*
X192450000Y-56762500D01*
X164150000Y-66700000D02*
X164150000Y-67900000D01*
D44*
X207431777Y-131520000D02*
X206381000Y-131520000D01*
X197180000Y-134020000D02*
X197180000Y-133820000D01*
X190940000Y-92409000D02*
X190940000Y-91358223D01*
X198790000Y-114090000D02*
X197121000Y-114090000D01*
D46*
X188430000Y-111330000D02*
X188420000Y-111340000D01*
D40*
X205150000Y-65450000D02*
X205100000Y-65400000D01*
D44*
X194301000Y-101480000D02*
X194310000Y-101489000D01*
D42*
X114612500Y-70900000D02*
X115000000Y-70900000D01*
D44*
X185440000Y-92409000D02*
X185440000Y-91000000D01*
X198799000Y-136020000D02*
X197530000Y-136020000D01*
X193440000Y-101480000D02*
X194301000Y-101480000D01*
D41*
X188675000Y-53900000D02*
X186850000Y-53900000D01*
D40*
X205150000Y-66700000D02*
X205150000Y-67900000D01*
D44*
X185440000Y-91000000D02*
X184860000Y-90420000D01*
X194310000Y-90920000D02*
X195010000Y-90920000D01*
D40*
X116150000Y-91900000D02*
X115250000Y-92800000D01*
D44*
X193440000Y-99985000D02*
X193440000Y-101480000D01*
X207040000Y-109590000D02*
X207670000Y-108960000D01*
X207790000Y-111090000D02*
X208370000Y-110510000D01*
D46*
X211395000Y-118110000D02*
X212420000Y-118110000D01*
D44*
X194440000Y-99985000D02*
X194440000Y-101359000D01*
X197501000Y-108960000D02*
X197501000Y-108760000D01*
D40*
X116150000Y-90700000D02*
X116150000Y-89450000D01*
D44*
X197739223Y-116590000D02*
X197609223Y-116460000D01*
D45*
X176810000Y-106460000D02*
X176810000Y-107630000D01*
D44*
X190940000Y-100000000D02*
X190940000Y-101050777D01*
D45*
X173900000Y-119420000D02*
X173380000Y-119940000D01*
D40*
X205150000Y-67900000D02*
X204250000Y-68800000D01*
D44*
X207431777Y-116590000D02*
X207561777Y-116460000D01*
D40*
X128150000Y-103700000D02*
X128150000Y-102450000D01*
D44*
X197480000Y-133520000D02*
X198799000Y-133520000D01*
D42*
X174694479Y-113807063D02*
X175197416Y-114310000D01*
D44*
X197501000Y-123890000D02*
X197501000Y-123690000D01*
D46*
X179750000Y-52100000D02*
X179750000Y-54500000D01*
D44*
X207790000Y-126020000D02*
X208370000Y-125440000D01*
X207425777Y-136020000D02*
X206375000Y-136020000D01*
X208114000Y-135890000D02*
X207555777Y-135890000D01*
X206381000Y-121090000D02*
X207830000Y-121090000D01*
D40*
X204250000Y-68800000D02*
X204250000Y-70762500D01*
D44*
X197180000Y-135520000D02*
X197180000Y-135020000D01*
D42*
X176870000Y-111122500D02*
X176870000Y-111509013D01*
D44*
X193940000Y-101119000D02*
X193940000Y-100000000D01*
X206381000Y-124520000D02*
X207040000Y-124520000D01*
X207830000Y-121090000D02*
X208120000Y-121380000D01*
D40*
X132740000Y-139660000D02*
X132740000Y-137697500D01*
D44*
X198799000Y-134020000D02*
X197180000Y-134020000D01*
D40*
X128150000Y-104900000D02*
X127250000Y-105800000D01*
X131840000Y-140560000D02*
X132740000Y-139660000D01*
D46*
X192460000Y-105014000D02*
X192460000Y-106039000D01*
D44*
X197170000Y-129520000D02*
X197170000Y-130010000D01*
X198799000Y-131020000D02*
X197170000Y-131020000D01*
X197170000Y-130010000D02*
X197170000Y-130510000D01*
X183940000Y-91750000D02*
X183310000Y-91120000D01*
D42*
X192450000Y-56762500D02*
X192412500Y-56800000D01*
D40*
X131840000Y-143010000D02*
X131890000Y-143060000D01*
D42*
X176542500Y-111122500D02*
X176870000Y-111122500D01*
D44*
X197180000Y-134660000D02*
X197180000Y-134020000D01*
D42*
X198650000Y-67900000D02*
X198325000Y-67575000D01*
D41*
X123475000Y-104900000D02*
X121650000Y-104900000D01*
D42*
X143612500Y-56900000D02*
X144000000Y-56900000D01*
D40*
X128150000Y-103700000D02*
X128150000Y-104900000D01*
D44*
X195440000Y-100000000D02*
X195440000Y-101059000D01*
D40*
X193350000Y-52700000D02*
X193350000Y-51450000D01*
D44*
X197530000Y-136020000D02*
X197180000Y-135670000D01*
D46*
X211120000Y-127540000D02*
X212420000Y-127540000D01*
D42*
X186850000Y-53900000D02*
X186525000Y-53575000D01*
D44*
X183940000Y-100000000D02*
X183940000Y-100659000D01*
X208050000Y-114090000D02*
X208370000Y-114410000D01*
X197180000Y-133820000D02*
X197480000Y-133520000D01*
D41*
X200475000Y-67900000D02*
X198650000Y-67900000D01*
D44*
X197180000Y-135670000D02*
X197180000Y-135520000D01*
D40*
X164150000Y-67900000D02*
X163250000Y-68800000D01*
D46*
X114550000Y-103100000D02*
X114550000Y-105500000D01*
D44*
X207670000Y-108960000D02*
X207670000Y-108760000D01*
X206381000Y-119590000D02*
X207720000Y-119590000D01*
X198790000Y-124520000D02*
X198131000Y-124520000D01*
D40*
X152150000Y-52700000D02*
X152150000Y-53900000D01*
D44*
X197170000Y-130510000D02*
X197170000Y-131020000D01*
D46*
X211120000Y-112610000D02*
X212420000Y-112610000D01*
D40*
X152150000Y-52700000D02*
X152150000Y-51450000D01*
D44*
X198790000Y-126020000D02*
X197381000Y-126020000D01*
D45*
X171170000Y-111850000D02*
X172070000Y-111850000D01*
D44*
X208120000Y-131390000D02*
X207561777Y-131390000D01*
X208050000Y-129020000D02*
X208370000Y-129340000D01*
D42*
X184812500Y-56900000D02*
X185200000Y-56900000D01*
D44*
X194310000Y-101489000D02*
X193940000Y-101119000D01*
X188440000Y-92409000D02*
X188440000Y-90740000D01*
X198790000Y-111090000D02*
X197381000Y-111090000D01*
D40*
X152150000Y-53900000D02*
X151250000Y-54800000D01*
D42*
X109650000Y-91900000D02*
X109325000Y-91575000D01*
X140377500Y-137560000D02*
X139990000Y-137560000D01*
D44*
X206381000Y-111090000D02*
X207790000Y-111090000D01*
X197180000Y-130520000D02*
X197170000Y-130510000D01*
X198799000Y-129520000D02*
X197170000Y-129520000D01*
D40*
X164150000Y-65450000D02*
X164100000Y-65400000D01*
D44*
X192940000Y-99985000D02*
X192940000Y-101270000D01*
X194310000Y-101489000D02*
X195010000Y-101489000D01*
D42*
X163250000Y-70762500D02*
X163212500Y-70800000D01*
D44*
X207555777Y-135890000D02*
X207425777Y-136020000D01*
D46*
X186960000Y-87670000D02*
X186960000Y-86370000D01*
D42*
X176020000Y-110600000D02*
X176542500Y-111122500D01*
D44*
X188440000Y-90740000D02*
X188760000Y-90420000D01*
X198799000Y-131520000D02*
X197180000Y-131520000D01*
X208114000Y-134390000D02*
X207555777Y-134390000D01*
X190940000Y-101050777D02*
X190810000Y-101180777D01*
X183310000Y-101289000D02*
X183110000Y-101289000D01*
X193940000Y-91290000D02*
X193940000Y-92409000D01*
X188440000Y-101669000D02*
X188760000Y-101989000D01*
D40*
X123150000Y-66700000D02*
X123150000Y-67900000D01*
D44*
X207561777Y-116460000D02*
X208120000Y-116460000D01*
X183940000Y-92409000D02*
X183940000Y-91750000D01*
X197609223Y-116460000D02*
X197051000Y-116460000D01*
D46*
X109550000Y-66100000D02*
X109550000Y-68500000D01*
D44*
X207561777Y-131390000D02*
X207431777Y-131520000D01*
X188440000Y-100000000D02*
X188440000Y-101669000D01*
D42*
X177370000Y-117810000D02*
X180120000Y-115060000D01*
X175197416Y-114310000D02*
X176182500Y-114310000D01*
X119612500Y-107900000D02*
X120000000Y-107900000D01*
D44*
X198799000Y-129020000D02*
X197670000Y-129020000D01*
X197670000Y-129020000D02*
X197170000Y-129520000D01*
D42*
X174682937Y-113807063D02*
X174694479Y-113807063D01*
D41*
X159475000Y-67900000D02*
X157650000Y-67900000D01*
D40*
X163250000Y-68800000D02*
X163250000Y-70762500D01*
D45*
X168430000Y-116460000D02*
X169335000Y-116460000D01*
D42*
X204250000Y-70762500D02*
X204212500Y-70800000D01*
D40*
X131840000Y-141760000D02*
X131840000Y-140560000D01*
D46*
X192460000Y-87395000D02*
X192460000Y-86370000D01*
D40*
X116150000Y-89450000D02*
X116100000Y-89400000D01*
D46*
X193776000Y-133040000D02*
X192751000Y-133040000D01*
D44*
X206381000Y-126020000D02*
X207790000Y-126020000D01*
X198790000Y-116590000D02*
X197739223Y-116590000D01*
X198799000Y-132020000D02*
X197170000Y-132020000D01*
D42*
X175230000Y-118220000D02*
X175640000Y-117810000D01*
X155612500Y-70900000D02*
X156000000Y-70900000D01*
D44*
X206381000Y-116590000D02*
X207431777Y-116590000D01*
X198131000Y-109590000D02*
X197501000Y-108960000D01*
X197103970Y-119603970D02*
X197117940Y-119590000D01*
X198799000Y-132520000D02*
X197280000Y-132520000D01*
X207040000Y-124520000D02*
X207670000Y-123890000D01*
X183940000Y-100659000D02*
X183310000Y-101289000D01*
X194440000Y-101359000D02*
X194310000Y-101489000D01*
X185440000Y-100000000D02*
X185440000Y-101409000D01*
D40*
X123150000Y-65450000D02*
X123100000Y-65400000D01*
D46*
X189640000Y-111330000D02*
X188430000Y-111330000D01*
X194051000Y-112610000D02*
X192751000Y-112610000D01*
D44*
X198799000Y-134520000D02*
X197320000Y-134520000D01*
X198799000Y-135020000D02*
X197180000Y-135020000D01*
D41*
X111475000Y-91900000D02*
X109650000Y-91900000D01*
X147475000Y-53900000D02*
X145650000Y-53900000D01*
D40*
X193350000Y-52700000D02*
X193350000Y-53900000D01*
D46*
X179640000Y-123220000D02*
X179640000Y-124500000D01*
D40*
X116150000Y-90700000D02*
X116150000Y-91900000D01*
D42*
X196612500Y-70900000D02*
X197000000Y-70900000D01*
D44*
X195440000Y-92409000D02*
X195440000Y-91350000D01*
D46*
X191550000Y-66100000D02*
X191550000Y-68500000D01*
D44*
X193150000Y-101480000D02*
X193440000Y-101480000D01*
D42*
X177370000Y-118997500D02*
X177370000Y-117810000D01*
X176870000Y-111509013D02*
X180120000Y-114759013D01*
D44*
X195440000Y-101059000D02*
X195010000Y-101489000D01*
X207670000Y-123890000D02*
X207670000Y-123690000D01*
X197381000Y-111090000D02*
X196801000Y-110510000D01*
D42*
X121650000Y-104900000D02*
X121325000Y-104575000D01*
D40*
X123150000Y-67900000D02*
X122250000Y-68800000D01*
D44*
X190810000Y-101180777D02*
X190810000Y-101739000D01*
X197117940Y-119590000D02*
X198805000Y-119590000D01*
X197170000Y-131020000D02*
X197170000Y-131510000D01*
X207720000Y-119590000D02*
X207725000Y-119595000D01*
D46*
X102550000Y-90100000D02*
X102550000Y-92500000D01*
D42*
X180120000Y-114759013D02*
X180120000Y-115060000D01*
D44*
X197280000Y-132520000D02*
X197170000Y-132410000D01*
D42*
X176990000Y-119960000D02*
X177370000Y-119580000D01*
D40*
X164150000Y-66700000D02*
X164150000Y-65450000D01*
D44*
X206381000Y-129020000D02*
X208050000Y-129020000D01*
D45*
%TO.N,VDDCCO*%
X162300000Y-57700000D02*
X162300000Y-58700000D01*
D42*
X160984000Y-57970000D02*
X160984000Y-58700000D01*
D46*
X156900000Y-106500000D02*
X155225000Y-106500000D01*
D42*
X173620000Y-111927416D02*
X173620000Y-111850000D01*
X160984000Y-58700000D02*
X160984000Y-59516000D01*
D43*
X162300000Y-58700000D02*
X160984000Y-58700000D01*
D45*
X163400000Y-58700000D02*
X162300000Y-58700000D01*
D42*
X176182500Y-113810000D02*
X175502584Y-113810000D01*
D45*
X163400000Y-57700000D02*
X162300000Y-57700000D01*
D42*
X160984000Y-59516000D02*
X159400000Y-61100000D01*
D45*
X173620000Y-112780000D02*
X173620000Y-111850000D01*
D42*
X175502584Y-113810000D02*
X173620000Y-111927416D01*
D49*
%TO.N,Net-(J36-Pin_2)*%
X159115000Y-100475000D02*
X160640000Y-102000000D01*
X160640000Y-102000000D02*
X160640000Y-102500000D01*
X159115000Y-96500000D02*
X159115000Y-100475000D01*
D43*
%TO.N,Net-(J47-CNTR)*%
X170045000Y-113060000D02*
X149360000Y-113060000D01*
X170386421Y-113201421D02*
X172145000Y-114960000D01*
X170386413Y-113201429D02*
G75*
G03*
X170045000Y-113059999I-341413J-341371D01*
G01*
%TD*%
%TA.AperFunction,Conductor*%
%TO.N,VDDTQ*%
G36*
X127881694Y-95218306D02*
G01*
X127900000Y-95262500D01*
X127900000Y-97237500D01*
X127881694Y-97281694D01*
X127837500Y-97300000D01*
X126200000Y-97300000D01*
X125400000Y-98100000D01*
X125400000Y-100874112D01*
X125381694Y-100918306D01*
X125318306Y-100981694D01*
X125274112Y-101000000D01*
X121762500Y-101000000D01*
X121718306Y-100981694D01*
X121700000Y-100937500D01*
X121700000Y-97562500D01*
X121718306Y-97518306D01*
X121762500Y-97500000D01*
X123500000Y-97500000D01*
X124500000Y-96500000D01*
X124500000Y-95262500D01*
X124518306Y-95218306D01*
X124562500Y-95200000D01*
X127837500Y-95200000D01*
X127881694Y-95218306D01*
G37*
%TD.AperFunction*%
%TD*%
%TA.AperFunction,Conductor*%
%TO.N,VDDEXT*%
G36*
X118200000Y-102700000D02*
G01*
X119837500Y-102700000D01*
X119881694Y-102718306D01*
X119900000Y-102762500D01*
X119900000Y-105037500D01*
X119881694Y-105081694D01*
X119837500Y-105100000D01*
X117900000Y-105100000D01*
X117900000Y-102400000D01*
X118200000Y-102700000D01*
G37*
%TD.AperFunction*%
%TD*%
%TA.AperFunction,Conductor*%
%TO.N,GND*%
G36*
X110081694Y-65318306D02*
G01*
X110100000Y-65362500D01*
X110100000Y-69237500D01*
X110081694Y-69281694D01*
X110037500Y-69300000D01*
X108162500Y-69300000D01*
X108118306Y-69281694D01*
X108100000Y-69237500D01*
X108100000Y-65362500D01*
X108118306Y-65318306D01*
X108162500Y-65300000D01*
X110037500Y-65300000D01*
X110081694Y-65318306D01*
G37*
%TD.AperFunction*%
%TD*%
%TA.AperFunction,Conductor*%
%TO.N,GND*%
G36*
X156500000Y-71100000D02*
G01*
X155162500Y-71100000D01*
X155118306Y-71081694D01*
X155100000Y-71037500D01*
X155100000Y-70262500D01*
X155118306Y-70218306D01*
X155162500Y-70200000D01*
X156400000Y-70200000D01*
X156500000Y-70200000D01*
X156500000Y-71100000D01*
G37*
%TD.AperFunction*%
%TD*%
%TA.AperFunction,Conductor*%
%TO.N,GND*%
G36*
X199181694Y-66118306D02*
G01*
X199200000Y-66162500D01*
X199200000Y-69574112D01*
X199181694Y-69618306D01*
X198700000Y-70100000D01*
X198700000Y-71037500D01*
X198681694Y-71081694D01*
X198637500Y-71100000D01*
X197500000Y-71100000D01*
X197500000Y-70200000D01*
X197400000Y-70200000D01*
X197400000Y-69125888D01*
X197418306Y-69081694D01*
X197500000Y-69000000D01*
X197500000Y-66162500D01*
X197518306Y-66118306D01*
X197562500Y-66100000D01*
X199137500Y-66100000D01*
X199181694Y-66118306D01*
G37*
%TD.AperFunction*%
%TD*%
%TA.AperFunction,Conductor*%
%TO.N,Net-(J28-Pin_2)*%
G36*
X124681694Y-91798306D02*
G01*
X124700000Y-91842500D01*
X124700000Y-94544112D01*
X124681694Y-94588306D01*
X123810000Y-95460000D01*
X123810000Y-96427500D01*
X123791694Y-96471694D01*
X123747500Y-96490000D01*
X122962500Y-96490000D01*
X122918306Y-96471694D01*
X122900000Y-96427500D01*
X122900000Y-95450000D01*
X122118306Y-94668306D01*
X122100000Y-94624112D01*
X122100000Y-91842500D01*
X122118306Y-91798306D01*
X122162500Y-91780000D01*
X124637500Y-91780000D01*
X124681694Y-91798306D01*
G37*
%TD.AperFunction*%
%TD*%
%TA.AperFunction,Conductor*%
%TO.N,GND*%
G36*
X146871694Y-139178306D02*
G01*
X146890000Y-139222500D01*
X146890000Y-143097500D01*
X146871694Y-143141694D01*
X146827500Y-143160000D01*
X144952500Y-143160000D01*
X144908306Y-143141694D01*
X144890000Y-143097500D01*
X144890000Y-139222500D01*
X144908306Y-139178306D01*
X144952500Y-139160000D01*
X146827500Y-139160000D01*
X146871694Y-139178306D01*
G37*
%TD.AperFunction*%
%TD*%
%TA.AperFunction,Conductor*%
%TO.N,GND*%
G36*
X173838000Y-119496613D02*
G01*
X173883387Y-119542000D01*
X173900000Y-119604000D01*
X173900000Y-120168638D01*
X173890561Y-120216091D01*
X173863681Y-120256319D01*
X173206319Y-120913681D01*
X173166091Y-120940561D01*
X173118638Y-120950000D01*
X169264000Y-120950000D01*
X169202000Y-120933387D01*
X169156613Y-120888000D01*
X169140000Y-120826000D01*
X169140000Y-119604000D01*
X169156613Y-119542000D01*
X169202000Y-119496613D01*
X169264000Y-119480000D01*
X173776000Y-119480000D01*
X173838000Y-119496613D01*
G37*
%TD.AperFunction*%
%TD*%
%TA.AperFunction,Conductor*%
%TO.N,GND*%
G36*
X151981694Y-35018306D02*
G01*
X152000000Y-35062500D01*
X152000000Y-37937500D01*
X151981694Y-37981694D01*
X151937500Y-38000000D01*
X142562500Y-38000000D01*
X142518306Y-37981694D01*
X142500000Y-37937500D01*
X142500000Y-35062500D01*
X142518306Y-35018306D01*
X142562500Y-35000000D01*
X151937500Y-35000000D01*
X151981694Y-35018306D01*
G37*
%TD.AperFunction*%
%TD*%
%TA.AperFunction,Conductor*%
%TO.N,GND*%
G36*
X192081694Y-65318306D02*
G01*
X192100000Y-65362500D01*
X192100000Y-69237500D01*
X192081694Y-69281694D01*
X192037500Y-69300000D01*
X190162500Y-69300000D01*
X190118306Y-69281694D01*
X190100000Y-69237500D01*
X190100000Y-65362500D01*
X190118306Y-65318306D01*
X190162500Y-65300000D01*
X192037500Y-65300000D01*
X192081694Y-65318306D01*
G37*
%TD.AperFunction*%
%TD*%
%TA.AperFunction,Conductor*%
%TO.N,GND*%
G36*
X158181694Y-66118306D02*
G01*
X158200000Y-66162500D01*
X158200000Y-69574112D01*
X158181694Y-69618306D01*
X157700000Y-70100000D01*
X157700000Y-71037500D01*
X157681694Y-71081694D01*
X157637500Y-71100000D01*
X156500000Y-71100000D01*
X156500000Y-70200000D01*
X156400000Y-70200000D01*
X156400000Y-69125888D01*
X156418306Y-69081694D01*
X156500000Y-69000000D01*
X156500000Y-66162500D01*
X156518306Y-66118306D01*
X156562500Y-66100000D01*
X158137500Y-66100000D01*
X158181694Y-66118306D01*
G37*
%TD.AperFunction*%
%TD*%
%TA.AperFunction,Conductor*%
%TO.N,/VDDACORE/VDDOSC_INT*%
G36*
X125218306Y-102418306D02*
G01*
X125381694Y-102581694D01*
X125400000Y-102625888D01*
X125400000Y-104597146D01*
X125400000Y-104600000D01*
X124229128Y-104600000D01*
X124194405Y-104589467D01*
X124188766Y-104585699D01*
X124122407Y-104572500D01*
X124122406Y-104572500D01*
X123503652Y-104572500D01*
X122762500Y-104572500D01*
X122718306Y-104554194D01*
X122700000Y-104510000D01*
X122700000Y-102762500D01*
X122718306Y-102718306D01*
X122762500Y-102700000D01*
X124400000Y-102700000D01*
X124681694Y-102418306D01*
X124725888Y-102400000D01*
X125174112Y-102400000D01*
X125218306Y-102418306D01*
G37*
%TD.AperFunction*%
%TD*%
%TA.AperFunction,Conductor*%
%TO.N,VDDEXT*%
G36*
X142090000Y-143060000D02*
G01*
X141790000Y-142760000D01*
X140152500Y-142760000D01*
X140108306Y-142741694D01*
X140090000Y-142697500D01*
X140090000Y-140422500D01*
X140108306Y-140378306D01*
X140152500Y-140360000D01*
X142090000Y-140360000D01*
X142090000Y-143060000D01*
G37*
%TD.AperFunction*%
%TD*%
%TA.AperFunction,Conductor*%
%TO.N,/VDDACORE/VDDOSC_INT*%
G36*
X126781694Y-102718306D02*
G01*
X126800000Y-102762500D01*
X126800000Y-104537500D01*
X126781694Y-104581694D01*
X126737500Y-104600000D01*
X125400000Y-104600000D01*
X125400000Y-102700000D01*
X126737500Y-102700000D01*
X126781694Y-102718306D01*
G37*
%TD.AperFunction*%
%TD*%
%TA.AperFunction,Conductor*%
%TO.N,GND*%
G36*
X120500000Y-108100000D02*
G01*
X119162500Y-108100000D01*
X119118306Y-108081694D01*
X119100000Y-108037500D01*
X119100000Y-107262500D01*
X119118306Y-107218306D01*
X119162500Y-107200000D01*
X120400000Y-107200000D01*
X120500000Y-107200000D01*
X120500000Y-108100000D01*
G37*
%TD.AperFunction*%
%TD*%
%TA.AperFunction,Conductor*%
%TO.N,GND*%
G36*
X151981694Y-44018306D02*
G01*
X152000000Y-44062500D01*
X152000000Y-46937500D01*
X151981694Y-46981694D01*
X151937500Y-47000000D01*
X142562500Y-47000000D01*
X142518306Y-46981694D01*
X142500000Y-46937500D01*
X142500000Y-44062500D01*
X142518306Y-44018306D01*
X142562500Y-44000000D01*
X151937500Y-44000000D01*
X151981694Y-44018306D01*
G37*
%TD.AperFunction*%
%TD*%
%TA.AperFunction,Conductor*%
%TO.N,GND*%
G36*
X144500000Y-57100000D02*
G01*
X143162500Y-57100000D01*
X143118306Y-57081694D01*
X143100000Y-57037500D01*
X143100000Y-56262500D01*
X143118306Y-56218306D01*
X143162500Y-56200000D01*
X144400000Y-56200000D01*
X144500000Y-56200000D01*
X144500000Y-57100000D01*
G37*
%TD.AperFunction*%
%TD*%
%TA.AperFunction,Conductor*%
%TO.N,/VDD3P3/VDD3P3_INT*%
G36*
X203781694Y-65718306D02*
G01*
X203800000Y-65762500D01*
X203800000Y-67537500D01*
X203781694Y-67581694D01*
X203737500Y-67600000D01*
X202400000Y-67600000D01*
X202400000Y-65700000D01*
X203737500Y-65700000D01*
X203781694Y-65718306D01*
G37*
%TD.AperFunction*%
%TD*%
%TA.AperFunction,Conductor*%
%TO.N,Net-(J32-Pin_2)*%
G36*
X160681694Y-53798306D02*
G01*
X160700000Y-53842500D01*
X160700000Y-56544112D01*
X160681694Y-56588306D01*
X159810000Y-57460000D01*
X159810000Y-58427500D01*
X159791694Y-58471694D01*
X159747500Y-58490000D01*
X158962500Y-58490000D01*
X158918306Y-58471694D01*
X158900000Y-58427500D01*
X158900000Y-57450000D01*
X158118306Y-56668306D01*
X158100000Y-56624112D01*
X158100000Y-53842500D01*
X158118306Y-53798306D01*
X158162500Y-53780000D01*
X160637500Y-53780000D01*
X160681694Y-53798306D01*
G37*
%TD.AperFunction*%
%TD*%
%TA.AperFunction,Conductor*%
%TO.N,GND*%
G36*
X185700000Y-57100000D02*
G01*
X184362500Y-57100000D01*
X184318306Y-57081694D01*
X184300000Y-57037500D01*
X184300000Y-56262500D01*
X184318306Y-56218306D01*
X184362500Y-56200000D01*
X185600000Y-56200000D01*
X185700000Y-56200000D01*
X185700000Y-57100000D01*
G37*
%TD.AperFunction*%
%TD*%
%TA.AperFunction,Conductor*%
%TO.N,VDDA2P5*%
G36*
X126271694Y-131478306D02*
G01*
X126290000Y-131522500D01*
X126290000Y-134897500D01*
X126271694Y-134941694D01*
X126227500Y-134960000D01*
X124490000Y-134960000D01*
X123490000Y-135960000D01*
X123490000Y-137197500D01*
X123471694Y-137241694D01*
X123427500Y-137260000D01*
X120152500Y-137260000D01*
X120108306Y-137241694D01*
X120090000Y-137197500D01*
X120090000Y-135222500D01*
X120108306Y-135178306D01*
X120152500Y-135160000D01*
X121790000Y-135160000D01*
X122590000Y-134360000D01*
X122590000Y-131585888D01*
X122608306Y-131541694D01*
X122671694Y-131478306D01*
X122715888Y-131460000D01*
X126227500Y-131460000D01*
X126271694Y-131478306D01*
G37*
%TD.AperFunction*%
%TD*%
%TA.AperFunction,Conductor*%
%TO.N,VDDTQ*%
G36*
X112866694Y-93768306D02*
G01*
X112885000Y-93812500D01*
X112885000Y-95448470D01*
X112866694Y-95492664D01*
X112130164Y-96229194D01*
X112085970Y-96247500D01*
X109380741Y-96247500D01*
X109367456Y-96246072D01*
X109356216Y-96243626D01*
X109304285Y-96247341D01*
X109299827Y-96247500D01*
X109284058Y-96247500D01*
X109268457Y-96249742D01*
X109264027Y-96250219D01*
X109212085Y-96253935D01*
X109201306Y-96257955D01*
X109188364Y-96261259D01*
X109176971Y-96262897D01*
X109129611Y-96284526D01*
X109125491Y-96286233D01*
X109076698Y-96304433D01*
X109067489Y-96311326D01*
X109056008Y-96318139D01*
X109045533Y-96322923D01*
X109006173Y-96357028D01*
X109002703Y-96359824D01*
X108990090Y-96369266D01*
X108978952Y-96380404D01*
X108975691Y-96383440D01*
X108936330Y-96417548D01*
X108930110Y-96427227D01*
X108921727Y-96437629D01*
X107428658Y-97930698D01*
X107405108Y-97945496D01*
X107377469Y-97948611D01*
X107370002Y-97947770D01*
X107370001Y-97947770D01*
X107336101Y-97951589D01*
X107202614Y-97966629D01*
X107043617Y-98022265D01*
X106900991Y-98111882D01*
X106781882Y-98230991D01*
X106692265Y-98373617D01*
X106636629Y-98532614D01*
X106617770Y-98699999D01*
X106636629Y-98867385D01*
X106692265Y-99026382D01*
X106781882Y-99169008D01*
X106900991Y-99288117D01*
X107021555Y-99363871D01*
X107043620Y-99377736D01*
X107202613Y-99433370D01*
X107370000Y-99452230D01*
X107537387Y-99433370D01*
X107696380Y-99377736D01*
X107839008Y-99288117D01*
X107958117Y-99169008D01*
X108047736Y-99026380D01*
X108103370Y-98867387D01*
X108122230Y-98700000D01*
X108121388Y-98692531D01*
X108124502Y-98664893D01*
X108139299Y-98641341D01*
X109509835Y-97270806D01*
X109554030Y-97252500D01*
X112259258Y-97252500D01*
X112272543Y-97253928D01*
X112283782Y-97256373D01*
X112283782Y-97256372D01*
X112283783Y-97256373D01*
X112335717Y-97252659D01*
X112340176Y-97252500D01*
X112355935Y-97252500D01*
X112355937Y-97252500D01*
X112371545Y-97250255D01*
X112375968Y-97249780D01*
X112427912Y-97246066D01*
X112438695Y-97242043D01*
X112451639Y-97238739D01*
X112463026Y-97237103D01*
X112510411Y-97215461D01*
X112514492Y-97213771D01*
X112563299Y-97195568D01*
X112572509Y-97188672D01*
X112583994Y-97181858D01*
X112594466Y-97177077D01*
X112633836Y-97142961D01*
X112637271Y-97140192D01*
X112649910Y-97130732D01*
X112661075Y-97119565D01*
X112664299Y-97116564D01*
X112703669Y-97082451D01*
X112709889Y-97072770D01*
X112718268Y-97062372D01*
X113699872Y-96080768D01*
X113710270Y-96072389D01*
X113719951Y-96066169D01*
X113754064Y-96026799D01*
X113757065Y-96023575D01*
X113768232Y-96012410D01*
X113777692Y-95999772D01*
X113780455Y-95996343D01*
X113814577Y-95956966D01*
X113819359Y-95946493D01*
X113826169Y-95935014D01*
X113833069Y-95925799D01*
X113851277Y-95876981D01*
X113852964Y-95872908D01*
X113874603Y-95825526D01*
X113876240Y-95814138D01*
X113879543Y-95801197D01*
X113883566Y-95790412D01*
X113887280Y-95738468D01*
X113887756Y-95734039D01*
X113888337Y-95730000D01*
X113890000Y-95718437D01*
X113890000Y-95702676D01*
X113890159Y-95698218D01*
X113892687Y-95662869D01*
X113893873Y-95646283D01*
X113891428Y-95635043D01*
X113890000Y-95621758D01*
X113890000Y-93812500D01*
X113908306Y-93768306D01*
X113952500Y-93750000D01*
X114367500Y-93750000D01*
X114411694Y-93768306D01*
X114430000Y-93812500D01*
X114430000Y-96584112D01*
X114411694Y-96628306D01*
X113498306Y-97541694D01*
X113454112Y-97560000D01*
X110860000Y-97560000D01*
X110370715Y-98049283D01*
X110333519Y-98067196D01*
X110293269Y-98058009D01*
X110236382Y-98022265D01*
X110236381Y-98022264D01*
X110236380Y-98022264D01*
X110156883Y-97994446D01*
X110077385Y-97966629D01*
X109910000Y-97947770D01*
X109742614Y-97966629D01*
X109583617Y-98022265D01*
X109440991Y-98111882D01*
X109321882Y-98230991D01*
X109232265Y-98373617D01*
X109176629Y-98532614D01*
X109157770Y-98699999D01*
X109176629Y-98867385D01*
X109232265Y-99026382D01*
X109268009Y-99083269D01*
X109277196Y-99123519D01*
X109259283Y-99160715D01*
X107768306Y-100651694D01*
X107748030Y-100665242D01*
X107724112Y-100670000D01*
X105685888Y-100670000D01*
X105641694Y-100651694D01*
X105538306Y-100548306D01*
X105520000Y-100504112D01*
X105520000Y-98555888D01*
X105538306Y-98511694D01*
X108041694Y-96008306D01*
X108085888Y-95990000D01*
X110320000Y-95990000D01*
X110561694Y-95748306D01*
X110605888Y-95730000D01*
X112060000Y-95730000D01*
X112360000Y-95430000D01*
X112360000Y-93845888D01*
X112378306Y-93801694D01*
X112411694Y-93768306D01*
X112455888Y-93750000D01*
X112822500Y-93750000D01*
X112866694Y-93768306D01*
G37*
%TD.AperFunction*%
%TD*%
%TA.AperFunction,Conductor*%
%TO.N,VDDEXT*%
G36*
X144071694Y-139178306D02*
G01*
X144090000Y-139222500D01*
X144090000Y-143097500D01*
X144071694Y-143141694D01*
X144027500Y-143160000D01*
X142152500Y-143160000D01*
X142108306Y-143141694D01*
X142090000Y-143097500D01*
X142090000Y-143060000D01*
X142090000Y-139222500D01*
X142108306Y-139178306D01*
X142152500Y-139160000D01*
X144027500Y-139160000D01*
X144071694Y-139178306D01*
G37*
%TD.AperFunction*%
%TD*%
%TA.AperFunction,Conductor*%
%TO.N,/VDDACORE/VDDCCO_INT*%
G36*
X149218306Y-51418306D02*
G01*
X149381694Y-51581694D01*
X149400000Y-51625888D01*
X149400000Y-53597146D01*
X149400000Y-53600000D01*
X148229128Y-53600000D01*
X148194405Y-53589467D01*
X148188766Y-53585699D01*
X148122407Y-53572500D01*
X148122406Y-53572500D01*
X147503652Y-53572500D01*
X146762500Y-53572500D01*
X146718306Y-53554194D01*
X146700000Y-53510000D01*
X146700000Y-51762500D01*
X146718306Y-51718306D01*
X146762500Y-51700000D01*
X148400000Y-51700000D01*
X148681694Y-51418306D01*
X148725888Y-51400000D01*
X149174112Y-51400000D01*
X149218306Y-51418306D01*
G37*
%TD.AperFunction*%
%TD*%
%TA.AperFunction,Conductor*%
%TO.N,GND*%
G36*
X149081694Y-100518306D02*
G01*
X149100000Y-100562500D01*
X149100000Y-102000000D01*
X149581694Y-102481694D01*
X149600000Y-102525888D01*
X149600000Y-103437500D01*
X149581694Y-103481694D01*
X149537500Y-103500000D01*
X146662500Y-103500000D01*
X146618306Y-103481694D01*
X146600000Y-103437500D01*
X146600000Y-102525888D01*
X146618306Y-102481694D01*
X147100000Y-102000000D01*
X147100000Y-100562500D01*
X147118306Y-100518306D01*
X147162500Y-100500000D01*
X149037500Y-100500000D01*
X149081694Y-100518306D01*
G37*
%TD.AperFunction*%
%TD*%
%TA.AperFunction,Conductor*%
%TO.N,/CLKIN_N*%
G36*
X160342894Y-135430595D02*
G01*
X160363585Y-135433437D01*
X160370811Y-135437338D01*
X160373693Y-135445028D01*
X160373693Y-135517843D01*
X160374308Y-135542737D01*
X160375980Y-135563197D01*
X160378444Y-135580290D01*
X160381437Y-135595163D01*
X160384693Y-135608912D01*
X160384693Y-135608913D01*
X160387902Y-135622468D01*
X160387987Y-135622855D01*
X160390876Y-135637215D01*
X160390986Y-135637853D01*
X160393353Y-135654268D01*
X160393434Y-135654985D01*
X160395050Y-135674755D01*
X160395085Y-135675419D01*
X160395689Y-135699838D01*
X160395693Y-135700127D01*
X160395693Y-135707449D01*
X160393535Y-135714219D01*
X160387858Y-135718492D01*
X160294558Y-135751147D01*
X160286828Y-135751147D01*
X160193528Y-135718492D01*
X160187851Y-135714219D01*
X160185693Y-135707449D01*
X160185693Y-135700127D01*
X160185697Y-135699838D01*
X160186301Y-135675395D01*
X160186333Y-135674777D01*
X160187954Y-135654953D01*
X160188028Y-135654301D01*
X160190399Y-135637847D01*
X160190508Y-135637215D01*
X160193398Y-135622855D01*
X160193483Y-135622467D01*
X160196693Y-135608912D01*
X160199950Y-135595158D01*
X160202940Y-135580294D01*
X160205405Y-135563198D01*
X160207077Y-135542737D01*
X160207693Y-135517843D01*
X160207693Y-135445028D01*
X160210575Y-135437338D01*
X160217801Y-135433437D01*
X160232717Y-135431388D01*
X160289106Y-135423644D01*
X160292280Y-135423644D01*
X160342894Y-135430595D01*
G37*
%TD.AperFunction*%
%TD*%
%TA.AperFunction,Conductor*%
%TO.N,VDDCCO*%
G36*
X163881694Y-57218306D02*
G01*
X163900000Y-57262500D01*
X163900000Y-59237500D01*
X163881694Y-59281694D01*
X163837500Y-59300000D01*
X162200000Y-59300000D01*
X161400000Y-60100000D01*
X161400000Y-62874112D01*
X161381694Y-62918306D01*
X161318306Y-62981694D01*
X161274112Y-63000000D01*
X157762500Y-63000000D01*
X157718306Y-62981694D01*
X157700000Y-62937500D01*
X157700000Y-59562500D01*
X157718306Y-59518306D01*
X157762500Y-59500000D01*
X159500000Y-59500000D01*
X160500000Y-58500000D01*
X160500000Y-57262500D01*
X160518306Y-57218306D01*
X160562500Y-57200000D01*
X163837500Y-57200000D01*
X163881694Y-57218306D01*
G37*
%TD.AperFunction*%
%TD*%
%TA.AperFunction,Conductor*%
%TO.N,/VDDD1P2/VDD1P2_INT*%
G36*
X161218306Y-65418306D02*
G01*
X161381694Y-65581694D01*
X161400000Y-65625888D01*
X161400000Y-67597146D01*
X161400000Y-67600000D01*
X160229128Y-67600000D01*
X160194405Y-67589467D01*
X160188766Y-67585699D01*
X160122407Y-67572500D01*
X160122406Y-67572500D01*
X159503652Y-67572500D01*
X158762500Y-67572500D01*
X158718306Y-67554194D01*
X158700000Y-67510000D01*
X158700000Y-65762500D01*
X158718306Y-65718306D01*
X158762500Y-65700000D01*
X160400000Y-65700000D01*
X160681694Y-65418306D01*
X160725888Y-65400000D01*
X161174112Y-65400000D01*
X161218306Y-65418306D01*
G37*
%TD.AperFunction*%
%TD*%
%TA.AperFunction,Conductor*%
%TO.N,VDDCCO*%
G36*
X148866694Y-55768306D02*
G01*
X148885000Y-55812500D01*
X148885000Y-57448470D01*
X148866694Y-57492664D01*
X148130164Y-58229194D01*
X148085970Y-58247500D01*
X145380741Y-58247500D01*
X145367456Y-58246072D01*
X145356216Y-58243626D01*
X145304285Y-58247341D01*
X145299827Y-58247500D01*
X145284058Y-58247500D01*
X145268457Y-58249742D01*
X145264027Y-58250219D01*
X145212085Y-58253935D01*
X145201306Y-58257955D01*
X145188364Y-58261259D01*
X145176971Y-58262897D01*
X145129611Y-58284526D01*
X145125491Y-58286233D01*
X145076698Y-58304433D01*
X145067489Y-58311326D01*
X145056008Y-58318139D01*
X145045533Y-58322923D01*
X145006173Y-58357028D01*
X145002703Y-58359824D01*
X144990090Y-58369266D01*
X144978952Y-58380404D01*
X144975691Y-58383440D01*
X144936330Y-58417548D01*
X144930110Y-58427227D01*
X144921727Y-58437629D01*
X143428658Y-59930698D01*
X143405108Y-59945496D01*
X143377469Y-59948611D01*
X143370002Y-59947770D01*
X143370001Y-59947770D01*
X143336101Y-59951589D01*
X143202614Y-59966629D01*
X143043617Y-60022265D01*
X142900991Y-60111882D01*
X142781882Y-60230991D01*
X142692265Y-60373617D01*
X142636629Y-60532614D01*
X142617770Y-60699999D01*
X142636629Y-60867385D01*
X142692265Y-61026382D01*
X142781882Y-61169008D01*
X142900991Y-61288117D01*
X143021555Y-61363871D01*
X143043620Y-61377736D01*
X143202613Y-61433370D01*
X143370000Y-61452230D01*
X143537387Y-61433370D01*
X143696380Y-61377736D01*
X143839008Y-61288117D01*
X143958117Y-61169008D01*
X144047736Y-61026380D01*
X144103370Y-60867387D01*
X144122230Y-60700000D01*
X144121388Y-60692531D01*
X144124502Y-60664893D01*
X144139299Y-60641341D01*
X145509835Y-59270806D01*
X145554030Y-59252500D01*
X148259258Y-59252500D01*
X148272543Y-59253928D01*
X148283782Y-59256373D01*
X148283782Y-59256372D01*
X148283783Y-59256373D01*
X148335717Y-59252659D01*
X148340176Y-59252500D01*
X148355935Y-59252500D01*
X148355937Y-59252500D01*
X148371545Y-59250255D01*
X148375968Y-59249780D01*
X148427912Y-59246066D01*
X148438695Y-59242043D01*
X148451639Y-59238739D01*
X148463026Y-59237103D01*
X148510411Y-59215461D01*
X148514492Y-59213771D01*
X148563299Y-59195568D01*
X148572509Y-59188672D01*
X148583994Y-59181858D01*
X148594466Y-59177077D01*
X148633836Y-59142961D01*
X148637271Y-59140192D01*
X148649910Y-59130732D01*
X148661075Y-59119565D01*
X148664299Y-59116564D01*
X148703669Y-59082451D01*
X148709889Y-59072770D01*
X148718268Y-59062372D01*
X149699872Y-58080768D01*
X149710270Y-58072389D01*
X149719951Y-58066169D01*
X149754064Y-58026799D01*
X149757065Y-58023575D01*
X149768232Y-58012410D01*
X149777692Y-57999772D01*
X149780455Y-57996343D01*
X149814577Y-57956966D01*
X149819359Y-57946493D01*
X149826169Y-57935014D01*
X149833069Y-57925799D01*
X149851277Y-57876981D01*
X149852964Y-57872908D01*
X149874603Y-57825526D01*
X149876240Y-57814138D01*
X149879543Y-57801197D01*
X149883566Y-57790412D01*
X149887280Y-57738468D01*
X149887756Y-57734039D01*
X149888337Y-57730000D01*
X149890000Y-57718437D01*
X149890000Y-57702676D01*
X149890159Y-57698218D01*
X149892687Y-57662869D01*
X149893873Y-57646283D01*
X149891428Y-57635043D01*
X149890000Y-57621758D01*
X149890000Y-55812500D01*
X149908306Y-55768306D01*
X149952500Y-55750000D01*
X150367500Y-55750000D01*
X150411694Y-55768306D01*
X150430000Y-55812500D01*
X150430000Y-58584112D01*
X150411694Y-58628306D01*
X149498306Y-59541694D01*
X149454112Y-59560000D01*
X146860000Y-59560000D01*
X146370715Y-60049283D01*
X146333519Y-60067196D01*
X146293269Y-60058009D01*
X146236382Y-60022265D01*
X146236381Y-60022264D01*
X146236380Y-60022264D01*
X146156883Y-59994447D01*
X146077385Y-59966629D01*
X145931253Y-59950164D01*
X145910000Y-59947770D01*
X145909999Y-59947770D01*
X145742614Y-59966629D01*
X145583617Y-60022265D01*
X145440991Y-60111882D01*
X145321882Y-60230991D01*
X145232265Y-60373617D01*
X145176629Y-60532614D01*
X145157770Y-60699999D01*
X145176629Y-60867385D01*
X145232265Y-61026382D01*
X145268009Y-61083269D01*
X145277196Y-61123519D01*
X145259283Y-61160715D01*
X143768306Y-62651694D01*
X143748030Y-62665242D01*
X143724112Y-62670000D01*
X141685888Y-62670000D01*
X141641694Y-62651694D01*
X141538306Y-62548306D01*
X141520000Y-62504112D01*
X141520000Y-60555888D01*
X141538306Y-60511694D01*
X144041694Y-58008306D01*
X144085888Y-57990000D01*
X146320000Y-57990000D01*
X146561694Y-57748306D01*
X146605888Y-57730000D01*
X148060000Y-57730000D01*
X148360000Y-57430000D01*
X148360000Y-55845888D01*
X148378306Y-55801694D01*
X148411694Y-55768306D01*
X148455888Y-55750000D01*
X148822500Y-55750000D01*
X148866694Y-55768306D01*
G37*
%TD.AperFunction*%
%TD*%
%TA.AperFunction,Conductor*%
%TO.N,VDDEXT*%
G36*
X105881694Y-89318306D02*
G01*
X105900000Y-89362500D01*
X105900000Y-92100000D01*
X105900000Y-93237500D01*
X105881694Y-93281694D01*
X105837500Y-93300000D01*
X103962500Y-93300000D01*
X103918306Y-93281694D01*
X103900000Y-93237500D01*
X103900000Y-89362500D01*
X103918306Y-89318306D01*
X103962500Y-89300000D01*
X105837500Y-89300000D01*
X105881694Y-89318306D01*
G37*
%TD.AperFunction*%
%TD*%
%TA.AperFunction,Conductor*%
%TO.N,GND*%
G36*
X115081694Y-102318306D02*
G01*
X115100000Y-102362500D01*
X115100000Y-106237500D01*
X115081694Y-106281694D01*
X115037500Y-106300000D01*
X113162500Y-106300000D01*
X113118306Y-106281694D01*
X113100000Y-106237500D01*
X113100000Y-102362500D01*
X113118306Y-102318306D01*
X113162500Y-102300000D01*
X115037500Y-102300000D01*
X115081694Y-102318306D01*
G37*
%TD.AperFunction*%
%TD*%
%TA.AperFunction,Conductor*%
%TO.N,/VDDA2P5/VDDA2P5_INT*%
G36*
X134590000Y-142760000D02*
G01*
X133252500Y-142760000D01*
X133208306Y-142741694D01*
X133190000Y-142697500D01*
X133190000Y-140922500D01*
X133208306Y-140878306D01*
X133252500Y-140860000D01*
X134590000Y-140860000D01*
X134590000Y-142760000D01*
G37*
%TD.AperFunction*%
%TD*%
%TA.AperFunction,Conductor*%
%TO.N,GND*%
G36*
X122181694Y-103118306D02*
G01*
X122200000Y-103162500D01*
X122200000Y-106574112D01*
X122181694Y-106618306D01*
X121700000Y-107100000D01*
X121700000Y-108037500D01*
X121681694Y-108081694D01*
X121637500Y-108100000D01*
X120500000Y-108100000D01*
X120500000Y-107200000D01*
X120400000Y-107200000D01*
X120400000Y-106125888D01*
X120418306Y-106081694D01*
X120500000Y-106000000D01*
X120500000Y-103162500D01*
X120518306Y-103118306D01*
X120562500Y-103100000D01*
X122137500Y-103100000D01*
X122181694Y-103118306D01*
G37*
%TD.AperFunction*%
%TD*%
%TA.AperFunction,Conductor*%
%TO.N,GND*%
G36*
X151081694Y-65318306D02*
G01*
X151100000Y-65362500D01*
X151100000Y-69237500D01*
X151081694Y-69281694D01*
X151037500Y-69300000D01*
X149162500Y-69300000D01*
X149118306Y-69281694D01*
X149100000Y-69237500D01*
X149100000Y-65362500D01*
X149118306Y-65318306D01*
X149162500Y-65300000D01*
X151037500Y-65300000D01*
X151081694Y-65318306D01*
G37*
%TD.AperFunction*%
%TD*%
%TA.AperFunction,Conductor*%
%TO.N,GND*%
G36*
X146181694Y-52118306D02*
G01*
X146200000Y-52162500D01*
X146200000Y-55574112D01*
X146181694Y-55618306D01*
X145700000Y-56100000D01*
X145700000Y-57037500D01*
X145681694Y-57081694D01*
X145637500Y-57100000D01*
X144500000Y-57100000D01*
X144500000Y-56200000D01*
X144400000Y-56200000D01*
X144400000Y-55125888D01*
X144418306Y-55081694D01*
X144500000Y-55000000D01*
X144500000Y-52162500D01*
X144518306Y-52118306D01*
X144562500Y-52100000D01*
X146137500Y-52100000D01*
X146181694Y-52118306D01*
G37*
%TD.AperFunction*%
%TD*%
%TA.AperFunction,Conductor*%
%TO.N,GND*%
G36*
X139081694Y-51318306D02*
G01*
X139100000Y-51362500D01*
X139100000Y-55237500D01*
X139081694Y-55281694D01*
X139037500Y-55300000D01*
X137162500Y-55300000D01*
X137118306Y-55281694D01*
X137100000Y-55237500D01*
X137100000Y-51362500D01*
X137118306Y-51318306D01*
X137162500Y-51300000D01*
X139037500Y-51300000D01*
X139081694Y-51318306D01*
G37*
%TD.AperFunction*%
%TD*%
%TA.AperFunction,Conductor*%
%TO.N,GND*%
G36*
X187381694Y-52118306D02*
G01*
X187400000Y-52162500D01*
X187400000Y-55574112D01*
X187381694Y-55618306D01*
X186900000Y-56100000D01*
X186900000Y-57037500D01*
X186881694Y-57081694D01*
X186837500Y-57100000D01*
X185700000Y-57100000D01*
X185700000Y-56200000D01*
X185600000Y-56200000D01*
X185600000Y-55125888D01*
X185618306Y-55081694D01*
X185700000Y-55000000D01*
X185700000Y-52162500D01*
X185718306Y-52118306D01*
X185762500Y-52100000D01*
X187337500Y-52100000D01*
X187381694Y-52118306D01*
G37*
%TD.AperFunction*%
%TD*%
%TA.AperFunction,Conductor*%
%TO.N,GND*%
G36*
X103081694Y-89318306D02*
G01*
X103100000Y-89362500D01*
X103100000Y-93237500D01*
X103081694Y-93281694D01*
X103037500Y-93300000D01*
X101162500Y-93300000D01*
X101118306Y-93281694D01*
X101100000Y-93237500D01*
X101100000Y-89362500D01*
X101118306Y-89318306D01*
X101162500Y-89300000D01*
X103037500Y-89300000D01*
X103081694Y-89318306D01*
G37*
%TD.AperFunction*%
%TD*%
%TA.AperFunction,Conductor*%
%TO.N,VDDOSC*%
G36*
X139881694Y-108218306D02*
G01*
X139900000Y-108262500D01*
X139900000Y-110237500D01*
X139881694Y-110281694D01*
X139837500Y-110300000D01*
X138200000Y-110300000D01*
X137400000Y-111100000D01*
X137400000Y-113874112D01*
X137381694Y-113918306D01*
X137318306Y-113981694D01*
X137274112Y-114000000D01*
X133762500Y-114000000D01*
X133718306Y-113981694D01*
X133700000Y-113937500D01*
X133700000Y-110562500D01*
X133718306Y-110518306D01*
X133762500Y-110500000D01*
X135500000Y-110500000D01*
X136500000Y-109500000D01*
X136500000Y-108262500D01*
X136518306Y-108218306D01*
X136562500Y-108200000D01*
X139837500Y-108200000D01*
X139881694Y-108218306D01*
G37*
%TD.AperFunction*%
%TD*%
%TA.AperFunction,Conductor*%
%TO.N,GND*%
G36*
X180281694Y-51318306D02*
G01*
X180300000Y-51362500D01*
X180300000Y-55237500D01*
X180281694Y-55281694D01*
X180237500Y-55300000D01*
X178362500Y-55300000D01*
X178318306Y-55281694D01*
X178300000Y-55237500D01*
X178300000Y-51362500D01*
X178318306Y-51318306D01*
X178362500Y-51300000D01*
X180237500Y-51300000D01*
X180281694Y-51318306D01*
G37*
%TD.AperFunction*%
%TD*%
%TA.AperFunction,Conductor*%
%TO.N,VDDEXT*%
G36*
X141881694Y-51318306D02*
G01*
X141900000Y-51362500D01*
X141900000Y-54100000D01*
X141900000Y-55237500D01*
X141881694Y-55281694D01*
X141837500Y-55300000D01*
X139962500Y-55300000D01*
X139918306Y-55281694D01*
X139900000Y-55237500D01*
X139900000Y-51362500D01*
X139918306Y-51318306D01*
X139962500Y-51300000D01*
X141837500Y-51300000D01*
X141881694Y-51318306D01*
G37*
%TD.AperFunction*%
%TD*%
%TA.AperFunction,Conductor*%
%TO.N,VDDEXT*%
G36*
X153881694Y-65318306D02*
G01*
X153900000Y-65362500D01*
X153900000Y-68100000D01*
X153900000Y-69237500D01*
X153881694Y-69281694D01*
X153837500Y-69300000D01*
X151962500Y-69300000D01*
X151918306Y-69281694D01*
X151900000Y-69237500D01*
X151900000Y-65362500D01*
X151918306Y-65318306D01*
X151962500Y-65300000D01*
X153837500Y-65300000D01*
X153881694Y-65318306D01*
G37*
%TD.AperFunction*%
%TD*%
%TA.AperFunction,Conductor*%
%TO.N,/VDDACORE/VDDTQ_INT*%
G36*
X113218306Y-89418306D02*
G01*
X113381694Y-89581694D01*
X113400000Y-89625888D01*
X113400000Y-91597146D01*
X113400000Y-91600000D01*
X112229128Y-91600000D01*
X112194405Y-91589467D01*
X112188766Y-91585699D01*
X112122407Y-91572500D01*
X112122406Y-91572500D01*
X111503652Y-91572500D01*
X110762500Y-91572500D01*
X110718306Y-91554194D01*
X110700000Y-91510000D01*
X110700000Y-89762500D01*
X110718306Y-89718306D01*
X110762500Y-89700000D01*
X112400000Y-89700000D01*
X112681694Y-89418306D01*
X112725888Y-89400000D01*
X113174112Y-89400000D01*
X113218306Y-89418306D01*
G37*
%TD.AperFunction*%
%TD*%
%TA.AperFunction,Conductor*%
%TO.N,VREF*%
G36*
X119866694Y-69768306D02*
G01*
X119885000Y-69812500D01*
X119885000Y-71448470D01*
X119866694Y-71492664D01*
X119130164Y-72229194D01*
X119085970Y-72247500D01*
X116380741Y-72247500D01*
X116367456Y-72246072D01*
X116356216Y-72243626D01*
X116304285Y-72247341D01*
X116299827Y-72247500D01*
X116284058Y-72247500D01*
X116268457Y-72249742D01*
X116264027Y-72250219D01*
X116212085Y-72253935D01*
X116201306Y-72257955D01*
X116188364Y-72261259D01*
X116176971Y-72262897D01*
X116129611Y-72284526D01*
X116125491Y-72286233D01*
X116076698Y-72304433D01*
X116067489Y-72311326D01*
X116056008Y-72318139D01*
X116045533Y-72322923D01*
X116006173Y-72357028D01*
X116002703Y-72359824D01*
X115990090Y-72369266D01*
X115978952Y-72380404D01*
X115975691Y-72383440D01*
X115936330Y-72417548D01*
X115930110Y-72427227D01*
X115921727Y-72437629D01*
X114428658Y-73930698D01*
X114405108Y-73945496D01*
X114377469Y-73948611D01*
X114370002Y-73947770D01*
X114370001Y-73947770D01*
X114336101Y-73951589D01*
X114202614Y-73966629D01*
X114043617Y-74022265D01*
X113900991Y-74111882D01*
X113781882Y-74230991D01*
X113692265Y-74373617D01*
X113636629Y-74532614D01*
X113617770Y-74699999D01*
X113636629Y-74867385D01*
X113692265Y-75026382D01*
X113781882Y-75169008D01*
X113900991Y-75288117D01*
X114021555Y-75363871D01*
X114043620Y-75377736D01*
X114202613Y-75433370D01*
X114370000Y-75452230D01*
X114537387Y-75433370D01*
X114696380Y-75377736D01*
X114839008Y-75288117D01*
X114958117Y-75169008D01*
X115047736Y-75026380D01*
X115103370Y-74867387D01*
X115122230Y-74700000D01*
X115121388Y-74692531D01*
X115124502Y-74664893D01*
X115139299Y-74641341D01*
X116509835Y-73270806D01*
X116554030Y-73252500D01*
X119259258Y-73252500D01*
X119272543Y-73253928D01*
X119283782Y-73256373D01*
X119283782Y-73256372D01*
X119283783Y-73256373D01*
X119335717Y-73252659D01*
X119340176Y-73252500D01*
X119355935Y-73252500D01*
X119355937Y-73252500D01*
X119371545Y-73250255D01*
X119375968Y-73249780D01*
X119427912Y-73246066D01*
X119438695Y-73242043D01*
X119451639Y-73238739D01*
X119463026Y-73237103D01*
X119510411Y-73215461D01*
X119514492Y-73213771D01*
X119563299Y-73195568D01*
X119572509Y-73188672D01*
X119583994Y-73181858D01*
X119594466Y-73177077D01*
X119633836Y-73142961D01*
X119637271Y-73140192D01*
X119649910Y-73130732D01*
X119661075Y-73119565D01*
X119664299Y-73116564D01*
X119703669Y-73082451D01*
X119709889Y-73072770D01*
X119718268Y-73062372D01*
X120699872Y-72080768D01*
X120710270Y-72072389D01*
X120719951Y-72066169D01*
X120754064Y-72026799D01*
X120757065Y-72023575D01*
X120768232Y-72012410D01*
X120777692Y-71999772D01*
X120780455Y-71996343D01*
X120814577Y-71956966D01*
X120819359Y-71946493D01*
X120826169Y-71935014D01*
X120833069Y-71925799D01*
X120851277Y-71876981D01*
X120852964Y-71872908D01*
X120874603Y-71825526D01*
X120876240Y-71814138D01*
X120879543Y-71801197D01*
X120883566Y-71790412D01*
X120887280Y-71738468D01*
X120887756Y-71734039D01*
X120888337Y-71730000D01*
X120890000Y-71718437D01*
X120890000Y-71702676D01*
X120890159Y-71698218D01*
X120892687Y-71662869D01*
X120893873Y-71646283D01*
X120891428Y-71635043D01*
X120890000Y-71621758D01*
X120890000Y-69812500D01*
X120908306Y-69768306D01*
X120952500Y-69750000D01*
X121367500Y-69750000D01*
X121411694Y-69768306D01*
X121430000Y-69812500D01*
X121430000Y-72584112D01*
X121411694Y-72628306D01*
X120498306Y-73541694D01*
X120454112Y-73560000D01*
X117860000Y-73560000D01*
X117370715Y-74049283D01*
X117333519Y-74067196D01*
X117293269Y-74058009D01*
X117236382Y-74022265D01*
X117236381Y-74022264D01*
X117236380Y-74022264D01*
X117156883Y-73994446D01*
X117077385Y-73966629D01*
X116910000Y-73947770D01*
X116742614Y-73966629D01*
X116583617Y-74022265D01*
X116440991Y-74111882D01*
X116321882Y-74230991D01*
X116232265Y-74373617D01*
X116176629Y-74532614D01*
X116157770Y-74699999D01*
X116176629Y-74867385D01*
X116232265Y-75026382D01*
X116268009Y-75083269D01*
X116277196Y-75123519D01*
X116259283Y-75160715D01*
X114768306Y-76651694D01*
X114748030Y-76665242D01*
X114724112Y-76670000D01*
X112685888Y-76670000D01*
X112641694Y-76651694D01*
X112538306Y-76548306D01*
X112520000Y-76504112D01*
X112520000Y-74555888D01*
X112538306Y-74511694D01*
X115041694Y-72008306D01*
X115085888Y-71990000D01*
X117320000Y-71990000D01*
X117561694Y-71748306D01*
X117605888Y-71730000D01*
X119060000Y-71730000D01*
X119360000Y-71430000D01*
X119360000Y-69845888D01*
X119378306Y-69801694D01*
X119411694Y-69768306D01*
X119455888Y-69750000D01*
X119822500Y-69750000D01*
X119866694Y-69768306D01*
G37*
%TD.AperFunction*%
%TD*%
%TA.AperFunction,Conductor*%
%TO.N,VDDEXT*%
G36*
X106200000Y-89700000D02*
G01*
X107837500Y-89700000D01*
X107881694Y-89718306D01*
X107900000Y-89762500D01*
X107900000Y-92037500D01*
X107881694Y-92081694D01*
X107837500Y-92100000D01*
X105900000Y-92100000D01*
X105900000Y-89400000D01*
X106200000Y-89700000D01*
G37*
%TD.AperFunction*%
%TD*%
%TA.AperFunction,Conductor*%
%TO.N,Net-(J16-Pin_2)*%
G36*
X125071694Y-135988306D02*
G01*
X125090000Y-136032500D01*
X125090000Y-137010000D01*
X125871694Y-137791694D01*
X125890000Y-137835888D01*
X125890000Y-140617500D01*
X125871694Y-140661694D01*
X125827500Y-140680000D01*
X123352500Y-140680000D01*
X123308306Y-140661694D01*
X123290000Y-140617500D01*
X123290000Y-137915888D01*
X123308306Y-137871694D01*
X124180000Y-137000000D01*
X124180000Y-136032500D01*
X124198306Y-135988306D01*
X124242500Y-135970000D01*
X125027500Y-135970000D01*
X125071694Y-135988306D01*
G37*
%TD.AperFunction*%
%TD*%
%TA.AperFunction,Conductor*%
%TO.N,Net-(J27-Pin_2)*%
G36*
X136681694Y-104798306D02*
G01*
X136700000Y-104842500D01*
X136700000Y-107544112D01*
X136681694Y-107588306D01*
X135810000Y-108460000D01*
X135810000Y-109427500D01*
X135791694Y-109471694D01*
X135747500Y-109490000D01*
X134962500Y-109490000D01*
X134918306Y-109471694D01*
X134900000Y-109427500D01*
X134900000Y-108450000D01*
X134118306Y-107668306D01*
X134100000Y-107624112D01*
X134100000Y-104842500D01*
X134118306Y-104798306D01*
X134162500Y-104780000D01*
X136637500Y-104780000D01*
X136681694Y-104798306D01*
G37*
%TD.AperFunction*%
%TD*%
%TA.AperFunction,Conductor*%
%TO.N,/VDDA2P5/VDDA2P5_INT*%
G36*
X135795595Y-140870533D02*
G01*
X135801233Y-140874300D01*
X135867593Y-140887500D01*
X137227500Y-140887500D01*
X137271694Y-140905806D01*
X137290000Y-140950000D01*
X137290000Y-142697500D01*
X137271694Y-142741694D01*
X137227500Y-142760000D01*
X135590000Y-142760000D01*
X135308306Y-143041694D01*
X135264112Y-143060000D01*
X134815888Y-143060000D01*
X134771694Y-143041694D01*
X134608306Y-142878306D01*
X134590000Y-142834112D01*
X134590000Y-142760000D01*
X134590000Y-140862854D01*
X134590000Y-140860000D01*
X135760872Y-140860000D01*
X135795595Y-140870533D01*
G37*
%TD.AperFunction*%
%TD*%
%TA.AperFunction,Conductor*%
%TO.N,/VDDD2P5/VDDD2P5_INT*%
G36*
X191981694Y-51718306D02*
G01*
X192000000Y-51762500D01*
X192000000Y-53537500D01*
X191981694Y-53581694D01*
X191937500Y-53600000D01*
X190600000Y-53600000D01*
X190600000Y-51700000D01*
X191937500Y-51700000D01*
X191981694Y-51718306D01*
G37*
%TD.AperFunction*%
%TD*%
%TA.AperFunction,Conductor*%
%TO.N,VDDEXT*%
G36*
X112881694Y-65318306D02*
G01*
X112900000Y-65362500D01*
X112900000Y-68100000D01*
X112900000Y-69237500D01*
X112881694Y-69281694D01*
X112837500Y-69300000D01*
X110962500Y-69300000D01*
X110918306Y-69281694D01*
X110900000Y-69237500D01*
X110900000Y-65362500D01*
X110918306Y-65318306D01*
X110962500Y-65300000D01*
X112837500Y-65300000D01*
X112881694Y-65318306D01*
G37*
%TD.AperFunction*%
%TD*%
%TA.AperFunction,Conductor*%
%TO.N,VDDEXT*%
G36*
X152481694Y-38518306D02*
G01*
X152500000Y-38562500D01*
X152500000Y-43437500D01*
X152481694Y-43481694D01*
X152437500Y-43500000D01*
X140562500Y-43500000D01*
X140518306Y-43481694D01*
X140500000Y-43437500D01*
X140500000Y-38562500D01*
X140518306Y-38518306D01*
X140562500Y-38500000D01*
X152437500Y-38500000D01*
X152481694Y-38518306D01*
G37*
%TD.AperFunction*%
%TD*%
%TA.AperFunction,Conductor*%
%TO.N,VDDEXT*%
G36*
X142200000Y-51700000D02*
G01*
X143837500Y-51700000D01*
X143881694Y-51718306D01*
X143900000Y-51762500D01*
X143900000Y-54037500D01*
X143881694Y-54081694D01*
X143837500Y-54100000D01*
X141900000Y-54100000D01*
X141900000Y-51400000D01*
X142200000Y-51700000D01*
G37*
%TD.AperFunction*%
%TD*%
%TA.AperFunction,Conductor*%
%TO.N,GND*%
G36*
X178998000Y-135586613D02*
G01*
X179043387Y-135632000D01*
X179060000Y-135694000D01*
X179060000Y-146846000D01*
X179043387Y-146908000D01*
X178998000Y-146953387D01*
X178936000Y-146970000D01*
X174384000Y-146970000D01*
X174322000Y-146953387D01*
X174276613Y-146908000D01*
X174260000Y-146846000D01*
X174260000Y-135694000D01*
X174276613Y-135632000D01*
X174322000Y-135586613D01*
X174384000Y-135570000D01*
X178936000Y-135570000D01*
X178998000Y-135586613D01*
G37*
%TD.AperFunction*%
%TD*%
%TA.AperFunction,Conductor*%
%TO.N,VDDEXT*%
G36*
X154200000Y-65700000D02*
G01*
X155837500Y-65700000D01*
X155881694Y-65718306D01*
X155900000Y-65762500D01*
X155900000Y-68037500D01*
X155881694Y-68081694D01*
X155837500Y-68100000D01*
X153900000Y-68100000D01*
X153900000Y-65400000D01*
X154200000Y-65700000D01*
G37*
%TD.AperFunction*%
%TD*%
%TA.AperFunction,Conductor*%
%TO.N,VDDEXT*%
G36*
X113200000Y-65700000D02*
G01*
X114837500Y-65700000D01*
X114881694Y-65718306D01*
X114900000Y-65762500D01*
X114900000Y-68037500D01*
X114881694Y-68081694D01*
X114837500Y-68100000D01*
X112900000Y-68100000D01*
X112900000Y-65400000D01*
X113200000Y-65700000D01*
G37*
%TD.AperFunction*%
%TD*%
%TA.AperFunction,Conductor*%
%TO.N,GND*%
G36*
X139490000Y-138260000D02*
G01*
X139590000Y-138260000D01*
X139590000Y-139334112D01*
X139571694Y-139378306D01*
X139490000Y-139460000D01*
X139490000Y-142297500D01*
X139471694Y-142341694D01*
X139427500Y-142360000D01*
X137852500Y-142360000D01*
X137808306Y-142341694D01*
X137790000Y-142297500D01*
X137790000Y-138885888D01*
X137808306Y-138841694D01*
X138290000Y-138360000D01*
X138290000Y-137422500D01*
X138308306Y-137378306D01*
X138352500Y-137360000D01*
X139490000Y-137360000D01*
X139490000Y-138260000D01*
G37*
%TD.AperFunction*%
%TD*%
%TA.AperFunction,Conductor*%
%TO.N,/IREF*%
G36*
X153963681Y-102663681D02*
G01*
X153990561Y-102703909D01*
X154000000Y-102751362D01*
X154000000Y-107176000D01*
X153983387Y-107238000D01*
X153938000Y-107283387D01*
X153876000Y-107300000D01*
X152151362Y-107300000D01*
X152103909Y-107290561D01*
X152063681Y-107263681D01*
X150036319Y-105236319D01*
X150009439Y-105196091D01*
X150000000Y-105148638D01*
X150000000Y-100900001D01*
X149999999Y-100899999D01*
X149300000Y-100200000D01*
X147124000Y-100200000D01*
X147062000Y-100183387D01*
X147016613Y-100138000D01*
X147000000Y-100076000D01*
X147000000Y-98000000D01*
X149300000Y-98000000D01*
X153963681Y-102663681D01*
G37*
%TD.AperFunction*%
%TD*%
%TA.AperFunction,Conductor*%
%TO.N,/VDDD2P5/VDDD2P5_INT*%
G36*
X190418306Y-51418306D02*
G01*
X190581694Y-51581694D01*
X190600000Y-51625888D01*
X190600000Y-53597146D01*
X190600000Y-53600000D01*
X189424128Y-53600000D01*
X189389405Y-53589467D01*
X189383766Y-53585699D01*
X189317407Y-53572500D01*
X189317406Y-53572500D01*
X188703652Y-53572500D01*
X187962500Y-53572500D01*
X187918306Y-53554194D01*
X187900000Y-53510000D01*
X187900000Y-51762500D01*
X187918306Y-51718306D01*
X187962500Y-51700000D01*
X189600000Y-51700000D01*
X189881694Y-51418306D01*
X189925888Y-51400000D01*
X190374112Y-51400000D01*
X190418306Y-51418306D01*
G37*
%TD.AperFunction*%
%TD*%
%TA.AperFunction,Conductor*%
%TO.N,/CLKIN_P*%
G36*
X159500161Y-134796412D02*
G01*
X159524601Y-134797017D01*
X159525223Y-134797049D01*
X159545041Y-134798670D01*
X159545700Y-134798744D01*
X159562144Y-134801114D01*
X159562783Y-134801224D01*
X159577143Y-134804114D01*
X159577531Y-134804199D01*
X159591087Y-134807409D01*
X159604840Y-134810666D01*
X159619704Y-134813656D01*
X159636800Y-134816121D01*
X159647030Y-134816956D01*
X159657256Y-134817793D01*
X159662673Y-134817926D01*
X159682157Y-134818409D01*
X159682175Y-134818409D01*
X159754972Y-134818409D01*
X159762662Y-134821291D01*
X159766563Y-134828517D01*
X159776355Y-134899817D01*
X159776355Y-134903001D01*
X159766563Y-134974301D01*
X159762662Y-134981527D01*
X159754972Y-134984409D01*
X159682157Y-134984409D01*
X159657261Y-134985024D01*
X159636801Y-134986696D01*
X159619708Y-134989160D01*
X159604835Y-134992153D01*
X159591087Y-134995409D01*
X159591086Y-134995409D01*
X159577530Y-134998618D01*
X159577143Y-134998703D01*
X159562783Y-135001592D01*
X159562145Y-135001702D01*
X159545730Y-135004069D01*
X159545013Y-135004150D01*
X159525243Y-135005766D01*
X159524579Y-135005801D01*
X159500162Y-135006405D01*
X159499873Y-135006409D01*
X159492551Y-135006409D01*
X159485781Y-135004251D01*
X159481508Y-134998574D01*
X159473012Y-134974301D01*
X159448852Y-134905272D01*
X159448852Y-134897546D01*
X159479260Y-134810666D01*
X159481508Y-134804244D01*
X159485781Y-134798567D01*
X159492551Y-134796409D01*
X159499873Y-134796409D01*
X159500161Y-134796412D01*
G37*
%TD.AperFunction*%
%TD*%
%TA.AperFunction,Conductor*%
%TO.N,/VDDACORE/VDDTQ_INT*%
G36*
X114781694Y-89718306D02*
G01*
X114800000Y-89762500D01*
X114800000Y-91537500D01*
X114781694Y-91581694D01*
X114737500Y-91600000D01*
X113400000Y-91600000D01*
X113400000Y-89700000D01*
X114737500Y-89700000D01*
X114781694Y-89718306D01*
G37*
%TD.AperFunction*%
%TD*%
%TA.AperFunction,Conductor*%
%TO.N,/VREF/VREF_INT*%
G36*
X121781694Y-65718306D02*
G01*
X121800000Y-65762500D01*
X121800000Y-67537500D01*
X121781694Y-67581694D01*
X121737500Y-67600000D01*
X120400000Y-67600000D01*
X120400000Y-65700000D01*
X121737500Y-65700000D01*
X121781694Y-65718306D01*
G37*
%TD.AperFunction*%
%TD*%
%TA.AperFunction,Conductor*%
%TO.N,/VDD3P3/VDD3P3_INT*%
G36*
X202218306Y-65418306D02*
G01*
X202381694Y-65581694D01*
X202400000Y-65625888D01*
X202400000Y-67597146D01*
X202400000Y-67600000D01*
X201229128Y-67600000D01*
X201194405Y-67589467D01*
X201188766Y-67585699D01*
X201122407Y-67572500D01*
X201122406Y-67572500D01*
X200503652Y-67572500D01*
X199762500Y-67572500D01*
X199718306Y-67554194D01*
X199700000Y-67510000D01*
X199700000Y-65762500D01*
X199718306Y-65718306D01*
X199762500Y-65700000D01*
X201400000Y-65700000D01*
X201681694Y-65418306D01*
X201725888Y-65400000D01*
X202174112Y-65400000D01*
X202218306Y-65418306D01*
G37*
%TD.AperFunction*%
%TD*%
%TA.AperFunction,Conductor*%
%TO.N,GND*%
G36*
X115500000Y-71100000D02*
G01*
X114162500Y-71100000D01*
X114118306Y-71081694D01*
X114100000Y-71037500D01*
X114100000Y-70262500D01*
X114118306Y-70218306D01*
X114162500Y-70200000D01*
X115400000Y-70200000D01*
X115500000Y-70200000D01*
X115500000Y-71100000D01*
G37*
%TD.AperFunction*%
%TD*%
%TA.AperFunction,Conductor*%
%TO.N,GND*%
G36*
X117181694Y-66118306D02*
G01*
X117200000Y-66162500D01*
X117200000Y-69574112D01*
X117181694Y-69618306D01*
X116700000Y-70100000D01*
X116700000Y-71037500D01*
X116681694Y-71081694D01*
X116637500Y-71100000D01*
X115500000Y-71100000D01*
X115500000Y-70200000D01*
X115400000Y-70200000D01*
X115400000Y-69125888D01*
X115418306Y-69081694D01*
X115500000Y-69000000D01*
X115500000Y-66162500D01*
X115518306Y-66118306D01*
X115562500Y-66100000D01*
X117137500Y-66100000D01*
X117181694Y-66118306D01*
G37*
%TD.AperFunction*%
%TD*%
%TA.AperFunction,Conductor*%
%TO.N,GND*%
G36*
X110181694Y-90118306D02*
G01*
X110200000Y-90162500D01*
X110200000Y-93574112D01*
X110181694Y-93618306D01*
X109700000Y-94100000D01*
X109700000Y-95037500D01*
X109681694Y-95081694D01*
X109637500Y-95100000D01*
X108500000Y-95100000D01*
X108500000Y-94200000D01*
X108400000Y-94200000D01*
X108400000Y-93125888D01*
X108418306Y-93081694D01*
X108500000Y-93000000D01*
X108500000Y-90162500D01*
X108518306Y-90118306D01*
X108562500Y-90100000D01*
X110137500Y-90100000D01*
X110181694Y-90118306D01*
G37*
%TD.AperFunction*%
%TD*%
%TA.AperFunction,Conductor*%
%TO.N,VDDEXT*%
G36*
X183400000Y-51700000D02*
G01*
X185037500Y-51700000D01*
X185081694Y-51718306D01*
X185100000Y-51762500D01*
X185100000Y-54037500D01*
X185081694Y-54081694D01*
X185037500Y-54100000D01*
X183100000Y-54100000D01*
X183100000Y-51400000D01*
X183400000Y-51700000D01*
G37*
%TD.AperFunction*%
%TD*%
%TA.AperFunction,Conductor*%
%TO.N,Net-(J20-Pin_2)*%
G36*
X131681694Y-67798306D02*
G01*
X131700000Y-67842500D01*
X131700000Y-70544112D01*
X131681694Y-70588306D01*
X130810000Y-71460000D01*
X130810000Y-72427500D01*
X130791694Y-72471694D01*
X130747500Y-72490000D01*
X129962500Y-72490000D01*
X129918306Y-72471694D01*
X129900000Y-72427500D01*
X129900000Y-71450000D01*
X129118306Y-70668306D01*
X129100000Y-70624112D01*
X129100000Y-67842500D01*
X129118306Y-67798306D01*
X129162500Y-67780000D01*
X131637500Y-67780000D01*
X131681694Y-67798306D01*
G37*
%TD.AperFunction*%
%TD*%
%TA.AperFunction,Conductor*%
%TO.N,/VDDACORE/VDDCCO_INT*%
G36*
X150781694Y-51718306D02*
G01*
X150800000Y-51762500D01*
X150800000Y-53537500D01*
X150781694Y-53581694D01*
X150737500Y-53600000D01*
X149400000Y-53600000D01*
X149400000Y-51700000D01*
X150737500Y-51700000D01*
X150781694Y-51718306D01*
G37*
%TD.AperFunction*%
%TD*%
%TA.AperFunction,Conductor*%
%TO.N,VDDEXT*%
G36*
X194881694Y-65318306D02*
G01*
X194900000Y-65362500D01*
X194900000Y-68100000D01*
X194900000Y-69237500D01*
X194881694Y-69281694D01*
X194837500Y-69300000D01*
X192962500Y-69300000D01*
X192918306Y-69281694D01*
X192900000Y-69237500D01*
X192900000Y-65362500D01*
X192918306Y-65318306D01*
X192962500Y-65300000D01*
X194837500Y-65300000D01*
X194881694Y-65318306D01*
G37*
%TD.AperFunction*%
%TD*%
%TA.AperFunction,Conductor*%
%TO.N,/IREF*%
G36*
X149281694Y-95318306D02*
G01*
X149300000Y-95362500D01*
X149300000Y-98000000D01*
X147000000Y-98000000D01*
X147000000Y-95362500D01*
X147018306Y-95318306D01*
X147062500Y-95300000D01*
X149237500Y-95300000D01*
X149281694Y-95318306D01*
G37*
%TD.AperFunction*%
%TD*%
%TA.AperFunction,Conductor*%
%TO.N,VDDEXT*%
G36*
X183081694Y-51318306D02*
G01*
X183100000Y-51362500D01*
X183100000Y-54100000D01*
X183100000Y-55237500D01*
X183081694Y-55281694D01*
X183037500Y-55300000D01*
X181162500Y-55300000D01*
X181118306Y-55281694D01*
X181100000Y-55237500D01*
X181100000Y-51362500D01*
X181118306Y-51318306D01*
X181162500Y-51300000D01*
X183037500Y-51300000D01*
X183081694Y-51318306D01*
G37*
%TD.AperFunction*%
%TD*%
%TA.AperFunction,Conductor*%
%TO.N,Net-(J36-Pin_1)*%
G36*
X154581694Y-87518306D02*
G01*
X154600000Y-87562500D01*
X154600000Y-92000000D01*
X157581694Y-94981694D01*
X157600000Y-95025888D01*
X157600000Y-97437500D01*
X157581694Y-97481694D01*
X157537500Y-97500000D01*
X149662500Y-97500000D01*
X149618306Y-97481694D01*
X149600000Y-97437500D01*
X149600000Y-95025888D01*
X149618306Y-94981694D01*
X152600000Y-92000000D01*
X152600000Y-87562500D01*
X152618306Y-87518306D01*
X152662500Y-87500000D01*
X154537500Y-87500000D01*
X154581694Y-87518306D01*
G37*
%TD.AperFunction*%
%TD*%
%TA.AperFunction,Conductor*%
%TO.N,/VDDD1P2/VDD1P2_INT*%
G36*
X162781694Y-65718306D02*
G01*
X162800000Y-65762500D01*
X162800000Y-67537500D01*
X162781694Y-67581694D01*
X162737500Y-67600000D01*
X161400000Y-67600000D01*
X161400000Y-65700000D01*
X162737500Y-65700000D01*
X162781694Y-65718306D01*
G37*
%TD.AperFunction*%
%TD*%
%TA.AperFunction,Conductor*%
%TO.N,GND*%
G36*
X108500000Y-95100000D02*
G01*
X107162500Y-95100000D01*
X107118306Y-95081694D01*
X107100000Y-95037500D01*
X107100000Y-94262500D01*
X107118306Y-94218306D01*
X107162500Y-94200000D01*
X108400000Y-94200000D01*
X108500000Y-94200000D01*
X108500000Y-95100000D01*
G37*
%TD.AperFunction*%
%TD*%
%TA.AperFunction,Conductor*%
%TO.N,/VREF/VREF_INT*%
G36*
X120218306Y-65418306D02*
G01*
X120381694Y-65581694D01*
X120400000Y-65625888D01*
X120400000Y-67597146D01*
X120400000Y-67600000D01*
X119229128Y-67600000D01*
X119194405Y-67589467D01*
X119188766Y-67585699D01*
X119122407Y-67572500D01*
X119122406Y-67572500D01*
X118503652Y-67572500D01*
X117762500Y-67572500D01*
X117718306Y-67554194D01*
X117700000Y-67510000D01*
X117700000Y-65762500D01*
X117718306Y-65718306D01*
X117762500Y-65700000D01*
X119400000Y-65700000D01*
X119681694Y-65418306D01*
X119725888Y-65400000D01*
X120174112Y-65400000D01*
X120218306Y-65418306D01*
G37*
%TD.AperFunction*%
%TD*%
%TA.AperFunction,Conductor*%
%TO.N,VDDEXT*%
G36*
X195200000Y-65700000D02*
G01*
X196837500Y-65700000D01*
X196881694Y-65718306D01*
X196900000Y-65762500D01*
X196900000Y-68037500D01*
X196881694Y-68081694D01*
X196837500Y-68100000D01*
X194900000Y-68100000D01*
X194900000Y-65400000D01*
X195200000Y-65700000D01*
G37*
%TD.AperFunction*%
%TD*%
%TA.AperFunction,Conductor*%
%TO.N,VDDOSC*%
G36*
X124866694Y-106768306D02*
G01*
X124885000Y-106812500D01*
X124885000Y-108448470D01*
X124866694Y-108492664D01*
X124130164Y-109229194D01*
X124085970Y-109247500D01*
X121380741Y-109247500D01*
X121367456Y-109246072D01*
X121356216Y-109243626D01*
X121304285Y-109247341D01*
X121299827Y-109247500D01*
X121284058Y-109247500D01*
X121268457Y-109249742D01*
X121264027Y-109250219D01*
X121212085Y-109253935D01*
X121201306Y-109257955D01*
X121188364Y-109261259D01*
X121176971Y-109262897D01*
X121129611Y-109284526D01*
X121125491Y-109286233D01*
X121076698Y-109304433D01*
X121067489Y-109311326D01*
X121056008Y-109318139D01*
X121045533Y-109322923D01*
X121006173Y-109357028D01*
X121002703Y-109359824D01*
X120990090Y-109369266D01*
X120978952Y-109380404D01*
X120975691Y-109383440D01*
X120936330Y-109417548D01*
X120930110Y-109427227D01*
X120921727Y-109437629D01*
X119428658Y-110930698D01*
X119405108Y-110945496D01*
X119377469Y-110948611D01*
X119370002Y-110947770D01*
X119370001Y-110947770D01*
X119336101Y-110951589D01*
X119202614Y-110966629D01*
X119043617Y-111022265D01*
X118900991Y-111111882D01*
X118781882Y-111230991D01*
X118692265Y-111373617D01*
X118636629Y-111532614D01*
X118617770Y-111699999D01*
X118636629Y-111867385D01*
X118692265Y-112026382D01*
X118781882Y-112169008D01*
X118900991Y-112288117D01*
X119021555Y-112363871D01*
X119043620Y-112377736D01*
X119202613Y-112433370D01*
X119370000Y-112452230D01*
X119537387Y-112433370D01*
X119696380Y-112377736D01*
X119839008Y-112288117D01*
X119958117Y-112169008D01*
X120047736Y-112026380D01*
X120103370Y-111867387D01*
X120122230Y-111700000D01*
X120121388Y-111692531D01*
X120124502Y-111664893D01*
X120139299Y-111641341D01*
X121509835Y-110270806D01*
X121554030Y-110252500D01*
X124259258Y-110252500D01*
X124272543Y-110253928D01*
X124283782Y-110256373D01*
X124283782Y-110256372D01*
X124283783Y-110256373D01*
X124335717Y-110252659D01*
X124340176Y-110252500D01*
X124355935Y-110252500D01*
X124355937Y-110252500D01*
X124371545Y-110250255D01*
X124375968Y-110249780D01*
X124427912Y-110246066D01*
X124438695Y-110242043D01*
X124451639Y-110238739D01*
X124463026Y-110237103D01*
X124510411Y-110215461D01*
X124514492Y-110213771D01*
X124563299Y-110195568D01*
X124572509Y-110188672D01*
X124583994Y-110181858D01*
X124594466Y-110177077D01*
X124633836Y-110142961D01*
X124637271Y-110140192D01*
X124649910Y-110130732D01*
X124661075Y-110119565D01*
X124664299Y-110116564D01*
X124703669Y-110082451D01*
X124709889Y-110072770D01*
X124718268Y-110062372D01*
X125699872Y-109080768D01*
X125710270Y-109072389D01*
X125719951Y-109066169D01*
X125754064Y-109026799D01*
X125757065Y-109023575D01*
X125768232Y-109012410D01*
X125777692Y-108999772D01*
X125780455Y-108996343D01*
X125814577Y-108956966D01*
X125819359Y-108946493D01*
X125826169Y-108935014D01*
X125833069Y-108925799D01*
X125851277Y-108876981D01*
X125852964Y-108872908D01*
X125874603Y-108825526D01*
X125876240Y-108814138D01*
X125879543Y-108801197D01*
X125883566Y-108790412D01*
X125887280Y-108738468D01*
X125887756Y-108734039D01*
X125888337Y-108730000D01*
X125890000Y-108718437D01*
X125890000Y-108702676D01*
X125890159Y-108698218D01*
X125892687Y-108662869D01*
X125893873Y-108646283D01*
X125891428Y-108635043D01*
X125890000Y-108621758D01*
X125890000Y-106812500D01*
X125908306Y-106768306D01*
X125952500Y-106750000D01*
X126367500Y-106750000D01*
X126411694Y-106768306D01*
X126430000Y-106812500D01*
X126430000Y-109584112D01*
X126411694Y-109628306D01*
X125498306Y-110541694D01*
X125454112Y-110560000D01*
X122860000Y-110560000D01*
X122370715Y-111049283D01*
X122333519Y-111067196D01*
X122293269Y-111058009D01*
X122236382Y-111022265D01*
X122236381Y-111022264D01*
X122236380Y-111022264D01*
X122156883Y-110994446D01*
X122077385Y-110966629D01*
X121910000Y-110947770D01*
X121742614Y-110966629D01*
X121583617Y-111022265D01*
X121440991Y-111111882D01*
X121321882Y-111230991D01*
X121232265Y-111373617D01*
X121176629Y-111532614D01*
X121157770Y-111699999D01*
X121176629Y-111867385D01*
X121232265Y-112026382D01*
X121268009Y-112083269D01*
X121277196Y-112123519D01*
X121259283Y-112160715D01*
X119768306Y-113651694D01*
X119748030Y-113665242D01*
X119724112Y-113670000D01*
X117685888Y-113670000D01*
X117641694Y-113651694D01*
X117538306Y-113548306D01*
X117520000Y-113504112D01*
X117520000Y-111555888D01*
X117538306Y-111511694D01*
X120041694Y-109008306D01*
X120085888Y-108990000D01*
X122320000Y-108990000D01*
X122561694Y-108748306D01*
X122605888Y-108730000D01*
X124060000Y-108730000D01*
X124360000Y-108430000D01*
X124360000Y-106845888D01*
X124378306Y-106801694D01*
X124411694Y-106768306D01*
X124455888Y-106750000D01*
X124822500Y-106750000D01*
X124866694Y-106768306D01*
G37*
%TD.AperFunction*%
%TD*%
%TA.AperFunction,Conductor*%
%TO.N,GND*%
G36*
X197500000Y-71100000D02*
G01*
X196162500Y-71100000D01*
X196118306Y-71081694D01*
X196100000Y-71037500D01*
X196100000Y-70262500D01*
X196118306Y-70218306D01*
X196162500Y-70200000D01*
X197400000Y-70200000D01*
X197500000Y-70200000D01*
X197500000Y-71100000D01*
G37*
%TD.AperFunction*%
%TD*%
%TA.AperFunction,Conductor*%
%TO.N,Net-(J33-CNTR)*%
G36*
X138481694Y-36318306D02*
G01*
X138500000Y-36362500D01*
X138500000Y-46137500D01*
X138481694Y-46181694D01*
X138437500Y-46200000D01*
X126962500Y-46200000D01*
X126918306Y-46181694D01*
X126900000Y-46137500D01*
X126900000Y-43789999D01*
X127947428Y-43789999D01*
X127967673Y-44021400D01*
X128027792Y-44245764D01*
X128125960Y-44456287D01*
X128259190Y-44646560D01*
X128423439Y-44810809D01*
X128613712Y-44944039D01*
X128613713Y-44944039D01*
X128613714Y-44944040D01*
X128824234Y-45042207D01*
X128899023Y-45062246D01*
X129048599Y-45102326D01*
X129280000Y-45122571D01*
X129511400Y-45102326D01*
X129586187Y-45082286D01*
X129735766Y-45042207D01*
X129946286Y-44944040D01*
X130136560Y-44810809D01*
X130300809Y-44646560D01*
X130434040Y-44456286D01*
X130532207Y-44245766D01*
X130592326Y-44021399D01*
X130612571Y-43790000D01*
X130612571Y-43789999D01*
X133027428Y-43789999D01*
X133047673Y-44021400D01*
X133107792Y-44245764D01*
X133205960Y-44456287D01*
X133339190Y-44646560D01*
X133503439Y-44810809D01*
X133693712Y-44944039D01*
X133693713Y-44944039D01*
X133693714Y-44944040D01*
X133904234Y-45042207D01*
X133979023Y-45062246D01*
X134128599Y-45102326D01*
X134360000Y-45122571D01*
X134591400Y-45102326D01*
X134666187Y-45082286D01*
X134815766Y-45042207D01*
X135026286Y-44944040D01*
X135216560Y-44810809D01*
X135380809Y-44646560D01*
X135514040Y-44456286D01*
X135612207Y-44245766D01*
X135672326Y-44021399D01*
X135692571Y-43790000D01*
X135672326Y-43558601D01*
X135672326Y-43558599D01*
X135612207Y-43334235D01*
X135514039Y-43123713D01*
X135380809Y-42933439D01*
X135216560Y-42769190D01*
X135026287Y-42635960D01*
X134815764Y-42537792D01*
X134591400Y-42477673D01*
X134360000Y-42457428D01*
X134128599Y-42477673D01*
X133904235Y-42537792D01*
X133693713Y-42635960D01*
X133503439Y-42769190D01*
X133339190Y-42933439D01*
X133205960Y-43123713D01*
X133107792Y-43334235D01*
X133047673Y-43558599D01*
X133027428Y-43789999D01*
X130612571Y-43789999D01*
X130592326Y-43558601D01*
X130592326Y-43558599D01*
X130532207Y-43334235D01*
X130434039Y-43123713D01*
X130300809Y-42933439D01*
X130136560Y-42769190D01*
X129946287Y-42635960D01*
X129735764Y-42537792D01*
X129511400Y-42477673D01*
X129280000Y-42457428D01*
X129048599Y-42477673D01*
X128824235Y-42537792D01*
X128613713Y-42635960D01*
X128423439Y-42769190D01*
X128259190Y-42933439D01*
X128125960Y-43123713D01*
X128027792Y-43334235D01*
X127967673Y-43558599D01*
X127947428Y-43789999D01*
X126900000Y-43789999D01*
X126900000Y-38710000D01*
X127947428Y-38710000D01*
X127967673Y-38941400D01*
X128027792Y-39165764D01*
X128125960Y-39376287D01*
X128259190Y-39566560D01*
X128423439Y-39730809D01*
X128613712Y-39864039D01*
X128613713Y-39864039D01*
X128613714Y-39864040D01*
X128824234Y-39962207D01*
X128899023Y-39982246D01*
X129048599Y-40022326D01*
X129280000Y-40042571D01*
X129511400Y-40022326D01*
X129586187Y-40002286D01*
X129735766Y-39962207D01*
X129946286Y-39864040D01*
X130136560Y-39730809D01*
X130300809Y-39566560D01*
X130434040Y-39376286D01*
X130532207Y-39165766D01*
X130592326Y-38941399D01*
X130612571Y-38710000D01*
X130612571Y-38709999D01*
X133027428Y-38709999D01*
X133047673Y-38941400D01*
X133107792Y-39165764D01*
X133205960Y-39376287D01*
X133339190Y-39566560D01*
X133503439Y-39730809D01*
X133693712Y-39864039D01*
X133693713Y-39864039D01*
X133693714Y-39864040D01*
X133904234Y-39962207D01*
X133979023Y-39982246D01*
X134128599Y-40022326D01*
X134360000Y-40042571D01*
X134591400Y-40022326D01*
X134666187Y-40002286D01*
X134815766Y-39962207D01*
X135026286Y-39864040D01*
X135216560Y-39730809D01*
X135380809Y-39566560D01*
X135514040Y-39376286D01*
X135612207Y-39165766D01*
X135672326Y-38941399D01*
X135692571Y-38710000D01*
X135672326Y-38478601D01*
X135672326Y-38478599D01*
X135612207Y-38254235D01*
X135514039Y-38043713D01*
X135380809Y-37853439D01*
X135216560Y-37689190D01*
X135026287Y-37555960D01*
X134815764Y-37457792D01*
X134591400Y-37397673D01*
X134360000Y-37377428D01*
X134128599Y-37397673D01*
X133904235Y-37457792D01*
X133693713Y-37555960D01*
X133503439Y-37689190D01*
X133339190Y-37853439D01*
X133205960Y-38043713D01*
X133107792Y-38254235D01*
X133047673Y-38478599D01*
X133027428Y-38709999D01*
X130612571Y-38709999D01*
X130592326Y-38478601D01*
X130592326Y-38478599D01*
X130532207Y-38254235D01*
X130434039Y-38043713D01*
X130300809Y-37853439D01*
X130136560Y-37689190D01*
X129946287Y-37555960D01*
X129735764Y-37457792D01*
X129511400Y-37397673D01*
X129280000Y-37377428D01*
X129048599Y-37397673D01*
X128824235Y-37457792D01*
X128613713Y-37555960D01*
X128423439Y-37689190D01*
X128259190Y-37853439D01*
X128125960Y-38043713D01*
X128027792Y-38254235D01*
X127967673Y-38478599D01*
X127947428Y-38710000D01*
X126900000Y-38710000D01*
X126900000Y-36362500D01*
X126918306Y-36318306D01*
X126962500Y-36300000D01*
X138437500Y-36300000D01*
X138481694Y-36318306D01*
G37*
%TD.AperFunction*%
%TD*%
%TA.AperFunction,Conductor*%
%TO.N,VDDEXT*%
G36*
X117881694Y-102318306D02*
G01*
X117900000Y-102362500D01*
X117900000Y-105100000D01*
X117900000Y-106237500D01*
X117881694Y-106281694D01*
X117837500Y-106300000D01*
X115962500Y-106300000D01*
X115918306Y-106281694D01*
X115900000Y-106237500D01*
X115900000Y-102362500D01*
X115918306Y-102318306D01*
X115962500Y-102300000D01*
X117837500Y-102300000D01*
X117881694Y-102318306D01*
G37*
%TD.AperFunction*%
%TD*%
%TA.AperFunction,Conductor*%
%TO.N,GND*%
G36*
X140871694Y-137378306D02*
G01*
X140890000Y-137422500D01*
X140890000Y-138197500D01*
X140871694Y-138241694D01*
X140827500Y-138260000D01*
X139490000Y-138260000D01*
X139490000Y-137360000D01*
X140827500Y-137360000D01*
X140871694Y-137378306D01*
G37*
%TD.AperFunction*%
%TD*%
%TA.AperFunction,Conductor*%
%TO.N,VREF*%
G36*
X134881694Y-71218306D02*
G01*
X134900000Y-71262500D01*
X134900000Y-73237500D01*
X134881694Y-73281694D01*
X134837500Y-73300000D01*
X133200000Y-73300000D01*
X132400000Y-74100000D01*
X132400000Y-76874112D01*
X132381694Y-76918306D01*
X132318306Y-76981694D01*
X132274112Y-77000000D01*
X128762500Y-77000000D01*
X128718306Y-76981694D01*
X128700000Y-76937500D01*
X128700000Y-73562500D01*
X128718306Y-73518306D01*
X128762500Y-73500000D01*
X130500000Y-73500000D01*
X131500000Y-72500000D01*
X131500000Y-71262500D01*
X131518306Y-71218306D01*
X131562500Y-71200000D01*
X134837500Y-71200000D01*
X134881694Y-71218306D01*
G37*
%TD.AperFunction*%
%TD*%
M02*
