%TF.GenerationSoftware,KiCad,Pcbnew,7.0.1-0*%
%TF.CreationDate,2023-04-17T18:56:10+01:00*%
%TF.ProjectId,cyborg65r2_pcb,6379626f-7267-4363-9572-325f7063622e,rev?*%
%TF.SameCoordinates,Original*%
%TF.FileFunction,Paste,Top*%
%TF.FilePolarity,Positive*%
%FSLAX46Y46*%
G04 Gerber Fmt 4.6, Leading zero omitted, Abs format (unit mm)*
G04 Created by KiCad (PCBNEW 7.0.1-0) date 2023-04-17 18:56:10*
%MOMM*%
%LPD*%
G01*
G04 APERTURE LIST*
G04 Aperture macros list*
%AMRoundRect*
0 Rectangle with rounded corners*
0 $1 Rounding radius*
0 $2 $3 $4 $5 $6 $7 $8 $9 X,Y pos of 4 corners*
0 Add a 4 corners polygon primitive as box body*
4,1,4,$2,$3,$4,$5,$6,$7,$8,$9,$2,$3,0*
0 Add four circle primitives for the rounded corners*
1,1,$1+$1,$2,$3*
1,1,$1+$1,$4,$5*
1,1,$1+$1,$6,$7*
1,1,$1+$1,$8,$9*
0 Add four rect primitives between the rounded corners*
20,1,$1+$1,$2,$3,$4,$5,0*
20,1,$1+$1,$4,$5,$6,$7,0*
20,1,$1+$1,$6,$7,$8,$9,0*
20,1,$1+$1,$8,$9,$2,$3,0*%
G04 Aperture macros list end*
%ADD10R,0.890000X1.020000*%
%ADD11RoundRect,0.250000X0.250000X0.475000X-0.250000X0.475000X-0.250000X-0.475000X0.250000X-0.475000X0*%
%ADD12RoundRect,0.250000X-0.250000X-0.475000X0.250000X-0.475000X0.250000X0.475000X-0.250000X0.475000X0*%
%ADD13RoundRect,0.250000X-0.475000X0.250000X-0.475000X-0.250000X0.475000X-0.250000X0.475000X0.250000X0*%
%ADD14RoundRect,0.167500X0.167500X0.407500X-0.167500X0.407500X-0.167500X-0.407500X0.167500X-0.407500X0*%
%ADD15RoundRect,0.100000X0.625000X0.100000X-0.625000X0.100000X-0.625000X-0.100000X0.625000X-0.100000X0*%
%ADD16RoundRect,0.250000X-0.262500X-0.450000X0.262500X-0.450000X0.262500X0.450000X-0.262500X0.450000X0*%
%ADD17RoundRect,0.167500X-0.167500X-0.407500X0.167500X-0.407500X0.167500X0.407500X-0.167500X0.407500X0*%
%ADD18RoundRect,0.100000X-0.625000X-0.100000X0.625000X-0.100000X0.625000X0.100000X-0.625000X0.100000X0*%
%ADD19RoundRect,0.225000X0.225000X0.250000X-0.225000X0.250000X-0.225000X-0.250000X0.225000X-0.250000X0*%
%ADD20RoundRect,0.250000X0.262500X0.450000X-0.262500X0.450000X-0.262500X-0.450000X0.262500X-0.450000X0*%
%ADD21R,1.475000X0.300000*%
%ADD22RoundRect,0.225000X-0.250000X0.225000X-0.250000X-0.225000X0.250000X-0.225000X0.250000X0.225000X0*%
%ADD23RoundRect,0.250000X0.475000X-0.250000X0.475000X0.250000X-0.475000X0.250000X-0.475000X-0.250000X0*%
%ADD24RoundRect,0.150000X-0.150000X-0.200000X0.150000X-0.200000X0.150000X0.200000X-0.150000X0.200000X0*%
%ADD25RoundRect,0.250000X-0.345000X-0.345000X0.345000X-0.345000X0.345000X0.345000X-0.345000X0.345000X0*%
%ADD26RoundRect,0.062500X-0.375000X-0.062500X0.375000X-0.062500X0.375000X0.062500X-0.375000X0.062500X0*%
%ADD27RoundRect,0.062500X-0.062500X-0.375000X0.062500X-0.375000X0.062500X0.375000X-0.062500X0.375000X0*%
%ADD28R,1.400000X2.100000*%
%ADD29R,0.880000X2.810000*%
%ADD30R,0.300000X1.475000*%
%ADD31RoundRect,0.150000X0.150000X0.200000X-0.150000X0.200000X-0.150000X-0.200000X0.150000X-0.200000X0*%
%ADD32RoundRect,0.200000X0.200000X0.275000X-0.200000X0.275000X-0.200000X-0.275000X0.200000X-0.275000X0*%
G04 APERTURE END LIST*
D10*
%TO.C,L5*%
X160984000Y-57970000D03*
X159356000Y-57970000D03*
%TD*%
D11*
%TO.C,C51*%
X195950000Y-127540000D03*
X194050000Y-127540000D03*
%TD*%
D12*
%TO.C,C35*%
X126250000Y-103700000D03*
X128150000Y-103700000D03*
%TD*%
D13*
%TO.C,C7*%
X179640000Y-121320000D03*
X179640000Y-123220000D03*
%TD*%
D14*
%TO.C,U5*%
X139075000Y-141595000D03*
X139075000Y-140175000D03*
X138255000Y-141595000D03*
X138255000Y-140175000D03*
D15*
X140815000Y-142510000D03*
X140815000Y-141860000D03*
X140815000Y-141210000D03*
X140815000Y-140560000D03*
X140815000Y-139910000D03*
X140815000Y-139260000D03*
X136515000Y-139260000D03*
X136515000Y-139910000D03*
X136515000Y-140560000D03*
X136515000Y-141210000D03*
X136515000Y-141860000D03*
X136515000Y-142510000D03*
%TD*%
D16*
%TO.C,R10*%
X117787500Y-107900000D03*
X119612500Y-107900000D03*
%TD*%
D12*
%TO.C,C20*%
X162250000Y-66700000D03*
X164150000Y-66700000D03*
%TD*%
D16*
%TO.C,R4*%
X190587500Y-56800000D03*
X192412500Y-56800000D03*
%TD*%
D13*
%TO.C,C48*%
X151000000Y-43000000D03*
X151000000Y-44900000D03*
%TD*%
D17*
%TO.C,U9*%
X144915000Y-52865000D03*
X144915000Y-54285000D03*
X145735000Y-52865000D03*
X145735000Y-54285000D03*
D18*
X143175000Y-51950000D03*
X143175000Y-52600000D03*
X143175000Y-53250000D03*
X143175000Y-53900000D03*
X143175000Y-54550000D03*
X143175000Y-55200000D03*
X147475000Y-55200000D03*
X147475000Y-54550000D03*
X147475000Y-53900000D03*
X147475000Y-53250000D03*
X147475000Y-52600000D03*
X147475000Y-51950000D03*
%TD*%
D19*
%TO.C,C4*%
X170885000Y-116460000D03*
X169335000Y-116460000D03*
%TD*%
D20*
%TO.C,R17*%
X173472500Y-133470000D03*
X171647500Y-133470000D03*
%TD*%
D11*
%TO.C,C24*%
X133740000Y-141760000D03*
X131840000Y-141760000D03*
%TD*%
D21*
%TO.C,U12*%
X198799000Y-124520000D03*
X198799000Y-125020000D03*
X198799000Y-125520000D03*
X198799000Y-126020000D03*
X198799000Y-126520000D03*
X198799000Y-127020000D03*
X198799000Y-127520000D03*
X198799000Y-128020000D03*
X198799000Y-128520000D03*
X198799000Y-129020000D03*
X198799000Y-129520000D03*
X198799000Y-130020000D03*
X198799000Y-130520000D03*
X198799000Y-131020000D03*
X198799000Y-131520000D03*
X198799000Y-132020000D03*
X198799000Y-132520000D03*
X198799000Y-133020000D03*
X198799000Y-133520000D03*
X198799000Y-134020000D03*
X198799000Y-134520000D03*
X198799000Y-135020000D03*
X198799000Y-135520000D03*
X198799000Y-136020000D03*
X206375000Y-136020000D03*
X206375000Y-135520000D03*
X206375000Y-135020000D03*
X206375000Y-134520000D03*
X206375000Y-134020000D03*
X206375000Y-133520000D03*
X206375000Y-133020000D03*
X206375000Y-132520000D03*
X206375000Y-132020000D03*
X206375000Y-131520000D03*
X206375000Y-131020000D03*
X206375000Y-130520000D03*
X206375000Y-130020000D03*
X206375000Y-129520000D03*
X206375000Y-129020000D03*
X206375000Y-128520000D03*
X206375000Y-128020000D03*
X206375000Y-127520000D03*
X206375000Y-127020000D03*
X206375000Y-126520000D03*
X206375000Y-126020000D03*
X206375000Y-125520000D03*
X206375000Y-125020000D03*
X206375000Y-124520000D03*
%TD*%
D22*
%TO.C,C3*%
X173380000Y-118390000D03*
X173380000Y-119940000D03*
%TD*%
D11*
%TO.C,C53*%
X195680000Y-118110000D03*
X193780000Y-118110000D03*
%TD*%
D21*
%TO.C,U11*%
X198805000Y-109590000D03*
X198805000Y-110090000D03*
X198805000Y-110590000D03*
X198805000Y-111090000D03*
X198805000Y-111590000D03*
X198805000Y-112090000D03*
X198805000Y-112590000D03*
X198805000Y-113090000D03*
X198805000Y-113590000D03*
X198805000Y-114090000D03*
X198805000Y-114590000D03*
X198805000Y-115090000D03*
X198805000Y-115590000D03*
X198805000Y-116090000D03*
X198805000Y-116590000D03*
X198805000Y-117090000D03*
X198805000Y-117590000D03*
X198805000Y-118090000D03*
X198805000Y-118590000D03*
X198805000Y-119090000D03*
X198805000Y-119590000D03*
X198805000Y-120090000D03*
X198805000Y-120590000D03*
X198805000Y-121090000D03*
X206381000Y-121090000D03*
X206381000Y-120590000D03*
X206381000Y-120090000D03*
X206381000Y-119590000D03*
X206381000Y-119090000D03*
X206381000Y-118590000D03*
X206381000Y-118090000D03*
X206381000Y-117590000D03*
X206381000Y-117090000D03*
X206381000Y-116590000D03*
X206381000Y-116090000D03*
X206381000Y-115590000D03*
X206381000Y-115090000D03*
X206381000Y-114590000D03*
X206381000Y-114090000D03*
X206381000Y-113590000D03*
X206381000Y-113090000D03*
X206381000Y-112590000D03*
X206381000Y-112090000D03*
X206381000Y-111590000D03*
X206381000Y-111090000D03*
X206381000Y-110590000D03*
X206381000Y-110090000D03*
X206381000Y-109590000D03*
%TD*%
D12*
%TO.C,C21*%
X143540000Y-142360000D03*
X145440000Y-142360000D03*
%TD*%
D10*
%TO.C,L4*%
X124984000Y-95970000D03*
X123356000Y-95970000D03*
%TD*%
D11*
%TO.C,C29*%
X116450000Y-103100000D03*
X114550000Y-103100000D03*
%TD*%
D23*
%TO.C,C45*%
X148500000Y-39000000D03*
X148500000Y-37100000D03*
%TD*%
D13*
%TO.C,C42*%
X143500000Y-43000000D03*
X143500000Y-44900000D03*
%TD*%
D11*
%TO.C,C30*%
X104450000Y-90100000D03*
X102550000Y-90100000D03*
%TD*%
D24*
%TO.C,D1*%
X200900000Y-70900000D03*
X199500000Y-70900000D03*
%TD*%
D11*
%TO.C,C25*%
X111450000Y-66100000D03*
X109550000Y-66100000D03*
%TD*%
%TO.C,C13*%
X181650000Y-52240000D03*
X179750000Y-52240000D03*
%TD*%
D17*
%TO.C,U3*%
X186110000Y-52865000D03*
X186110000Y-54285000D03*
X186930000Y-52865000D03*
X186930000Y-54285000D03*
D18*
X184370000Y-51950000D03*
X184370000Y-52600000D03*
X184370000Y-53250000D03*
X184370000Y-53900000D03*
X184370000Y-54550000D03*
X184370000Y-55200000D03*
X188670000Y-55200000D03*
X188670000Y-54550000D03*
X188670000Y-53900000D03*
X188670000Y-53250000D03*
X188670000Y-52600000D03*
X188670000Y-51950000D03*
%TD*%
D12*
%TO.C,C8*%
X186520000Y-111340000D03*
X188420000Y-111340000D03*
%TD*%
D16*
%TO.C,R5*%
X153787500Y-70900000D03*
X155612500Y-70900000D03*
%TD*%
D25*
%TO.C,U1*%
X177900000Y-112840000D03*
X177900000Y-114320000D03*
X177900000Y-115800000D03*
X177900000Y-117280000D03*
X179380000Y-112840000D03*
X179380000Y-114320000D03*
X179380000Y-115800000D03*
X179380000Y-117280000D03*
X180860000Y-112840000D03*
X180860000Y-114320000D03*
X180860000Y-115800000D03*
X180860000Y-117280000D03*
X182340000Y-112840000D03*
X182340000Y-114320000D03*
X182340000Y-115800000D03*
X182340000Y-117280000D03*
D26*
X176182500Y-111810000D03*
X176182500Y-112310000D03*
X176182500Y-112810000D03*
X176182500Y-113310000D03*
X176182500Y-113810000D03*
X176182500Y-114310000D03*
X176182500Y-114810000D03*
X176182500Y-115310000D03*
X176182500Y-115810000D03*
X176182500Y-116310000D03*
X176182500Y-116810000D03*
X176182500Y-117310000D03*
X176182500Y-117810000D03*
X176182500Y-118310000D03*
D27*
X176870000Y-118997500D03*
X177370000Y-118997500D03*
X177870000Y-118997500D03*
X178370000Y-118997500D03*
X178870000Y-118997500D03*
X179370000Y-118997500D03*
X179870000Y-118997500D03*
X180370000Y-118997500D03*
X180870000Y-118997500D03*
X181370000Y-118997500D03*
X181870000Y-118997500D03*
X182370000Y-118997500D03*
X182870000Y-118997500D03*
X183370000Y-118997500D03*
D26*
X184057500Y-118310000D03*
X184057500Y-117810000D03*
X184057500Y-117310000D03*
X184057500Y-116810000D03*
X184057500Y-116310000D03*
X184057500Y-115810000D03*
X184057500Y-115310000D03*
X184057500Y-114810000D03*
X184057500Y-114310000D03*
X184057500Y-113810000D03*
X184057500Y-113310000D03*
X184057500Y-112810000D03*
X184057500Y-112310000D03*
X184057500Y-111810000D03*
D27*
X183370000Y-111122500D03*
X182870000Y-111122500D03*
X182370000Y-111122500D03*
X181870000Y-111122500D03*
X181370000Y-111122500D03*
X180870000Y-111122500D03*
X180370000Y-111122500D03*
X179870000Y-111122500D03*
X179370000Y-111122500D03*
X178870000Y-111122500D03*
X178370000Y-111122500D03*
X177870000Y-111122500D03*
X177370000Y-111122500D03*
X176870000Y-111122500D03*
%TD*%
D24*
%TO.C,D3*%
X159900000Y-70900000D03*
X158500000Y-70900000D03*
%TD*%
D19*
%TO.C,C1*%
X173620000Y-111850000D03*
X172070000Y-111850000D03*
%TD*%
D17*
%TO.C,U8*%
X108915000Y-90865000D03*
X108915000Y-92285000D03*
X109735000Y-90865000D03*
X109735000Y-92285000D03*
D18*
X107175000Y-89950000D03*
X107175000Y-90600000D03*
X107175000Y-91250000D03*
X107175000Y-91900000D03*
X107175000Y-92550000D03*
X107175000Y-93200000D03*
X111475000Y-93200000D03*
X111475000Y-92550000D03*
X111475000Y-91900000D03*
X111475000Y-91250000D03*
X111475000Y-90600000D03*
X111475000Y-89950000D03*
%TD*%
D12*
%TO.C,C27*%
X120350000Y-68800000D03*
X122250000Y-68800000D03*
%TD*%
D16*
%TO.C,R18*%
X179747500Y-133470000D03*
X181572500Y-133470000D03*
%TD*%
D20*
%TO.C,R7*%
X142202500Y-137560000D03*
X140377500Y-137560000D03*
%TD*%
D16*
%TO.C,R15*%
X175460000Y-102375000D03*
X177285000Y-102375000D03*
%TD*%
D13*
%TO.C,C52*%
X186960000Y-102840000D03*
X186960000Y-104740000D03*
%TD*%
D28*
%TO.C,S2*%
X183060000Y-136670000D03*
X183060000Y-145770000D03*
X178260000Y-136670000D03*
X178260000Y-145770000D03*
%TD*%
D13*
%TO.C,C41*%
X146000000Y-43000000D03*
X146000000Y-44900000D03*
%TD*%
D16*
%TO.C,R12*%
X141787500Y-56900000D03*
X143612500Y-56900000D03*
%TD*%
D17*
%TO.C,U4*%
X156915000Y-66865000D03*
X156915000Y-68285000D03*
X157735000Y-66865000D03*
X157735000Y-68285000D03*
D18*
X155175000Y-65950000D03*
X155175000Y-66600000D03*
X155175000Y-67250000D03*
X155175000Y-67900000D03*
X155175000Y-68550000D03*
X155175000Y-69200000D03*
X159475000Y-69200000D03*
X159475000Y-68550000D03*
X159475000Y-67900000D03*
X159475000Y-67250000D03*
X159475000Y-66600000D03*
X159475000Y-65950000D03*
%TD*%
D11*
%TO.C,C31*%
X116450000Y-105500000D03*
X114550000Y-105500000D03*
%TD*%
%TO.C,C38*%
X140450000Y-52100000D03*
X138550000Y-52100000D03*
%TD*%
D29*
%TO.C,F1*%
X137945000Y-41140000D03*
X141215000Y-41140000D03*
%TD*%
D10*
%TO.C,L2*%
X131984000Y-71970000D03*
X130356000Y-71970000D03*
%TD*%
D12*
%TO.C,C59*%
X209500000Y-118110000D03*
X211400000Y-118110000D03*
%TD*%
D11*
%TO.C,C26*%
X111450000Y-68500000D03*
X109550000Y-68500000D03*
%TD*%
D23*
%TO.C,C58*%
X186960000Y-89570000D03*
X186960000Y-87670000D03*
%TD*%
D17*
%TO.C,U6*%
X115915000Y-66865000D03*
X115915000Y-68285000D03*
X116735000Y-66865000D03*
X116735000Y-68285000D03*
D18*
X114175000Y-65950000D03*
X114175000Y-66600000D03*
X114175000Y-67250000D03*
X114175000Y-67900000D03*
X114175000Y-68550000D03*
X114175000Y-69200000D03*
X118475000Y-69200000D03*
X118475000Y-68550000D03*
X118475000Y-67900000D03*
X118475000Y-67250000D03*
X118475000Y-66600000D03*
X118475000Y-65950000D03*
%TD*%
D24*
%TO.C,D2*%
X189100000Y-56800000D03*
X187700000Y-56800000D03*
%TD*%
D17*
%TO.C,U7*%
X120915000Y-103865000D03*
X120915000Y-105285000D03*
X121735000Y-103865000D03*
X121735000Y-105285000D03*
D18*
X119175000Y-102950000D03*
X119175000Y-103600000D03*
X119175000Y-104250000D03*
X119175000Y-104900000D03*
X119175000Y-105550000D03*
X119175000Y-106200000D03*
X123475000Y-106200000D03*
X123475000Y-105550000D03*
X123475000Y-104900000D03*
X123475000Y-104250000D03*
X123475000Y-103600000D03*
X123475000Y-102950000D03*
%TD*%
D16*
%TO.C,R9*%
X112787500Y-70900000D03*
X114612500Y-70900000D03*
%TD*%
D22*
%TO.C,C5*%
X171870000Y-118390000D03*
X171870000Y-119940000D03*
%TD*%
D12*
%TO.C,C39*%
X149350000Y-54800000D03*
X151250000Y-54800000D03*
%TD*%
D17*
%TO.C,U2*%
X197915000Y-66865000D03*
X197915000Y-68285000D03*
X198735000Y-66865000D03*
X198735000Y-68285000D03*
D18*
X196175000Y-65950000D03*
X196175000Y-66600000D03*
X196175000Y-67250000D03*
X196175000Y-67900000D03*
X196175000Y-68550000D03*
X196175000Y-69200000D03*
X200475000Y-69200000D03*
X200475000Y-68550000D03*
X200475000Y-67900000D03*
X200475000Y-67250000D03*
X200475000Y-66600000D03*
X200475000Y-65950000D03*
%TD*%
D13*
%TO.C,C49*%
X148100000Y-99550000D03*
X148100000Y-101450000D03*
%TD*%
D11*
%TO.C,C10*%
X193450000Y-68500000D03*
X191550000Y-68500000D03*
%TD*%
D30*
%TO.C,U10*%
X183940000Y-99985000D03*
X184440000Y-99985000D03*
X184940000Y-99985000D03*
X185440000Y-99985000D03*
X185940000Y-99985000D03*
X186440000Y-99985000D03*
X186940000Y-99985000D03*
X187440000Y-99985000D03*
X187940000Y-99985000D03*
X188440000Y-99985000D03*
X188940000Y-99985000D03*
X189440000Y-99985000D03*
X189940000Y-99985000D03*
X190440000Y-99985000D03*
X190940000Y-99985000D03*
X191440000Y-99985000D03*
X191940000Y-99985000D03*
X192440000Y-99985000D03*
X192940000Y-99985000D03*
X193440000Y-99985000D03*
X193940000Y-99985000D03*
X194440000Y-99985000D03*
X194940000Y-99985000D03*
X195440000Y-99985000D03*
X195440000Y-92409000D03*
X194940000Y-92409000D03*
X194440000Y-92409000D03*
X193940000Y-92409000D03*
X193440000Y-92409000D03*
X192940000Y-92409000D03*
X192440000Y-92409000D03*
X191940000Y-92409000D03*
X191440000Y-92409000D03*
X190940000Y-92409000D03*
X190440000Y-92409000D03*
X189940000Y-92409000D03*
X189440000Y-92409000D03*
X188940000Y-92409000D03*
X188440000Y-92409000D03*
X187940000Y-92409000D03*
X187440000Y-92409000D03*
X186940000Y-92409000D03*
X186440000Y-92409000D03*
X185940000Y-92409000D03*
X185440000Y-92409000D03*
X184940000Y-92409000D03*
X184440000Y-92409000D03*
X183940000Y-92409000D03*
%TD*%
D10*
%TO.C,L3*%
X136984000Y-108970000D03*
X135356000Y-108970000D03*
%TD*%
D12*
%TO.C,C12*%
X203250000Y-66500000D03*
X205150000Y-66500000D03*
%TD*%
D23*
%TO.C,C43*%
X143500000Y-39000000D03*
X143500000Y-37100000D03*
%TD*%
D12*
%TO.C,C28*%
X121250000Y-66700000D03*
X123150000Y-66700000D03*
%TD*%
D16*
%TO.C,R3*%
X182987500Y-56900000D03*
X184812500Y-56900000D03*
%TD*%
%TO.C,R2*%
X202387500Y-71000000D03*
X204212500Y-71000000D03*
%TD*%
D12*
%TO.C,C56*%
X209220000Y-112610000D03*
X211120000Y-112610000D03*
%TD*%
D11*
%TO.C,C54*%
X195680000Y-133040000D03*
X193780000Y-133040000D03*
%TD*%
D24*
%TO.C,D5*%
X118900000Y-70900000D03*
X117500000Y-70900000D03*
%TD*%
D16*
%TO.C,R6*%
X161387500Y-70800000D03*
X163212500Y-70800000D03*
%TD*%
D11*
%TO.C,C14*%
X181650000Y-54410000D03*
X179750000Y-54410000D03*
%TD*%
D10*
%TO.C,L1*%
X123006000Y-136490000D03*
X124634000Y-136490000D03*
%TD*%
D20*
%TO.C,R8*%
X134602500Y-137660000D03*
X132777500Y-137660000D03*
%TD*%
D16*
%TO.C,R1*%
X194787500Y-70900000D03*
X196612500Y-70900000D03*
%TD*%
D11*
%TO.C,C32*%
X104450000Y-92500000D03*
X102550000Y-92500000D03*
%TD*%
%TO.C,C50*%
X195950000Y-112610000D03*
X194050000Y-112610000D03*
%TD*%
%TO.C,C18*%
X152450000Y-68500000D03*
X150550000Y-68500000D03*
%TD*%
D12*
%TO.C,C60*%
X209490000Y-133040000D03*
X211390000Y-133040000D03*
%TD*%
D20*
%TO.C,R13*%
X155225000Y-106500000D03*
X153400000Y-106500000D03*
%TD*%
D22*
%TO.C,C2*%
X170370000Y-118385000D03*
X170370000Y-119935000D03*
%TD*%
D12*
%TO.C,C33*%
X125350000Y-105800000D03*
X127250000Y-105800000D03*
%TD*%
D16*
%TO.C,R11*%
X105787500Y-94900000D03*
X107612500Y-94900000D03*
%TD*%
D23*
%TO.C,C6*%
X176810000Y-109530000D03*
X176810000Y-107630000D03*
%TD*%
D16*
%TO.C,R14*%
X175457500Y-100435000D03*
X177282500Y-100435000D03*
%TD*%
D12*
%TO.C,C22*%
X143540000Y-139960000D03*
X145440000Y-139960000D03*
%TD*%
%TO.C,C15*%
X190550000Y-54800000D03*
X192450000Y-54800000D03*
%TD*%
%TO.C,C36*%
X114250000Y-90700000D03*
X116150000Y-90700000D03*
%TD*%
D11*
%TO.C,C23*%
X134640000Y-139660000D03*
X132740000Y-139660000D03*
%TD*%
D12*
%TO.C,C11*%
X202350000Y-68800000D03*
X204250000Y-68800000D03*
%TD*%
D31*
%TO.C,D4*%
X136090000Y-137560000D03*
X137490000Y-137560000D03*
%TD*%
D12*
%TO.C,C34*%
X113350000Y-92800000D03*
X115250000Y-92800000D03*
%TD*%
D11*
%TO.C,C17*%
X152450000Y-66100000D03*
X150550000Y-66100000D03*
%TD*%
D13*
%TO.C,C55*%
X192460000Y-103110000D03*
X192460000Y-105010000D03*
%TD*%
D23*
%TO.C,C46*%
X151000000Y-39000000D03*
X151000000Y-37100000D03*
%TD*%
D11*
%TO.C,C37*%
X140450000Y-54500000D03*
X138550000Y-54500000D03*
%TD*%
D23*
%TO.C,C44*%
X146000000Y-39000000D03*
X146000000Y-37100000D03*
%TD*%
D13*
%TO.C,C47*%
X148500000Y-43000000D03*
X148500000Y-44900000D03*
%TD*%
D12*
%TO.C,C40*%
X150250000Y-52700000D03*
X152150000Y-52700000D03*
%TD*%
D24*
%TO.C,D8*%
X147900000Y-56900000D03*
X146500000Y-56900000D03*
%TD*%
D12*
%TO.C,C57*%
X209220000Y-127540000D03*
X211120000Y-127540000D03*
%TD*%
D32*
%TO.C,R16*%
X173795000Y-114960000D03*
X172145000Y-114960000D03*
%TD*%
D12*
%TO.C,C19*%
X161350000Y-68800000D03*
X163250000Y-68800000D03*
%TD*%
D28*
%TO.C,S1*%
X170260000Y-145770000D03*
X170260000Y-136670000D03*
X175060000Y-145770000D03*
X175060000Y-136670000D03*
%TD*%
D12*
%TO.C,C16*%
X191450000Y-52700000D03*
X193350000Y-52700000D03*
%TD*%
D24*
%TO.C,D6*%
X123900000Y-107900000D03*
X122500000Y-107900000D03*
%TD*%
%TO.C,D7*%
X111900000Y-94900000D03*
X110500000Y-94900000D03*
%TD*%
D11*
%TO.C,C9*%
X193450000Y-66100000D03*
X191550000Y-66100000D03*
%TD*%
D23*
%TO.C,C61*%
X192460000Y-89295000D03*
X192460000Y-87395000D03*
%TD*%
M02*
