%TF.GenerationSoftware,KiCad,Pcbnew,7.0.1-0*%
%TF.CreationDate,2023-04-17T18:56:11+01:00*%
%TF.ProjectId,cyborg65r2_pcb,6379626f-7267-4363-9572-325f7063622e,rev?*%
%TF.SameCoordinates,Original*%
%TF.FileFunction,Soldermask,Bot*%
%TF.FilePolarity,Negative*%
%FSLAX46Y46*%
G04 Gerber Fmt 4.6, Leading zero omitted, Abs format (unit mm)*
G04 Created by KiCad (PCBNEW 7.0.1-0) date 2023-04-17 18:56:11*
%MOMM*%
%LPD*%
G01*
G04 APERTURE LIST*
%ADD10R,1.785000X1.785000*%
%ADD11C,2.400000*%
%ADD12C,1.240000*%
%ADD13R,1.700000X1.700000*%
%ADD14O,1.700000X1.700000*%
%ADD15C,3.200000*%
%ADD16C,2.250000*%
G04 APERTURE END LIST*
D10*
%TO.C,J19*%
X130700000Y-58800000D03*
D11*
X128160000Y-61340000D03*
X133240000Y-61340000D03*
X133240000Y-56260000D03*
X128160000Y-56260000D03*
%TD*%
D10*
%TO.C,J26*%
X123700000Y-82800000D03*
D11*
X121160000Y-85340000D03*
X126240000Y-85340000D03*
X126240000Y-80260000D03*
X121160000Y-80260000D03*
%TD*%
%TO.C,J42*%
X186480000Y-123680000D03*
%TD*%
%TO.C,J9*%
X171400000Y-75100000D03*
%TD*%
%TO.C,J21*%
X135400000Y-112100000D03*
%TD*%
D12*
%TO.C,VR2*%
X119370000Y-111700000D03*
X121910000Y-111700000D03*
X124450000Y-111700000D03*
%TD*%
D13*
%TO.C,J38*%
X150625000Y-96500000D03*
D14*
X148085000Y-96500000D03*
X145545000Y-96500000D03*
%TD*%
D13*
%TO.C,J41*%
X180460000Y-102245000D03*
D14*
X180460000Y-99705000D03*
X180460000Y-97165000D03*
%TD*%
D15*
%TO.C,H1*%
X104000000Y-37000000D03*
%TD*%
D11*
%TO.C,J1*%
X212400000Y-75100000D03*
%TD*%
%TO.C,J29*%
X159400000Y-61100000D03*
%TD*%
D13*
%TO.C,J36*%
X156575000Y-96500000D03*
D14*
X159115000Y-96500000D03*
X161655000Y-96500000D03*
%TD*%
D16*
%TO.C,J47*%
X149360000Y-113060000D03*
X151900000Y-115600000D03*
X151900000Y-110520000D03*
X146820000Y-110520000D03*
X146820000Y-115600000D03*
%TD*%
D10*
%TO.C,J15*%
X124290000Y-149660000D03*
D11*
X126830000Y-147120000D03*
X121750000Y-147120000D03*
X121750000Y-152200000D03*
X126830000Y-152200000D03*
%TD*%
%TO.C,J17*%
X130400000Y-75100000D03*
%TD*%
%TO.C,J2*%
X206100000Y-75100000D03*
%TD*%
%TO.C,J23*%
X123400000Y-99100000D03*
%TD*%
%TO.C,J18*%
X124090000Y-75100000D03*
%TD*%
D13*
%TO.C,J20*%
X132930000Y-69000000D03*
D14*
X130390000Y-69000000D03*
X127850000Y-69000000D03*
%TD*%
D11*
%TO.C,J13*%
X124590000Y-133360000D03*
%TD*%
D10*
%TO.C,J37*%
X153520000Y-88770000D03*
D11*
X150980000Y-91310000D03*
X156060000Y-91310000D03*
X156060000Y-86230000D03*
X150980000Y-86230000D03*
%TD*%
D13*
%TO.C,J48*%
X174070000Y-128670000D03*
D14*
X176610000Y-128670000D03*
X179150000Y-128670000D03*
%TD*%
D11*
%TO.C,J14*%
X130900000Y-133360000D03*
%TD*%
%TO.C,J24*%
X117080000Y-99100000D03*
%TD*%
D15*
%TO.C,H2*%
X225000000Y-37000000D03*
%TD*%
D10*
%TO.C,J11*%
X171700000Y-58800000D03*
D11*
X169160000Y-61340000D03*
X174240000Y-61340000D03*
X174240000Y-56260000D03*
X169160000Y-56260000D03*
%TD*%
D13*
%TO.C,J16*%
X122060000Y-139460000D03*
D14*
X124600000Y-139460000D03*
X127140000Y-139460000D03*
%TD*%
D16*
%TO.C,J40*%
X162320000Y-139572102D03*
X165912102Y-139572102D03*
X162320000Y-135980000D03*
X158727898Y-139572102D03*
X162320000Y-143164204D03*
%TD*%
D13*
%TO.C,J27*%
X137930000Y-106000000D03*
D14*
X135390000Y-106000000D03*
X132850000Y-106000000D03*
%TD*%
D11*
%TO.C,J43*%
X190630000Y-123690000D03*
%TD*%
D10*
%TO.C,J7*%
X200900000Y-44800000D03*
D11*
X198360000Y-47340000D03*
X203440000Y-47340000D03*
X203440000Y-42260000D03*
X198360000Y-42260000D03*
%TD*%
D12*
%TO.C,VR1*%
X114370000Y-74700000D03*
X116910000Y-74700000D03*
X119450000Y-74700000D03*
%TD*%
D11*
%TO.C,J34*%
X140500000Y-34500000D03*
%TD*%
D13*
%TO.C,J4*%
X214940000Y-69000000D03*
D14*
X212400000Y-69000000D03*
X209860000Y-69000000D03*
%TD*%
D11*
%TO.C,J5*%
X200610000Y-61100000D03*
%TD*%
%TO.C,J44*%
X186490000Y-129330000D03*
%TD*%
D13*
%TO.C,J28*%
X125930000Y-93000000D03*
D14*
X123390000Y-93000000D03*
X120850000Y-93000000D03*
%TD*%
D13*
%TO.C,J8*%
X203140000Y-55000000D03*
D14*
X200600000Y-55000000D03*
X198060000Y-55000000D03*
%TD*%
D11*
%TO.C,J6*%
X194300000Y-61100000D03*
%TD*%
D12*
%TO.C,VR4*%
X143370000Y-60700000D03*
X145910000Y-60700000D03*
X148450000Y-60700000D03*
%TD*%
D13*
%TO.C,J46*%
X224370000Y-63670000D03*
D14*
X226910000Y-63670000D03*
X224370000Y-66210000D03*
X226910000Y-66210000D03*
X224370000Y-68750000D03*
X226910000Y-68750000D03*
X224370000Y-71290000D03*
X226910000Y-71290000D03*
X224370000Y-73830000D03*
X226910000Y-73830000D03*
X224370000Y-76370000D03*
X226910000Y-76370000D03*
X224370000Y-78910000D03*
X226910000Y-78910000D03*
X224370000Y-81450000D03*
X226910000Y-81450000D03*
X224370000Y-83990000D03*
X226910000Y-83990000D03*
X224370000Y-86530000D03*
X226910000Y-86530000D03*
X224370000Y-89070000D03*
X226910000Y-89070000D03*
X224370000Y-91610000D03*
X226910000Y-91610000D03*
X224370000Y-94150000D03*
X226910000Y-94150000D03*
X224370000Y-96690000D03*
X226910000Y-96690000D03*
X224370000Y-99230000D03*
X226910000Y-99230000D03*
X224370000Y-101770000D03*
X226910000Y-101770000D03*
X224370000Y-104310000D03*
X226910000Y-104310000D03*
X224370000Y-106850000D03*
X226910000Y-106850000D03*
X224370000Y-109390000D03*
X226910000Y-109390000D03*
X224370000Y-111930000D03*
X226910000Y-111930000D03*
X224370000Y-114470000D03*
X226910000Y-114470000D03*
X224370000Y-117010000D03*
X226910000Y-117010000D03*
X224370000Y-119550000D03*
X226910000Y-119550000D03*
X224370000Y-122090000D03*
X226910000Y-122090000D03*
X224370000Y-124630000D03*
X226910000Y-124630000D03*
X224370000Y-127170000D03*
X226910000Y-127170000D03*
X224370000Y-129710000D03*
X226910000Y-129710000D03*
X224370000Y-132250000D03*
X226910000Y-132250000D03*
X224370000Y-134790000D03*
X226910000Y-134790000D03*
X224370000Y-137330000D03*
X226910000Y-137330000D03*
X224370000Y-139870000D03*
X226910000Y-139870000D03*
X224370000Y-142410000D03*
X226910000Y-142410000D03*
X224370000Y-144950000D03*
X226910000Y-144950000D03*
X224370000Y-147490000D03*
X226910000Y-147490000D03*
%TD*%
D11*
%TO.C,J35*%
X140500000Y-47500000D03*
%TD*%
%TO.C,J22*%
X129080000Y-112100000D03*
%TD*%
D10*
%TO.C,J3*%
X212700000Y-58800000D03*
D11*
X210160000Y-61340000D03*
X215240000Y-61340000D03*
X215240000Y-56260000D03*
X210160000Y-56260000D03*
%TD*%
D16*
%TO.C,J39*%
X155612102Y-132872102D03*
X159204204Y-132872102D03*
X155612102Y-129280000D03*
X152020000Y-132872102D03*
X155612102Y-136464204D03*
%TD*%
D10*
%TO.C,J25*%
X135700000Y-95800000D03*
D11*
X133160000Y-98340000D03*
X138240000Y-98340000D03*
X138240000Y-93260000D03*
X133160000Y-93260000D03*
%TD*%
%TO.C,J10*%
X165100000Y-75100000D03*
%TD*%
D15*
%TO.C,H3*%
X104000000Y-150000000D03*
%TD*%
D12*
%TO.C,VR3*%
X107370000Y-98700000D03*
X109910000Y-98700000D03*
X112450000Y-98700000D03*
%TD*%
D13*
%TO.C,J12*%
X173935000Y-69000000D03*
D14*
X171395000Y-69000000D03*
X168855000Y-69000000D03*
%TD*%
D10*
%TO.C,J31*%
X159700000Y-44800000D03*
D11*
X157160000Y-47340000D03*
X162240000Y-47340000D03*
X162240000Y-42260000D03*
X157160000Y-42260000D03*
%TD*%
D15*
%TO.C,H4*%
X215000000Y-151000000D03*
%TD*%
D12*
%TO.C,VR5*%
X155560000Y-102500000D03*
X158100000Y-102500000D03*
X160640000Y-102500000D03*
%TD*%
D10*
%TO.C,J33*%
X131820000Y-41250000D03*
D11*
X134360000Y-43790000D03*
X134360000Y-38710000D03*
X129280000Y-38710000D03*
X129280000Y-43790000D03*
%TD*%
D13*
%TO.C,J32*%
X161930000Y-55000000D03*
D14*
X159390000Y-55000000D03*
X156850000Y-55000000D03*
%TD*%
D11*
%TO.C,J30*%
X153080000Y-61100000D03*
%TD*%
%TO.C,J45*%
X190630000Y-129330000D03*
%TD*%
M02*
