%TF.GenerationSoftware,KiCad,Pcbnew,7.0.1-0*%
%TF.CreationDate,2023-04-17T18:48:32+01:00*%
%TF.ProjectId,cyborg65r2_thermo_pcb,6379626f-7267-4363-9572-325f74686572,rev?*%
%TF.SameCoordinates,Original*%
%TF.FileFunction,Soldermask,Bot*%
%TF.FilePolarity,Negative*%
%FSLAX46Y46*%
G04 Gerber Fmt 4.6, Leading zero omitted, Abs format (unit mm)*
G04 Created by KiCad (PCBNEW 7.0.1-0) date 2023-04-17 18:48:32*
%MOMM*%
%LPD*%
G01*
G04 APERTURE LIST*
G04 Aperture macros list*
%AMRoundRect*
0 Rectangle with rounded corners*
0 $1 Rounding radius*
0 $2 $3 $4 $5 $6 $7 $8 $9 X,Y pos of 4 corners*
0 Add a 4 corners polygon primitive as box body*
4,1,4,$2,$3,$4,$5,$6,$7,$8,$9,$2,$3,0*
0 Add four circle primitives for the rounded corners*
1,1,$1+$1,$2,$3*
1,1,$1+$1,$4,$5*
1,1,$1+$1,$6,$7*
1,1,$1+$1,$8,$9*
0 Add four rect primitives between the rounded corners*
20,1,$1+$1,$2,$3,$4,$5,0*
20,1,$1+$1,$4,$5,$6,$7,0*
20,1,$1+$1,$6,$7,$8,$9,0*
20,1,$1+$1,$8,$9,$2,$3,0*%
G04 Aperture macros list end*
%ADD10R,1.785000X1.785000*%
%ADD11C,2.400000*%
%ADD12C,1.240000*%
%ADD13R,1.700000X1.700000*%
%ADD14O,1.700000X1.700000*%
%ADD15C,3.200000*%
%ADD16C,2.250000*%
%ADD17RoundRect,0.250000X-0.475000X0.250000X-0.475000X-0.250000X0.475000X-0.250000X0.475000X0.250000X0*%
%ADD18RoundRect,0.225000X0.225000X0.250000X-0.225000X0.250000X-0.225000X-0.250000X0.225000X-0.250000X0*%
%ADD19RoundRect,0.225000X-0.250000X0.225000X-0.250000X-0.225000X0.250000X-0.225000X0.250000X0.225000X0*%
%ADD20RoundRect,0.250000X-0.250000X-0.475000X0.250000X-0.475000X0.250000X0.475000X-0.250000X0.475000X0*%
%ADD21RoundRect,0.250000X0.475000X-0.250000X0.475000X0.250000X-0.475000X0.250000X-0.475000X-0.250000X0*%
G04 APERTURE END LIST*
D10*
%TO.C,J19*%
X145395000Y-79750000D03*
D11*
X142855000Y-82290000D03*
X147935000Y-82290000D03*
X147935000Y-77210000D03*
X142855000Y-77210000D03*
%TD*%
%TO.C,J26*%
X129405000Y-153695000D03*
X134485000Y-153695000D03*
X134485000Y-158775000D03*
X129405000Y-158775000D03*
D10*
X131945000Y-156235000D03*
%TD*%
D11*
%TO.C,J9*%
X232435000Y-67340000D03*
%TD*%
%TO.C,J21*%
X132015000Y-124290000D03*
%TD*%
D12*
%TO.C,VR2*%
X121065000Y-123890000D03*
X118525000Y-123890000D03*
X115985000Y-123890000D03*
%TD*%
D13*
%TO.C,J38*%
X161785000Y-65820000D03*
D14*
X159245000Y-65820000D03*
X156705000Y-65820000D03*
%TD*%
D13*
%TO.C,J41*%
X287790000Y-121526199D03*
D14*
X287790000Y-118986199D03*
X287790000Y-116446199D03*
%TD*%
D15*
%TO.C,H1*%
X113400000Y-49225000D03*
%TD*%
D11*
%TO.C,J1*%
X313740000Y-90050000D03*
%TD*%
%TO.C,J29*%
X202675000Y-69485000D03*
%TD*%
D13*
%TO.C,J36*%
X167735000Y-65820000D03*
D14*
X170275000Y-65820000D03*
X172815000Y-65820000D03*
%TD*%
D16*
%TO.C,J47*%
X125275000Y-145280000D03*
X125275000Y-140200000D03*
X130355000Y-140200000D03*
X130355000Y-145280000D03*
X127815000Y-142740000D03*
%TD*%
D11*
%TO.C,J15*%
X124645000Y-179100000D03*
X129725000Y-179100000D03*
X129725000Y-184180000D03*
X124645000Y-184180000D03*
D10*
X127185000Y-181640000D03*
%TD*%
D11*
%TO.C,J17*%
X145095000Y-96050000D03*
%TD*%
%TO.C,J2*%
X307440000Y-90050000D03*
%TD*%
%TO.C,J23*%
X131645000Y-172535000D03*
%TD*%
%TO.C,J18*%
X138785000Y-96050000D03*
%TD*%
D13*
%TO.C,J20*%
X147625000Y-89950000D03*
D14*
X145085000Y-89950000D03*
X142545000Y-89950000D03*
%TD*%
D11*
%TO.C,J13*%
X126885000Y-197940000D03*
%TD*%
D10*
%TO.C,J37*%
X164680000Y-58090000D03*
D11*
X162140000Y-60630000D03*
X167220000Y-60630000D03*
X167220000Y-55550000D03*
X162140000Y-55550000D03*
%TD*%
D14*
%TO.C,J48*%
X175110000Y-208665000D03*
X172570000Y-208665000D03*
D13*
X170030000Y-208665000D03*
%TD*%
D11*
%TO.C,J14*%
X120575000Y-197940000D03*
%TD*%
%TO.C,J24*%
X125325000Y-172535000D03*
%TD*%
D15*
%TO.C,H2*%
X324400000Y-49225000D03*
%TD*%
D10*
%TO.C,J11*%
X232735000Y-51040000D03*
D11*
X230195000Y-53580000D03*
X235275000Y-53580000D03*
X235275000Y-48500000D03*
X230195000Y-48500000D03*
%TD*%
D14*
%TO.C,J16*%
X124335000Y-191840000D03*
X126875000Y-191840000D03*
D13*
X129415000Y-191840000D03*
%TD*%
D16*
%TO.C,J40*%
X155847887Y-204839136D03*
X152255785Y-201247034D03*
X155847887Y-197654932D03*
X159439989Y-201247034D03*
X155847887Y-201247034D03*
%TD*%
D14*
%TO.C,J27*%
X129465000Y-118190000D03*
X132005000Y-118190000D03*
D13*
X134545000Y-118190000D03*
%TD*%
D10*
%TO.C,J7*%
X274935000Y-65665000D03*
D11*
X272395000Y-68205000D03*
X277475000Y-68205000D03*
X277475000Y-63125000D03*
X272395000Y-63125000D03*
%TD*%
D12*
%TO.C,VR1*%
X129065000Y-95650000D03*
X131605000Y-95650000D03*
X134145000Y-95650000D03*
%TD*%
D11*
%TO.C,J34*%
X136305000Y-51265000D03*
%TD*%
D13*
%TO.C,J4*%
X316280000Y-83950000D03*
D14*
X313740000Y-83950000D03*
X311200000Y-83950000D03*
%TD*%
D11*
%TO.C,J5*%
X274645000Y-81965000D03*
%TD*%
D14*
%TO.C,J28*%
X129095000Y-166435000D03*
X131635000Y-166435000D03*
D13*
X134175000Y-166435000D03*
%TD*%
%TO.C,J8*%
X277175000Y-75865000D03*
D14*
X274635000Y-75865000D03*
X272095000Y-75865000D03*
%TD*%
D11*
%TO.C,J6*%
X268335000Y-81965000D03*
%TD*%
D12*
%TO.C,VR4*%
X191725000Y-69085000D03*
X189185000Y-69085000D03*
X186645000Y-69085000D03*
%TD*%
D14*
%TO.C,J46*%
X331200000Y-190625000D03*
X328660000Y-190625000D03*
X331200000Y-188085000D03*
X328660000Y-188085000D03*
X331200000Y-185545000D03*
X328660000Y-185545000D03*
X331200000Y-183005000D03*
X328660000Y-183005000D03*
X331200000Y-180465000D03*
X328660000Y-180465000D03*
X331200000Y-177925000D03*
X328660000Y-177925000D03*
X331200000Y-175385000D03*
X328660000Y-175385000D03*
X331200000Y-172845000D03*
X328660000Y-172845000D03*
X331200000Y-170305000D03*
X328660000Y-170305000D03*
X331200000Y-167765000D03*
X328660000Y-167765000D03*
X331200000Y-165225000D03*
X328660000Y-165225000D03*
X331200000Y-162685000D03*
X328660000Y-162685000D03*
X331200000Y-160145000D03*
X328660000Y-160145000D03*
X331200000Y-157605000D03*
X328660000Y-157605000D03*
X331200000Y-155065000D03*
X328660000Y-155065000D03*
X331200000Y-152525000D03*
X328660000Y-152525000D03*
X331200000Y-149985000D03*
X328660000Y-149985000D03*
X331200000Y-147445000D03*
X328660000Y-147445000D03*
X331200000Y-144905000D03*
X328660000Y-144905000D03*
X331200000Y-142365000D03*
X328660000Y-142365000D03*
X331200000Y-139825000D03*
X328660000Y-139825000D03*
X331200000Y-137285000D03*
X328660000Y-137285000D03*
X331200000Y-134745000D03*
X328660000Y-134745000D03*
X331200000Y-132205000D03*
X328660000Y-132205000D03*
X331200000Y-129665000D03*
X328660000Y-129665000D03*
X331200000Y-127125000D03*
X328660000Y-127125000D03*
X331200000Y-124585000D03*
X328660000Y-124585000D03*
X331200000Y-122045000D03*
X328660000Y-122045000D03*
X331200000Y-119505000D03*
X328660000Y-119505000D03*
X331200000Y-116965000D03*
X328660000Y-116965000D03*
X331200000Y-114425000D03*
X328660000Y-114425000D03*
X331200000Y-111885000D03*
X328660000Y-111885000D03*
X331200000Y-109345000D03*
X328660000Y-109345000D03*
X331200000Y-106805000D03*
D13*
X328660000Y-106805000D03*
%TD*%
D11*
%TO.C,J35*%
X136305000Y-64265000D03*
%TD*%
%TO.C,J22*%
X125695000Y-124290000D03*
%TD*%
D10*
%TO.C,J3*%
X314040000Y-73750000D03*
D11*
X311500000Y-76290000D03*
X316580000Y-76290000D03*
X316580000Y-71210000D03*
X311500000Y-71210000D03*
%TD*%
D16*
%TO.C,J39*%
X149139989Y-198139136D03*
X145547887Y-194547034D03*
X149139989Y-190954932D03*
X152732091Y-194547034D03*
X149139989Y-194547034D03*
%TD*%
D11*
%TO.C,J25*%
X129775000Y-105450000D03*
X134855000Y-105450000D03*
X134855000Y-110530000D03*
X129775000Y-110530000D03*
D10*
X132315000Y-107990000D03*
%TD*%
D11*
%TO.C,J10*%
X226135000Y-67340000D03*
%TD*%
D15*
%TO.C,H3*%
X113400000Y-220905000D03*
%TD*%
D12*
%TO.C,VR3*%
X120695000Y-172135000D03*
X118155000Y-172135000D03*
X115615000Y-172135000D03*
%TD*%
D13*
%TO.C,J12*%
X234970000Y-61240000D03*
D14*
X232430000Y-61240000D03*
X229890000Y-61240000D03*
%TD*%
D11*
%TO.C,J31*%
X200435000Y-50645000D03*
X205515000Y-50645000D03*
X205515000Y-55725000D03*
X200435000Y-55725000D03*
D10*
X202975000Y-53185000D03*
%TD*%
D15*
%TO.C,H4*%
X324400000Y-220905000D03*
%TD*%
D12*
%TO.C,VR5*%
X166720000Y-71820000D03*
X169260000Y-71820000D03*
X171800000Y-71820000D03*
%TD*%
D10*
%TO.C,J33*%
X127625000Y-58015000D03*
D11*
X130165000Y-60555000D03*
X130165000Y-55475000D03*
X125085000Y-55475000D03*
X125085000Y-60555000D03*
%TD*%
D14*
%TO.C,J32*%
X200125000Y-63385000D03*
X202665000Y-63385000D03*
D13*
X205205000Y-63385000D03*
%TD*%
D11*
%TO.C,J30*%
X196355000Y-69485000D03*
%TD*%
D17*
%TO.C,C7*%
X207063312Y-150997000D03*
X207063312Y-149097000D03*
%TD*%
D18*
%TO.C,C4*%
X196758312Y-144237000D03*
X198308312Y-144237000D03*
%TD*%
D19*
%TO.C,C3*%
X200803312Y-147717000D03*
X200803312Y-146167000D03*
%TD*%
D20*
%TO.C,C8*%
X215855000Y-139105000D03*
X213955000Y-139105000D03*
%TD*%
D18*
%TO.C,C1*%
X201043312Y-139627000D03*
X199493312Y-139627000D03*
%TD*%
D19*
%TO.C,C5*%
X199293312Y-147717000D03*
X199293312Y-146167000D03*
%TD*%
%TO.C,C2*%
X197793312Y-147712000D03*
X197793312Y-146162000D03*
%TD*%
D21*
%TO.C,C6*%
X204233312Y-135407000D03*
X204233312Y-137307000D03*
%TD*%
M02*
