%TF.GenerationSoftware,KiCad,Pcbnew,7.0.1-0*%
%TF.CreationDate,2023-04-17T18:48:32+01:00*%
%TF.ProjectId,cyborg65r2_thermo_pcb,6379626f-7267-4363-9572-325f74686572,rev?*%
%TF.SameCoordinates,Original*%
%TF.FileFunction,Legend,Bot*%
%TF.FilePolarity,Positive*%
%FSLAX46Y46*%
G04 Gerber Fmt 4.6, Leading zero omitted, Abs format (unit mm)*
G04 Created by KiCad (PCBNEW 7.0.1-0) date 2023-04-17 18:48:32*
%MOMM*%
%LPD*%
G01*
G04 APERTURE LIST*
%ADD10C,0.150000*%
%ADD11C,0.120000*%
G04 APERTURE END LIST*
D10*
%TO.C,C7*%
X205897216Y-150843667D02*
X205935312Y-150805571D01*
X205935312Y-150805571D02*
X205973407Y-150691286D01*
X205973407Y-150691286D02*
X205973407Y-150615095D01*
X205973407Y-150615095D02*
X205935312Y-150500809D01*
X205935312Y-150500809D02*
X205859121Y-150424619D01*
X205859121Y-150424619D02*
X205782931Y-150386524D01*
X205782931Y-150386524D02*
X205630550Y-150348428D01*
X205630550Y-150348428D02*
X205516264Y-150348428D01*
X205516264Y-150348428D02*
X205363883Y-150386524D01*
X205363883Y-150386524D02*
X205287692Y-150424619D01*
X205287692Y-150424619D02*
X205211502Y-150500809D01*
X205211502Y-150500809D02*
X205173407Y-150615095D01*
X205173407Y-150615095D02*
X205173407Y-150691286D01*
X205173407Y-150691286D02*
X205211502Y-150805571D01*
X205211502Y-150805571D02*
X205249597Y-150843667D01*
X205173407Y-151110333D02*
X205173407Y-151643667D01*
X205173407Y-151643667D02*
X205973407Y-151300809D01*
%TO.C,C4*%
X196833332Y-143283904D02*
X196871428Y-143322000D01*
X196871428Y-143322000D02*
X196985713Y-143360095D01*
X196985713Y-143360095D02*
X197061904Y-143360095D01*
X197061904Y-143360095D02*
X197176190Y-143322000D01*
X197176190Y-143322000D02*
X197252380Y-143245809D01*
X197252380Y-143245809D02*
X197290475Y-143169619D01*
X197290475Y-143169619D02*
X197328571Y-143017238D01*
X197328571Y-143017238D02*
X197328571Y-142902952D01*
X197328571Y-142902952D02*
X197290475Y-142750571D01*
X197290475Y-142750571D02*
X197252380Y-142674380D01*
X197252380Y-142674380D02*
X197176190Y-142598190D01*
X197176190Y-142598190D02*
X197061904Y-142560095D01*
X197061904Y-142560095D02*
X196985713Y-142560095D01*
X196985713Y-142560095D02*
X196871428Y-142598190D01*
X196871428Y-142598190D02*
X196833332Y-142636285D01*
X196147618Y-142826761D02*
X196147618Y-143360095D01*
X196338094Y-142522000D02*
X196528571Y-143093428D01*
X196528571Y-143093428D02*
X196033332Y-143093428D01*
%TO.C,C3*%
X202577216Y-149143667D02*
X202615312Y-149105571D01*
X202615312Y-149105571D02*
X202653407Y-148991286D01*
X202653407Y-148991286D02*
X202653407Y-148915095D01*
X202653407Y-148915095D02*
X202615312Y-148800809D01*
X202615312Y-148800809D02*
X202539121Y-148724619D01*
X202539121Y-148724619D02*
X202462931Y-148686524D01*
X202462931Y-148686524D02*
X202310550Y-148648428D01*
X202310550Y-148648428D02*
X202196264Y-148648428D01*
X202196264Y-148648428D02*
X202043883Y-148686524D01*
X202043883Y-148686524D02*
X201967692Y-148724619D01*
X201967692Y-148724619D02*
X201891502Y-148800809D01*
X201891502Y-148800809D02*
X201853407Y-148915095D01*
X201853407Y-148915095D02*
X201853407Y-148991286D01*
X201853407Y-148991286D02*
X201891502Y-149105571D01*
X201891502Y-149105571D02*
X201929597Y-149143667D01*
X201853407Y-149410333D02*
X201853407Y-149905571D01*
X201853407Y-149905571D02*
X202158169Y-149638905D01*
X202158169Y-149638905D02*
X202158169Y-149753190D01*
X202158169Y-149753190D02*
X202196264Y-149829381D01*
X202196264Y-149829381D02*
X202234359Y-149867476D01*
X202234359Y-149867476D02*
X202310550Y-149905571D01*
X202310550Y-149905571D02*
X202501026Y-149905571D01*
X202501026Y-149905571D02*
X202577216Y-149867476D01*
X202577216Y-149867476D02*
X202615312Y-149829381D01*
X202615312Y-149829381D02*
X202653407Y-149753190D01*
X202653407Y-149753190D02*
X202653407Y-149524619D01*
X202653407Y-149524619D02*
X202615312Y-149448428D01*
X202615312Y-149448428D02*
X202577216Y-149410333D01*
%TO.C,C8*%
X215038332Y-140738904D02*
X215076428Y-140777000D01*
X215076428Y-140777000D02*
X215190713Y-140815095D01*
X215190713Y-140815095D02*
X215266904Y-140815095D01*
X215266904Y-140815095D02*
X215381190Y-140777000D01*
X215381190Y-140777000D02*
X215457380Y-140700809D01*
X215457380Y-140700809D02*
X215495475Y-140624619D01*
X215495475Y-140624619D02*
X215533571Y-140472238D01*
X215533571Y-140472238D02*
X215533571Y-140357952D01*
X215533571Y-140357952D02*
X215495475Y-140205571D01*
X215495475Y-140205571D02*
X215457380Y-140129380D01*
X215457380Y-140129380D02*
X215381190Y-140053190D01*
X215381190Y-140053190D02*
X215266904Y-140015095D01*
X215266904Y-140015095D02*
X215190713Y-140015095D01*
X215190713Y-140015095D02*
X215076428Y-140053190D01*
X215076428Y-140053190D02*
X215038332Y-140091285D01*
X214581190Y-140357952D02*
X214657380Y-140319857D01*
X214657380Y-140319857D02*
X214695475Y-140281761D01*
X214695475Y-140281761D02*
X214733571Y-140205571D01*
X214733571Y-140205571D02*
X214733571Y-140167476D01*
X214733571Y-140167476D02*
X214695475Y-140091285D01*
X214695475Y-140091285D02*
X214657380Y-140053190D01*
X214657380Y-140053190D02*
X214581190Y-140015095D01*
X214581190Y-140015095D02*
X214428809Y-140015095D01*
X214428809Y-140015095D02*
X214352618Y-140053190D01*
X214352618Y-140053190D02*
X214314523Y-140091285D01*
X214314523Y-140091285D02*
X214276428Y-140167476D01*
X214276428Y-140167476D02*
X214276428Y-140205571D01*
X214276428Y-140205571D02*
X214314523Y-140281761D01*
X214314523Y-140281761D02*
X214352618Y-140319857D01*
X214352618Y-140319857D02*
X214428809Y-140357952D01*
X214428809Y-140357952D02*
X214581190Y-140357952D01*
X214581190Y-140357952D02*
X214657380Y-140396047D01*
X214657380Y-140396047D02*
X214695475Y-140434142D01*
X214695475Y-140434142D02*
X214733571Y-140510333D01*
X214733571Y-140510333D02*
X214733571Y-140662714D01*
X214733571Y-140662714D02*
X214695475Y-140738904D01*
X214695475Y-140738904D02*
X214657380Y-140777000D01*
X214657380Y-140777000D02*
X214581190Y-140815095D01*
X214581190Y-140815095D02*
X214428809Y-140815095D01*
X214428809Y-140815095D02*
X214352618Y-140777000D01*
X214352618Y-140777000D02*
X214314523Y-140738904D01*
X214314523Y-140738904D02*
X214276428Y-140662714D01*
X214276428Y-140662714D02*
X214276428Y-140510333D01*
X214276428Y-140510333D02*
X214314523Y-140434142D01*
X214314523Y-140434142D02*
X214352618Y-140396047D01*
X214352618Y-140396047D02*
X214428809Y-140357952D01*
%TO.C,C1*%
X200256644Y-141070904D02*
X200294740Y-141109000D01*
X200294740Y-141109000D02*
X200409025Y-141147095D01*
X200409025Y-141147095D02*
X200485216Y-141147095D01*
X200485216Y-141147095D02*
X200599502Y-141109000D01*
X200599502Y-141109000D02*
X200675692Y-141032809D01*
X200675692Y-141032809D02*
X200713787Y-140956619D01*
X200713787Y-140956619D02*
X200751883Y-140804238D01*
X200751883Y-140804238D02*
X200751883Y-140689952D01*
X200751883Y-140689952D02*
X200713787Y-140537571D01*
X200713787Y-140537571D02*
X200675692Y-140461380D01*
X200675692Y-140461380D02*
X200599502Y-140385190D01*
X200599502Y-140385190D02*
X200485216Y-140347095D01*
X200485216Y-140347095D02*
X200409025Y-140347095D01*
X200409025Y-140347095D02*
X200294740Y-140385190D01*
X200294740Y-140385190D02*
X200256644Y-140423285D01*
X199494740Y-141147095D02*
X199951883Y-141147095D01*
X199723311Y-141147095D02*
X199723311Y-140347095D01*
X199723311Y-140347095D02*
X199799502Y-140461380D01*
X199799502Y-140461380D02*
X199875692Y-140537571D01*
X199875692Y-140537571D02*
X199951883Y-140575666D01*
%TO.C,C5*%
X201057216Y-149143667D02*
X201095312Y-149105571D01*
X201095312Y-149105571D02*
X201133407Y-148991286D01*
X201133407Y-148991286D02*
X201133407Y-148915095D01*
X201133407Y-148915095D02*
X201095312Y-148800809D01*
X201095312Y-148800809D02*
X201019121Y-148724619D01*
X201019121Y-148724619D02*
X200942931Y-148686524D01*
X200942931Y-148686524D02*
X200790550Y-148648428D01*
X200790550Y-148648428D02*
X200676264Y-148648428D01*
X200676264Y-148648428D02*
X200523883Y-148686524D01*
X200523883Y-148686524D02*
X200447692Y-148724619D01*
X200447692Y-148724619D02*
X200371502Y-148800809D01*
X200371502Y-148800809D02*
X200333407Y-148915095D01*
X200333407Y-148915095D02*
X200333407Y-148991286D01*
X200333407Y-148991286D02*
X200371502Y-149105571D01*
X200371502Y-149105571D02*
X200409597Y-149143667D01*
X200333407Y-149867476D02*
X200333407Y-149486524D01*
X200333407Y-149486524D02*
X200714359Y-149448428D01*
X200714359Y-149448428D02*
X200676264Y-149486524D01*
X200676264Y-149486524D02*
X200638169Y-149562714D01*
X200638169Y-149562714D02*
X200638169Y-149753190D01*
X200638169Y-149753190D02*
X200676264Y-149829381D01*
X200676264Y-149829381D02*
X200714359Y-149867476D01*
X200714359Y-149867476D02*
X200790550Y-149905571D01*
X200790550Y-149905571D02*
X200981026Y-149905571D01*
X200981026Y-149905571D02*
X201057216Y-149867476D01*
X201057216Y-149867476D02*
X201095312Y-149829381D01*
X201095312Y-149829381D02*
X201133407Y-149753190D01*
X201133407Y-149753190D02*
X201133407Y-149562714D01*
X201133407Y-149562714D02*
X201095312Y-149486524D01*
X201095312Y-149486524D02*
X201057216Y-149448428D01*
%TO.C,C2*%
X199557216Y-149243667D02*
X199595312Y-149205571D01*
X199595312Y-149205571D02*
X199633407Y-149091286D01*
X199633407Y-149091286D02*
X199633407Y-149015095D01*
X199633407Y-149015095D02*
X199595312Y-148900809D01*
X199595312Y-148900809D02*
X199519121Y-148824619D01*
X199519121Y-148824619D02*
X199442931Y-148786524D01*
X199442931Y-148786524D02*
X199290550Y-148748428D01*
X199290550Y-148748428D02*
X199176264Y-148748428D01*
X199176264Y-148748428D02*
X199023883Y-148786524D01*
X199023883Y-148786524D02*
X198947692Y-148824619D01*
X198947692Y-148824619D02*
X198871502Y-148900809D01*
X198871502Y-148900809D02*
X198833407Y-149015095D01*
X198833407Y-149015095D02*
X198833407Y-149091286D01*
X198833407Y-149091286D02*
X198871502Y-149205571D01*
X198871502Y-149205571D02*
X198909597Y-149243667D01*
X198909597Y-149548428D02*
X198871502Y-149586524D01*
X198871502Y-149586524D02*
X198833407Y-149662714D01*
X198833407Y-149662714D02*
X198833407Y-149853190D01*
X198833407Y-149853190D02*
X198871502Y-149929381D01*
X198871502Y-149929381D02*
X198909597Y-149967476D01*
X198909597Y-149967476D02*
X198985788Y-150005571D01*
X198985788Y-150005571D02*
X199061978Y-150005571D01*
X199061978Y-150005571D02*
X199176264Y-149967476D01*
X199176264Y-149967476D02*
X199633407Y-149510333D01*
X199633407Y-149510333D02*
X199633407Y-150005571D01*
%TO.C,C6*%
X206037216Y-134943667D02*
X206075312Y-134905571D01*
X206075312Y-134905571D02*
X206113407Y-134791286D01*
X206113407Y-134791286D02*
X206113407Y-134715095D01*
X206113407Y-134715095D02*
X206075312Y-134600809D01*
X206075312Y-134600809D02*
X205999121Y-134524619D01*
X205999121Y-134524619D02*
X205922931Y-134486524D01*
X205922931Y-134486524D02*
X205770550Y-134448428D01*
X205770550Y-134448428D02*
X205656264Y-134448428D01*
X205656264Y-134448428D02*
X205503883Y-134486524D01*
X205503883Y-134486524D02*
X205427692Y-134524619D01*
X205427692Y-134524619D02*
X205351502Y-134600809D01*
X205351502Y-134600809D02*
X205313407Y-134715095D01*
X205313407Y-134715095D02*
X205313407Y-134791286D01*
X205313407Y-134791286D02*
X205351502Y-134905571D01*
X205351502Y-134905571D02*
X205389597Y-134943667D01*
X205313407Y-135629381D02*
X205313407Y-135477000D01*
X205313407Y-135477000D02*
X205351502Y-135400809D01*
X205351502Y-135400809D02*
X205389597Y-135362714D01*
X205389597Y-135362714D02*
X205503883Y-135286524D01*
X205503883Y-135286524D02*
X205656264Y-135248428D01*
X205656264Y-135248428D02*
X205961026Y-135248428D01*
X205961026Y-135248428D02*
X206037216Y-135286524D01*
X206037216Y-135286524D02*
X206075312Y-135324619D01*
X206075312Y-135324619D02*
X206113407Y-135400809D01*
X206113407Y-135400809D02*
X206113407Y-135553190D01*
X206113407Y-135553190D02*
X206075312Y-135629381D01*
X206075312Y-135629381D02*
X206037216Y-135667476D01*
X206037216Y-135667476D02*
X205961026Y-135705571D01*
X205961026Y-135705571D02*
X205770550Y-135705571D01*
X205770550Y-135705571D02*
X205694359Y-135667476D01*
X205694359Y-135667476D02*
X205656264Y-135629381D01*
X205656264Y-135629381D02*
X205618169Y-135553190D01*
X205618169Y-135553190D02*
X205618169Y-135400809D01*
X205618169Y-135400809D02*
X205656264Y-135324619D01*
X205656264Y-135324619D02*
X205694359Y-135286524D01*
X205694359Y-135286524D02*
X205770550Y-135248428D01*
D11*
%TO.C,C7*%
X206328312Y-149785748D02*
X206328312Y-150308252D01*
X207798312Y-149785748D02*
X207798312Y-150308252D01*
%TO.C,C4*%
X197673892Y-143727000D02*
X197392732Y-143727000D01*
X197673892Y-144747000D02*
X197392732Y-144747000D01*
%TO.C,C3*%
X200293312Y-146801420D02*
X200293312Y-147082580D01*
X201313312Y-146801420D02*
X201313312Y-147082580D01*
%TO.C,C8*%
X214643748Y-139840000D02*
X215166252Y-139840000D01*
X214643748Y-138370000D02*
X215166252Y-138370000D01*
%TO.C,C1*%
X200408892Y-140137000D02*
X200127732Y-140137000D01*
X200408892Y-139117000D02*
X200127732Y-139117000D01*
%TO.C,C5*%
X198783312Y-146801420D02*
X198783312Y-147082580D01*
X199803312Y-146801420D02*
X199803312Y-147082580D01*
%TO.C,C2*%
X197283312Y-146796420D02*
X197283312Y-147077580D01*
X198303312Y-146796420D02*
X198303312Y-147077580D01*
%TO.C,C6*%
X204968312Y-136618252D02*
X204968312Y-136095748D01*
X203498312Y-136618252D02*
X203498312Y-136095748D01*
%TD*%
M02*
