M48
; DRILL file {KiCad 7.0.1-0} date 2023 April 17, Monday 18:47:54
; FORMAT={-:-/ absolute / inch / decimal}
; #@! TF.CreationDate,2023-04-17T18:47:54+01:00
; #@! TF.GenerationSoftware,Kicad,Pcbnew,7.0.1-0
; #@! TF.FileFunction,Plated,1,4,PTH
FMAT,2
INCH
; #@! TA.AperFunction,Plated,PTH,ViaDrill
T1C0.0100
; #@! TA.AperFunction,Plated,PTH,ComponentDrill
T2C0.0291
; #@! TA.AperFunction,Plated,PTH,ComponentDrill
T3C0.0394
; #@! TA.AperFunction,Plated,PTH,ComponentDrill
T4C0.0469
; #@! TA.AperFunction,Plated,PTH,ComponentDrill
T5C0.0591
; #@! TA.AperFunction,Plated,PTH,ComponentDrill
T6C0.0630
%
G90
G05
T1
X4.1333Y-7.4189
X4.1333Y-7.4425
X4.1333Y-7.5173
X4.1333Y-7.5409
X4.2986Y-7.4307
X4.2986Y-7.4583
X4.2986Y-7.4858
X4.3207Y-6.4187
X4.3207Y-6.4423
X4.3207Y-6.5171
X4.3207Y-6.5407
X4.3352Y-4.5193
X4.3352Y-4.5429
X4.3352Y-4.6177
X4.3352Y-4.6413
X4.4167Y-7.6
X4.4167Y-7.6236
X4.4167Y-7.6512
X4.4404Y-7.6
X4.4404Y-7.6236
X4.486Y-6.4305
X4.486Y-6.4581
X4.486Y-6.4856
X4.5006Y-4.5311
X4.5006Y-4.5587
X4.5006Y-4.5862
X4.5006Y-6.8329
X4.5152Y-4.9335
X4.5821Y-7.4307
X4.5821Y-7.4583
X4.5821Y-7.4858
X4.6041Y-6.5998
X4.6041Y-6.6234
X4.6041Y-6.651
X4.6187Y-4.7004
X4.6187Y-4.724
X4.6187Y-4.7516
X4.6278Y-6.5998
X4.6278Y-6.6234
X4.6423Y-4.7004
X4.6423Y-4.724
X4.7081Y-7.411
X4.712Y-7.5134
X4.7695Y-6.4305
X4.7695Y-6.4581
X4.7695Y-6.4856
X4.7841Y-4.5311
X4.7841Y-4.5587
X4.7841Y-4.5862
X4.8502Y-3.4075
X4.8502Y-3.4311
X4.8502Y-3.5059
X4.8502Y-3.5295
X4.8955Y-6.4108
X4.8994Y-6.5132
X4.91Y-4.5114
X4.914Y-4.6138
X5.0156Y-3.4193
X5.0156Y-3.4469
X5.0156Y-3.4744
X5.0301Y-3.8217
X5.1096Y-7.6591
X5.1096Y-7.6984
X5.1337Y-3.5886
X5.1337Y-3.6122
X5.1337Y-3.6398
X5.153Y-7.6591
X5.153Y-7.6984
X5.1573Y-3.5886
X5.1573Y-3.6122
X5.297Y-6.6589
X5.297Y-6.6982
X5.299Y-3.4193
X5.299Y-3.4469
X5.299Y-3.4744
X5.3116Y-4.7594
X5.3116Y-4.7988
X5.3404Y-6.6589
X5.3404Y-6.6982
X5.3549Y-4.7594
X5.3549Y-4.7988
X5.425Y-3.3996
X5.4289Y-3.502
X5.4648Y-2.2545
X5.4648Y-2.2939
X5.4844Y-2.0577
X5.4844Y-2.4907
X5.5041Y-2.2545
X5.5041Y-2.2939
X5.5435Y-2.2545
X5.5435Y-2.2939
X5.5829Y-2.0577
X5.5829Y-2.2545
X5.5829Y-2.2939
X5.5829Y-2.4907
X5.6222Y-2.2545
X5.6222Y-2.2939
X5.6616Y-2.2545
X5.6616Y-2.2939
X5.6813Y-2.0577
X5.6813Y-2.4907
X5.701Y-2.2545
X5.701Y-2.2939
X5.7404Y-2.2545
X5.7404Y-2.2939
X5.7797Y-2.0577
X5.7797Y-2.2545
X5.7797Y-2.2939
X5.7797Y-2.4907
X5.8191Y-2.2545
X5.8191Y-2.2939
X5.8266Y-3.6476
X5.8266Y-3.687
X5.8699Y-3.6476
X5.8699Y-3.687
X6.2504Y-2.8472
X6.2898Y-2.8472
X6.4079Y-2.8079
X6.4079Y-2.8472
X6.4079Y-2.8866
X6.6165Y-2.985
X6.7943Y-8.4042
X6.7961Y-8.7545
X6.798Y-8.6581
X7.1171Y-2.3616
X7.1171Y-2.3852
X7.1171Y-2.46
X7.1171Y-2.4837
X7.2825Y-2.3734
X7.2825Y-2.401
X7.2825Y-2.4285
X7.297Y-2.7758
X7.4006Y-2.5427
X7.4006Y-2.5663
X7.4006Y-2.5939
X7.4242Y-2.5427
X7.4242Y-2.5663
X7.5659Y-2.3734
X7.5659Y-2.401
X7.5659Y-2.4285
X7.6919Y-2.3537
X7.6959Y-2.4561
X7.7108Y-5.6786
X7.7423Y-5.7542
X7.7423Y-5.7806
X7.7497Y-5.8231
X7.8072Y-5.6422
X7.8186Y-5.4971
X7.8856Y-5.7196
X7.9151Y-5.5337
X7.9155Y-5.4459
X7.9182Y-5.718
X7.943Y-5.7578
X7.9442Y-5.7952
X7.9569Y-5.5742
X7.958Y-5.607
X7.9785Y-5.7479
X7.984Y-5.3613
X8.0096Y-5.4479
X8.0407Y-5.2849
X8.0478Y-5.8164
X8.0528Y-5.9037
X8.0935Y-2.6018
X8.0935Y-2.6411
X8.0974Y-5.3613
X8.1368Y-2.6018
X8.1368Y-2.6411
X8.1521Y-5.9952
X8.2088Y-5.8896
X8.2888Y-2.2772
X8.2888Y-2.3008
X8.2888Y-2.3756
X8.2888Y-2.3992
X8.3745Y-5.4542
X8.4541Y-2.289
X8.4541Y-2.3165
X8.4541Y-2.3441
X8.5458Y-5.4767
X8.5722Y-2.4583
X8.5722Y-2.4819
X8.5722Y-2.5094
X8.5959Y-2.4583
X8.5959Y-2.4819
X8.7376Y-2.289
X8.7376Y-2.3165
X8.7376Y-2.3441
X8.8636Y-2.2693
X8.8675Y-2.3717
X9.9502Y-2.853
X9.9502Y-2.8766
X9.9502Y-2.9514
X9.9502Y-2.975
X10.1156Y-2.8648
X10.1156Y-2.8923
X10.1156Y-2.9199
X10.2337Y-3.0341
X10.2337Y-3.0577
X10.2337Y-3.0852
X10.2573Y-3.0341
X10.2573Y-3.0577
X10.399Y-2.8648
X10.399Y-2.8923
X10.399Y-2.9199
X10.525Y-2.8451
X10.5289Y-2.9474
X11.0918Y-4.7132
X11.0918Y-4.7896
X11.2465Y-4.7132
X11.401Y-5.7299
X11.401Y-5.9465
X11.401Y-6.3177
X11.401Y-6.5343
X11.4032Y-5.1421
X11.4032Y-5.3587
X11.4807Y-5.3
X11.4848Y-5.8929
X11.4898Y-3.1713
X11.4898Y-3.1949
X11.4898Y-3.2697
X11.4898Y-3.2933
X11.4939Y-6.478
X11.4949Y-5.0878
X11.4974Y-5.674
X11.501Y-6.261
X11.5605Y-5.6472
X11.5605Y-5.8008
X11.5605Y-6.235
X11.5626Y-5.0594
X11.5626Y-5.213
X11.5703Y-5.8815
X11.5724Y-6.0053
X11.5725Y-5.2937
X11.575Y-6.4358
X11.5754Y-6.598
X11.5805Y-6.0665
X11.5823Y-5.4315
X11.5823Y-5.4591
X11.588Y-5.5783
X11.588Y-6.1661
X11.5902Y-4.9906
X11.6551Y-3.1831
X11.6551Y-3.2106
X11.6551Y-3.2382
X11.7732Y-3.3524
X11.7732Y-3.376
X11.7732Y-3.4035
X11.7969Y-3.3524
X11.7969Y-3.376
X11.9386Y-3.1831
X11.9386Y-3.2106
X11.9386Y-3.2382
X11.9884Y-5.5783
X11.9884Y-6.1661
X11.9906Y-4.9906
X11.9906Y-6.0049
X11.9984Y-5.4315
X11.9984Y-5.4591
X12.0059Y-6.5874
X12.0059Y-6.6465
X12.0061Y-5.8815
X12.0061Y-6.0752
X12.0061Y-6.4693
X12.0083Y-5.2937
X12.0159Y-5.6472
X12.0159Y-5.8008
X12.0159Y-6.235
X12.0159Y-6.3886
X12.0181Y-5.0594
X12.0181Y-5.213
X12.0608Y-6.5917
X12.0646Y-3.1634
X12.0685Y-3.2657
X12.0758Y-6.2669
X12.0866Y-5.0835
X12.0868Y-5.6736
X12.0886Y-5.3024
X12.09Y-5.8921
X12.1754Y-5.7299
X12.1754Y-5.9465
X12.1754Y-6.3177
X12.1754Y-6.5343
X12.1776Y-5.1421
X12.1776Y-5.3587
T2
X4.5518Y-6.777
X4.5663Y-4.8776
X4.6518Y-6.777
X4.6663Y-4.8776
X4.7518Y-6.777
X4.7663Y-4.8776
X5.0813Y-3.7657
X5.1813Y-3.7657
X5.2813Y-3.7657
X6.5638Y-2.8276
X6.6638Y-2.8276
X6.7638Y-2.8276
X7.3482Y-2.7199
X7.4482Y-2.7199
X7.5482Y-2.7199
T3
X4.8951Y-7.5528
X4.9951Y-7.5528
X5.0825Y-6.5526
X5.0951Y-7.5528
X5.097Y-4.6531
X5.1825Y-6.5526
X5.197Y-4.6531
X5.2825Y-6.5526
X5.297Y-4.6531
X5.612Y-3.5413
X5.712Y-3.5413
X5.812Y-3.5413
X6.1695Y-2.5913
X6.2695Y-2.5913
X6.3695Y-2.5913
X6.6037Y-2.5913
X6.6941Y-8.2152
X6.7037Y-2.5913
X6.7941Y-8.2152
X6.8037Y-2.5913
X6.8941Y-8.2152
X7.8789Y-2.4955
X7.9789Y-2.4955
X8.0789Y-2.4955
X9.0508Y-2.411
X9.1508Y-2.411
X9.2508Y-2.411
X10.7124Y-2.9868
X10.8124Y-2.9868
X10.9124Y-2.9868
X11.3303Y-4.5845
X11.3303Y-4.6845
X11.3303Y-4.7845
X12.252Y-3.3051
X12.352Y-3.3051
X12.452Y-3.3051
X12.9394Y-4.2049
X12.9394Y-4.3049
X12.9394Y-4.4049
X12.9394Y-4.5049
X12.9394Y-4.6049
X12.9394Y-4.7049
X12.9394Y-4.8049
X12.9394Y-4.9049
X12.9394Y-5.0049
X12.9394Y-5.1049
X12.9394Y-5.2049
X12.9394Y-5.3049
X12.9394Y-5.4049
X12.9394Y-5.5049
X12.9394Y-5.6049
X12.9394Y-5.7049
X12.9394Y-5.8049
X12.9394Y-5.9049
X12.9394Y-6.0049
X12.9394Y-6.1049
X12.9394Y-6.2049
X12.9394Y-6.3049
X12.9394Y-6.4049
X12.9394Y-6.5049
X12.9394Y-6.6049
X12.9394Y-6.7049
X12.9394Y-6.8049
X12.9394Y-6.9049
X12.9394Y-7.0049
X12.9394Y-7.1049
X12.9394Y-7.2049
X12.9394Y-7.3049
X12.9394Y-7.4049
X12.9394Y-7.5049
X13.0394Y-4.2049
X13.0394Y-4.3049
X13.0394Y-4.4049
X13.0394Y-4.5049
X13.0394Y-4.6049
X13.0394Y-4.7049
X13.0394Y-4.8049
X13.0394Y-4.9049
X13.0394Y-5.0049
X13.0394Y-5.1049
X13.0394Y-5.2049
X13.0394Y-5.3049
X13.0394Y-5.4049
X13.0394Y-5.5049
X13.0394Y-5.6049
X13.0394Y-5.7049
X13.0394Y-5.8049
X13.0394Y-5.9049
X13.0394Y-6.0049
X13.0394Y-6.1049
X13.0394Y-6.2049
X13.0394Y-6.3049
X13.0394Y-6.4049
X13.0394Y-6.5049
X13.0394Y-6.6049
X13.0394Y-6.7049
X13.0394Y-6.8049
X13.0394Y-6.9049
X13.0394Y-7.0049
X13.0394Y-7.1049
X13.0394Y-7.2049
X13.0394Y-7.3049
X13.0394Y-7.4049
X13.0394Y-7.5049
T4
X5.0073Y-7.1512
X5.0246Y-2.2841
X5.1947Y-6.151
X5.2093Y-4.2516
X5.7242Y-3.1398
X6.4835Y-2.287
X7.9911Y-2.0939
X9.1628Y-2.0094
X10.8242Y-2.5852
X12.3638Y-2.9035
T5
X4.9321Y-5.5197
X4.9321Y-5.7197
X5.0321Y-5.6197
X5.1321Y-5.5197
X5.1321Y-5.7197
X5.7302Y-7.6593
X5.8717Y-7.5179
X5.8717Y-7.6593
X5.8717Y-7.8008
X5.9943Y-7.9231
X6.0131Y-7.6593
X6.1357Y-7.7817
X6.1357Y-7.9231
X6.1357Y-8.0645
X6.2772Y-7.9231
T6
X4.747Y-7.7929
X4.9073Y-7.0512
X4.9073Y-7.2512
X4.9246Y-2.1841
X4.9246Y-2.3841
X4.9341Y-6.7927
X4.9486Y-4.8933
X4.9955Y-7.7929
X5.0947Y-6.051
X5.0947Y-6.251
X5.1073Y-7.0512
X5.1073Y-7.2512
X5.1093Y-4.1516
X5.1093Y-4.3516
X5.1246Y-2.1841
X5.1246Y-2.3841
X5.1829Y-6.7927
X5.1974Y-4.8933
X5.2947Y-6.051
X5.2947Y-6.251
X5.3093Y-4.1516
X5.3093Y-4.3516
X5.3663Y-2.0183
X5.3663Y-2.5301
X5.464Y-3.7815
X5.6242Y-3.0398
X5.6242Y-3.2398
X5.7124Y-3.7815
X5.8242Y-3.0398
X5.8242Y-3.2398
X6.3835Y-2.187
X6.3835Y-2.387
X6.5835Y-2.187
X6.5835Y-2.387
X7.7305Y-2.7356
X7.8911Y-1.9939
X7.8911Y-2.1939
X7.9793Y-2.7356
X8.0911Y-1.9939
X8.0911Y-2.1939
X8.903Y-2.6512
X9.0628Y-1.9094
X9.0628Y-2.1094
X9.151Y-2.6512
X9.2628Y-1.9094
X9.2628Y-2.1094
X10.5644Y-3.227
X10.7242Y-2.4852
X10.7242Y-2.6852
X10.8128Y-3.227
X10.9242Y-2.4852
X10.9242Y-2.6852
X12.1039Y-3.5453
X12.2638Y-2.8035
X12.2638Y-3.0035
X12.352Y-3.5453
X12.4638Y-2.8035
X12.4638Y-3.0035
T0
M30
