%TF.GenerationSoftware,KiCad,Pcbnew,7.0.1-0*%
%TF.CreationDate,2023-04-17T18:48:32+01:00*%
%TF.ProjectId,cyborg65r2_thermo_pcb,6379626f-7267-4363-9572-325f74686572,rev?*%
%TF.SameCoordinates,Original*%
%TF.FileFunction,Soldermask,Top*%
%TF.FilePolarity,Negative*%
%FSLAX46Y46*%
G04 Gerber Fmt 4.6, Leading zero omitted, Abs format (unit mm)*
G04 Created by KiCad (PCBNEW 7.0.1-0) date 2023-04-17 18:48:32*
%MOMM*%
%LPD*%
G01*
G04 APERTURE LIST*
G04 Aperture macros list*
%AMRoundRect*
0 Rectangle with rounded corners*
0 $1 Rounding radius*
0 $2 $3 $4 $5 $6 $7 $8 $9 X,Y pos of 4 corners*
0 Add a 4 corners polygon primitive as box body*
4,1,4,$2,$3,$4,$5,$6,$7,$8,$9,$2,$3,0*
0 Add four circle primitives for the rounded corners*
1,1,$1+$1,$2,$3*
1,1,$1+$1,$4,$5*
1,1,$1+$1,$6,$7*
1,1,$1+$1,$8,$9*
0 Add four rect primitives between the rounded corners*
20,1,$1+$1,$2,$3,$4,$5,0*
20,1,$1+$1,$4,$5,$6,$7,0*
20,1,$1+$1,$6,$7,$8,$9,0*
20,1,$1+$1,$8,$9,$2,$3,0*%
G04 Aperture macros list end*
%ADD10R,1.785000X1.785000*%
%ADD11C,2.400000*%
%ADD12R,0.890000X1.020000*%
%ADD13RoundRect,0.250000X0.250000X0.475000X-0.250000X0.475000X-0.250000X-0.475000X0.250000X-0.475000X0*%
%ADD14RoundRect,0.250000X-0.250000X-0.475000X0.250000X-0.475000X0.250000X0.475000X-0.250000X0.475000X0*%
%ADD15R,1.650000X2.850000*%
%ADD16RoundRect,0.100000X-0.625000X-0.100000X0.625000X-0.100000X0.625000X0.100000X-0.625000X0.100000X0*%
%ADD17RoundRect,0.250000X-0.262500X-0.450000X0.262500X-0.450000X0.262500X0.450000X-0.262500X0.450000X0*%
%ADD18C,1.240000*%
%ADD19RoundRect,0.250000X-0.475000X0.250000X-0.475000X-0.250000X0.475000X-0.250000X0.475000X0.250000X0*%
%ADD20R,1.700000X1.700000*%
%ADD21O,1.700000X1.700000*%
%ADD22RoundRect,0.250000X0.262500X0.450000X-0.262500X0.450000X-0.262500X-0.450000X0.262500X-0.450000X0*%
%ADD23R,1.475000X0.300000*%
%ADD24C,3.200000*%
%ADD25RoundRect,0.250000X0.475000X-0.250000X0.475000X0.250000X-0.475000X0.250000X-0.475000X-0.250000X0*%
%ADD26C,2.250000*%
%ADD27RoundRect,0.150000X-0.150000X-0.200000X0.150000X-0.200000X0.150000X0.200000X-0.150000X0.200000X0*%
%ADD28C,1.000000*%
%ADD29R,5.900000X5.900000*%
%ADD30RoundRect,0.062500X-0.062500X-0.375000X0.062500X-0.375000X0.062500X0.375000X-0.062500X0.375000X0*%
%ADD31RoundRect,0.062500X-0.375000X-0.062500X0.375000X-0.062500X0.375000X0.062500X-0.375000X0.062500X0*%
%ADD32R,1.400000X2.100000*%
%ADD33R,0.880000X2.810000*%
%ADD34RoundRect,0.200000X0.200000X0.275000X-0.200000X0.275000X-0.200000X-0.275000X0.200000X-0.275000X0*%
G04 APERTURE END LIST*
D10*
%TO.C,J19*%
X145395000Y-79750000D03*
D11*
X142855000Y-82290000D03*
X147935000Y-82290000D03*
X147935000Y-77210000D03*
X142855000Y-77210000D03*
%TD*%
D12*
%TO.C,L5*%
X202631000Y-66355000D03*
X204259000Y-66355000D03*
%TD*%
D11*
%TO.C,J26*%
X129405000Y-153695000D03*
X134485000Y-153695000D03*
X134485000Y-158775000D03*
X129405000Y-158775000D03*
D10*
X131945000Y-156235000D03*
%TD*%
D13*
%TO.C,C51*%
X290885000Y-160470000D03*
X292785000Y-160470000D03*
%TD*%
D14*
%TO.C,C35*%
X124765000Y-115890000D03*
X122865000Y-115890000D03*
%TD*%
D15*
%TO.C,U5*%
X112810000Y-190415000D03*
D16*
X114960000Y-188790000D03*
X114960000Y-189440000D03*
X114960000Y-190090000D03*
X114960000Y-190740000D03*
X114960000Y-191390000D03*
X114960000Y-192040000D03*
X110660000Y-192040000D03*
X110660000Y-191390000D03*
X110660000Y-190740000D03*
X110660000Y-190090000D03*
X110660000Y-189440000D03*
X110660000Y-188790000D03*
%TD*%
D17*
%TO.C,R10*%
X116227500Y-120090000D03*
X114402500Y-120090000D03*
%TD*%
D11*
%TO.C,J9*%
X232435000Y-67340000D03*
%TD*%
%TO.C,J21*%
X132015000Y-124290000D03*
%TD*%
D14*
%TO.C,C20*%
X223285000Y-58940000D03*
X225185000Y-58940000D03*
%TD*%
D18*
%TO.C,VR2*%
X121065000Y-123890000D03*
X118525000Y-123890000D03*
X115985000Y-123890000D03*
%TD*%
D17*
%TO.C,R4*%
X264622500Y-77665000D03*
X266447500Y-77665000D03*
%TD*%
D19*
%TO.C,C48*%
X146805000Y-59765000D03*
X146805000Y-61665000D03*
%TD*%
D20*
%TO.C,J38*%
X161785000Y-65820000D03*
D21*
X159245000Y-65820000D03*
X156705000Y-65820000D03*
%TD*%
D15*
%TO.C,U9*%
X188600000Y-61960000D03*
D16*
X190750000Y-60335000D03*
X190750000Y-60985000D03*
X190750000Y-61635000D03*
X190750000Y-62285000D03*
X190750000Y-62935000D03*
X190750000Y-63585000D03*
X186450000Y-63585000D03*
X186450000Y-62935000D03*
X186450000Y-62285000D03*
X186450000Y-61635000D03*
X186450000Y-60985000D03*
X186450000Y-60335000D03*
%TD*%
D22*
%TO.C,R17*%
X167607500Y-213465000D03*
X169432500Y-213465000D03*
%TD*%
D14*
%TO.C,C24*%
X119635000Y-189540000D03*
X117735000Y-189540000D03*
%TD*%
D20*
%TO.C,J41*%
X287790000Y-121526199D03*
D21*
X287790000Y-118986199D03*
X287790000Y-116446199D03*
%TD*%
D23*
%TO.C,U12*%
X303210000Y-157450000D03*
X303210000Y-157950000D03*
X303210000Y-158450000D03*
X303210000Y-158950000D03*
X303210000Y-159450000D03*
X303210000Y-159950000D03*
X303210000Y-160450000D03*
X303210000Y-160950000D03*
X303210000Y-161450000D03*
X303210000Y-161950000D03*
X303210000Y-162450000D03*
X303210000Y-162950000D03*
X303210000Y-163450000D03*
X303210000Y-163950000D03*
X303210000Y-164450000D03*
X303210000Y-164950000D03*
X303210000Y-165450000D03*
X303210000Y-165950000D03*
X303210000Y-166450000D03*
X303210000Y-166950000D03*
X303210000Y-167450000D03*
X303210000Y-167950000D03*
X303210000Y-168450000D03*
X303210000Y-168950000D03*
X295634000Y-168950000D03*
X295634000Y-168450000D03*
X295634000Y-167950000D03*
X295634000Y-167450000D03*
X295634000Y-166950000D03*
X295634000Y-166450000D03*
X295634000Y-165950000D03*
X295634000Y-165450000D03*
X295634000Y-164950000D03*
X295634000Y-164450000D03*
X295634000Y-163950000D03*
X295634000Y-163450000D03*
X295634000Y-162950000D03*
X295634000Y-162450000D03*
X295634000Y-161950000D03*
X295634000Y-161450000D03*
X295634000Y-160950000D03*
X295634000Y-160450000D03*
X295634000Y-159950000D03*
X295634000Y-159450000D03*
X295634000Y-158950000D03*
X295634000Y-158450000D03*
X295634000Y-157950000D03*
X295634000Y-157450000D03*
%TD*%
D24*
%TO.C,H1*%
X113400000Y-49225000D03*
%TD*%
D13*
%TO.C,C53*%
X290615000Y-151040000D03*
X292515000Y-151040000D03*
%TD*%
D11*
%TO.C,J1*%
X313740000Y-90050000D03*
%TD*%
D23*
%TO.C,U11*%
X303216000Y-142520000D03*
X303216000Y-143020000D03*
X303216000Y-143520000D03*
X303216000Y-144020000D03*
X303216000Y-144520000D03*
X303216000Y-145020000D03*
X303216000Y-145520000D03*
X303216000Y-146020000D03*
X303216000Y-146520000D03*
X303216000Y-147020000D03*
X303216000Y-147520000D03*
X303216000Y-148020000D03*
X303216000Y-148520000D03*
X303216000Y-149020000D03*
X303216000Y-149520000D03*
X303216000Y-150020000D03*
X303216000Y-150520000D03*
X303216000Y-151020000D03*
X303216000Y-151520000D03*
X303216000Y-152020000D03*
X303216000Y-152520000D03*
X303216000Y-153020000D03*
X303216000Y-153520000D03*
X303216000Y-154020000D03*
X295640000Y-154020000D03*
X295640000Y-153520000D03*
X295640000Y-153020000D03*
X295640000Y-152520000D03*
X295640000Y-152020000D03*
X295640000Y-151520000D03*
X295640000Y-151020000D03*
X295640000Y-150520000D03*
X295640000Y-150020000D03*
X295640000Y-149520000D03*
X295640000Y-149020000D03*
X295640000Y-148520000D03*
X295640000Y-148020000D03*
X295640000Y-147520000D03*
X295640000Y-147020000D03*
X295640000Y-146520000D03*
X295640000Y-146020000D03*
X295640000Y-145520000D03*
X295640000Y-145020000D03*
X295640000Y-144520000D03*
X295640000Y-144020000D03*
X295640000Y-143520000D03*
X295640000Y-143020000D03*
X295640000Y-142520000D03*
%TD*%
D13*
%TO.C,C21*%
X106035000Y-188940000D03*
X107935000Y-188940000D03*
%TD*%
D12*
%TO.C,L4*%
X131601000Y-169405000D03*
X133229000Y-169405000D03*
%TD*%
D13*
%TO.C,C29*%
X111165000Y-115290000D03*
X113065000Y-115290000D03*
%TD*%
D11*
%TO.C,J29*%
X202675000Y-69485000D03*
%TD*%
D20*
%TO.C,J36*%
X167735000Y-65820000D03*
D21*
X170275000Y-65820000D03*
X172815000Y-65820000D03*
%TD*%
D25*
%TO.C,C45*%
X144305000Y-55765000D03*
X144305000Y-53865000D03*
%TD*%
D19*
%TO.C,C42*%
X139305000Y-59765000D03*
X139305000Y-61665000D03*
%TD*%
D26*
%TO.C,J47*%
X125275000Y-145280000D03*
X125275000Y-140200000D03*
X130355000Y-140200000D03*
X130355000Y-145280000D03*
X127815000Y-142740000D03*
%TD*%
D11*
%TO.C,J15*%
X124645000Y-179100000D03*
X129725000Y-179100000D03*
X129725000Y-184180000D03*
X124645000Y-184180000D03*
D10*
X127185000Y-181640000D03*
%TD*%
D13*
%TO.C,C30*%
X110795000Y-163535000D03*
X112695000Y-163535000D03*
%TD*%
D27*
%TO.C,D1*%
X300840000Y-85850000D03*
X302240000Y-85850000D03*
%TD*%
D13*
%TO.C,C25*%
X126145000Y-87050000D03*
X124245000Y-87050000D03*
%TD*%
D11*
%TO.C,J17*%
X145095000Y-96050000D03*
%TD*%
D13*
%TO.C,C13*%
X255685000Y-73105000D03*
X253785000Y-73105000D03*
%TD*%
D16*
%TO.C,U3*%
X258405000Y-72815000D03*
X258405000Y-73465000D03*
X258405000Y-74115000D03*
X258405000Y-74765000D03*
X258405000Y-75415000D03*
X258405000Y-76065000D03*
X262705000Y-76065000D03*
X262705000Y-75415000D03*
X262705000Y-74765000D03*
X262705000Y-74115000D03*
X262705000Y-73465000D03*
X262705000Y-72815000D03*
D15*
X260555000Y-74440000D03*
%TD*%
D17*
%TO.C,R5*%
X214822500Y-63140000D03*
X216647500Y-63140000D03*
%TD*%
D11*
%TO.C,J2*%
X307440000Y-90050000D03*
%TD*%
%TO.C,J23*%
X131645000Y-172535000D03*
%TD*%
D28*
%TO.C,FID1*%
X269585000Y-137920000D03*
%TD*%
D29*
%TO.C,U1*%
X207543312Y-142837000D03*
D30*
X204293312Y-138899500D03*
X204793312Y-138899500D03*
X205293312Y-138899500D03*
X205793312Y-138899500D03*
X206293312Y-138899500D03*
X206793312Y-138899500D03*
X207293312Y-138899500D03*
X207793312Y-138899500D03*
X208293312Y-138899500D03*
X208793312Y-138899500D03*
X209293312Y-138899500D03*
X209793312Y-138899500D03*
X210293312Y-138899500D03*
X210793312Y-138899500D03*
D31*
X211480812Y-139587000D03*
X211480812Y-140087000D03*
X211480812Y-140587000D03*
X211480812Y-141087000D03*
X211480812Y-141587000D03*
X211480812Y-142087000D03*
X211480812Y-142587000D03*
X211480812Y-143087000D03*
X211480812Y-143587000D03*
X211480812Y-144087000D03*
X211480812Y-144587000D03*
X211480812Y-145087000D03*
X211480812Y-145587000D03*
X211480812Y-146087000D03*
D30*
X210793312Y-146774500D03*
X210293312Y-146774500D03*
X209793312Y-146774500D03*
X209293312Y-146774500D03*
X208793312Y-146774500D03*
X208293312Y-146774500D03*
X207793312Y-146774500D03*
X207293312Y-146774500D03*
X206793312Y-146774500D03*
X206293312Y-146774500D03*
X205793312Y-146774500D03*
X205293312Y-146774500D03*
X204793312Y-146774500D03*
X204293312Y-146774500D03*
D31*
X203605812Y-146087000D03*
X203605812Y-145587000D03*
X203605812Y-145087000D03*
X203605812Y-144587000D03*
X203605812Y-144087000D03*
X203605812Y-143587000D03*
X203605812Y-143087000D03*
X203605812Y-142587000D03*
X203605812Y-142087000D03*
X203605812Y-141587000D03*
X203605812Y-141087000D03*
X203605812Y-140587000D03*
X203605812Y-140087000D03*
X203605812Y-139587000D03*
%TD*%
D27*
%TO.C,D3*%
X220935000Y-63140000D03*
X219535000Y-63140000D03*
%TD*%
D15*
%TO.C,U8*%
X117570000Y-165010000D03*
D16*
X119720000Y-163385000D03*
X119720000Y-164035000D03*
X119720000Y-164685000D03*
X119720000Y-165335000D03*
X119720000Y-165985000D03*
X119720000Y-166635000D03*
X115420000Y-166635000D03*
X115420000Y-165985000D03*
X115420000Y-165335000D03*
X115420000Y-164685000D03*
X115420000Y-164035000D03*
X115420000Y-163385000D03*
%TD*%
D11*
%TO.C,J18*%
X138785000Y-96050000D03*
%TD*%
D20*
%TO.C,J20*%
X147625000Y-89950000D03*
D21*
X145085000Y-89950000D03*
X142545000Y-89950000D03*
%TD*%
D14*
%TO.C,C27*%
X135045000Y-89750000D03*
X136945000Y-89750000D03*
%TD*%
D17*
%TO.C,R18*%
X177532500Y-213465000D03*
X175707500Y-213465000D03*
%TD*%
D11*
%TO.C,J13*%
X126885000Y-197940000D03*
%TD*%
D17*
%TO.C,R7*%
X111097500Y-193740000D03*
X109272500Y-193740000D03*
%TD*%
%TO.C,R15*%
X282790000Y-121656199D03*
X284615000Y-121656199D03*
%TD*%
D13*
%TO.C,C52*%
X290940000Y-130610000D03*
X292840000Y-130610000D03*
%TD*%
D28*
%TO.C,FID2*%
X207425000Y-82305000D03*
%TD*%
D10*
%TO.C,J37*%
X164680000Y-58090000D03*
D11*
X162140000Y-60630000D03*
X167220000Y-60630000D03*
X167220000Y-55550000D03*
X162140000Y-55550000D03*
%TD*%
D32*
%TO.C,S2*%
X174220000Y-225765000D03*
X174220000Y-216665000D03*
X179020000Y-225765000D03*
X179020000Y-216665000D03*
%TD*%
D21*
%TO.C,J48*%
X175110000Y-208665000D03*
X172570000Y-208665000D03*
D20*
X170030000Y-208665000D03*
%TD*%
D19*
%TO.C,C41*%
X141805000Y-59765000D03*
X141805000Y-61665000D03*
%TD*%
D17*
%TO.C,R12*%
X186887500Y-65285000D03*
X185062500Y-65285000D03*
%TD*%
D16*
%TO.C,U4*%
X216210000Y-58190000D03*
X216210000Y-58840000D03*
X216210000Y-59490000D03*
X216210000Y-60140000D03*
X216210000Y-60790000D03*
X216210000Y-61440000D03*
X220510000Y-61440000D03*
X220510000Y-60790000D03*
X220510000Y-60140000D03*
X220510000Y-59490000D03*
X220510000Y-58840000D03*
X220510000Y-58190000D03*
D15*
X218360000Y-59815000D03*
%TD*%
D11*
%TO.C,J14*%
X120575000Y-197940000D03*
%TD*%
D13*
%TO.C,C31*%
X111165000Y-117690000D03*
X113065000Y-117690000D03*
%TD*%
D11*
%TO.C,J24*%
X125325000Y-172535000D03*
%TD*%
D13*
%TO.C,C38*%
X181825000Y-60485000D03*
X183725000Y-60485000D03*
%TD*%
D24*
%TO.C,H2*%
X324400000Y-49225000D03*
%TD*%
D28*
%TO.C,FID3*%
X146880000Y-141425000D03*
%TD*%
D33*
%TO.C,F1*%
X133750000Y-57905000D03*
X137020000Y-57905000D03*
%TD*%
D12*
%TO.C,L2*%
X146679000Y-92920000D03*
X145051000Y-92920000D03*
%TD*%
D14*
%TO.C,C59*%
X308235000Y-151040000D03*
X306335000Y-151040000D03*
%TD*%
D13*
%TO.C,C26*%
X126145000Y-89450000D03*
X124245000Y-89450000D03*
%TD*%
D10*
%TO.C,J11*%
X232735000Y-51040000D03*
D11*
X230195000Y-53580000D03*
X235275000Y-53580000D03*
X235275000Y-48500000D03*
X230195000Y-48500000D03*
%TD*%
D14*
%TO.C,C58*%
X308010000Y-130610000D03*
X306110000Y-130610000D03*
%TD*%
D21*
%TO.C,J16*%
X124335000Y-191840000D03*
X126875000Y-191840000D03*
D20*
X129415000Y-191840000D03*
%TD*%
D26*
%TO.C,J40*%
X155847887Y-204839136D03*
X152255785Y-201247034D03*
X155847887Y-197654932D03*
X159439989Y-201247034D03*
X155847887Y-201247034D03*
%TD*%
D21*
%TO.C,J27*%
X129465000Y-118190000D03*
X132005000Y-118190000D03*
D20*
X134545000Y-118190000D03*
%TD*%
D16*
%TO.C,U6*%
X128870000Y-86900000D03*
X128870000Y-87550000D03*
X128870000Y-88200000D03*
X128870000Y-88850000D03*
X128870000Y-89500000D03*
X128870000Y-90150000D03*
X133170000Y-90150000D03*
X133170000Y-89500000D03*
X133170000Y-88850000D03*
X133170000Y-88200000D03*
X133170000Y-87550000D03*
X133170000Y-86900000D03*
D15*
X131020000Y-88525000D03*
%TD*%
D27*
%TO.C,D2*%
X263135000Y-77665000D03*
X261735000Y-77665000D03*
%TD*%
D10*
%TO.C,J7*%
X274935000Y-65665000D03*
D11*
X272395000Y-68205000D03*
X277475000Y-68205000D03*
X277475000Y-63125000D03*
X272395000Y-63125000D03*
%TD*%
D15*
%TO.C,U7*%
X117940000Y-116765000D03*
D16*
X120090000Y-115140000D03*
X120090000Y-115790000D03*
X120090000Y-116440000D03*
X120090000Y-117090000D03*
X120090000Y-117740000D03*
X120090000Y-118390000D03*
X115790000Y-118390000D03*
X115790000Y-117740000D03*
X115790000Y-117090000D03*
X115790000Y-116440000D03*
X115790000Y-115790000D03*
X115790000Y-115140000D03*
%TD*%
D17*
%TO.C,R9*%
X127482500Y-91850000D03*
X129307500Y-91850000D03*
%TD*%
D18*
%TO.C,VR1*%
X129065000Y-95650000D03*
X131605000Y-95650000D03*
X134145000Y-95650000D03*
%TD*%
D14*
%TO.C,C39*%
X194525000Y-63185000D03*
X192625000Y-63185000D03*
%TD*%
D15*
%TO.C,U2*%
X299665000Y-82525000D03*
D16*
X301815000Y-80900000D03*
X301815000Y-81550000D03*
X301815000Y-82200000D03*
X301815000Y-82850000D03*
X301815000Y-83500000D03*
X301815000Y-84150000D03*
X297515000Y-84150000D03*
X297515000Y-83500000D03*
X297515000Y-82850000D03*
X297515000Y-82200000D03*
X297515000Y-81550000D03*
X297515000Y-80900000D03*
%TD*%
D19*
%TO.C,C49*%
X159260000Y-68870000D03*
X159260000Y-70770000D03*
%TD*%
D13*
%TO.C,C10*%
X292890000Y-83450000D03*
X294790000Y-83450000D03*
%TD*%
D23*
%TO.C,U10*%
X303271000Y-127590000D03*
X303271000Y-128090000D03*
X303271000Y-128590000D03*
X303271000Y-129090000D03*
X303271000Y-129590000D03*
X303271000Y-130090000D03*
X303271000Y-130590000D03*
X303271000Y-131090000D03*
X303271000Y-131590000D03*
X303271000Y-132090000D03*
X303271000Y-132590000D03*
X303271000Y-133090000D03*
X303271000Y-133590000D03*
X303271000Y-134090000D03*
X303271000Y-134590000D03*
X303271000Y-135090000D03*
X303271000Y-135590000D03*
X303271000Y-136090000D03*
X303271000Y-136590000D03*
X303271000Y-137090000D03*
X303271000Y-137590000D03*
X303271000Y-138090000D03*
X303271000Y-138590000D03*
X303271000Y-139090000D03*
X295695000Y-139090000D03*
X295695000Y-138590000D03*
X295695000Y-138090000D03*
X295695000Y-137590000D03*
X295695000Y-137090000D03*
X295695000Y-136590000D03*
X295695000Y-136090000D03*
X295695000Y-135590000D03*
X295695000Y-135090000D03*
X295695000Y-134590000D03*
X295695000Y-134090000D03*
X295695000Y-133590000D03*
X295695000Y-133090000D03*
X295695000Y-132590000D03*
X295695000Y-132090000D03*
X295695000Y-131590000D03*
X295695000Y-131090000D03*
X295695000Y-130590000D03*
X295695000Y-130090000D03*
X295695000Y-129590000D03*
X295695000Y-129090000D03*
X295695000Y-128590000D03*
X295695000Y-128090000D03*
X295695000Y-127590000D03*
%TD*%
D12*
%TO.C,L3*%
X131971000Y-121160000D03*
X133599000Y-121160000D03*
%TD*%
D11*
%TO.C,J34*%
X136305000Y-51265000D03*
%TD*%
D14*
%TO.C,C12*%
X304590000Y-81450000D03*
X306490000Y-81450000D03*
%TD*%
D20*
%TO.C,J4*%
X316280000Y-83950000D03*
D21*
X313740000Y-83950000D03*
X311200000Y-83950000D03*
%TD*%
D11*
%TO.C,J5*%
X274645000Y-81965000D03*
%TD*%
D25*
%TO.C,C43*%
X139305000Y-55765000D03*
X139305000Y-53865000D03*
%TD*%
D14*
%TO.C,C28*%
X135945000Y-87650000D03*
X137845000Y-87650000D03*
%TD*%
D17*
%TO.C,R3*%
X257022500Y-77765000D03*
X258847500Y-77765000D03*
%TD*%
%TO.C,R2*%
X303727500Y-85950000D03*
X305552500Y-85950000D03*
%TD*%
D14*
%TO.C,C56*%
X307955000Y-145540000D03*
X306055000Y-145540000D03*
%TD*%
D13*
%TO.C,C54*%
X290615000Y-165970000D03*
X292515000Y-165970000D03*
%TD*%
D27*
%TO.C,D5*%
X133595000Y-91850000D03*
X132195000Y-91850000D03*
%TD*%
D21*
%TO.C,J28*%
X129095000Y-166435000D03*
X131635000Y-166435000D03*
D20*
X134175000Y-166435000D03*
%TD*%
%TO.C,J8*%
X277175000Y-75865000D03*
D21*
X274635000Y-75865000D03*
X272095000Y-75865000D03*
%TD*%
D17*
%TO.C,R6*%
X222422500Y-63040000D03*
X224247500Y-63040000D03*
%TD*%
D11*
%TO.C,J6*%
X268335000Y-81965000D03*
%TD*%
D18*
%TO.C,VR4*%
X191725000Y-69085000D03*
X189185000Y-69085000D03*
X186645000Y-69085000D03*
%TD*%
D13*
%TO.C,C14*%
X255685000Y-75275000D03*
X253785000Y-75275000D03*
%TD*%
D21*
%TO.C,J46*%
X331200000Y-190625000D03*
X328660000Y-190625000D03*
X331200000Y-188085000D03*
X328660000Y-188085000D03*
X331200000Y-185545000D03*
X328660000Y-185545000D03*
X331200000Y-183005000D03*
X328660000Y-183005000D03*
X331200000Y-180465000D03*
X328660000Y-180465000D03*
X331200000Y-177925000D03*
X328660000Y-177925000D03*
X331200000Y-175385000D03*
X328660000Y-175385000D03*
X331200000Y-172845000D03*
X328660000Y-172845000D03*
X331200000Y-170305000D03*
X328660000Y-170305000D03*
X331200000Y-167765000D03*
X328660000Y-167765000D03*
X331200000Y-165225000D03*
X328660000Y-165225000D03*
X331200000Y-162685000D03*
X328660000Y-162685000D03*
X331200000Y-160145000D03*
X328660000Y-160145000D03*
X331200000Y-157605000D03*
X328660000Y-157605000D03*
X331200000Y-155065000D03*
X328660000Y-155065000D03*
X331200000Y-152525000D03*
X328660000Y-152525000D03*
X331200000Y-149985000D03*
X328660000Y-149985000D03*
X331200000Y-147445000D03*
X328660000Y-147445000D03*
X331200000Y-144905000D03*
X328660000Y-144905000D03*
X331200000Y-142365000D03*
X328660000Y-142365000D03*
X331200000Y-139825000D03*
X328660000Y-139825000D03*
X331200000Y-137285000D03*
X328660000Y-137285000D03*
X331200000Y-134745000D03*
X328660000Y-134745000D03*
X331200000Y-132205000D03*
X328660000Y-132205000D03*
X331200000Y-129665000D03*
X328660000Y-129665000D03*
X331200000Y-127125000D03*
X328660000Y-127125000D03*
X331200000Y-124585000D03*
X328660000Y-124585000D03*
X331200000Y-122045000D03*
X328660000Y-122045000D03*
X331200000Y-119505000D03*
X328660000Y-119505000D03*
X331200000Y-116965000D03*
X328660000Y-116965000D03*
X331200000Y-114425000D03*
X328660000Y-114425000D03*
X331200000Y-111885000D03*
X328660000Y-111885000D03*
X331200000Y-109345000D03*
X328660000Y-109345000D03*
X331200000Y-106805000D03*
D20*
X328660000Y-106805000D03*
%TD*%
D12*
%TO.C,L1*%
X126841000Y-194810000D03*
X128469000Y-194810000D03*
%TD*%
D17*
%TO.C,R8*%
X118697500Y-193640000D03*
X116872500Y-193640000D03*
%TD*%
%TO.C,R1*%
X297952500Y-85850000D03*
X296127500Y-85850000D03*
%TD*%
D13*
%TO.C,C32*%
X110795000Y-165935000D03*
X112695000Y-165935000D03*
%TD*%
D28*
%TO.C,FID4*%
X207465000Y-199935000D03*
%TD*%
D13*
%TO.C,C50*%
X290885000Y-145540000D03*
X292785000Y-145540000D03*
%TD*%
%TO.C,C18*%
X213485000Y-60740000D03*
X211585000Y-60740000D03*
%TD*%
D14*
%TO.C,C60*%
X308225000Y-165970000D03*
X306325000Y-165970000D03*
%TD*%
D11*
%TO.C,J35*%
X136305000Y-64265000D03*
%TD*%
D22*
%TO.C,R13*%
X166385000Y-75820000D03*
X164560000Y-75820000D03*
%TD*%
D14*
%TO.C,C33*%
X123865000Y-117990000D03*
X121965000Y-117990000D03*
%TD*%
D17*
%TO.C,R11*%
X115857500Y-168335000D03*
X114032500Y-168335000D03*
%TD*%
%TO.C,R14*%
X282787500Y-119716199D03*
X284612500Y-119716199D03*
%TD*%
D13*
%TO.C,C22*%
X106035000Y-191340000D03*
X107935000Y-191340000D03*
%TD*%
D14*
%TO.C,C15*%
X264585000Y-75665000D03*
X266485000Y-75665000D03*
%TD*%
%TO.C,C36*%
X124395000Y-164135000D03*
X122495000Y-164135000D03*
%TD*%
D11*
%TO.C,J22*%
X125695000Y-124290000D03*
%TD*%
D14*
%TO.C,C23*%
X118735000Y-191640000D03*
X116835000Y-191640000D03*
%TD*%
%TO.C,C11*%
X303690000Y-83750000D03*
X305590000Y-83750000D03*
%TD*%
D10*
%TO.C,J3*%
X314040000Y-73750000D03*
D11*
X311500000Y-76290000D03*
X316580000Y-76290000D03*
X316580000Y-71210000D03*
X311500000Y-71210000D03*
%TD*%
D26*
%TO.C,J39*%
X149139989Y-198139136D03*
X145547887Y-194547034D03*
X149139989Y-190954932D03*
X152732091Y-194547034D03*
X149139989Y-194547034D03*
%TD*%
D27*
%TO.C,D4*%
X113985000Y-193740000D03*
X115385000Y-193740000D03*
%TD*%
D11*
%TO.C,J25*%
X129775000Y-105450000D03*
X134855000Y-105450000D03*
X134855000Y-110530000D03*
X129775000Y-110530000D03*
D10*
X132315000Y-107990000D03*
%TD*%
D11*
%TO.C,J10*%
X226135000Y-67340000D03*
%TD*%
D14*
%TO.C,C34*%
X123495000Y-166235000D03*
X121595000Y-166235000D03*
%TD*%
D13*
%TO.C,C17*%
X213485000Y-58340000D03*
X211585000Y-58340000D03*
%TD*%
D24*
%TO.C,H3*%
X113400000Y-220905000D03*
%TD*%
D13*
%TO.C,C55*%
X290670000Y-136110000D03*
X292570000Y-136110000D03*
%TD*%
D25*
%TO.C,C46*%
X146805000Y-55765000D03*
X146805000Y-53865000D03*
%TD*%
D13*
%TO.C,C37*%
X181825000Y-62885000D03*
X183725000Y-62885000D03*
%TD*%
D25*
%TO.C,C44*%
X141805000Y-55765000D03*
X141805000Y-53865000D03*
%TD*%
D19*
%TO.C,C47*%
X144305000Y-59765000D03*
X144305000Y-61665000D03*
%TD*%
D18*
%TO.C,VR3*%
X120695000Y-172135000D03*
X118155000Y-172135000D03*
X115615000Y-172135000D03*
%TD*%
D14*
%TO.C,C40*%
X195425000Y-61085000D03*
X193525000Y-61085000D03*
%TD*%
D20*
%TO.C,J12*%
X234970000Y-61240000D03*
D21*
X232430000Y-61240000D03*
X229890000Y-61240000D03*
%TD*%
D11*
%TO.C,J31*%
X200435000Y-50645000D03*
X205515000Y-50645000D03*
X205515000Y-55725000D03*
X200435000Y-55725000D03*
D10*
X202975000Y-53185000D03*
%TD*%
D24*
%TO.C,H4*%
X324400000Y-220905000D03*
%TD*%
D27*
%TO.C,D8*%
X189775000Y-65285000D03*
X191175000Y-65285000D03*
%TD*%
D14*
%TO.C,C57*%
X307955000Y-160470000D03*
X306055000Y-160470000D03*
%TD*%
D34*
%TO.C,R16*%
X199568312Y-142737000D03*
X201218312Y-142737000D03*
%TD*%
D14*
%TO.C,C19*%
X222385000Y-61040000D03*
X224285000Y-61040000D03*
%TD*%
D32*
%TO.C,S1*%
X171020000Y-216665000D03*
X171020000Y-225765000D03*
X166220000Y-216665000D03*
X166220000Y-225765000D03*
%TD*%
D18*
%TO.C,VR5*%
X166720000Y-71820000D03*
X169260000Y-71820000D03*
X171800000Y-71820000D03*
%TD*%
D14*
%TO.C,C16*%
X265485000Y-73565000D03*
X267385000Y-73565000D03*
%TD*%
D27*
%TO.C,D6*%
X119115000Y-120090000D03*
X120515000Y-120090000D03*
%TD*%
D10*
%TO.C,J33*%
X127625000Y-58015000D03*
D11*
X130165000Y-60555000D03*
X130165000Y-55475000D03*
X125085000Y-55475000D03*
X125085000Y-60555000D03*
%TD*%
D27*
%TO.C,D7*%
X118745000Y-168335000D03*
X120145000Y-168335000D03*
%TD*%
D13*
%TO.C,C9*%
X292890000Y-81050000D03*
X294790000Y-81050000D03*
%TD*%
D14*
%TO.C,C61*%
X308285000Y-136110000D03*
X306385000Y-136110000D03*
%TD*%
D21*
%TO.C,J32*%
X200125000Y-63385000D03*
X202665000Y-63385000D03*
D20*
X205205000Y-63385000D03*
%TD*%
D11*
%TO.C,J30*%
X196355000Y-69485000D03*
%TD*%
M02*
